<?xml version="1.0" encoding="UTF-8"?>
<svg xmlns="http://www.w3.org/2000/svg" width="1920" height="1080" viewBox="0 0 1920 1080">
  <defs>
    <linearGradient id="g1" x1="0%" y1="0%" x2="100%" y2="100%">
      <stop offset="0%" stop-color="#141414"/>
      <stop offset="100%" stop-color="#2b2b2b"/>
    </linearGradient>
    <linearGradient id="l1" x1="0%" y1="0%" x2="0%" y2="100%">
      <stop offset="0%" stop-color="#000" stop-opacity="0"/>
      <stop offset="100%" stop-color="#000" stop-opacity="0.55"/>
    </linearGradient>
  </defs>
  <rect width="1920" height="1080" fill="url(#g1)"/>
  <circle cx="482.3" cy="589.0" r="0.68" fill="#f4f3ef" opacity="0.077"/><circle cx="1470.2" cy="136.9" r="1.47" fill="#f4f3ef" opacity="0.062"/><circle cx="1478.3" cy="560.3" r="1.30" fill="#f4f3ef" opacity="0.061"/><circle cx="411.9" cy="446.0" r="0.62" fill="#f4f3ef" opacity="0.044"/><circle cx="24.9" cy="20.6" r="0.92" fill="#f4f3ef" opacity="0.080"/><circle cx="507.1" cy="1030.7" r="1.31" fill="#f4f3ef" opacity="0.047"/><circle cx="270.3" cy="863.1" r="1.60" fill="#f4f3ef" opacity="0.049"/><circle cx="855.3" cy="344.3" r="0.79" fill="#f4f3ef" opacity="0.029"/><circle cx="1598.2" cy="381.1" r="0.64" fill="#f4f3ef" opacity="0.077"/><circle cx="1337.7" cy="400.1" r="0.34" fill="#f4f3ef" opacity="0.072"/><circle cx="1401.1" cy="748.0" r="0.61" fill="#f4f3ef" opacity="0.069"/><circle cx="271.5" cy="411.5" r="0.23" fill="#f4f3ef" opacity="0.072"/><circle cx="1053.9" cy="857.2" r="0.59" fill="#f4f3ef" opacity="0.033"/><circle cx="1022.6" cy="871.8" r="1.31" fill="#f4f3ef" opacity="0.059"/><circle cx="1647.0" cy="761.9" r="1.02" fill="#f4f3ef" opacity="0.071"/><circle cx="699.1" cy="794.2" r="0.48" fill="#f4f3ef" opacity="0.031"/><circle cx="999.6" cy="355.5" r="1.03" fill="#f4f3ef" opacity="0.042"/><circle cx="1244.7" cy="1072.3" r="1.13" fill="#f4f3ef" opacity="0.055"/><circle cx="1553.1" cy="931.3" r="0.94" fill="#f4f3ef" opacity="0.047"/><circle cx="692.1" cy="999.2" r="0.69" fill="#f4f3ef" opacity="0.055"/><circle cx="344.7" cy="982.7" r="1.51" fill="#f4f3ef" opacity="0.063"/><circle cx="1056.0" cy="908.3" r="1.50" fill="#f4f3ef" opacity="0.061"/><circle cx="1380.2" cy="282.9" r="1.24" fill="#f4f3ef" opacity="0.079"/><circle cx="226.8" cy="133.1" r="0.27" fill="#f4f3ef" opacity="0.075"/><circle cx="487.8" cy="365.4" r="0.30" fill="#f4f3ef" opacity="0.053"/><circle cx="503.9" cy="6.6" r="0.80" fill="#f4f3ef" opacity="0.034"/><circle cx="251.2" cy="323.4" r="1.16" fill="#f4f3ef" opacity="0.072"/><circle cx="1128.5" cy="22.5" r="1.07" fill="#f4f3ef" opacity="0.062"/><circle cx="1263.1" cy="890.4" r="0.30" fill="#f4f3ef" opacity="0.021"/><circle cx="1697.9" cy="113.8" r="0.91" fill="#f4f3ef" opacity="0.033"/><circle cx="418.1" cy="599.5" r="0.55" fill="#f4f3ef" opacity="0.070"/><circle cx="1097.8" cy="414.1" r="0.69" fill="#f4f3ef" opacity="0.079"/><circle cx="86.7" cy="224.2" r="0.45" fill="#f4f3ef" opacity="0.059"/><circle cx="1556.6" cy="656.6" r="1.06" fill="#f4f3ef" opacity="0.055"/><circle cx="1288.1" cy="377.8" r="1.50" fill="#f4f3ef" opacity="0.067"/><circle cx="537.8" cy="294.6" r="0.72" fill="#f4f3ef" opacity="0.069"/><circle cx="63.9" cy="913.6" r="0.74" fill="#f4f3ef" opacity="0.057"/><circle cx="1194.0" cy="421.5" r="0.85" fill="#f4f3ef" opacity="0.027"/><circle cx="491.0" cy="1045.0" r="1.25" fill="#f4f3ef" opacity="0.044"/><circle cx="1060.2" cy="1010.7" r="0.52" fill="#f4f3ef" opacity="0.058"/><circle cx="175.5" cy="185.3" r="1.08" fill="#f4f3ef" opacity="0.058"/><circle cx="1226.6" cy="1035.4" r="1.57" fill="#f4f3ef" opacity="0.023"/><circle cx="65.3" cy="587.7" r="1.34" fill="#f4f3ef" opacity="0.036"/><circle cx="1432.4" cy="389.0" r="0.33" fill="#f4f3ef" opacity="0.020"/><circle cx="184.3" cy="985.8" r="1.22" fill="#f4f3ef" opacity="0.046"/><circle cx="279.3" cy="364.8" r="1.33" fill="#f4f3ef" opacity="0.033"/><circle cx="485.0" cy="672.7" r="0.93" fill="#f4f3ef" opacity="0.073"/><circle cx="564.2" cy="536.2" r="1.12" fill="#f4f3ef" opacity="0.034"/><circle cx="1062.2" cy="1061.8" r="1.43" fill="#f4f3ef" opacity="0.026"/><circle cx="533.1" cy="676.4" r="1.01" fill="#f4f3ef" opacity="0.078"/><circle cx="1726.4" cy="406.6" r="0.82" fill="#f4f3ef" opacity="0.027"/><circle cx="1774.0" cy="158.9" r="1.16" fill="#f4f3ef" opacity="0.058"/><circle cx="936.7" cy="40.1" r="1.50" fill="#f4f3ef" opacity="0.073"/><circle cx="1110.8" cy="236.9" r="1.24" fill="#f4f3ef" opacity="0.064"/><circle cx="1774.7" cy="536.0" r="1.47" fill="#f4f3ef" opacity="0.048"/><circle cx="1056.0" cy="563.9" r="0.54" fill="#f4f3ef" opacity="0.039"/><circle cx="1917.4" cy="747.3" r="0.53" fill="#f4f3ef" opacity="0.065"/><circle cx="424.3" cy="753.0" r="0.47" fill="#f4f3ef" opacity="0.035"/><circle cx="250.7" cy="807.6" r="0.46" fill="#f4f3ef" opacity="0.077"/><circle cx="1586.3" cy="497.7" r="1.00" fill="#f4f3ef" opacity="0.071"/><circle cx="922.8" cy="450.1" r="0.52" fill="#f4f3ef" opacity="0.060"/><circle cx="1721.0" cy="411.3" r="0.80" fill="#f4f3ef" opacity="0.046"/><circle cx="1397.3" cy="208.1" r="0.80" fill="#f4f3ef" opacity="0.061"/><circle cx="710.1" cy="347.1" r="1.13" fill="#f4f3ef" opacity="0.043"/><circle cx="986.9" cy="95.0" r="1.09" fill="#f4f3ef" opacity="0.046"/><circle cx="710.6" cy="598.5" r="0.87" fill="#f4f3ef" opacity="0.076"/><circle cx="1066.4" cy="84.2" r="0.45" fill="#f4f3ef" opacity="0.023"/><circle cx="1248.3" cy="578.8" r="0.85" fill="#f4f3ef" opacity="0.057"/><circle cx="806.1" cy="228.9" r="0.72" fill="#f4f3ef" opacity="0.035"/><circle cx="1351.5" cy="381.2" r="0.80" fill="#f4f3ef" opacity="0.042"/><circle cx="1865.3" cy="422.5" r="1.04" fill="#f4f3ef" opacity="0.059"/><circle cx="1043.8" cy="899.3" r="1.30" fill="#f4f3ef" opacity="0.038"/><circle cx="925.5" cy="878.3" r="0.33" fill="#f4f3ef" opacity="0.078"/><circle cx="277.9" cy="346.2" r="1.17" fill="#f4f3ef" opacity="0.032"/><circle cx="783.8" cy="89.7" r="0.74" fill="#f4f3ef" opacity="0.066"/><circle cx="1068.5" cy="135.3" r="1.36" fill="#f4f3ef" opacity="0.052"/><circle cx="1606.0" cy="1069.9" r="0.78" fill="#f4f3ef" opacity="0.076"/><circle cx="1306.0" cy="680.1" r="1.37" fill="#f4f3ef" opacity="0.039"/><circle cx="1140.3" cy="1032.4" r="0.62" fill="#f4f3ef" opacity="0.063"/><circle cx="1369.6" cy="73.6" r="0.80" fill="#f4f3ef" opacity="0.051"/><circle cx="50.4" cy="150.4" r="1.33" fill="#f4f3ef" opacity="0.056"/><circle cx="501.0" cy="1049.5" r="0.46" fill="#f4f3ef" opacity="0.033"/><circle cx="848.8" cy="237.4" r="0.78" fill="#f4f3ef" opacity="0.058"/><circle cx="217.0" cy="300.8" r="1.54" fill="#f4f3ef" opacity="0.037"/><circle cx="430.5" cy="906.5" r="0.40" fill="#f4f3ef" opacity="0.060"/><circle cx="1323.6" cy="121.1" r="0.24" fill="#f4f3ef" opacity="0.076"/><circle cx="1165.8" cy="771.2" r="1.55" fill="#f4f3ef" opacity="0.023"/><circle cx="289.0" cy="243.6" r="1.38" fill="#f4f3ef" opacity="0.065"/><circle cx="233.9" cy="444.8" r="1.51" fill="#f4f3ef" opacity="0.024"/><circle cx="336.9" cy="121.6" r="0.89" fill="#f4f3ef" opacity="0.053"/><circle cx="1356.4" cy="860.6" r="1.52" fill="#f4f3ef" opacity="0.028"/><circle cx="779.8" cy="848.5" r="1.33" fill="#f4f3ef" opacity="0.064"/><circle cx="930.2" cy="152.0" r="0.48" fill="#f4f3ef" opacity="0.048"/><circle cx="1072.6" cy="237.7" r="0.38" fill="#f4f3ef" opacity="0.048"/><circle cx="401.2" cy="972.3" r="0.63" fill="#f4f3ef" opacity="0.055"/><circle cx="385.7" cy="502.4" r="1.27" fill="#f4f3ef" opacity="0.047"/><circle cx="717.7" cy="174.7" r="0.26" fill="#f4f3ef" opacity="0.047"/><circle cx="378.2" cy="456.0" r="0.34" fill="#f4f3ef" opacity="0.037"/><circle cx="1903.4" cy="812.8" r="1.38" fill="#f4f3ef" opacity="0.030"/><circle cx="1571.8" cy="311.8" r="0.72" fill="#f4f3ef" opacity="0.063"/><circle cx="70.8" cy="19.7" r="1.40" fill="#f4f3ef" opacity="0.050"/><circle cx="1003.3" cy="723.2" r="0.35" fill="#f4f3ef" opacity="0.038"/><circle cx="1074.7" cy="288.8" r="1.28" fill="#f4f3ef" opacity="0.077"/><circle cx="758.9" cy="383.4" r="0.55" fill="#f4f3ef" opacity="0.075"/><circle cx="885.5" cy="953.6" r="0.52" fill="#f4f3ef" opacity="0.051"/><circle cx="506.5" cy="825.9" r="1.48" fill="#f4f3ef" opacity="0.069"/><circle cx="1802.5" cy="107.1" r="1.51" fill="#f4f3ef" opacity="0.030"/><circle cx="909.9" cy="63.9" r="1.41" fill="#f4f3ef" opacity="0.047"/><circle cx="1147.2" cy="483.0" r="0.85" fill="#f4f3ef" opacity="0.078"/><circle cx="641.7" cy="990.9" r="1.02" fill="#f4f3ef" opacity="0.076"/><circle cx="436.5" cy="934.3" r="1.16" fill="#f4f3ef" opacity="0.069"/><circle cx="436.8" cy="1060.0" r="0.33" fill="#f4f3ef" opacity="0.025"/><circle cx="476.5" cy="514.6" r="1.41" fill="#f4f3ef" opacity="0.074"/><circle cx="745.4" cy="1044.7" r="0.70" fill="#f4f3ef" opacity="0.035"/><circle cx="1575.2" cy="37.1" r="0.84" fill="#f4f3ef" opacity="0.070"/><circle cx="666.8" cy="478.3" r="0.81" fill="#f4f3ef" opacity="0.063"/><circle cx="1196.4" cy="35.1" r="0.97" fill="#f4f3ef" opacity="0.045"/><circle cx="82.6" cy="294.1" r="0.52" fill="#f4f3ef" opacity="0.073"/><circle cx="572.7" cy="522.0" r="1.56" fill="#f4f3ef" opacity="0.023"/><circle cx="1149.7" cy="785.5" r="1.50" fill="#f4f3ef" opacity="0.079"/><circle cx="1078.8" cy="391.2" r="0.30" fill="#f4f3ef" opacity="0.074"/><circle cx="1474.1" cy="285.8" r="0.40" fill="#f4f3ef" opacity="0.054"/><circle cx="1885.2" cy="775.9" r="0.42" fill="#f4f3ef" opacity="0.058"/><circle cx="84.0" cy="1048.2" r="1.12" fill="#f4f3ef" opacity="0.052"/><circle cx="811.1" cy="489.5" r="1.05" fill="#f4f3ef" opacity="0.076"/><circle cx="842.9" cy="726.3" r="1.46" fill="#f4f3ef" opacity="0.022"/><circle cx="298.0" cy="825.3" r="1.12" fill="#f4f3ef" opacity="0.048"/><circle cx="1783.7" cy="773.2" r="0.24" fill="#f4f3ef" opacity="0.069"/><circle cx="1222.9" cy="276.7" r="1.37" fill="#f4f3ef" opacity="0.070"/><circle cx="1080.9" cy="442.3" r="1.21" fill="#f4f3ef" opacity="0.042"/><circle cx="1831.8" cy="776.9" r="0.32" fill="#f4f3ef" opacity="0.073"/><circle cx="465.1" cy="147.1" r="1.07" fill="#f4f3ef" opacity="0.062"/><circle cx="1792.7" cy="619.4" r="0.94" fill="#f4f3ef" opacity="0.074"/><circle cx="315.4" cy="140.6" r="0.81" fill="#f4f3ef" opacity="0.068"/><circle cx="1769.5" cy="1057.4" r="1.49" fill="#f4f3ef" opacity="0.039"/><circle cx="1793.4" cy="996.5" r="1.25" fill="#f4f3ef" opacity="0.063"/><circle cx="434.6" cy="664.4" r="1.26" fill="#f4f3ef" opacity="0.035"/><circle cx="656.1" cy="487.8" r="0.77" fill="#f4f3ef" opacity="0.041"/><circle cx="443.0" cy="133.5" r="0.25" fill="#f4f3ef" opacity="0.050"/><circle cx="1549.4" cy="908.1" r="1.18" fill="#f4f3ef" opacity="0.073"/><circle cx="324.9" cy="238.2" r="1.25" fill="#f4f3ef" opacity="0.046"/><circle cx="941.4" cy="910.6" r="0.30" fill="#f4f3ef" opacity="0.075"/><circle cx="1099.7" cy="511.8" r="1.52" fill="#f4f3ef" opacity="0.041"/><circle cx="136.0" cy="1028.6" r="1.05" fill="#f4f3ef" opacity="0.037"/><circle cx="728.8" cy="807.6" r="0.91" fill="#f4f3ef" opacity="0.058"/><circle cx="365.6" cy="195.5" r="0.40" fill="#f4f3ef" opacity="0.041"/><circle cx="1369.3" cy="339.0" r="1.11" fill="#f4f3ef" opacity="0.051"/><circle cx="1085.1" cy="544.7" r="0.23" fill="#f4f3ef" opacity="0.039"/><circle cx="627.0" cy="679.3" r="1.57" fill="#f4f3ef" opacity="0.052"/><circle cx="1464.8" cy="1049.4" r="0.97" fill="#f4f3ef" opacity="0.070"/><circle cx="1370.2" cy="841.7" r="0.58" fill="#f4f3ef" opacity="0.057"/><circle cx="1244.0" cy="523.0" r="0.35" fill="#f4f3ef" opacity="0.054"/><circle cx="1702.5" cy="639.8" r="1.55" fill="#f4f3ef" opacity="0.074"/><circle cx="944.2" cy="258.8" r="1.51" fill="#f4f3ef" opacity="0.033"/><circle cx="1576.5" cy="446.7" r="0.48" fill="#f4f3ef" opacity="0.027"/><circle cx="1442.5" cy="910.2" r="0.98" fill="#f4f3ef" opacity="0.042"/><circle cx="1087.1" cy="595.8" r="1.14" fill="#f4f3ef" opacity="0.067"/><circle cx="984.6" cy="90.4" r="1.49" fill="#f4f3ef" opacity="0.072"/><circle cx="44.6" cy="420.6" r="0.22" fill="#f4f3ef" opacity="0.074"/><circle cx="1158.9" cy="412.9" r="0.40" fill="#f4f3ef" opacity="0.079"/><circle cx="748.3" cy="174.1" r="1.52" fill="#f4f3ef" opacity="0.047"/><circle cx="709.0" cy="970.9" r="1.57" fill="#f4f3ef" opacity="0.031"/><circle cx="519.6" cy="430.0" r="0.24" fill="#f4f3ef" opacity="0.048"/><circle cx="227.5" cy="337.9" r="1.49" fill="#f4f3ef" opacity="0.054"/><circle cx="875.6" cy="41.3" r="0.39" fill="#f4f3ef" opacity="0.072"/><circle cx="449.2" cy="287.0" r="1.58" fill="#f4f3ef" opacity="0.076"/><circle cx="702.3" cy="221.6" r="0.95" fill="#f4f3ef" opacity="0.071"/><circle cx="1824.5" cy="511.7" r="0.40" fill="#f4f3ef" opacity="0.058"/><circle cx="307.7" cy="704.1" r="1.16" fill="#f4f3ef" opacity="0.021"/><circle cx="1532.6" cy="545.3" r="0.82" fill="#f4f3ef" opacity="0.080"/><circle cx="995.5" cy="942.1" r="1.13" fill="#f4f3ef" opacity="0.028"/><circle cx="1375.0" cy="241.1" r="1.30" fill="#f4f3ef" opacity="0.043"/><circle cx="158.5" cy="949.0" r="0.64" fill="#f4f3ef" opacity="0.060"/><circle cx="1588.8" cy="972.5" r="0.73" fill="#f4f3ef" opacity="0.023"/><circle cx="1091.3" cy="698.2" r="1.56" fill="#f4f3ef" opacity="0.064"/><circle cx="1699.9" cy="1072.8" r="1.34" fill="#f4f3ef" opacity="0.051"/><circle cx="1044.3" cy="242.9" r="1.52" fill="#f4f3ef" opacity="0.022"/><circle cx="736.4" cy="635.2" r="1.44" fill="#f4f3ef" opacity="0.062"/><circle cx="1676.9" cy="556.5" r="1.05" fill="#f4f3ef" opacity="0.033"/><circle cx="642.1" cy="553.3" r="0.23" fill="#f4f3ef" opacity="0.066"/><circle cx="1590.4" cy="772.3" r="0.50" fill="#f4f3ef" opacity="0.079"/><circle cx="1369.4" cy="120.2" r="0.72" fill="#f4f3ef" opacity="0.046"/><circle cx="1662.0" cy="463.7" r="0.60" fill="#f4f3ef" opacity="0.074"/><circle cx="1093.3" cy="749.3" r="1.06" fill="#f4f3ef" opacity="0.032"/><circle cx="137.5" cy="483.9" r="1.26" fill="#f4f3ef" opacity="0.070"/><circle cx="1544.2" cy="694.1" r="0.77" fill="#f4f3ef" opacity="0.026"/><circle cx="525.2" cy="206.4" r="1.26" fill="#f4f3ef" opacity="0.024"/><circle cx="1181.2" cy="207.6" r="0.82" fill="#f4f3ef" opacity="0.026"/><circle cx="1568.6" cy="884.4" r="0.26" fill="#f4f3ef" opacity="0.023"/><circle cx="1165.8" cy="943.5" r="0.63" fill="#f4f3ef" opacity="0.034"/><circle cx="20.4" cy="11.4" r="0.33" fill="#f4f3ef" opacity="0.072"/><circle cx="1095.2" cy="674.8" r="1.41" fill="#f4f3ef" opacity="0.044"/><circle cx="455.4" cy="440.5" r="1.51" fill="#f4f3ef" opacity="0.041"/><circle cx="1775.2" cy="615.1" r="0.72" fill="#f4f3ef" opacity="0.070"/><circle cx="1404.0" cy="785.2" r="0.95" fill="#f4f3ef" opacity="0.070"/><circle cx="1593.9" cy="497.6" r="0.62" fill="#f4f3ef" opacity="0.026"/><circle cx="45.5" cy="578.8" r="1.52" fill="#f4f3ef" opacity="0.058"/><circle cx="1855.1" cy="855.6" r="1.22" fill="#f4f3ef" opacity="0.020"/><circle cx="101.3" cy="754.6" r="0.30" fill="#f4f3ef" opacity="0.029"/><circle cx="1871.4" cy="622.5" r="0.88" fill="#f4f3ef" opacity="0.078"/><circle cx="1808.4" cy="526.0" r="0.34" fill="#f4f3ef" opacity="0.055"/><circle cx="1097.5" cy="851.7" r="1.48" fill="#f4f3ef" opacity="0.029"/><circle cx="852.8" cy="386.3" r="1.11" fill="#f4f3ef" opacity="0.049"/><circle cx="623.9" cy="516.4" r="0.66" fill="#f4f3ef" opacity="0.034"/><circle cx="102.6" cy="428.7" r="0.90" fill="#f4f3ef" opacity="0.068"/><circle cx="189.8" cy="590.0" r="0.36" fill="#f4f3ef" opacity="0.071"/><circle cx="1501.6" cy="466.8" r="0.31" fill="#f4f3ef" opacity="0.058"/><circle cx="316.7" cy="205.8" r="0.90" fill="#f4f3ef" opacity="0.064"/><circle cx="1162.3" cy="873.7" r="0.96" fill="#f4f3ef" opacity="0.064"/><circle cx="1881.6" cy="17.2" r="0.22" fill="#f4f3ef" opacity="0.046"/><circle cx="1099.6" cy="902.8" r="0.99" fill="#f4f3ef" opacity="0.058"/><circle cx="1210.4" cy="877.4" r="1.03" fill="#f4f3ef" opacity="0.069"/><circle cx="1123.7" cy="967.6" r="1.31" fill="#f4f3ef" opacity="0.038"/><circle cx="1811.4" cy="1079.9" r="0.72" fill="#f4f3ef" opacity="0.029"/><circle cx="1614.1" cy="241.1" r="1.53" fill="#f4f3ef" opacity="0.064"/><circle cx="508.1" cy="797.9" r="0.34" fill="#f4f3ef" opacity="0.075"/><circle cx="1812.1" cy="377.0" r="1.03" fill="#f4f3ef" opacity="0.079"/><circle cx="1733.3" cy="764.9" r="0.57" fill="#f4f3ef" opacity="0.031"/><circle cx="1314.7" cy="228.3" r="1.02" fill="#f4f3ef" opacity="0.076"/><circle cx="461.6" cy="594.0" r="1.43" fill="#f4f3ef" opacity="0.066"/><circle cx="928.0" cy="1008.6" r="0.49" fill="#f4f3ef" opacity="0.068"/><circle cx="983.6" cy="1058.7" r="1.50" fill="#f4f3ef" opacity="0.022"/><circle cx="960.1" cy="291.1" r="1.48" fill="#f4f3ef" opacity="0.031"/><circle cx="478.4" cy="612.3" r="0.83" fill="#f4f3ef" opacity="0.037"/><circle cx="794.7" cy="769.1" r="1.30" fill="#f4f3ef" opacity="0.072"/><circle cx="747.5" cy="188.1" r="0.69" fill="#f4f3ef" opacity="0.074"/><circle cx="1664.2" cy="296.0" r="1.11" fill="#f4f3ef" opacity="0.037"/><circle cx="107.9" cy="79.5" r="1.36" fill="#f4f3ef" opacity="0.027"/><circle cx="1103.7" cy="1005.2" r="1.41" fill="#f4f3ef" opacity="0.054"/><circle cx="5.7" cy="779.8" r="0.88" fill="#f4f3ef" opacity="0.048"/><circle cx="203.4" cy="789.9" r="1.21" fill="#f4f3ef" opacity="0.046"/><circle cx="1388.9" cy="222.2" r="0.36" fill="#f4f3ef" opacity="0.073"/><circle cx="622.7" cy="623.5" r="1.06" fill="#f4f3ef" opacity="0.050"/><circle cx="441.2" cy="380.3" r="0.39" fill="#f4f3ef" opacity="0.049"/><circle cx="962.9" cy="719.3" r="1.29" fill="#f4f3ef" opacity="0.049"/><circle cx="955.2" cy="547.2" r="1.19" fill="#f4f3ef" opacity="0.023"/><circle cx="181.1" cy="650.7" r="1.23" fill="#f4f3ef" opacity="0.077"/><circle cx="1105.8" cy="1056.3" r="0.92" fill="#f4f3ef" opacity="0.023"/><circle cx="363.3" cy="190.9" r="0.81" fill="#f4f3ef" opacity="0.067"/><circle cx="703.3" cy="161.1" r="0.46" fill="#f4f3ef" opacity="0.050"/><circle cx="1177.6" cy="873.4" r="1.58" fill="#f4f3ef" opacity="0.035"/><circle cx="127.0" cy="274.6" r="0.83" fill="#f4f3ef" opacity="0.043"/><circle cx="1367.7" cy="711.4" r="0.42" fill="#f4f3ef" opacity="0.067"/><circle cx="538.3" cy="890.5" r="1.42" fill="#f4f3ef" opacity="0.064"/><circle cx="1526.2" cy="438.4" r="0.81" fill="#f4f3ef" opacity="0.049"/><circle cx="1534.3" cy="861.8" r="0.64" fill="#f4f3ef" opacity="0.048"/><circle cx="467.9" cy="747.5" r="1.36" fill="#f4f3ef" opacity="0.031"/><circle cx="80.9" cy="322.1" r="0.26" fill="#f4f3ef" opacity="0.067"/><circle cx="563.1" cy="252.2" r="0.65" fill="#f4f3ef" opacity="0.034"/><circle cx="326.3" cy="84.6" r="0.94" fill="#f4f3ef" opacity="0.036"/><circle cx="911.3" cy="645.8" r="1.53" fill="#f4f3ef" opacity="0.075"/><circle cx="1654.2" cy="682.6" r="1.38" fill="#f4f3ef" opacity="0.064"/><circle cx="1393.7" cy="701.6" r="1.08" fill="#f4f3ef" opacity="0.059"/><circle cx="1457.1" cy="1049.5" r="1.35" fill="#f4f3ef" opacity="0.055"/><circle cx="327.5" cy="713.0" r="0.98" fill="#f4f3ef" opacity="0.059"/><circle cx="1109.9" cy="78.7" r="1.34" fill="#f4f3ef" opacity="0.080"/><circle cx="1078.6" cy="93.3" r="0.65" fill="#f4f3ef" opacity="0.046"/><circle cx="1703.0" cy="1063.4" r="0.36" fill="#f4f3ef" opacity="0.058"/><circle cx="755.1" cy="15.7" r="1.22" fill="#f4f3ef" opacity="0.078"/><circle cx="1055.6" cy="657.0" r="0.37" fill="#f4f3ef" opacity="0.028"/><circle cx="1300.7" cy="293.8" r="0.48" fill="#f4f3ef" opacity="0.041"/><circle cx="1609.1" cy="152.8" r="0.28" fill="#f4f3ef" opacity="0.034"/><circle cx="748.1" cy="220.7" r="1.43" fill="#f4f3ef" opacity="0.041"/><circle cx="400.7" cy="204.2" r="0.85" fill="#f4f3ef" opacity="0.049"/><circle cx="1112.0" cy="129.8" r="0.84" fill="#f4f3ef" opacity="0.048"/><circle cx="1436.2" cy="584.4" r="0.58" fill="#f4f3ef" opacity="0.066"/><circle cx="282.8" cy="434.6" r="1.01" fill="#f4f3ef" opacity="0.062"/><circle cx="543.8" cy="666.9" r="1.04" fill="#f4f3ef" opacity="0.040"/><circle cx="559.9" cy="308.1" r="1.54" fill="#f4f3ef" opacity="0.021"/><circle cx="307.2" cy="624.9" r="0.50" fill="#f4f3ef" opacity="0.059"/><circle cx="1184.5" cy="324.0" r="0.41" fill="#f4f3ef" opacity="0.049"/><circle cx="1319.1" cy="111.9" r="1.04" fill="#f4f3ef" opacity="0.068"/><circle cx="1753.9" cy="415.3" r="0.25" fill="#f4f3ef" opacity="0.080"/><circle cx="474.1" cy="901.0" r="1.29" fill="#f4f3ef" opacity="0.056"/><circle cx="1153.8" cy="715.6" r="1.43" fill="#f4f3ef" opacity="0.065"/><circle cx="142.7" cy="525.7" r="1.19" fill="#f4f3ef" opacity="0.046"/><circle cx="1612.6" cy="958.1" r="0.40" fill="#f4f3ef" opacity="0.041"/><circle cx="1344.1" cy="679.3" r="0.84" fill="#f4f3ef" opacity="0.054"/><circle cx="593.8" cy="596.1" r="1.46" fill="#f4f3ef" opacity="0.056"/><circle cx="119.9" cy="135.1" r="1.48" fill="#f4f3ef" opacity="0.044"/><circle cx="1250.0" cy="723.0" r="1.59" fill="#f4f3ef" opacity="0.074"/><circle cx="547.0" cy="266.5" r="0.59" fill="#f4f3ef" opacity="0.031"/><circle cx="1116.2" cy="232.2" r="1.26" fill="#f4f3ef" opacity="0.045"/><circle cx="231.5" cy="486.8" r="0.42" fill="#f4f3ef" opacity="0.045"/><circle cx="1282.6" cy="256.9" r="0.91" fill="#f4f3ef" opacity="0.070"/><circle cx="121.3" cy="889.2" r="0.68" fill="#f4f3ef" opacity="0.023"/><circle cx="1488.4" cy="690.5" r="1.07" fill="#f4f3ef" opacity="0.067"/><circle cx="240.3" cy="207.3" r="0.56" fill="#f4f3ef" opacity="0.033"/><circle cx="335.3" cy="666.3" r="0.68" fill="#f4f3ef" opacity="0.079"/><circle cx="541.0" cy="974.2" r="0.27" fill="#f4f3ef" opacity="0.060"/><circle cx="620.2" cy="837.7" r="0.46" fill="#f4f3ef" opacity="0.021"/><circle cx="1118.2" cy="283.3" r="0.77" fill="#f4f3ef" opacity="0.073"/><circle cx="589.1" cy="977.9" r="0.35" fill="#f4f3ef" opacity="0.064"/><circle cx="1782.4" cy="708.1" r="1.56" fill="#f4f3ef" opacity="0.074"/><circle cx="1830.0" cy="460.4" r="0.50" fill="#f4f3ef" opacity="0.045"/><circle cx="992.7" cy="341.6" r="0.84" fill="#f4f3ef" opacity="0.060"/><circle cx="1166.8" cy="538.4" r="0.58" fill="#f4f3ef" opacity="0.050"/><circle cx="1830.7" cy="837.5" r="0.81" fill="#f4f3ef" opacity="0.034"/><circle cx="1112.0" cy="865.4" r="1.28" fill="#f4f3ef" opacity="0.026"/><circle cx="53.4" cy="1048.8" r="1.27" fill="#f4f3ef" opacity="0.052"/><circle cx="480.3" cy="1054.5" r="1.21" fill="#f4f3ef" opacity="0.022"/><circle cx="306.7" cy="29.1" r="1.21" fill="#f4f3ef" opacity="0.064"/><circle cx="1642.3" cy="799.2" r="0.34" fill="#f4f3ef" opacity="0.058"/><circle cx="978.8" cy="751.6" r="1.26" fill="#f4f3ef" opacity="0.047"/><circle cx="1777.0" cy="712.8" r="1.54" fill="#f4f3ef" opacity="0.033"/><circle cx="1453.3" cy="509.6" r="1.55" fill="#f4f3ef" opacity="0.048"/><circle cx="766.1" cy="648.6" r="0.47" fill="#f4f3ef" opacity="0.029"/><circle cx="1042.9" cy="396.5" r="0.43" fill="#f4f3ef" opacity="0.032"/><circle cx="766.6" cy="900.0" r="0.21" fill="#f4f3ef" opacity="0.062"/><circle cx="1122.4" cy="385.7" r="1.19" fill="#f4f3ef" opacity="0.070"/><circle cx="1304.3" cy="880.3" r="1.60" fill="#f4f3ef" opacity="0.043"/><circle cx="862.1" cy="530.4" r="1.46" fill="#f4f3ef" opacity="0.022"/><circle cx="1407.5" cy="682.7" r="1.54" fill="#f4f3ef" opacity="0.028"/><circle cx="1.3" cy="724.0" r="0.38" fill="#f4f3ef" opacity="0.045"/><circle cx="1099.8" cy="120.8" r="0.64" fill="#f4f3ef" opacity="0.025"/><circle cx="981.5" cy="99.8" r="1.07" fill="#f4f3ef" opacity="0.064"/><circle cx="333.9" cy="647.7" r="0.51" fill="#f4f3ef" opacity="0.079"/><circle cx="839.8" cy="391.2" r="1.48" fill="#f4f3ef" opacity="0.053"/><circle cx="1124.5" cy="436.8" r="0.70" fill="#f4f3ef" opacity="0.038"/><circle cx="1662.0" cy="291.4" r="1.52" fill="#f4f3ef" opacity="0.063"/><circle cx="1362.0" cy="981.6" r="0.71" fill="#f4f3ef" opacity="0.025"/><circle cx="1196.3" cy="253.9" r="1.36" fill="#f4f3ef" opacity="0.050"/><circle cx="1425.6" cy="375.1" r="1.55" fill="#f4f3ef" opacity="0.038"/><circle cx="106.4" cy="451.9" r="0.67" fill="#f4f3ef" opacity="0.042"/><circle cx="557.0" cy="271.0" r="1.20" fill="#f4f3ef" opacity="0.080"/><circle cx="904.8" cy="538.9" r="1.52" fill="#f4f3ef" opacity="0.045"/><circle cx="273.0" cy="602.3" r="0.88" fill="#f4f3ef" opacity="0.024"/><circle cx="486.5" cy="128.0" r="1.14" fill="#f4f3ef" opacity="0.047"/><circle cx="1379.6" cy="422.6" r="0.98" fill="#f4f3ef" opacity="0.062"/><circle cx="1221.8" cy="1072.7" r="0.89" fill="#f4f3ef" opacity="0.069"/><circle cx="345.0" cy="545.1" r="0.72" fill="#f4f3ef" opacity="0.052"/><circle cx="289.9" cy="746.3" r="0.85" fill="#f4f3ef" opacity="0.071"/><circle cx="392.9" cy="423.1" r="0.23" fill="#f4f3ef" opacity="0.040"/><circle cx="1412.4" cy="82.1" r="0.86" fill="#f4f3ef" opacity="0.075"/><circle cx="835.8" cy="70.0" r="0.67" fill="#f4f3ef" opacity="0.051"/><circle cx="986.2" cy="453.5" r="1.22" fill="#f4f3ef" opacity="0.034"/><circle cx="1128.6" cy="539.2" r="1.12" fill="#f4f3ef" opacity="0.035"/><circle cx="457.2" cy="193.8" r="1.37" fill="#f4f3ef" opacity="0.042"/><circle cx="441.7" cy="803.9" r="0.61" fill="#f4f3ef" opacity="0.033"/><circle cx="773.7" cy="476.2" r="1.00" fill="#f4f3ef" opacity="0.034"/><circle cx="434.2" cy="757.5" r="1.08" fill="#f4f3ef" opacity="0.024"/><circle cx="39.4" cy="34.3" r="0.72" fill="#f4f3ef" opacity="0.077"/><circle cx="1627.8" cy="613.3" r="1.46" fill="#f4f3ef" opacity="0.050"/><circle cx="126.8" cy="321.2" r="0.75" fill="#f4f3ef" opacity="0.037"/><circle cx="1059.3" cy="1024.7" r="1.09" fill="#f4f3ef" opacity="0.025"/><circle cx="1130.7" cy="590.3" r="0.62" fill="#f4f3ef" opacity="0.064"/><circle cx="814.9" cy="684.9" r="1.29" fill="#f4f3ef" opacity="0.061"/><circle cx="941.5" cy="175.1" r="1.26" fill="#f4f3ef" opacity="0.037"/><circle cx="562.5" cy="47.4" r="0.82" fill="#f4f3ef" opacity="0.055"/><circle cx="1858.5" cy="408.6" r="0.85" fill="#f4f3ef" opacity="0.077"/><circle cx="965.9" cy="365.4" r="0.75" fill="#f4f3ef" opacity="0.034"/><circle cx="1203.2" cy="784.5" r="1.59" fill="#f4f3ef" opacity="0.065"/><circle cx="697.7" cy="212.4" r="0.36" fill="#f4f3ef" opacity="0.063"/><circle cx="492.5" cy="155.8" r="0.50" fill="#f4f3ef" opacity="0.056"/><circle cx="492.8" cy="281.5" r="1.07" fill="#f4f3ef" opacity="0.072"/><circle cx="532.5" cy="816.1" r="0.75" fill="#f4f3ef" opacity="0.061"/><circle cx="801.4" cy="266.2" r="1.44" fill="#f4f3ef" opacity="0.021"/><circle cx="1631.2" cy="338.6" r="1.58" fill="#f4f3ef" opacity="0.057"/><circle cx="722.8" cy="779.8" r="1.55" fill="#f4f3ef" opacity="0.050"/><circle cx="1252.4" cy="336.6" r="0.31" fill="#f4f3ef" opacity="0.031"/><circle cx="138.6" cy="595.6" r="1.26" fill="#f4f3ef" opacity="0.060"/><circle cx="628.7" cy="823.5" r="0.90" fill="#f4f3ef" opacity="0.069"/><circle cx="1205.7" cy="7.0" r="0.84" fill="#f4f3ef" opacity="0.066"/><circle cx="1134.8" cy="692.7" r="1.04" fill="#f4f3ef" opacity="0.060"/><circle cx="1530.1" cy="587.3" r="1.14" fill="#f4f3ef" opacity="0.040"/><circle cx="21.2" cy="1077.4" r="1.16" fill="#f4f3ef" opacity="0.045"/><circle cx="140.0" cy="269.7" r="0.46" fill="#f4f3ef" opacity="0.039"/><circle cx="867.1" cy="791.0" r="0.39" fill="#f4f3ef" opacity="0.062"/><circle cx="898.9" cy="1027.8" r="0.80" fill="#f4f3ef" opacity="0.069"/><circle cx="354.0" cy="46.8" r="0.46" fill="#f4f3ef" opacity="0.035"/><circle cx="1839.7" cy="1074.7" r="0.98" fill="#f4f3ef" opacity="0.056"/><circle cx="1278.9" cy="578.2" r="0.71" fill="#f4f3ef" opacity="0.057"/><circle cx="1136.9" cy="743.8" r="0.55" fill="#f4f3ef" opacity="0.029"/><circle cx="1887.8" cy="1078.4" r="1.06" fill="#f4f3ef" opacity="0.060"/><circle cx="521.1" cy="448.6" r="0.41" fill="#f4f3ef" opacity="0.049"/><circle cx="1848.7" cy="920.9" r="0.28" fill="#f4f3ef" opacity="0.060"/><circle cx="371.4" cy="442.1" r="1.55" fill="#f4f3ef" opacity="0.055"/><circle cx="1825.5" cy="278.9" r="0.83" fill="#f4f3ef" opacity="0.026"/><circle cx="1849.4" cy="218.0" r="0.59" fill="#f4f3ef" opacity="0.050"/><circle cx="490.6" cy="965.9" r="0.60" fill="#f4f3ef" opacity="0.022"/><circle cx="712.1" cy="789.3" r="1.52" fill="#f4f3ef" opacity="0.027"/><circle cx="499.0" cy="435.0" r="0.99" fill="#f4f3ef" opacity="0.037"/><circle cx="1605.4" cy="129.6" r="0.52" fill="#f4f3ef" opacity="0.059"/><circle cx="380.9" cy="539.7" r="0.59" fill="#f4f3ef" opacity="0.033"/><circle cx="997.4" cy="132.1" r="1.04" fill="#f4f3ef" opacity="0.062"/><circle cx="1155.7" cy="813.3" r="0.86" fill="#f4f3ef" opacity="0.028"/><circle cx="192.0" cy="250.1" r="0.39" fill="#f4f3ef" opacity="0.023"/><circle cx="784.8" cy="29.1" r="0.25" fill="#f4f3ef" opacity="0.045"/><circle cx="421.6" cy="497.0" r="1.14" fill="#f4f3ef" opacity="0.028"/><circle cx="1425.3" cy="640.5" r="0.45" fill="#f4f3ef" opacity="0.038"/><circle cx="1141.1" cy="846.2" r="0.97" fill="#f4f3ef" opacity="0.026"/><circle cx="683.0" cy="980.8" r="0.91" fill="#f4f3ef" opacity="0.039"/><circle cx="1520.8" cy="270.9" r="0.31" fill="#f4f3ef" opacity="0.057"/><circle cx="1426.2" cy="63.2" r="1.32" fill="#f4f3ef" opacity="0.044"/><circle cx="1300.0" cy="824.5" r="1.09" fill="#f4f3ef" opacity="0.041"/><circle cx="1758.5" cy="941.3" r="0.89" fill="#f4f3ef" opacity="0.061"/><circle cx="1000.2" cy="560.3" r="0.85" fill="#f4f3ef" opacity="0.020"/><circle cx="1632.5" cy="748.2" r="1.22" fill="#f4f3ef" opacity="0.074"/><circle cx="1498.5" cy="131.7" r="0.33" fill="#f4f3ef" opacity="0.029"/><circle cx="1143.1" cy="897.3" r="0.48" fill="#f4f3ef" opacity="0.054"/><circle cx="1040.6" cy="391.9" r="0.83" fill="#f4f3ef" opacity="0.058"/><circle cx="100.6" cy="722.1" r="0.96" fill="#f4f3ef" opacity="0.061"/><circle cx="1214.9" cy="714.4" r="1.14" fill="#f4f3ef" opacity="0.066"/><circle cx="804.3" cy="475.6" r="0.86" fill="#f4f3ef" opacity="0.034"/><circle cx="765.0" cy="192.4" r="0.91" fill="#f4f3ef" opacity="0.078"/><circle cx="575.6" cy="731.5" r="0.98" fill="#f4f3ef" opacity="0.035"/><circle cx="283.5" cy="639.4" r="0.83" fill="#f4f3ef" opacity="0.040"/><circle cx="931.6" cy="342.8" r="1.13" fill="#f4f3ef" opacity="0.059"/><circle cx="505.2" cy="588.5" r="0.92" fill="#f4f3ef" opacity="0.062"/><circle cx="758.3" cy="523.1" r="0.29" fill="#f4f3ef" opacity="0.058"/><circle cx="1880.5" cy="813.2" r="1.14" fill="#f4f3ef" opacity="0.045"/><circle cx="363.7" cy="1005.6" r="0.50" fill="#f4f3ef" opacity="0.067"/><circle cx="1588.6" cy="846.8" r="1.56" fill="#f4f3ef" opacity="0.067"/><circle cx="1051.5" cy="163.6" r="0.47" fill="#f4f3ef" opacity="0.075"/><circle cx="1431.0" cy="542.6" r="0.65" fill="#f4f3ef" opacity="0.030"/><circle cx="214.5" cy="170.5" r="1.38" fill="#f4f3ef" opacity="0.046"/><circle cx="1644.8" cy="194.0" r="1.47" fill="#f4f3ef" opacity="0.070"/><circle cx="1147.3" cy="999.7" r="0.90" fill="#f4f3ef" opacity="0.051"/><circle cx="1755.9" cy="294.3" r="0.68" fill="#f4f3ef" opacity="0.037"/><circle cx="1100.3" cy="544.4" r="0.86" fill="#f4f3ef" opacity="0.069"/><circle cx="792.4" cy="936.7" r="0.78" fill="#f4f3ef" opacity="0.049"/><circle cx="1732.9" cy="858.0" r="0.40" fill="#f4f3ef" opacity="0.079"/><circle cx="698.1" cy="854.8" r="0.97" fill="#f4f3ef" opacity="0.052"/><circle cx="1646.4" cy="1073.8" r="1.24" fill="#f4f3ef" opacity="0.065"/><circle cx="1425.4" cy="421.7" r="1.46" fill="#f4f3ef" opacity="0.033"/><circle cx="1718.0" cy="765.2" r="1.34" fill="#f4f3ef" opacity="0.060"/><circle cx="1149.3" cy="1050.8" r="0.41" fill="#f4f3ef" opacity="0.079"/><circle cx="193.5" cy="785.4" r="0.60" fill="#f4f3ef" opacity="0.057"/><circle cx="1600.2" cy="995.6" r="1.51" fill="#f4f3ef" opacity="0.073"/><circle cx="581.2" cy="507.9" r="0.60" fill="#f4f3ef" opacity="0.071"/><circle cx="1237.2" cy="509.1" r="1.56" fill="#f4f3ef" opacity="0.072"/><circle cx="1624.6" cy="105.9" r="1.00" fill="#f4f3ef" opacity="0.070"/><circle cx="1221.8" cy="165.0" r="1.37" fill="#f4f3ef" opacity="0.020"/><circle cx="76.4" cy="312.9" r="1.07" fill="#f4f3ef" opacity="0.059"/><circle cx="1151.2" cy="976.3" r="0.75" fill="#f4f3ef" opacity="0.031"/><circle cx="511.4" cy="742.0" r="0.85" fill="#f4f3ef" opacity="0.028"/><circle cx="1831.2" cy="916.6" r="1.46" fill="#f4f3ef" opacity="0.056"/><circle cx="1460.0" cy="6.7" r="0.29" fill="#f4f3ef" opacity="0.057"/><circle cx="1649.9" cy="799.1" r="1.36" fill="#f4f3ef" opacity="0.073"/><circle cx="101.5" cy="880.3" r="0.87" fill="#f4f3ef" opacity="0.045"/><circle cx="1911.1" cy="77.1" r="0.56" fill="#f4f3ef" opacity="0.067"/><circle cx="157.3" cy="1056.1" r="1.04" fill="#f4f3ef" opacity="0.075"/><circle cx="7.4" cy="924.0" r="0.22" fill="#f4f3ef" opacity="0.065"/><circle cx="1864.4" cy="827.5" r="1.08" fill="#f4f3ef" opacity="0.042"/><circle cx="1153.5" cy="73.2" r="0.82" fill="#f4f3ef" opacity="0.076"/><circle cx="908.8" cy="687.8" r="0.45" fill="#f4f3ef" opacity="0.036"/><circle cx="679.9" cy="817.9" r="1.41" fill="#f4f3ef" opacity="0.021"/><circle cx="158.6" cy="730.2" r="0.24" fill="#f4f3ef" opacity="0.054"/><circle cx="245.8" cy="891.5" r="1.10" fill="#f4f3ef" opacity="0.058"/><circle cx="1557.6" cy="768.3" r="1.05" fill="#f4f3ef" opacity="0.044"/><circle cx="372.7" cy="507.3" r="0.24" fill="#f4f3ef" opacity="0.050"/><circle cx="1218.3" cy="95.2" r="0.30" fill="#f4f3ef" opacity="0.051"/><circle cx="17.6" cy="318.7" r="0.96" fill="#f4f3ef" opacity="0.032"/><circle cx="1155.6" cy="124.3" r="0.33" fill="#f4f3ef" opacity="0.044"/><circle cx="1266.4" cy="98.9" r="0.38" fill="#f4f3ef" opacity="0.055"/><circle cx="1179.7" cy="189.1" r="0.65" fill="#f4f3ef" opacity="0.025"/><circle cx="1867.4" cy="301.4" r="1.46" fill="#f4f3ef" opacity="0.076"/><circle cx="1670.1" cy="542.6" r="0.87" fill="#f4f3ef" opacity="0.051"/><circle cx="564.1" cy="19.4" r="1.08" fill="#f4f3ef" opacity="0.062"/><circle cx="1868.1" cy="678.5" r="0.37" fill="#f4f3ef" opacity="0.066"/><circle cx="1789.3" cy="1066.4" r="1.31" fill="#f4f3ef" opacity="0.077"/><circle cx="1370.7" cy="529.8" r="0.36" fill="#f4f3ef" opacity="0.063"/><circle cx="517.6" cy="895.5" r="0.77" fill="#f4f3ef" opacity="0.053"/><circle cx="984.0" cy="230.1" r="1.23" fill="#f4f3ef" opacity="0.055"/><circle cx="1039.6" cy="280.2" r="0.84" fill="#f4f3ef" opacity="0.069"/><circle cx="1016.1" cy="592.6" r="0.82" fill="#f4f3ef" opacity="0.078"/><circle cx="534.4" cy="913.8" r="1.57" fill="#f4f3ef" opacity="0.024"/><circle cx="850.7" cy="1070.6" r="0.64" fill="#f4f3ef" opacity="0.059"/><circle cx="803.5" cy="489.6" r="1.43" fill="#f4f3ef" opacity="0.061"/><circle cx="1720.2" cy="597.5" r="0.46" fill="#f4f3ef" opacity="0.024"/><circle cx="163.9" cy="381.0" r="0.70" fill="#f4f3ef" opacity="0.074"/><circle cx="1159.7" cy="226.7" r="0.75" fill="#f4f3ef" opacity="0.041"/><circle cx="61.7" cy="1.3" r="0.22" fill="#f4f3ef" opacity="0.034"/><circle cx="259.4" cy="11.4" r="0.55" fill="#f4f3ef" opacity="0.033"/><circle cx="1444.9" cy="523.7" r="1.10" fill="#f4f3ef" opacity="0.060"/><circle cx="678.7" cy="925.0" r="0.40" fill="#f4f3ef" opacity="0.037"/><circle cx="497.2" cy="681.8" r="1.13" fill="#f4f3ef" opacity="0.036"/><circle cx="1018.9" cy="1020.8" r="0.63" fill="#f4f3ef" opacity="0.036"/><circle cx="1011.2" cy="848.7" r="0.53" fill="#f4f3ef" opacity="0.070"/><circle cx="237.1" cy="952.2" r="0.57" fill="#f4f3ef" opacity="0.064"/><circle cx="1161.8" cy="277.8" r="0.26" fill="#f4f3ef" opacity="0.070"/><circle cx="419.3" cy="492.4" r="1.55" fill="#f4f3ef" opacity="0.054"/><circle cx="759.3" cy="462.6" r="1.20" fill="#f4f3ef" opacity="0.037"/><circle cx="1233.6" cy="94.9" r="0.92" fill="#f4f3ef" opacity="0.021"/><circle cx="183.0" cy="576.1" r="1.57" fill="#f4f3ef" opacity="0.029"/><circle cx="1423.7" cy="1012.9" r="1.16" fill="#f4f3ef" opacity="0.054"/><circle cx="594.3" cy="112.0" r="0.76" fill="#f4f3ef" opacity="0.051"/><circle cx="1582.2" cy="739.9" r="1.55" fill="#f4f3ef" opacity="0.036"/><circle cx="1590.3" cy="83.3" r="1.38" fill="#f4f3ef" opacity="0.035"/><circle cx="523.9" cy="1049.0" r="0.70" fill="#f4f3ef" opacity="0.078"/><circle cx="136.9" cy="623.6" r="1.00" fill="#f4f3ef" opacity="0.053"/><circle cx="619.1" cy="553.7" r="1.39" fill="#f4f3ef" opacity="0.021"/><circle cx="382.3" cy="386.1" r="0.28" fill="#f4f3ef" opacity="0.023"/><circle cx="967.3" cy="947.3" r="0.87" fill="#f4f3ef" opacity="0.062"/>
  <rect width="1920" height="1080" fill="url(#l1)"/>
  
  <text x="96" y="993.6" font-family="Helvetica, Arial, sans-serif" font-size="34.559999999999995" letter-spacing="4" fill="#f4f3ef" fill-opacity="0.72">BYB FILMS — SHOWREEL</text>
  <text x="96" y="1036.8" font-family="Helvetica, Arial, sans-serif" font-size="21.119999999999997" letter-spacing="2" fill="#f4f3ef" fill-opacity="0.38">PLACEHOLDER FRAME · REPLACE WITH MASTER PLATE</text>
</svg>