<?xml version="1.0" encoding="UTF-8"?>
<svg xmlns="http://www.w3.org/2000/svg" width="1920" height="1080" viewBox="0 0 1920 1080">
  <defs>
    <linearGradient id="g41" x1="0%" y1="0%" x2="100%" y2="100%">
      <stop offset="0%" stop-color="#12161a"/>
      <stop offset="100%" stop-color="#20313f"/>
    </linearGradient>
    <linearGradient id="l41" x1="0%" y1="0%" x2="0%" y2="100%">
      <stop offset="0%" stop-color="#000" stop-opacity="0"/>
      <stop offset="100%" stop-color="#000" stop-opacity="0.55"/>
    </linearGradient>
  </defs>
  <rect width="1920" height="1080" fill="url(#g41)"/>
  <circle cx="1624.3" cy="1060.3" r="0.43" fill="#f4f3ef" opacity="0.053"/><circle cx="1182.1" cy="710.4" r="0.29" fill="#f4f3ef" opacity="0.032"/><circle cx="1727.5" cy="862.7" r="0.38" fill="#f4f3ef" opacity="0.038"/><circle cx="321.3" cy="904.0" r="0.61" fill="#f4f3ef" opacity="0.055"/><circle cx="1419.8" cy="300.8" r="0.87" fill="#f4f3ef" opacity="0.035"/><circle cx="1301.5" cy="279.8" r="1.30" fill="#f4f3ef" opacity="0.074"/><circle cx="653.9" cy="827.7" r="0.74" fill="#f4f3ef" opacity="0.029"/><circle cx="1159.8" cy="571.2" r="0.31" fill="#f4f3ef" opacity="0.063"/><circle cx="1444.5" cy="616.8" r="0.93" fill="#f4f3ef" opacity="0.048"/><circle cx="62.0" cy="471.4" r="0.35" fill="#f4f3ef" opacity="0.073"/><circle cx="1682.0" cy="81.6" r="0.94" fill="#f4f3ef" opacity="0.035"/><circle cx="1516.3" cy="433.9" r="1.60" fill="#f4f3ef" opacity="0.060"/><circle cx="1745.6" cy="555.1" r="0.38" fill="#f4f3ef" opacity="0.048"/><circle cx="426.4" cy="631.9" r="0.90" fill="#f4f3ef" opacity="0.052"/><circle cx="877.0" cy="451.0" r="1.43" fill="#f4f3ef" opacity="0.030"/><circle cx="1224.8" cy="718.9" r="0.35" fill="#f4f3ef" opacity="0.055"/><circle cx="593.0" cy="782.3" r="1.12" fill="#f4f3ef" opacity="0.034"/><circle cx="806.5" cy="308.0" r="1.37" fill="#f4f3ef" opacity="0.057"/><circle cx="1699.6" cy="602.6" r="1.21" fill="#f4f3ef" opacity="0.072"/><circle cx="1541.8" cy="172.7" r="1.13" fill="#f4f3ef" opacity="0.079"/><circle cx="665.0" cy="725.1" r="0.95" fill="#f4f3ef" opacity="0.062"/><circle cx="609.9" cy="926.3" r="1.08" fill="#f4f3ef" opacity="0.021"/><circle cx="712.9" cy="603.1" r="0.46" fill="#f4f3ef" opacity="0.050"/><circle cx="1732.4" cy="262.1" r="1.10" fill="#f4f3ef" opacity="0.025"/><circle cx="1155.8" cy="250.0" r="0.90" fill="#f4f3ef" opacity="0.061"/><circle cx="1306.2" cy="633.5" r="1.46" fill="#f4f3ef" opacity="0.044"/><circle cx="1448.6" cy="719.2" r="1.35" fill="#f4f3ef" opacity="0.045"/><circle cx="777.2" cy="373.8" r="0.20" fill="#f4f3ef" opacity="0.052"/><circle cx="761.7" cy="983.9" r="0.84" fill="#f4f3ef" opacity="0.043"/><circle cx="1093.7" cy="656.2" r="1.24" fill="#f4f3ef" opacity="0.044"/><circle cx="754.2" cy="937.5" r="1.32" fill="#f4f3ef" opacity="0.034"/><circle cx="359.4" cy="214.3" r="0.96" fill="#f4f3ef" opacity="0.027"/><circle cx="27.8" cy="793.3" r="0.30" fill="#f4f3ef" opacity="0.060"/><circle cx="446.8" cy="501.2" r="0.98" fill="#f4f3ef" opacity="0.047"/><circle cx="1379.3" cy="124.7" r="1.33" fill="#f4f3ef" opacity="0.035"/><circle cx="1450.7" cy="770.3" r="0.86" fill="#f4f3ef" opacity="0.074"/><circle cx="1134.9" cy="864.9" r="1.52" fill="#f4f3ef" opacity="0.071"/><circle cx="1261.5" cy="355.1" r="1.49" fill="#f4f3ef" opacity="0.047"/><circle cx="882.5" cy="227.4" r="1.06" fill="#f4f3ef" opacity="0.065"/><circle cx="258.5" cy="588.6" r="1.08" fill="#f4f3ef" opacity="0.027"/><circle cx="1285.9" cy="545.4" r="0.98" fill="#f4f3ef" opacity="0.044"/><circle cx="1523.2" cy="964.5" r="0.43" fill="#f4f3ef" opacity="0.075"/><circle cx="1017.7" cy="392.4" r="0.59" fill="#f4f3ef" opacity="0.073"/><circle cx="812.5" cy="335.8" r="0.73" fill="#f4f3ef" opacity="0.066"/><circle cx="812.8" cy="461.5" r="1.30" fill="#f4f3ef" opacity="0.022"/><circle cx="852.5" cy="996.1" r="0.98" fill="#f4f3ef" opacity="0.071"/><circle cx="1121.4" cy="446.2" r="0.28" fill="#f4f3ef" opacity="0.031"/><circle cx="31.2" cy="518.6" r="0.41" fill="#f4f3ef" opacity="0.067"/><circle cx="1042.8" cy="959.8" r="0.39" fill="#f4f3ef" opacity="0.060"/><circle cx="1572.4" cy="516.6" r="0.54" fill="#f4f3ef" opacity="0.041"/><circle cx="458.6" cy="775.6" r="1.49" fill="#f4f3ef" opacity="0.070"/><circle cx="948.7" cy="1003.5" r="1.14" fill="#f4f3ef" opacity="0.079"/><circle cx="1525.7" cy="187.0" r="1.07" fill="#f4f3ef" opacity="0.076"/><circle cx="1454.8" cy="872.7" r="1.28" fill="#f4f3ef" opacity="0.070"/><circle cx="1850.1" cy="767.3" r="1.37" fill="#f4f3ef" opacity="0.050"/><circle cx="341.2" cy="177.4" r="1.39" fill="#f4f3ef" opacity="0.055"/><circle cx="460.0" cy="449.7" r="0.70" fill="#f4f3ef" opacity="0.049"/><circle cx="1187.1" cy="971.0" r="0.62" fill="#f4f3ef" opacity="0.072"/><circle cx="1218.9" cy="127.8" r="1.04" fill="#f4f3ef" opacity="0.079"/><circle cx="674.0" cy="226.8" r="0.69" fill="#f4f3ef" opacity="0.045"/><circle cx="239.7" cy="174.7" r="1.22" fill="#f4f3ef" opacity="0.066"/><circle cx="1598.9" cy="758.2" r="0.94" fill="#f4f3ef" opacity="0.067"/><circle cx="1456.9" cy="923.8" r="0.78" fill="#f4f3ef" opacity="0.039"/><circle cx="287.8" cy="178.4" r="1.29" fill="#f4f3ef" opacity="0.070"/><circle cx="841.1" cy="628.6" r="0.64" fill="#f4f3ef" opacity="0.059"/><circle cx="248.7" cy="20.9" r="0.52" fill="#f4f3ef" opacity="0.070"/><circle cx="691.4" cy="622.1" r="0.39" fill="#f4f3ef" opacity="0.065"/><circle cx="225.5" cy="458.9" r="1.07" fill="#f4f3ef" opacity="0.036"/><circle cx="249.4" cy="398.0" r="0.82" fill="#f4f3ef" opacity="0.060"/><circle cx="810.6" cy="65.9" r="0.83" fill="#f4f3ef" opacity="0.032"/><circle cx="1032.1" cy="969.3" r="0.35" fill="#f4f3ef" opacity="0.037"/><circle cx="819.0" cy="615.0" r="1.23" fill="#f4f3ef" opacity="0.047"/><circle cx="5.4" cy="309.6" r="0.75" fill="#f4f3ef" opacity="0.069"/><circle cx="700.9" cy="719.7" r="0.82" fill="#f4f3ef" opacity="0.043"/><circle cx="1317.4" cy="312.1" r="1.27" fill="#f4f3ef" opacity="0.072"/><circle cx="1475.7" cy="993.3" r="1.09" fill="#f4f3ef" opacity="0.038"/><circle cx="512.0" cy="430.1" r="0.63" fill="#f4f3ef" opacity="0.033"/><circle cx="1104.8" cy="209.1" r="0.48" fill="#f4f3ef" opacity="0.055"/><circle cx="741.6" cy="677.0" r="1.38" fill="#f4f3ef" opacity="0.038"/><circle cx="1745.3" cy="820.5" r="0.69" fill="#f4f3ef" opacity="0.048"/><circle cx="1461.1" cy="1026.2" r="1.20" fill="#f4f3ef" opacity="0.036"/><circle cx="1003.0" cy="80.8" r="1.14" fill="#f4f3ef" opacity="0.049"/><circle cx="1840.8" cy="450.9" r="0.54" fill="#f4f3ef" opacity="0.067"/><circle cx="1746.2" cy="243.2" r="1.56" fill="#f4f3ef" opacity="0.054"/><circle cx="1620.0" cy="1004.5" r="1.32" fill="#f4f3ef" opacity="0.051"/><circle cx="158.5" cy="41.3" r="1.12" fill="#f4f3ef" opacity="0.071"/><circle cx="1320.2" cy="740.3" r="1.08" fill="#f4f3ef" opacity="0.030"/><circle cx="32.5" cy="928.2" r="1.45" fill="#f4f3ef" opacity="0.024"/><circle cx="1818.5" cy="311.7" r="0.56" fill="#f4f3ef" opacity="0.039"/><circle cx="1463.1" cy="1077.3" r="0.71" fill="#f4f3ef" opacity="0.064"/><circle cx="1360.6" cy="571.9" r="1.07" fill="#f4f3ef" opacity="0.068"/><circle cx="420.6" cy="902.1" r="1.19" fill="#f4f3ef" opacity="0.071"/><circle cx="1534.9" cy="894.4" r="1.38" fill="#f4f3ef" opacity="0.076"/><circle cx="1124.3" cy="655.6" r="1.09" fill="#f4f3ef" opacity="0.044"/><circle cx="1085.0" cy="372.4" r="1.15" fill="#f4f3ef" opacity="0.028"/><circle cx="895.6" cy="911.5" r="1.21" fill="#f4f3ef" opacity="0.045"/><circle cx="603.5" cy="819.4" r="1.07" fill="#f4f3ef" opacity="0.050"/><circle cx="1251.6" cy="522.8" r="1.36" fill="#f4f3ef" opacity="0.069"/><circle cx="825.2" cy="768.5" r="1.15" fill="#f4f3ef" opacity="0.072"/><circle cx="1078.3" cy="703.1" r="0.52" fill="#f4f3ef" opacity="0.068"/><circle cx="280.5" cy="993.2" r="1.37" fill="#f4f3ef" opacity="0.055"/><circle cx="683.7" cy="105.6" r="0.73" fill="#f4f3ef" opacity="0.077"/><circle cx="1908.6" cy="1026.8" r="0.39" fill="#f4f3ef" opacity="0.077"/><circle cx="1371.5" cy="343.6" r="0.71" fill="#f4f3ef" opacity="0.025"/><circle cx="1751.0" cy="722.6" r="0.88" fill="#f4f3ef" opacity="0.040"/><circle cx="534.5" cy="350.5" r="0.21" fill="#f4f3ef" opacity="0.056"/><circle cx="44.8" cy="374.0" r="0.30" fill="#f4f3ef" opacity="0.080"/><circle cx="1467.3" cy="99.7" r="1.13" fill="#f4f3ef" opacity="0.061"/><circle cx="155.9" cy="474.3" r="0.91" fill="#f4f3ef" opacity="0.047"/><circle cx="1420.3" cy="724.4" r="1.09" fill="#f4f3ef" opacity="0.079"/><circle cx="1112.4" cy="36.7" r="1.02" fill="#f4f3ef" opacity="0.059"/><circle cx="132.9" cy="1038.0" r="0.63" fill="#f4f3ef" opacity="0.029"/><circle cx="1018.1" cy="1034.8" r="1.20" fill="#f4f3ef" opacity="0.062"/><circle cx="46.4" cy="173.8" r="1.48" fill="#f4f3ef" opacity="0.075"/><circle cx="1745.4" cy="601.7" r="0.29" fill="#f4f3ef" opacity="0.043"/><circle cx="118.0" cy="945.2" r="1.57" fill="#f4f3ef" opacity="0.070"/><circle cx="1469.3" cy="150.8" r="0.64" fill="#f4f3ef" opacity="0.029"/><circle cx="513.5" cy="965.4" r="0.84" fill="#f4f3ef" opacity="0.067"/><circle cx="0.2" cy="95.6" r="0.34" fill="#f4f3ef" opacity="0.023"/><circle cx="901.2" cy="687.9" r="0.84" fill="#f4f3ef" opacity="0.021"/><circle cx="1557.2" cy="689.1" r="0.40" fill="#f4f3ef" opacity="0.022"/><circle cx="24.6" cy="285.9" r="1.23" fill="#f4f3ef" opacity="0.080"/><circle cx="1541.8" cy="345.0" r="0.21" fill="#f4f3ef" opacity="0.030"/><circle cx="396.4" cy="492.9" r="1.31" fill="#f4f3ef" opacity="0.069"/><circle cx="1471.2" cy="76.3" r="0.98" fill="#f4f3ef" opacity="0.041"/><circle cx="831.4" cy="922.0" r="1.08" fill="#f4f3ef" opacity="0.038"/><circle cx="231.2" cy="16.6" r="0.29" fill="#f4f3ef" opacity="0.066"/><circle cx="1780.0" cy="186.7" r="0.52" fill="#f4f3ef" opacity="0.067"/><circle cx="49.9" cy="979.1" r="1.59" fill="#f4f3ef" opacity="0.023"/><circle cx="421.5" cy="1060.3" r="1.10" fill="#f4f3ef" opacity="0.055"/><circle cx="311.1" cy="257.1" r="0.79" fill="#f4f3ef" opacity="0.077"/><circle cx="477.3" cy="156.1" r="1.27" fill="#f4f3ef" opacity="0.025"/><circle cx="327.4" cy="24.0" r="0.45" fill="#f4f3ef" opacity="0.075"/><circle cx="264.4" cy="1007.5" r="1.32" fill="#f4f3ef" opacity="0.052"/><circle cx="1473.5" cy="253.2" r="1.06" fill="#f4f3ef" opacity="0.026"/><circle cx="1228.8" cy="867.8" r="0.68" fill="#f4f3ef" opacity="0.046"/><circle cx="999.9" cy="997.9" r="0.24" fill="#f4f3ef" opacity="0.031"/><circle cx="478.6" cy="910.2" r="0.48" fill="#f4f3ef" opacity="0.064"/><circle cx="565.8" cy="1071.5" r="1.33" fill="#f4f3ef" opacity="0.068"/><circle cx="1877.6" cy="948.3" r="1.28" fill="#f4f3ef" opacity="0.054"/><circle cx="692.7" cy="687.3" r="0.47" fill="#f4f3ef" opacity="0.060"/><circle cx="1538.3" cy="275.2" r="0.53" fill="#f4f3ef" opacity="0.061"/><circle cx="337.6" cy="498.7" r="1.19" fill="#f4f3ef" opacity="0.042"/><circle cx="1475.6" cy="304.3" r="0.57" fill="#f4f3ef" opacity="0.054"/><circle cx="1586.4" cy="278.9" r="0.61" fill="#f4f3ef" opacity="0.065"/><circle cx="1499.7" cy="369.1" r="0.89" fill="#f4f3ef" opacity="0.035"/><circle cx="267.4" cy="481.4" r="0.30" fill="#f4f3ef" opacity="0.026"/><circle cx="70.1" cy="722.6" r="1.10" fill="#f4f3ef" opacity="0.061"/><circle cx="884.1" cy="199.4" r="1.31" fill="#f4f3ef" opacity="0.072"/><circle cx="268.1" cy="858.5" r="0.60" fill="#f4f3ef" opacity="0.076"/><circle cx="189.3" cy="166.4" r="1.54" fill="#f4f3ef" opacity="0.027"/><circle cx="1690.7" cy="709.8" r="0.60" fill="#f4f3ef" opacity="0.073"/><circle cx="837.6" cy="1075.5" r="1.01" fill="#f4f3ef" opacity="0.063"/><circle cx="1304.0" cy="410.1" r="1.47" fill="#f4f3ef" opacity="0.065"/><circle cx="1359.6" cy="460.2" r="1.07" fill="#f4f3ef" opacity="0.079"/><circle cx="1336.1" cy="772.6" r="1.05" fill="#f4f3ef" opacity="0.028"/><circle cx="854.4" cy="13.8" r="0.40" fill="#f4f3ef" opacity="0.034"/><circle cx="1170.7" cy="170.6" r="0.87" fill="#f4f3ef" opacity="0.069"/><circle cx="1123.5" cy="669.6" r="0.27" fill="#f4f3ef" opacity="0.071"/><circle cx="120.2" cy="777.5" r="0.69" fill="#f4f3ef" opacity="0.034"/><circle cx="483.9" cy="561.0" r="0.93" fill="#f4f3ef" opacity="0.024"/><circle cx="1479.7" cy="406.7" r="0.98" fill="#f4f3ef" opacity="0.051"/><circle cx="381.7" cy="181.3" r="0.46" fill="#f4f3ef" opacity="0.044"/><circle cx="579.4" cy="191.4" r="0.79" fill="#f4f3ef" opacity="0.043"/><circle cx="1764.9" cy="703.7" r="1.34" fill="#f4f3ef" opacity="0.070"/><circle cx="998.7" cy="25.0" r="0.64" fill="#f4f3ef" opacity="0.047"/><circle cx="817.2" cy="861.8" r="1.37" fill="#f4f3ef" opacity="0.046"/><circle cx="1338.9" cy="120.8" r="0.86" fill="#f4f3ef" opacity="0.046"/><circle cx="1331.2" cy="1028.7" r="0.77" fill="#f4f3ef" opacity="0.080"/><circle cx="557.1" cy="52.2" r="0.81" fill="#f4f3ef" opacity="0.074"/><circle cx="1481.8" cy="457.8" r="0.49" fill="#f4f3ef" opacity="0.080"/><circle cx="739.3" cy="672.4" r="0.38" fill="#f4f3ef" opacity="0.064"/><circle cx="1079.3" cy="642.6" r="1.44" fill="#f4f3ef" opacity="0.047"/><circle cx="1553.6" cy="274.9" r="1.16" fill="#f4f3ef" opacity="0.031"/><circle cx="503.0" cy="756.1" r="0.41" fill="#f4f3ef" opacity="0.039"/><circle cx="1743.7" cy="112.9" r="1.39" fill="#f4f3ef" opacity="0.064"/><circle cx="914.3" cy="292.0" r="0.99" fill="#f4f3ef" opacity="0.061"/><circle cx="1902.2" cy="919.9" r="0.38" fill="#f4f3ef" opacity="0.046"/><circle cx="1910.3" cy="263.3" r="0.21" fill="#f4f3ef" opacity="0.045"/><circle cx="843.9" cy="149.0" r="0.93" fill="#f4f3ef" opacity="0.028"/><circle cx="456.9" cy="803.6" r="1.24" fill="#f4f3ef" opacity="0.063"/><circle cx="939.1" cy="733.7" r="0.22" fill="#f4f3ef" opacity="0.031"/><circle cx="702.3" cy="566.1" r="0.51" fill="#f4f3ef" opacity="0.033"/><circle cx="1287.3" cy="47.3" r="1.11" fill="#f4f3ef" opacity="0.072"/><circle cx="110.2" cy="84.1" r="0.96" fill="#f4f3ef" opacity="0.061"/><circle cx="1769.7" cy="103.1" r="0.66" fill="#f4f3ef" opacity="0.056"/><circle cx="1833.1" cy="451.0" r="0.93" fill="#f4f3ef" opacity="0.052"/><circle cx="703.5" cy="114.5" r="0.55" fill="#f4f3ef" opacity="0.055"/><circle cx="1485.9" cy="560.2" r="0.91" fill="#f4f3ef" opacity="0.076"/><circle cx="1454.6" cy="574.8" r="0.23" fill="#f4f3ef" opacity="0.043"/><circle cx="159.0" cy="464.9" r="1.34" fill="#f4f3ef" opacity="0.055"/><circle cx="1131.1" cy="497.2" r="0.80" fill="#f4f3ef" opacity="0.075"/><circle cx="1431.6" cy="58.5" r="1.34" fill="#f4f3ef" opacity="0.025"/><circle cx="1676.7" cy="775.3" r="1.45" fill="#f4f3ef" opacity="0.038"/><circle cx="65.1" cy="634.3" r="1.26" fill="#f4f3ef" opacity="0.031"/><circle cx="1124.1" cy="702.2" r="1.01" fill="#f4f3ef" opacity="0.038"/><circle cx="776.7" cy="685.7" r="0.42" fill="#f4f3ef" opacity="0.046"/><circle cx="1488.0" cy="611.3" r="0.42" fill="#f4f3ef" opacity="0.045"/><circle cx="1812.2" cy="1065.9" r="1.55" fill="#f4f3ef" opacity="0.062"/><circle cx="658.8" cy="916.1" r="0.59" fill="#f4f3ef" opacity="0.058"/><circle cx="919.8" cy="68.4" r="0.62" fill="#f4f3ef" opacity="0.036"/><circle cx="935.9" cy="789.6" r="1.11" fill="#f4f3ef" opacity="0.078"/><circle cx="683.2" cy="26.4" r="1.48" fill="#f4f3ef" opacity="0.055"/><circle cx="1560.5" cy="805.5" r="1.39" fill="#f4f3ef" opacity="0.046"/><circle cx="1695.1" cy="593.4" r="0.62" fill="#f4f3ef" opacity="0.064"/><circle cx="209.9" cy="896.8" r="1.23" fill="#f4f3ef" opacity="0.077"/><circle cx="850.1" cy="302.5" r="0.86" fill="#f4f3ef" opacity="0.053"/><circle cx="1529.8" cy="117.1" r="1.01" fill="#f4f3ef" opacity="0.062"/><circle cx="518.7" cy="1007.2" r="0.77" fill="#f4f3ef" opacity="0.042"/><circle cx="68.6" cy="359.6" r="1.37" fill="#f4f3ef" opacity="0.038"/><circle cx="1720.1" cy="80.8" r="0.41" fill="#f4f3ef" opacity="0.051"/><circle cx="969.8" cy="1077.6" r="1.04" fill="#f4f3ef" opacity="0.053"/><circle cx="495.9" cy="616.6" r="1.05" fill="#f4f3ef" opacity="0.041"/><circle cx="1626.0" cy="124.5" r="1.16" fill="#f4f3ef" opacity="0.071"/><circle cx="923.0" cy="748.0" r="1.57" fill="#f4f3ef" opacity="0.027"/><circle cx="1492.2" cy="713.7" r="0.84" fill="#f4f3ef" opacity="0.042"/><circle cx="607.5" cy="968.3" r="1.40" fill="#f4f3ef" opacity="0.042"/><circle cx="1658.6" cy="738.4" r="0.49" fill="#f4f3ef" opacity="0.066"/><circle cx="497.3" cy="290.7" r="0.26" fill="#f4f3ef" opacity="0.080"/><circle cx="1864.4" cy="92.0" r="0.65" fill="#f4f3ef" opacity="0.064"/><circle cx="616.3" cy="688.8" r="1.53" fill="#f4f3ef" opacity="0.030"/><circle cx="711.3" cy="67.8" r="0.25" fill="#f4f3ef" opacity="0.076"/><circle cx="917.0" cy="375.7" r="1.24" fill="#f4f3ef" opacity="0.057"/><circle cx="996.2" cy="239.2" r="1.44" fill="#f4f3ef" opacity="0.078"/><circle cx="1494.2" cy="764.8" r="0.35" fill="#f4f3ef" opacity="0.070"/><circle cx="965.1" cy="379.4" r="1.32" fill="#f4f3ef" opacity="0.061"/><circle cx="238.4" cy="109.6" r="1.14" fill="#f4f3ef" opacity="0.070"/><circle cx="286.0" cy="941.9" r="1.48" fill="#f4f3ef" opacity="0.042"/><circle cx="1368.7" cy="823.1" r="0.42" fill="#f4f3ef" opacity="0.056"/><circle cx="1542.8" cy="1019.9" r="1.56" fill="#f4f3ef" opacity="0.047"/><circle cx="286.7" cy="239.0" r="0.38" fill="#f4f3ef" opacity="0.031"/><circle cx="1488.0" cy="266.9" r="0.86" fill="#f4f3ef" opacity="0.023"/><circle cx="429.4" cy="450.3" r="0.84" fill="#f4f3ef" opacity="0.049"/><circle cx="856.3" cy="456.0" r="0.79" fill="#f4f3ef" opacity="0.078"/><circle cx="682.7" cy="510.6" r="0.78" fill="#f4f3ef" opacity="0.061"/><circle cx="98.3" cy="200.7" r="1.32" fill="#f4f3ef" opacity="0.054"/><circle cx="1354.8" cy="153.1" r="0.83" fill="#f4f3ef" opacity="0.043"/><circle cx="233.0" cy="114.3" r="1.12" fill="#f4f3ef" opacity="0.029"/><circle cx="1829.3" cy="991.1" r="1.12" fill="#f4f3ef" opacity="0.045"/><circle cx="1142.1" cy="50.1" r="1.45" fill="#f4f3ef" opacity="0.026"/><circle cx="1418.9" cy="878.0" r="1.40" fill="#f4f3ef" opacity="0.029"/><circle cx="1142.6" cy="301.5" r="1.18" fill="#f4f3ef" opacity="0.059"/><circle cx="1498.4" cy="867.2" r="0.76" fill="#f4f3ef" opacity="0.067"/><circle cx="1680.3" cy="281.8" r="1.17" fill="#f4f3ef" opacity="0.040"/><circle cx="1238.1" cy="1011.9" r="1.03" fill="#f4f3ef" opacity="0.078"/><circle cx="1783.5" cy="84.2" r="1.12" fill="#f4f3ef" opacity="0.025"/><circle cx="377.3" cy="125.5" r="1.35" fill="#f4f3ef" opacity="0.042"/><circle cx="1475.8" cy="602.3" r="0.21" fill="#f4f3ef" opacity="0.022"/><circle cx="1357.5" cy="581.3" r="0.64" fill="#f4f3ef" opacity="0.061"/><circle cx="709.9" cy="49.2" r="1.48" fill="#f4f3ef" opacity="0.075"/><circle cx="1215.8" cy="872.7" r="1.05" fill="#f4f3ef" opacity="0.050"/><circle cx="1500.5" cy="918.3" r="0.27" fill="#f4f3ef" opacity="0.035"/><circle cx="118.0" cy="772.9" r="1.09" fill="#f4f3ef" opacity="0.060"/><circle cx="1738.0" cy="383.1" r="0.28" fill="#f4f3ef" opacity="0.022"/><circle cx="1572.3" cy="735.4" r="0.94" fill="#f4f3ef" opacity="0.047"/><circle cx="1801.6" cy="856.6" r="1.12" fill="#f4f3ef" opacity="0.035"/><circle cx="482.4" cy="933.4" r="0.24" fill="#f4f3ef" opacity="0.039"/><circle cx="933.0" cy="752.5" r="0.77" fill="#f4f3ef" opacity="0.076"/><circle cx="1280.8" cy="1020.4" r="1.09" fill="#f4f3ef" opacity="0.041"/><circle cx="649.0" cy="3.8" r="0.46" fill="#f4f3ef" opacity="0.020"/><circle cx="862.5" cy="609.5" r="0.71" fill="#f4f3ef" opacity="0.044"/><circle cx="1755.6" cy="904.1" r="0.55" fill="#f4f3ef" opacity="0.059"/><circle cx="1597.8" cy="474.2" r="0.47" fill="#f4f3ef" opacity="0.066"/><circle cx="721.0" cy="1026.6" r="0.29" fill="#f4f3ef" opacity="0.049"/><circle cx="665.9" cy="147.8" r="0.42" fill="#f4f3ef" opacity="0.068"/><circle cx="768.9" cy="904.6" r="1.20" fill="#f4f3ef" opacity="0.036"/><circle cx="1788.4" cy="563.6" r="0.44" fill="#f4f3ef" opacity="0.071"/><circle cx="1211.8" cy="551.5" r="0.24" fill="#f4f3ef" opacity="0.048"/><circle cx="1362.2" cy="935.0" r="0.80" fill="#f4f3ef" opacity="0.031"/><circle cx="1504.6" cy="1020.7" r="0.69" fill="#f4f3ef" opacity="0.032"/><circle cx="833.2" cy="675.3" r="0.94" fill="#f4f3ef" opacity="0.039"/><circle cx="817.7" cy="205.4" r="1.58" fill="#f4f3ef" opacity="0.030"/><circle cx="1149.7" cy="957.7" r="0.58" fill="#f4f3ef" opacity="0.030"/><circle cx="810.2" cy="159.0" r="0.66" fill="#f4f3ef" opacity="0.021"/><circle cx="415.4" cy="515.8" r="0.30" fill="#f4f3ef" opacity="0.074"/><circle cx="83.8" cy="14.8" r="1.04" fill="#f4f3ef" opacity="0.046"/><circle cx="502.8" cy="802.7" r="0.32" fill="#f4f3ef" opacity="0.034"/><circle cx="1435.3" cy="426.2" r="0.67" fill="#f4f3ef" opacity="0.022"/><circle cx="1506.7" cy="1071.8" r="1.60" fill="#f4f3ef" opacity="0.060"/><circle cx="1190.9" cy="86.4" r="0.86" fill="#f4f3ef" opacity="0.058"/><circle cx="1317.5" cy="656.6" r="0.83" fill="#f4f3ef" opacity="0.034"/><circle cx="938.5" cy="528.9" r="0.40" fill="#f4f3ef" opacity="0.052"/><circle cx="314.5" cy="890.1" r="0.42" fill="#f4f3ef" opacity="0.073"/><circle cx="1341.9" cy="846.9" r="0.32" fill="#f4f3ef" opacity="0.031"/><circle cx="1579.2" cy="186.0" r="1.17" fill="#f4f3ef" opacity="0.062"/><circle cx="1073.7" cy="693.9" r="1.33" fill="#f4f3ef" opacity="0.060"/><circle cx="868.5" cy="637.3" r="1.47" fill="#f4f3ef" opacity="0.052"/><circle cx="868.8" cy="763.0" r="0.64" fill="#f4f3ef" opacity="0.069"/><circle cx="908.5" cy="217.6" r="0.32" fill="#f4f3ef" opacity="0.058"/><circle cx="1177.4" cy="747.7" r="1.02" fill="#f4f3ef" opacity="0.078"/><circle cx="87.2" cy="820.1" r="1.15" fill="#f4f3ef" opacity="0.054"/><circle cx="1098.8" cy="181.3" r="1.13" fill="#f4f3ef" opacity="0.046"/><circle cx="1628.4" cy="818.1" r="1.28" fill="#f4f3ef" opacity="0.028"/><circle cx="514.6" cy="1077.1" r="0.83" fill="#f4f3ef" opacity="0.057"/><circle cx="1004.7" cy="225.0" r="0.48" fill="#f4f3ef" opacity="0.066"/><circle cx="1581.7" cy="488.5" r="0.41" fill="#f4f3ef" opacity="0.063"/><circle cx="1510.8" cy="94.2" r="0.62" fill="#f4f3ef" opacity="0.057"/><circle cx="1906.1" cy="1068.8" r="0.71" fill="#f4f3ef" opacity="0.037"/><circle cx="397.2" cy="478.9" r="0.73" fill="#f4f3ef" opacity="0.042"/><circle cx="516.0" cy="751.2" r="1.44" fill="#f4f3ef" opacity="0.036"/><circle cx="1243.1" cy="192.5" r="1.36" fill="#f4f3ef" opacity="0.059"/><circle cx="1274.9" cy="429.3" r="0.38" fill="#f4f3ef" opacity="0.066"/><circle cx="730.0" cy="528.3" r="1.43" fill="#f4f3ef" opacity="0.032"/><circle cx="295.7" cy="476.2" r="0.56" fill="#f4f3ef" opacity="0.052"/><circle cx="1654.9" cy="1059.7" r="0.28" fill="#f4f3ef" opacity="0.054"/><circle cx="1512.9" cy="145.3" r="1.53" fill="#f4f3ef" opacity="0.026"/><circle cx="343.8" cy="479.9" r="0.64" fill="#f4f3ef" opacity="0.057"/><circle cx="897.1" cy="930.1" r="1.38" fill="#f4f3ef" opacity="0.046"/><circle cx="304.7" cy="322.4" r="1.26" fill="#f4f3ef" opacity="0.057"/><circle cx="747.4" cy="923.6" r="1.13" fill="#f4f3ef" opacity="0.052"/><circle cx="281.5" cy="760.4" r="0.41" fill="#f4f3ef" opacity="0.023"/><circle cx="305.4" cy="699.5" r="1.56" fill="#f4f3ef" opacity="0.047"/><circle cx="866.6" cy="367.4" r="1.57" fill="#f4f3ef" opacity="0.078"/><circle cx="1088.1" cy="190.8" r="1.09" fill="#f4f3ef" opacity="0.024"/><circle cx="875.0" cy="916.5" r="0.57" fill="#f4f3ef" opacity="0.034"/><circle cx="61.4" cy="611.1" r="1.49" fill="#f4f3ef" opacity="0.056"/><circle cx="756.9" cy="1021.2" r="1.57" fill="#f4f3ef" opacity="0.030"/><circle cx="1373.4" cy="613.6" r="0.61" fill="#f4f3ef" opacity="0.059"/><circle cx="1531.7" cy="214.8" r="0.43" fill="#f4f3ef" opacity="0.025"/><circle cx="568.0" cy="731.6" r="1.37" fill="#f4f3ef" opacity="0.020"/><circle cx="1160.8" cy="510.6" r="1.23" fill="#f4f3ef" opacity="0.042"/><circle cx="797.6" cy="978.5" r="0.72" fill="#f4f3ef" opacity="0.025"/><circle cx="1801.3" cy="42.0" r="1.43" fill="#f4f3ef" opacity="0.035"/><circle cx="1517.1" cy="247.7" r="0.54" fill="#f4f3ef" opacity="0.022"/><circle cx="1059.0" cy="382.3" r="0.48" fill="#f4f3ef" opacity="0.036"/><circle cx="1896.8" cy="752.4" r="1.28" fill="#f4f3ef" opacity="0.054"/><circle cx="1802.2" cy="544.7" r="0.90" fill="#f4f3ef" opacity="0.041"/><circle cx="1676.0" cy="226.0" r="0.67" fill="#f4f3ef" opacity="0.038"/><circle cx="214.5" cy="342.8" r="0.46" fill="#f4f3ef" opacity="0.057"/><circle cx="1376.2" cy="1041.8" r="0.42" fill="#f4f3ef" opacity="0.077"/><circle cx="88.5" cy="149.7" r="0.80" fill="#f4f3ef" opacity="0.071"/><circle cx="1874.5" cy="613.2" r="1.30" fill="#f4f3ef" opacity="0.025"/><circle cx="1519.1" cy="298.8" r="1.45" fill="#f4f3ef" opacity="0.051"/><circle cx="1416.6" cy="873.4" r="0.41" fill="#f4f3ef" opacity="0.055"/><circle cx="476.6" cy="123.6" r="0.53" fill="#f4f3ef" opacity="0.058"/><circle cx="1590.9" cy="115.9" r="0.72" fill="#f4f3ef" opacity="0.062"/><circle cx="1180.3" cy="957.1" r="0.43" fill="#f4f3ef" opacity="0.031"/><circle cx="1141.0" cy="673.9" r="0.49" fill="#f4f3ef" opacity="0.075"/><circle cx="951.6" cy="133.0" r="0.55" fill="#f4f3ef" opacity="0.032"/><circle cx="659.5" cy="40.9" r="0.41" fill="#f4f3ef" opacity="0.037"/><circle cx="1307.6" cy="824.3" r="0.70" fill="#f4f3ef" opacity="0.056"/><circle cx="881.2" cy="1070.0" r="0.49" fill="#f4f3ef" opacity="0.059"/><circle cx="1134.3" cy="1004.6" r="1.26" fill="#f4f3ef" opacity="0.055"/><circle cx="336.5" cy="214.7" r="0.71" fill="#f4f3ef" opacity="0.042"/><circle cx="739.7" cy="407.1" r="1.47" fill="#f4f3ef" opacity="0.064"/><circle cx="44.6" cy="248.3" r="1.13" fill="#f4f3ef" opacity="0.063"/><circle cx="1427.5" cy="645.1" r="1.45" fill="#f4f3ef" opacity="0.072"/><circle cx="1807.0" cy="1024.1" r="0.22" fill="#f4f3ef" opacity="0.027"/><circle cx="590.5" cy="652.0" r="0.95" fill="#f4f3ef" opacity="0.043"/><circle cx="100.8" cy="675.5" r="1.04" fill="#f4f3ef" opacity="0.067"/><circle cx="1523.3" cy="401.2" r="0.47" fill="#f4f3ef" opacity="0.048"/><circle cx="211.9" cy="775.8" r="0.25" fill="#f4f3ef" opacity="0.034"/><circle cx="1476.3" cy="1025.9" r="0.43" fill="#f4f3ef" opacity="0.066"/><circle cx="1168.4" cy="338.2" r="0.36" fill="#f4f3ef" opacity="0.046"/><circle cx="188.9" cy="259.5" r="1.37" fill="#f4f3ef" opacity="0.076"/><circle cx="1074.1" cy="256.3" r="0.54" fill="#f4f3ef" opacity="0.049"/><circle cx="102.4" cy="475.3" r="0.82" fill="#f4f3ef" opacity="0.062"/><circle cx="1801.4" cy="903.2" r="1.03" fill="#f4f3ef" opacity="0.029"/><circle cx="174.0" cy="166.7" r="0.92" fill="#f4f3ef" opacity="0.057"/><circle cx="1525.3" cy="452.3" r="1.38" fill="#f4f3ef" opacity="0.076"/><circle cx="569.5" cy="186.9" r="1.58" fill="#f4f3ef" opacity="0.054"/><circle cx="56.2" cy="397.1" r="1.08" fill="#f4f3ef" opacity="0.070"/><circle cx="957.2" cy="989.4" r="1.58" fill="#f4f3ef" opacity="0.068"/><circle cx="1613.2" cy="990.6" r="1.14" fill="#f4f3ef" opacity="0.069"/><circle cx="80.6" cy="587.4" r="0.57" fill="#f4f3ef" opacity="0.067"/><circle cx="1597.8" cy="646.5" r="0.95" fill="#f4f3ef" opacity="0.077"/><circle cx="452.4" cy="794.4" r="0.65" fill="#f4f3ef" opacity="0.056"/><circle cx="1527.2" cy="377.8" r="0.32" fill="#f4f3ef" opacity="0.028"/><circle cx="887.4" cy="143.5" r="0.42" fill="#f4f3ef" opacity="0.024"/><circle cx="287.2" cy="318.1" r="1.04" fill="#f4f3ef" opacity="0.053"/><circle cx="1836.0" cy="488.2" r="1.26" fill="#f4f3ef" opacity="0.054"/><circle cx="105.9" cy="200.6" r="0.93" fill="#f4f3ef" opacity="0.069"/><circle cx="477.5" cy="281.8" r="0.44" fill="#f4f3ef" opacity="0.042"/><circle cx="367.1" cy="558.6" r="1.53" fill="#f4f3ef" opacity="0.064"/><circle cx="533.3" cy="457.6" r="0.61" fill="#f4f3ef" opacity="0.072"/><circle cx="383.4" cy="325.5" r="1.19" fill="#f4f3ef" opacity="0.062"/><circle cx="320.4" cy="229.0" r="0.66" fill="#f4f3ef" opacity="0.038"/><circle cx="1529.5" cy="554.7" r="0.40" fill="#f4f3ef" opacity="0.073"/><circle cx="1284.8" cy="89.3" r="1.43" fill="#f4f3ef" opacity="0.033"/><circle cx="1055.9" cy="219.4" r="0.98" fill="#f4f3ef" opacity="0.078"/><circle cx="534.6" cy="131.7" r="1.22" fill="#f4f3ef" opacity="0.051"/><circle cx="621.8" cy="293.0" r="0.67" fill="#f4f3ef" opacity="0.055"/><circle cx="13.6" cy="169.8" r="0.63" fill="#f4f3ef" opacity="0.041"/><circle cx="748.7" cy="988.8" r="1.21" fill="#f4f3ef" opacity="0.047"/><circle cx="1594.3" cy="576.7" r="1.27" fill="#f4f3ef" opacity="0.048"/><circle cx="393.6" cy="800.2" r="0.53" fill="#f4f3ef" opacity="0.029"/><circle cx="1531.6" cy="605.8" r="1.31" fill="#f4f3ef" opacity="0.041"/><circle cx="1642.4" cy="580.4" r="1.35" fill="#f4f3ef" opacity="0.052"/><circle cx="1555.7" cy="670.6" r="0.23" fill="#f4f3ef" opacity="0.022"/><circle cx="323.4" cy="782.9" r="1.04" fill="#f4f3ef" opacity="0.073"/><circle cx="126.1" cy="1024.1" r="0.44" fill="#f4f3ef" opacity="0.048"/><circle cx="940.1" cy="500.9" r="0.65" fill="#f4f3ef" opacity="0.058"/><circle cx="324.1" cy="80.0" r="1.34" fill="#f4f3ef" opacity="0.062"/><circle cx="245.3" cy="467.9" r="0.88" fill="#f4f3ef" opacity="0.074"/><circle cx="1746.7" cy="1011.3" r="1.34" fill="#f4f3ef" opacity="0.060"/><circle cx="893.6" cy="297.0" r="0.35" fill="#f4f3ef" opacity="0.050"/><circle cx="1360.0" cy="711.6" r="0.81" fill="#f4f3ef" opacity="0.052"/><circle cx="1415.6" cy="761.7" r="0.41" fill="#f4f3ef" opacity="0.065"/><circle cx="1392.1" cy="1074.1" r="0.39" fill="#f4f3ef" opacity="0.075"/><circle cx="910.4" cy="315.3" r="1.14" fill="#f4f3ef" opacity="0.020"/><circle cx="1226.7" cy="472.1" r="0.21" fill="#f4f3ef" opacity="0.056"/><circle cx="1179.5" cy="971.1" r="1.01" fill="#f4f3ef" opacity="0.057"/><circle cx="176.2" cy="1079.0" r="1.43" fill="#f4f3ef" opacity="0.020"/><circle cx="539.9" cy="862.5" r="0.27" fill="#f4f3ef" opacity="0.070"/><circle cx="1535.7" cy="708.2" r="0.32" fill="#f4f3ef" opacity="0.038"/><circle cx="437.7" cy="482.8" r="1.20" fill="#f4f3ef" opacity="0.031"/><circle cx="635.4" cy="492.9" r="1.53" fill="#f4f3ef" opacity="0.029"/><circle cx="1820.9" cy="1005.2" r="0.68" fill="#f4f3ef" opacity="0.056"/><circle cx="1054.7" cy="326.5" r="1.38" fill="#f4f3ef" opacity="0.033"/><circle cx="873.2" cy="83.3" r="0.71" fill="#f4f3ef" opacity="0.033"/><circle cx="1394.9" cy="422.3" r="0.20" fill="#f4f3ef" opacity="0.032"/><circle cx="1387.2" cy="250.2" r="1.51" fill="#f4f3ef" opacity="0.066"/><circle cx="613.1" cy="353.7" r="1.55" fill="#f4f3ef" opacity="0.061"/><circle cx="1537.8" cy="759.3" r="1.23" fill="#f4f3ef" opacity="0.066"/><circle cx="795.3" cy="973.9" r="1.12" fill="#f4f3ef" opacity="0.051"/><circle cx="1135.3" cy="944.1" r="0.78" fill="#f4f3ef" opacity="0.033"/><circle cx="1609.6" cy="576.4" r="0.50" fill="#f4f3ef" opacity="0.078"/><circle cx="559.0" cy="1057.6" r="1.15" fill="#f4f3ef" opacity="0.026"/><circle cx="1799.7" cy="414.4" r="0.74" fill="#f4f3ef" opacity="0.050"/><circle cx="970.3" cy="593.5" r="0.34" fill="#f4f3ef" opacity="0.047"/><circle cx="38.2" cy="141.4" r="1.12" fill="#f4f3ef" opacity="0.033"/><circle cx="46.3" cy="564.8" r="0.95" fill="#f4f3ef" opacity="0.032"/><circle cx="899.9" cy="450.5" r="0.28" fill="#f4f3ef" opacity="0.075"/><circle cx="512.9" cy="25.1" r="0.58" fill="#f4f3ef" opacity="0.050"/><circle cx="995.1" cy="1035.2" r="0.96" fill="#f4f3ef" opacity="0.077"/><circle cx="758.3" cy="867.6" r="1.25" fill="#f4f3ef" opacity="0.080"/><circle cx="1343.3" cy="348.8" r="0.45" fill="#f4f3ef" opacity="0.059"/><circle cx="166.2" cy="385.6" r="0.30" fill="#f4f3ef" opacity="0.048"/><circle cx="1825.7" cy="404.6" r="1.40" fill="#f4f3ef" opacity="0.043"/><circle cx="1889.1" cy="752.5" r="0.27" fill="#f4f3ef" opacity="0.039"/><circle cx="759.5" cy="416.0" r="1.29" fill="#f4f3ef" opacity="0.042"/><circle cx="1541.9" cy="861.7" r="0.25" fill="#f4f3ef" opacity="0.063"/><circle cx="1510.6" cy="876.3" r="0.97" fill="#f4f3ef" opacity="0.030"/><circle cx="215.0" cy="766.4" r="0.68" fill="#f4f3ef" opacity="0.041"/><circle cx="1187.1" cy="798.7" r="1.54" fill="#f4f3ef" opacity="0.061"/><circle cx="1487.6" cy="360.0" r="0.68" fill="#f4f3ef" opacity="0.072"/><circle cx="1732.7" cy="1076.8" r="0.79" fill="#f4f3ef" opacity="0.025"/><circle cx="121.1" cy="935.8" r="0.60" fill="#f4f3ef" opacity="0.078"/><circle cx="1180.1" cy="1003.7" r="0.35" fill="#f4f3ef" opacity="0.025"/><circle cx="832.7" cy="987.2" r="1.16" fill="#f4f3ef" opacity="0.033"/><circle cx="1544.0" cy="912.8" r="1.16" fill="#f4f3ef" opacity="0.032"/><circle cx="1868.2" cy="287.4" r="0.89" fill="#f4f3ef" opacity="0.049"/><circle cx="714.8" cy="137.6" r="1.33" fill="#f4f3ef" opacity="0.045"/><circle cx="975.8" cy="369.9" r="1.36" fill="#f4f3ef" opacity="0.023"/><circle cx="991.9" cy="11.1" r="0.45" fill="#f4f3ef" opacity="0.065"/><circle cx="739.2" cy="327.9" r="0.82" fill="#f4f3ef" opacity="0.042"/><circle cx="1616.5" cy="27.0" r="0.73" fill="#f4f3ef" opacity="0.033"/><circle cx="1751.1" cy="894.9" r="1.36" fill="#f4f3ef" opacity="0.051"/><circle cx="265.9" cy="118.3" r="0.57" fill="#f4f3ef" opacity="0.063"/><circle cx="906.1" cy="604.0" r="0.20" fill="#f4f3ef" opacity="0.040"/><circle cx="1585.8" cy="418.6" r="0.35" fill="#f4f3ef" opacity="0.049"/><circle cx="574.7" cy="228.7" r="1.51" fill="#f4f3ef" opacity="0.029"/><circle cx="124.6" cy="661.1" r="0.71" fill="#f4f3ef" opacity="0.025"/><circle cx="1776.1" cy="382.3" r="1.15" fill="#f4f3ef" opacity="0.037"/><circle cx="1025.8" cy="299.1" r="0.38" fill="#f4f3ef" opacity="0.039"/><circle cx="551.9" cy="918.1" r="0.39" fill="#f4f3ef" opacity="0.028"/><circle cx="1682.0" cy="426.0" r="0.51" fill="#f4f3ef" opacity="0.057"/><circle cx="979.0" cy="1049.5" r="0.91" fill="#f4f3ef" opacity="0.074"/><circle cx="1548.2" cy="1015.2" r="1.58" fill="#f4f3ef" opacity="0.028"/><circle cx="663.5" cy="189.8" r="0.74" fill="#f4f3ef" opacity="0.028"/><circle cx="1714.6" cy="1039.9" r="1.23" fill="#f4f3ef" opacity="0.053"/><circle cx="553.3" cy="592.2" r="1.00" fill="#f4f3ef" opacity="0.067"/><circle cx="0.4" cy="393.5" r="1.39" fill="#f4f3ef" opacity="0.050"/><circle cx="672.3" cy="990.3" r="0.87" fill="#f4f3ef" opacity="0.077"/><circle cx="767.3" cy="369.3" r="0.99" fill="#f4f3ef" opacity="0.063"/><circle cx="973.0" cy="677.2" r="0.58" fill="#f4f3ef" opacity="0.043"/><circle cx="1052.2" cy="540.7" r="0.78" fill="#f4f3ef" opacity="0.065"/><circle cx="1550.2" cy="1066.3" r="1.09" fill="#f4f3ef" opacity="0.057"/><circle cx="1021.1" cy="680.9" r="0.66" fill="#f4f3ef" opacity="0.048"/><circle cx="294.4" cy="411.1" r="0.48" fill="#f4f3ef" opacity="0.057"/><circle cx="342.0" cy="163.4" r="0.82" fill="#f4f3ef" opacity="0.028"/><circle cx="1424.7" cy="44.6" r="1.16" fill="#f4f3ef" opacity="0.043"/><circle cx="1598.8" cy="241.4" r="0.90" fill="#f4f3ef" opacity="0.034"/><circle cx="342.7" cy="540.5" r="1.12" fill="#f4f3ef" opacity="0.078"/><circle cx="1544.0" cy="568.4" r="1.60" fill="#f4f3ef" opacity="0.070"/><circle cx="485.4" cy="751.8" r="1.58" fill="#f4f3ef" opacity="0.035"/><circle cx="912.3" cy="757.5" r="1.53" fill="#f4f3ef" opacity="0.065"/><circle cx="738.7" cy="812.1" r="1.52" fill="#f4f3ef" opacity="0.047"/><circle cx="154.3" cy="502.2" r="0.66" fill="#f4f3ef" opacity="0.041"/><circle cx="1410.8" cy="454.6" r="1.57" fill="#f4f3ef" opacity="0.030"/><circle cx="289.0" cy="415.8" r="0.46" fill="#f4f3ef" opacity="0.076"/><circle cx="1885.3" cy="212.6" r="0.46" fill="#f4f3ef" opacity="0.031"/><circle cx="1198.1" cy="351.6" r="0.79" fill="#f4f3ef" opacity="0.073"/><circle cx="1474.9" cy="99.5" r="0.74" fill="#f4f3ef" opacity="0.076"/><circle cx="1198.6" cy="603.0" r="0.52" fill="#f4f3ef" opacity="0.046"/><circle cx="1554.4" cy="88.7" r="1.50" fill="#f4f3ef" opacity="0.054"/><circle cx="1736.3" cy="583.3" r="0.51" fill="#f4f3ef" opacity="0.027"/><circle cx="1294.1" cy="233.4" r="0.38" fill="#f4f3ef" opacity="0.065"/><circle cx="1839.5" cy="385.7" r="0.46" fill="#f4f3ef" opacity="0.072"/><circle cx="433.3" cy="427.0" r="0.69" fill="#f4f3ef" opacity="0.029"/><circle cx="1531.8" cy="903.8" r="0.95" fill="#f4f3ef" opacity="0.069"/><circle cx="1413.5" cy="882.8" r="1.38" fill="#f4f3ef" opacity="0.048"/><circle cx="765.9" cy="350.7" r="0.82" fill="#f4f3ef" opacity="0.062"/><circle cx="1271.8" cy="94.2" r="0.39" fill="#f4f3ef" opacity="0.037"/>
  <rect width="1920" height="1080" fill="url(#l41)"/>
  
  <text x="96" y="993.6" font-family="Helvetica, Arial, sans-serif" font-size="34.559999999999995" letter-spacing="4" fill="#f4f3ef" fill-opacity="0.72">HALO</text>
  <text x="96" y="1036.8" font-family="Helvetica, Arial, sans-serif" font-size="21.119999999999997" letter-spacing="2" fill="#f4f3ef" fill-opacity="0.38">SCREENSHOT 02</text>
</svg>