<?xml version="1.0" encoding="UTF-8"?>
<svg xmlns="http://www.w3.org/2000/svg" width="1920" height="1080" viewBox="0 0 1920 1080">
  <defs>
    <linearGradient id="g28" x1="0%" y1="0%" x2="100%" y2="100%">
      <stop offset="0%" stop-color="#181414"/>
      <stop offset="100%" stop-color="#33201c"/>
    </linearGradient>
    <linearGradient id="l28" x1="0%" y1="0%" x2="0%" y2="100%">
      <stop offset="0%" stop-color="#000" stop-opacity="0"/>
      <stop offset="100%" stop-color="#000" stop-opacity="0.55"/>
    </linearGradient>
  </defs>
  <rect width="1920" height="1080" fill="url(#g28)"/>
  <circle cx="629.2" cy="124.1" r="1.35" fill="#f4f3ef" opacity="0.066"/><circle cx="603.7" cy="902.0" r="0.46" fill="#f4f3ef" opacity="0.079"/><circle cx="878.5" cy="35.5" r="0.96" fill="#f4f3ef" opacity="0.026"/><circle cx="1358.8" cy="431.1" r="0.47" fill="#f4f3ef" opacity="0.058"/><circle cx="1878.5" cy="155.7" r="0.50" fill="#f4f3ef" opacity="0.062"/><circle cx="707.4" cy="955.8" r="1.55" fill="#f4f3ef" opacity="0.037"/><circle cx="97.2" cy="218.2" r="0.63" fill="#f4f3ef" opacity="0.028"/><circle cx="1588.8" cy="929.4" r="0.96" fill="#f4f3ef" opacity="0.035"/><circle cx="678.4" cy="756.2" r="1.47" fill="#f4f3ef" opacity="0.032"/><circle cx="44.6" cy="205.3" r="1.36" fill="#f4f3ef" opacity="0.076"/><circle cx="1014.7" cy="703.2" r="1.36" fill="#f4f3ef" opacity="0.040"/><circle cx="151.7" cy="156.6" r="0.24" fill="#f4f3ef" opacity="0.052"/><circle cx="560.8" cy="32.3" r="0.80" fill="#f4f3ef" opacity="0.061"/><circle cx="1436.1" cy="196.9" r="1.24" fill="#f4f3ef" opacity="0.056"/><circle cx="407.2" cy="957.0" r="0.21" fill="#f4f3ef" opacity="0.076"/><circle cx="1006.0" cy="419.4" r="1.27" fill="#f4f3ef" opacity="0.025"/><circle cx="293.1" cy="130.6" r="1.54" fill="#f4f3ef" opacity="0.063"/><circle cx="804.9" cy="637.4" r="0.91" fill="#f4f3ef" opacity="0.025"/><circle cx="740.0" cy="1006.4" r="0.91" fill="#f4f3ef" opacity="0.066"/><circle cx="785.7" cy="144.3" r="0.39" fill="#f4f3ef" opacity="0.041"/><circle cx="704.9" cy="997.8" r="0.47" fill="#f4f3ef" opacity="0.058"/><circle cx="1042.9" cy="353.5" r="0.66" fill="#f4f3ef" opacity="0.045"/><circle cx="353.8" cy="958.0" r="1.52" fill="#f4f3ef" opacity="0.031"/><circle cx="1387.1" cy="598.2" r="1.21" fill="#f4f3ef" opacity="0.035"/><circle cx="1274.7" cy="260.5" r="1.44" fill="#f4f3ef" opacity="0.061"/><circle cx="277.4" cy="51.8" r="0.26" fill="#f4f3ef" opacity="0.071"/><circle cx="291.5" cy="158.6" r="1.29" fill="#f4f3ef" opacity="0.057"/><circle cx="795.4" cy="367.6" r="1.39" fill="#f4f3ef" opacity="0.036"/><circle cx="1836.6" cy="305.5" r="0.35" fill="#f4f3ef" opacity="0.023"/><circle cx="618.1" cy="399.0" r="0.22" fill="#f4f3ef" opacity="0.043"/><circle cx="885.0" cy="314.6" r="1.45" fill="#f4f3ef" opacity="0.068"/><circle cx="551.4" cy="279.2" r="1.33" fill="#f4f3ef" opacity="0.045"/><circle cx="1726.9" cy="959.3" r="0.35" fill="#f4f3ef" opacity="0.034"/><circle cx="903.4" cy="821.7" r="1.14" fill="#f4f3ef" opacity="0.078"/><circle cx="1541.7" cy="692.9" r="1.31" fill="#f4f3ef" opacity="0.059"/><circle cx="1058.0" cy="399.7" r="1.20" fill="#f4f3ef" opacity="0.069"/><circle cx="210.8" cy="448.8" r="1.41" fill="#f4f3ef" opacity="0.046"/><circle cx="327.6" cy="106.7" r="1.25" fill="#f4f3ef" opacity="0.044"/><circle cx="1811.3" cy="520.1" r="0.91" fill="#f4f3ef" opacity="0.069"/><circle cx="87.1" cy="995.8" r="0.38" fill="#f4f3ef" opacity="0.071"/><circle cx="109.0" cy="320.4" r="0.67" fill="#f4f3ef" opacity="0.040"/><circle cx="1426.8" cy="960.5" r="0.41" fill="#f4f3ef" opacity="0.073"/><circle cx="1812.2" cy="1022.9" r="0.38" fill="#f4f3ef" opacity="0.075"/><circle cx="246.0" cy="974.1" r="0.50" fill="#f4f3ef" opacity="0.027"/><circle cx="1184.5" cy="280.9" r="0.64" fill="#f4f3ef" opacity="0.061"/><circle cx="906.2" cy="169.9" r="0.96" fill="#f4f3ef" opacity="0.036"/><circle cx="98.5" cy="627.8" r="0.28" fill="#f4f3ef" opacity="0.045"/><circle cx="444.5" cy="281.3" r="1.13" fill="#f4f3ef" opacity="0.074"/><circle cx="569.1" cy="237.0" r="0.23" fill="#f4f3ef" opacity="0.055"/><circle cx="946.6" cy="1.5" r="0.94" fill="#f4f3ef" opacity="0.074"/><circle cx="486.6" cy="601.7" r="1.41" fill="#f4f3ef" opacity="0.032"/><circle cx="160.9" cy="864.0" r="0.55" fill="#f4f3ef" opacity="0.051"/><circle cx="230.3" cy="895.3" r="0.62" fill="#f4f3ef" opacity="0.035"/><circle cx="671.0" cy="882.1" r="1.02" fill="#f4f3ef" opacity="0.034"/><circle cx="961.6" cy="611.1" r="1.44" fill="#f4f3ef" opacity="0.066"/><circle cx="1149.5" cy="789.0" r="0.24" fill="#f4f3ef" opacity="0.026"/><circle cx="357.6" cy="762.5" r="0.89" fill="#f4f3ef" opacity="0.060"/><circle cx="411.2" cy="198.1" r="1.03" fill="#f4f3ef" opacity="0.078"/><circle cx="1144.3" cy="402.7" r="0.75" fill="#f4f3ef" opacity="0.029"/><circle cx="826.5" cy="962.8" r="0.55" fill="#f4f3ef" opacity="0.031"/><circle cx="1709.7" cy="345.2" r="0.25" fill="#f4f3ef" opacity="0.068"/><circle cx="1494.6" cy="456.4" r="0.27" fill="#f4f3ef" opacity="0.022"/><circle cx="1437.5" cy="43.2" r="0.93" fill="#f4f3ef" opacity="0.046"/><circle cx="377.0" cy="692.3" r="1.45" fill="#f4f3ef" opacity="0.076"/><circle cx="1560.5" cy="590.2" r="1.14" fill="#f4f3ef" opacity="0.047"/><circle cx="1550.8" cy="883.6" r="1.58" fill="#f4f3ef" opacity="0.026"/><circle cx="1533.3" cy="879.3" r="1.35" fill="#f4f3ef" opacity="0.022"/><circle cx="701.9" cy="443.9" r="1.49" fill="#f4f3ef" opacity="0.023"/><circle cx="526.3" cy="964.0" r="0.61" fill="#f4f3ef" opacity="0.070"/><circle cx="698.4" cy="546.4" r="0.89" fill="#f4f3ef" opacity="0.065"/><circle cx="198.9" cy="737.6" r="0.85" fill="#f4f3ef" opacity="0.050"/><circle cx="1564.1" cy="1004.4" r="0.38" fill="#f4f3ef" opacity="0.038"/><circle cx="1072.4" cy="413.4" r="1.00" fill="#f4f3ef" opacity="0.066"/><circle cx="1331.4" cy="31.3" r="1.57" fill="#f4f3ef" opacity="0.048"/><circle cx="184.0" cy="644.8" r="0.40" fill="#f4f3ef" opacity="0.031"/><circle cx="95.3" cy="120.5" r="1.21" fill="#f4f3ef" opacity="0.065"/><circle cx="1539.5" cy="125.0" r="0.36" fill="#f4f3ef" opacity="0.058"/><circle cx="1506.2" cy="605.2" r="0.21" fill="#f4f3ef" opacity="0.029"/><circle cx="967.2" cy="387.5" r="1.06" fill="#f4f3ef" opacity="0.042"/><circle cx="183.2" cy="658.8" r="0.97" fill="#f4f3ef" opacity="0.058"/><circle cx="1050.6" cy="525.6" r="0.75" fill="#f4f3ef" opacity="0.071"/><circle cx="1127.8" cy="854.6" r="1.48" fill="#f4f3ef" opacity="0.036"/><circle cx="462.4" cy="192.5" r="1.53" fill="#f4f3ef" opacity="0.030"/><circle cx="97.2" cy="46.0" r="1.55" fill="#f4f3ef" opacity="0.077"/><circle cx="1857.4" cy="81.6" r="0.60" fill="#f4f3ef" opacity="0.028"/><circle cx="1737.2" cy="526.2" r="1.57" fill="#f4f3ef" opacity="0.072"/><circle cx="1846.0" cy="966.3" r="0.75" fill="#f4f3ef" opacity="0.028"/><circle cx="595.9" cy="948.7" r="0.76" fill="#f4f3ef" opacity="0.058"/><circle cx="1447.5" cy="219.9" r="0.62" fill="#f4f3ef" opacity="0.046"/><circle cx="1817.1" cy="766.7" r="0.66" fill="#f4f3ef" opacity="0.023"/><circle cx="543.3" cy="935.8" r="1.49" fill="#f4f3ef" opacity="0.046"/><circle cx="873.4" cy="1073.7" r="1.02" fill="#f4f3ef" opacity="0.051"/><circle cx="1290.4" cy="167.1" r="0.84" fill="#f4f3ef" opacity="0.043"/><circle cx="1059.5" cy="762.8" r="0.93" fill="#f4f3ef" opacity="0.032"/><circle cx="1294.8" cy="567.4" r="0.91" fill="#f4f3ef" opacity="0.067"/><circle cx="1545.9" cy="967.5" r="0.81" fill="#f4f3ef" opacity="0.067"/><circle cx="1504.6" cy="69.9" r="1.40" fill="#f4f3ef" opacity="0.055"/><circle cx="151.8" cy="501.1" r="1.21" fill="#f4f3ef" opacity="0.074"/><circle cx="23.6" cy="647.9" r="1.51" fill="#f4f3ef" opacity="0.075"/><circle cx="1238.7" cy="656.9" r="1.04" fill="#f4f3ef" opacity="0.036"/><circle cx="644.3" cy="514.8" r="1.45" fill="#f4f3ef" opacity="0.052"/><circle cx="1843.6" cy="1008.3" r="1.06" fill="#f4f3ef" opacity="0.048"/><circle cx="1541.6" cy="4.0" r="0.79" fill="#f4f3ef" opacity="0.075"/><circle cx="212.4" cy="248.5" r="1.18" fill="#f4f3ef" opacity="0.041"/><circle cx="605.7" cy="608.7" r="0.41" fill="#f4f3ef" opacity="0.026"/><circle cx="1773.4" cy="991.0" r="1.57" fill="#f4f3ef" opacity="0.032"/><circle cx="136.1" cy="422.3" r="1.32" fill="#f4f3ef" opacity="0.022"/><circle cx="1430.1" cy="169.1" r="0.49" fill="#f4f3ef" opacity="0.047"/><circle cx="1294.1" cy="18.1" r="1.52" fill="#f4f3ef" opacity="0.066"/><circle cx="1695.3" cy="676.0" r="1.42" fill="#f4f3ef" opacity="0.033"/><circle cx="1756.7" cy="409.5" r="0.82" fill="#f4f3ef" opacity="0.034"/><circle cx="1383.6" cy="1045.1" r="1.58" fill="#f4f3ef" opacity="0.039"/><circle cx="410.0" cy="649.7" r="0.99" fill="#f4f3ef" opacity="0.056"/><circle cx="945.6" cy="969.8" r="0.94" fill="#f4f3ef" opacity="0.025"/><circle cx="1402.1" cy="472.2" r="1.27" fill="#f4f3ef" opacity="0.049"/><circle cx="1400.4" cy="1063.4" r="0.98" fill="#f4f3ef" opacity="0.069"/><circle cx="276.7" cy="410.2" r="0.40" fill="#f4f3ef" opacity="0.060"/><circle cx="709.5" cy="99.3" r="1.54" fill="#f4f3ef" opacity="0.076"/><circle cx="186.2" cy="477.2" r="0.91" fill="#f4f3ef" opacity="0.054"/><circle cx="1029.9" cy="530.6" r="1.51" fill="#f4f3ef" opacity="0.059"/><circle cx="585.7" cy="646.3" r="0.51" fill="#f4f3ef" opacity="0.042"/><circle cx="1887.7" cy="690.9" r="0.33" fill="#f4f3ef" opacity="0.050"/><circle cx="645.4" cy="971.0" r="1.01" fill="#f4f3ef" opacity="0.063"/><circle cx="390.9" cy="673.4" r="0.51" fill="#f4f3ef" opacity="0.045"/><circle cx="104.7" cy="264.6" r="1.56" fill="#f4f3ef" opacity="0.037"/><circle cx="403.2" cy="291.4" r="1.24" fill="#f4f3ef" opacity="0.052"/><circle cx="1404.9" cy="900.4" r="1.09" fill="#f4f3ef" opacity="0.066"/><circle cx="1877.2" cy="998.3" r="1.34" fill="#f4f3ef" opacity="0.055"/><circle cx="1583.1" cy="291.8" r="0.33" fill="#f4f3ef" opacity="0.065"/><circle cx="1067.8" cy="967.5" r="0.37" fill="#f4f3ef" opacity="0.025"/><circle cx="805.3" cy="372.0" r="0.60" fill="#f4f3ef" opacity="0.025"/><circle cx="1625.3" cy="612.2" r="0.61" fill="#f4f3ef" opacity="0.022"/><circle cx="659.6" cy="514.5" r="0.68" fill="#f4f3ef" opacity="0.022"/><circle cx="89.0" cy="185.8" r="0.28" fill="#f4f3ef" opacity="0.045"/><circle cx="1809.7" cy="892.6" r="0.22" fill="#f4f3ef" opacity="0.024"/><circle cx="1460.3" cy="261.6" r="1.57" fill="#f4f3ef" opacity="0.037"/><circle cx="1008.2" cy="79.5" r="1.30" fill="#f4f3ef" opacity="0.037"/><circle cx="1496.3" cy="773.0" r="1.48" fill="#f4f3ef" opacity="0.051"/><circle cx="909.9" cy="928.6" r="1.16" fill="#f4f3ef" opacity="0.049"/><circle cx="1002.9" cy="773.2" r="0.41" fill="#f4f3ef" opacity="0.039"/><circle cx="45.1" cy="973.3" r="1.14" fill="#f4f3ef" opacity="0.021"/><circle cx="288.3" cy="1075.7" r="0.38" fill="#f4f3ef" opacity="0.039"/><circle cx="1353.3" cy="826.9" r="1.33" fill="#f4f3ef" opacity="0.033"/><circle cx="656.2" cy="53.7" r="1.53" fill="#f4f3ef" opacity="0.037"/><circle cx="875.7" cy="342.8" r="1.58" fill="#f4f3ef" opacity="0.047"/><circle cx="1419.1" cy="960.7" r="0.80" fill="#f4f3ef" opacity="0.058"/><circle cx="769.5" cy="894.1" r="0.77" fill="#f4f3ef" opacity="0.076"/><circle cx="111.9" cy="529.8" r="1.48" fill="#f4f3ef" opacity="0.052"/><circle cx="560.6" cy="814.4" r="1.15" fill="#f4f3ef" opacity="0.034"/><circle cx="1665.0" cy="974.5" r="1.21" fill="#f4f3ef" opacity="0.060"/><circle cx="1197.1" cy="196.9" r="1.02" fill="#f4f3ef" opacity="0.036"/><circle cx="57.6" cy="28.1" r="0.52" fill="#f4f3ef" opacity="0.061"/><circle cx="782.7" cy="1014.9" r="0.97" fill="#f4f3ef" opacity="0.029"/><circle cx="1571.1" cy="63.9" r="1.13" fill="#f4f3ef" opacity="0.037"/><circle cx="1190.1" cy="401.8" r="1.23" fill="#f4f3ef" opacity="0.059"/><circle cx="1322.7" cy="655.3" r="0.99" fill="#f4f3ef" opacity="0.022"/><circle cx="594.0" cy="851.0" r="1.34" fill="#f4f3ef" opacity="0.036"/><circle cx="1398.2" cy="495.5" r="1.42" fill="#f4f3ef" opacity="0.068"/><circle cx="724.8" cy="615.7" r="0.81" fill="#f4f3ef" opacity="0.079"/><circle cx="1465.8" cy="38.0" r="1.19" fill="#f4f3ef" opacity="0.072"/><circle cx="41.9" cy="1029.3" r="0.63" fill="#f4f3ef" opacity="0.069"/><circle cx="269.2" cy="536.1" r="1.35" fill="#f4f3ef" opacity="0.061"/><circle cx="1626.5" cy="505.1" r="0.21" fill="#f4f3ef" opacity="0.067"/><circle cx="321.1" cy="563.0" r="1.19" fill="#f4f3ef" opacity="0.040"/><circle cx="1235.9" cy="56.5" r="0.75" fill="#f4f3ef" opacity="0.067"/><circle cx="436.1" cy="812.1" r="0.73" fill="#f4f3ef" opacity="0.059"/><circle cx="1595.8" cy="896.7" r="1.23" fill="#f4f3ef" opacity="0.023"/><circle cx="1064.7" cy="976.8" r="1.34" fill="#f4f3ef" opacity="0.078"/><circle cx="1094.6" cy="599.2" r="0.89" fill="#f4f3ef" opacity="0.029"/><circle cx="1306.1" cy="590.4" r="0.29" fill="#f4f3ef" opacity="0.057"/><circle cx="1035.8" cy="777.2" r="1.26" fill="#f4f3ef" opacity="0.073"/><circle cx="1041.9" cy="586.3" r="0.23" fill="#f4f3ef" opacity="0.077"/><circle cx="732.0" cy="364.2" r="0.69" fill="#f4f3ef" opacity="0.061"/><circle cx="509.0" cy="177.6" r="1.44" fill="#f4f3ef" opacity="0.033"/><circle cx="1558.2" cy="413.3" r="1.06" fill="#f4f3ef" opacity="0.062"/><circle cx="1153.5" cy="937.9" r="0.57" fill="#f4f3ef" opacity="0.077"/><circle cx="764.6" cy="978.0" r="1.41" fill="#f4f3ef" opacity="0.057"/><circle cx="83.3" cy="800.4" r="1.53" fill="#f4f3ef" opacity="0.026"/><circle cx="10.4" cy="871.6" r="0.87" fill="#f4f3ef" opacity="0.024"/><circle cx="1162.3" cy="658.4" r="0.70" fill="#f4f3ef" opacity="0.066"/><circle cx="1737.3" cy="307.4" r="1.17" fill="#f4f3ef" opacity="0.067"/><circle cx="503.0" cy="885.3" r="1.12" fill="#f4f3ef" opacity="0.063"/><circle cx="1062.2" cy="1018.8" r="0.26" fill="#f4f3ef" opacity="0.039"/><circle cx="120.2" cy="734.5" r="0.92" fill="#f4f3ef" opacity="0.046"/><circle cx="71.1" cy="619.0" r="0.85" fill="#f4f3ef" opacity="0.052"/><circle cx="1744.4" cy="619.2" r="1.01" fill="#f4f3ef" opacity="0.076"/><circle cx="352.0" cy="641.5" r="0.30" fill="#f4f3ef" opacity="0.062"/><circle cx="1914.7" cy="792.8" r="0.99" fill="#f4f3ef" opacity="0.032"/><circle cx="648.8" cy="179.6" r="1.08" fill="#f4f3ef" opacity="0.038"/><circle cx="1792.7" cy="748.6" r="0.25" fill="#f4f3ef" opacity="0.037"/><circle cx="1554.0" cy="1046.5" r="1.08" fill="#f4f3ef" opacity="0.044"/><circle cx="975.4" cy="420.0" r="1.42" fill="#f4f3ef" opacity="0.024"/><circle cx="1882.3" cy="695.6" r="0.31" fill="#f4f3ef" opacity="0.069"/><circle cx="268.7" cy="1020.2" r="0.65" fill="#f4f3ef" opacity="0.066"/><circle cx="164.3" cy="980.3" r="1.54" fill="#f4f3ef" opacity="0.075"/><circle cx="1900.8" cy="122.7" r="1.40" fill="#f4f3ef" opacity="0.079"/><circle cx="1259.0" cy="353.9" r="0.64" fill="#f4f3ef" opacity="0.020"/><circle cx="1415.3" cy="420.7" r="0.99" fill="#f4f3ef" opacity="0.050"/><circle cx="1208.1" cy="829.8" r="0.27" fill="#f4f3ef" opacity="0.047"/><circle cx="44.9" cy="847.7" r="0.58" fill="#f4f3ef" opacity="0.065"/><circle cx="248.6" cy="541.1" r="0.70" fill="#f4f3ef" opacity="0.050"/><circle cx="1084.4" cy="296.8" r="0.64" fill="#f4f3ef" opacity="0.073"/><circle cx="1746.3" cy="1061.4" r="1.39" fill="#f4f3ef" opacity="0.061"/><circle cx="1784.1" cy="981.5" r="0.21" fill="#f4f3ef" opacity="0.054"/><circle cx="889.5" cy="323.9" r="0.64" fill="#f4f3ef" opacity="0.076"/><circle cx="1883.3" cy="635.1" r="1.22" fill="#f4f3ef" opacity="0.048"/><circle cx="1541.8" cy="301.9" r="0.44" fill="#f4f3ef" opacity="0.043"/><circle cx="1903.5" cy="550.9" r="1.22" fill="#f4f3ef" opacity="0.037"/><circle cx="1735.9" cy="288.8" r="1.00" fill="#f4f3ef" opacity="0.066"/><circle cx="801.8" cy="302.3" r="0.93" fill="#f4f3ef" opacity="0.056"/><circle cx="1566.5" cy="618.0" r="0.50" fill="#f4f3ef" opacity="0.056"/><circle cx="664.0" cy="742.5" r="0.27" fill="#f4f3ef" opacity="0.035"/><circle cx="844.0" cy="622.7" r="1.21" fill="#f4f3ef" opacity="0.073"/><circle cx="1158.3" cy="165.0" r="0.81" fill="#f4f3ef" opacity="0.053"/><circle cx="1867.6" cy="556.3" r="1.34" fill="#f4f3ef" opacity="0.056"/><circle cx="1028.4" cy="903.1" r="0.81" fill="#f4f3ef" opacity="0.075"/><circle cx="39.0" cy="992.1" r="0.30" fill="#f4f3ef" opacity="0.067"/><circle cx="866.8" cy="450.0" r="0.97" fill="#f4f3ef" opacity="0.047"/><circle cx="715.0" cy="783.5" r="0.68" fill="#f4f3ef" opacity="0.041"/><circle cx="1408.5" cy="579.1" r="1.29" fill="#f4f3ef" opacity="0.079"/><circle cx="861.6" cy="63.7" r="1.47" fill="#f4f3ef" opacity="0.050"/><circle cx="1183.8" cy="983.8" r="0.34" fill="#f4f3ef" opacity="0.072"/><circle cx="787.0" cy="726.2" r="0.51" fill="#f4f3ef" opacity="0.069"/><circle cx="1211.9" cy="117.4" r="0.99" fill="#f4f3ef" opacity="0.044"/><circle cx="1794.9" cy="64.2" r="0.73" fill="#f4f3ef" opacity="0.027"/><circle cx="1374.4" cy="1073.3" r="0.31" fill="#f4f3ef" opacity="0.077"/><circle cx="1277.8" cy="251.2" r="0.46" fill="#f4f3ef" opacity="0.068"/><circle cx="1908.2" cy="904.6" r="1.37" fill="#f4f3ef" opacity="0.067"/><circle cx="610.6" cy="180.3" r="0.21" fill="#f4f3ef" opacity="0.023"/><circle cx="419.2" cy="104.9" r="0.81" fill="#f4f3ef" opacity="0.044"/><circle cx="883.7" cy="985.0" r="0.41" fill="#f4f3ef" opacity="0.051"/><circle cx="1695.7" cy="927.4" r="1.15" fill="#f4f3ef" opacity="0.066"/><circle cx="1836.2" cy="398.6" r="1.58" fill="#f4f3ef" opacity="0.071"/><circle cx="1.4" cy="1025.4" r="1.57" fill="#f4f3ef" opacity="0.079"/><circle cx="149.8" cy="794.4" r="1.26" fill="#f4f3ef" opacity="0.067"/><circle cx="1048.8" cy="772.3" r="0.89" fill="#f4f3ef" opacity="0.070"/><circle cx="541.3" cy="665.8" r="1.59" fill="#f4f3ef" opacity="0.072"/><circle cx="1092.7" cy="501.5" r="1.47" fill="#f4f3ef" opacity="0.066"/><circle cx="1256.9" cy="866.0" r="1.09" fill="#f4f3ef" opacity="0.079"/><circle cx="1863.5" cy="626.2" r="1.41" fill="#f4f3ef" opacity="0.070"/><circle cx="44.5" cy="768.5" r="1.32" fill="#f4f3ef" opacity="0.043"/><circle cx="1820.5" cy="319.8" r="0.30" fill="#f4f3ef" opacity="0.079"/><circle cx="1407.9" cy="546.6" r="0.55" fill="#f4f3ef" opacity="0.052"/><circle cx="205.2" cy="155.6" r="0.34" fill="#f4f3ef" opacity="0.037"/><circle cx="179.7" cy="933.5" r="0.86" fill="#f4f3ef" opacity="0.051"/><circle cx="454.5" cy="67.0" r="1.35" fill="#f4f3ef" opacity="0.058"/><circle cx="934.8" cy="462.6" r="0.86" fill="#f4f3ef" opacity="0.030"/><circle cx="1454.5" cy="187.2" r="0.89" fill="#f4f3ef" opacity="0.033"/><circle cx="283.4" cy="987.3" r="0.54" fill="#f4f3ef" opacity="0.069"/><circle cx="1593.2" cy="249.7" r="1.02" fill="#f4f3ef" opacity="0.060"/><circle cx="1164.8" cy="960.9" r="1.35" fill="#f4f3ef" opacity="0.067"/><circle cx="254.4" cy="787.7" r="0.46" fill="#f4f3ef" opacity="0.064"/><circle cx="1540.6" cy="236.8" r="0.36" fill="#f4f3ef" opacity="0.047"/><circle cx="590.7" cy="734.7" r="0.35" fill="#f4f3ef" opacity="0.072"/><circle cx="1647.7" cy="188.1" r="0.64" fill="#f4f3ef" opacity="0.024"/><circle cx="136.8" cy="63.8" r="1.19" fill="#f4f3ef" opacity="0.033"/><circle cx="1012.1" cy="228.4" r="0.24" fill="#f4f3ef" opacity="0.028"/><circle cx="1903.2" cy="988.5" r="0.61" fill="#f4f3ef" opacity="0.048"/><circle cx="582.0" cy="450.9" r="0.26" fill="#f4f3ef" opacity="0.056"/><circle cx="1789.1" cy="162.1" r="0.53" fill="#f4f3ef" opacity="0.035"/><circle cx="380.9" cy="668.9" r="1.30" fill="#f4f3ef" opacity="0.056"/><circle cx="316.0" cy="1037.9" r="1.30" fill="#f4f3ef" opacity="0.037"/><circle cx="361.7" cy="175.8" r="0.78" fill="#f4f3ef" opacity="0.073"/><circle cx="280.9" cy="1029.3" r="0.86" fill="#f4f3ef" opacity="0.029"/><circle cx="618.9" cy="385.0" r="1.05" fill="#f4f3ef" opacity="0.076"/><circle cx="1849.8" cy="989.5" r="0.51" fill="#f4f3ef" opacity="0.062"/><circle cx="963.1" cy="629.7" r="0.21" fill="#f4f3ef" opacity="0.067"/><circle cx="850.7" cy="292.0" r="0.43" fill="#f4f3ef" opacity="0.033"/><circle cx="1773.4" cy="83.3" r="0.65" fill="#f4f3ef" opacity="0.043"/><circle cx="1787.5" cy="190.1" r="0.28" fill="#f4f3ef" opacity="0.029"/><circle cx="371.4" cy="399.1" r="0.38" fill="#f4f3ef" opacity="0.068"/><circle cx="1412.6" cy="337.0" r="0.74" fill="#f4f3ef" opacity="0.054"/><circle cx="194.1" cy="430.5" r="0.61" fill="#f4f3ef" opacity="0.075"/><circle cx="461.0" cy="346.1" r="0.44" fill="#f4f3ef" opacity="0.040"/><circle cx="127.4" cy="310.7" r="0.32" fill="#f4f3ef" opacity="0.077"/><circle cx="1302.9" cy="990.8" r="0.74" fill="#f4f3ef" opacity="0.066"/><circle cx="479.4" cy="853.2" r="1.53" fill="#f4f3ef" opacity="0.050"/><circle cx="1117.7" cy="724.4" r="0.30" fill="#f4f3ef" opacity="0.031"/><circle cx="634.0" cy="431.2" r="1.59" fill="#f4f3ef" opacity="0.041"/><circle cx="1706.8" cy="480.3" r="0.40" fill="#f4f3ef" opacity="0.078"/><circle cx="1823.6" cy="138.2" r="0.24" fill="#f4f3ef" opacity="0.075"/><circle cx="1387.3" cy="551.6" r="1.30" fill="#f4f3ef" opacity="0.041"/><circle cx="1583.1" cy="1027.3" r="0.77" fill="#f4f3ef" opacity="0.043"/><circle cx="1605.0" cy="351.9" r="1.06" fill="#f4f3ef" opacity="0.071"/><circle cx="1002.8" cy="992.0" r="0.80" fill="#f4f3ef" opacity="0.045"/><circle cx="1388.2" cy="1054.4" r="0.77" fill="#f4f3ef" opacity="0.047"/><circle cx="1742.0" cy="1005.6" r="0.89" fill="#f4f3ef" opacity="0.058"/><circle cx="760.5" cy="312.4" r="1.03" fill="#f4f3ef" opacity="0.033"/><circle cx="482.2" cy="201.4" r="1.35" fill="#f4f3ef" opacity="0.068"/><circle cx="1594.5" cy="659.3" r="0.67" fill="#f4f3ef" opacity="0.077"/><circle cx="20.5" cy="312.8" r="1.52" fill="#f4f3ef" opacity="0.046"/><circle cx="145.1" cy="268.5" r="0.63" fill="#f4f3ef" opacity="0.027"/><circle cx="522.6" cy="33.0" r="1.33" fill="#f4f3ef" opacity="0.046"/><circle cx="62.6" cy="633.2" r="0.40" fill="#f4f3ef" opacity="0.064"/><circle cx="1656.9" cy="895.5" r="0.94" fill="#f4f3ef" opacity="0.023"/><circle cx="1726.3" cy="926.8" r="1.01" fill="#f4f3ef" opacity="0.066"/><circle cx="247.0" cy="913.6" r="1.41" fill="#f4f3ef" opacity="0.065"/><circle cx="537.6" cy="642.6" r="0.43" fill="#f4f3ef" opacity="0.038"/><circle cx="725.5" cy="820.5" r="0.63" fill="#f4f3ef" opacity="0.058"/><circle cx="1853.6" cy="794.0" r="1.28" fill="#f4f3ef" opacity="0.032"/><circle cx="1907.2" cy="229.6" r="1.42" fill="#f4f3ef" opacity="0.050"/><circle cx="720.3" cy="434.2" r="1.14" fill="#f4f3ef" opacity="0.060"/><circle cx="402.5" cy="994.3" r="0.94" fill="#f4f3ef" opacity="0.063"/><circle cx="1285.7" cy="376.7" r="0.64" fill="#f4f3ef" opacity="0.040"/><circle cx="1070.6" cy="487.9" r="0.66" fill="#f4f3ef" opacity="0.054"/><circle cx="1013.5" cy="74.7" r="1.32" fill="#f4f3ef" opacity="0.078"/><circle cx="1873.0" cy="723.8" r="0.44" fill="#f4f3ef" opacity="0.048"/><circle cx="1136.5" cy="621.7" r="1.53" fill="#f4f3ef" opacity="0.079"/><circle cx="1126.8" cy="915.1" r="0.57" fill="#f4f3ef" opacity="0.057"/><circle cx="1109.3" cy="910.8" r="0.34" fill="#f4f3ef" opacity="0.053"/><circle cx="277.9" cy="475.4" r="0.48" fill="#f4f3ef" opacity="0.055"/><circle cx="102.3" cy="995.5" r="1.00" fill="#f4f3ef" opacity="0.042"/><circle cx="274.4" cy="577.9" r="1.28" fill="#f4f3ef" opacity="0.037"/><circle cx="1694.9" cy="769.1" r="1.24" fill="#f4f3ef" opacity="0.022"/><circle cx="1140.1" cy="1035.9" r="0.77" fill="#f4f3ef" opacity="0.070"/><circle cx="648.4" cy="444.9" r="1.39" fill="#f4f3ef" opacity="0.038"/><circle cx="907.4" cy="62.8" r="0.56" fill="#f4f3ef" opacity="0.020"/><circle cx="1680.0" cy="676.3" r="0.79" fill="#f4f3ef" opacity="0.063"/><circle cx="1591.3" cy="152.0" r="0.20" fill="#f4f3ef" opacity="0.037"/><circle cx="1115.5" cy="156.5" r="0.75" fill="#f4f3ef" opacity="0.029"/><circle cx="1082.2" cy="636.7" r="0.60" fill="#f4f3ef" opacity="0.060"/><circle cx="543.2" cy="419.0" r="1.45" fill="#f4f3ef" opacity="0.073"/><circle cx="1679.2" cy="690.3" r="1.36" fill="#f4f3ef" opacity="0.030"/><circle cx="626.6" cy="557.1" r="1.14" fill="#f4f3ef" opacity="0.042"/><circle cx="703.8" cy="886.1" r="0.47" fill="#f4f3ef" opacity="0.068"/><circle cx="38.4" cy="224.0" r="0.52" fill="#f4f3ef" opacity="0.061"/><circle cx="1593.2" cy="77.5" r="0.54" fill="#f4f3ef" opacity="0.049"/><circle cx="1433.4" cy="113.1" r="0.99" fill="#f4f3ef" opacity="0.060"/><circle cx="1313.2" cy="557.7" r="0.56" fill="#f4f3ef" opacity="0.044"/><circle cx="1422.0" cy="997.8" r="1.14" fill="#f4f3ef" opacity="0.059"/><circle cx="171.9" cy="980.2" r="1.16" fill="#f4f3ef" opacity="0.030"/><circle cx="1023.5" cy="251.4" r="1.01" fill="#f4f3ef" opacity="0.078"/><circle cx="1393.1" cy="798.2" r="1.05" fill="#f4f3ef" opacity="0.055"/><circle cx="119.3" cy="967.3" r="0.49" fill="#f4f3ef" opacity="0.078"/><circle cx="449.4" cy="25.2" r="1.41" fill="#f4f3ef" opacity="0.023"/><circle cx="866.4" cy="198.6" r="1.23" fill="#f4f3ef" opacity="0.074"/><circle cx="635.5" cy="794.3" r="1.32" fill="#f4f3ef" opacity="0.064"/><circle cx="870.8" cy="598.9" r="1.30" fill="#f4f3ef" opacity="0.038"/><circle cx="1121.9" cy="999.0" r="1.20" fill="#f4f3ef" opacity="0.038"/><circle cx="1080.6" cy="101.4" r="0.39" fill="#f4f3ef" opacity="0.027"/><circle cx="1647.8" cy="532.6" r="1.60" fill="#f4f3ef" opacity="0.046"/><circle cx="1519.6" cy="679.4" r="0.50" fill="#f4f3ef" opacity="0.047"/><circle cx="814.7" cy="688.4" r="1.43" fill="#f4f3ef" opacity="0.068"/><circle cx="220.3" cy="546.3" r="0.44" fill="#f4f3ef" opacity="0.024"/><circle cx="1419.6" cy="1039.8" r="1.45" fill="#f4f3ef" opacity="0.080"/><circle cx="1117.6" cy="35.5" r="1.18" fill="#f4f3ef" opacity="0.047"/><circle cx="1708.4" cy="280.0" r="1.57" fill="#f4f3ef" opacity="0.073"/><circle cx="181.7" cy="640.2" r="0.80" fill="#f4f3ef" opacity="0.057"/><circle cx="1349.4" cy="1022.5" r="0.56" fill="#f4f3ef" opacity="0.064"/><circle cx="1632.1" cy="453.8" r="0.32" fill="#f4f3ef" opacity="0.053"/><circle cx="1006.1" cy="200.6" r="0.88" fill="#f4f3ef" opacity="0.079"/><circle cx="870.1" cy="49.6" r="0.51" fill="#f4f3ef" opacity="0.038"/><circle cx="1271.3" cy="707.5" r="0.41" fill="#f4f3ef" opacity="0.065"/><circle cx="1332.7" cy="441.0" r="1.21" fill="#f4f3ef" opacity="0.066"/><circle cx="959.6" cy="1076.6" r="0.57" fill="#f4f3ef" opacity="0.070"/><circle cx="1906.0" cy="681.2" r="1.38" fill="#f4f3ef" opacity="0.028"/><circle cx="521.6" cy="1001.3" r="1.34" fill="#f4f3ef" opacity="0.056"/><circle cx="978.1" cy="503.7" r="0.27" fill="#f4f3ef" opacity="0.020"/><circle cx="976.4" cy="14.9" r="1.37" fill="#f4f3ef" opacity="0.041"/><circle cx="1772.7" cy="441.7" r="0.79" fill="#f4f3ef" opacity="0.031"/><circle cx="285.5" cy="130.8" r="0.53" fill="#f4f3ef" opacity="0.048"/><circle cx="1682.2" cy="508.7" r="1.30" fill="#f4f3ef" opacity="0.026"/><circle cx="605.9" cy="562.1" r="0.50" fill="#f4f3ef" opacity="0.031"/><circle cx="161.7" cy="677.8" r="0.90" fill="#f4f3ef" opacity="0.074"/><circle cx="1463.7" cy="722.4" r="0.72" fill="#f4f3ef" opacity="0.022"/><circle cx="221.4" cy="1002.5" r="1.40" fill="#f4f3ef" opacity="0.035"/><circle cx="1886.9" cy="704.9" r="0.90" fill="#f4f3ef" opacity="0.077"/><circle cx="1600.7" cy="296.1" r="0.55" fill="#f4f3ef" opacity="0.069"/><circle cx="1899.2" cy="322.9" r="0.23" fill="#f4f3ef" opacity="0.024"/><circle cx="980.9" cy="931.9" r="1.48" fill="#f4f3ef" opacity="0.038"/><circle cx="1453.2" cy="1029.8" r="0.33" fill="#f4f3ef" opacity="0.027"/><circle cx="1159.1" cy="323.3" r="0.72" fill="#f4f3ef" opacity="0.037"/><circle cx="643.8" cy="999.0" r="0.76" fill="#f4f3ef" opacity="0.057"/><circle cx="381.3" cy="403.5" r="0.99" fill="#f4f3ef" opacity="0.057"/><circle cx="1201.3" cy="643.7" r="1.00" fill="#f4f3ef" opacity="0.054"/><circle cx="235.6" cy="546.0" r="1.07" fill="#f4f3ef" opacity="0.054"/><circle cx="1585.0" cy="217.3" r="0.67" fill="#f4f3ef" opacity="0.077"/><circle cx="1385.7" cy="924.1" r="0.61" fill="#f4f3ef" opacity="0.056"/><circle cx="1036.3" cy="293.1" r="0.56" fill="#f4f3ef" opacity="0.068"/><circle cx="584.2" cy="111.0" r="0.29" fill="#f4f3ef" opacity="0.068"/><circle cx="1072.3" cy="804.5" r="0.47" fill="#f4f3ef" opacity="0.022"/><circle cx="485.9" cy="960.1" r="1.55" fill="#f4f3ef" opacity="0.021"/><circle cx="578.9" cy="804.7" r="0.80" fill="#f4f3ef" opacity="0.071"/><circle cx="1541.1" cy="1004.8" r="1.53" fill="#f4f3ef" opacity="0.053"/><circle cx="1784.3" cy="27.2" r="0.78" fill="#f4f3ef" opacity="0.071"/><circle cx="929.3" cy="858.4" r="0.32" fill="#f4f3ef" opacity="0.065"/><circle cx="232.2" cy="85.2" r="0.52" fill="#f4f3ef" opacity="0.068"/><circle cx="451.7" cy="374.3" r="0.57" fill="#f4f3ef" opacity="0.078"/><circle cx="995.1" cy="992.2" r="1.19" fill="#f4f3ef" opacity="0.030"/><circle cx="345.5" cy="925.6" r="1.16" fill="#f4f3ef" opacity="0.048"/><circle cx="1607.9" cy="561.3" r="0.47" fill="#f4f3ef" opacity="0.024"/><circle cx="136.6" cy="845.9" r="1.54" fill="#f4f3ef" opacity="0.066"/><circle cx="1241.0" cy="1006.0" r="0.20" fill="#f4f3ef" opacity="0.032"/><circle cx="773.1" cy="228.4" r="1.41" fill="#f4f3ef" opacity="0.067"/><circle cx="1553.6" cy="59.6" r="0.91" fill="#f4f3ef" opacity="0.033"/><circle cx="358.7" cy="1046.4" r="1.36" fill="#f4f3ef" opacity="0.061"/><circle cx="1147.1" cy="95.4" r="1.52" fill="#f4f3ef" opacity="0.068"/><circle cx="766.1" cy="433.3" r="0.22" fill="#f4f3ef" opacity="0.031"/><circle cx="898.7" cy="686.8" r="1.39" fill="#f4f3ef" opacity="0.054"/><circle cx="170.0" cy="882.5" r="0.33" fill="#f4f3ef" opacity="0.067"/><circle cx="974.2" cy="527.0" r="0.41" fill="#f4f3ef" opacity="0.040"/><circle cx="300.8" cy="647.2" r="1.20" fill="#f4f3ef" opacity="0.051"/><circle cx="1041.8" cy="69.5" r="1.58" fill="#f4f3ef" opacity="0.044"/><circle cx="1537.9" cy="1060.8" r="1.02" fill="#f4f3ef" opacity="0.040"/><circle cx="1765.2" cy="567.6" r="0.34" fill="#f4f3ef" opacity="0.033"/><circle cx="1202.5" cy="536.6" r="0.60" fill="#f4f3ef" opacity="0.038"/><circle cx="1817.1" cy="594.5" r="1.58" fill="#f4f3ef" opacity="0.072"/><circle cx="811.9" cy="88.0" r="1.14" fill="#f4f3ef" opacity="0.039"/><circle cx="12.1" cy="843.6" r="1.12" fill="#f4f3ef" opacity="0.031"/><circle cx="1171.8" cy="928.2" r="0.22" fill="#f4f3ef" opacity="0.055"/><circle cx="640.7" cy="1008.3" r="0.33" fill="#f4f3ef" opacity="0.050"/><circle cx="670.6" cy="630.7" r="1.29" fill="#f4f3ef" opacity="0.061"/><circle cx="882.1" cy="621.9" r="0.68" fill="#f4f3ef" opacity="0.028"/><circle cx="611.8" cy="808.7" r="0.25" fill="#f4f3ef" opacity="0.045"/><circle cx="617.9" cy="617.8" r="0.62" fill="#f4f3ef" opacity="0.049"/><circle cx="308.0" cy="395.7" r="1.08" fill="#f4f3ef" opacity="0.033"/><circle cx="85.0" cy="209.1" r="0.43" fill="#f4f3ef" opacity="0.065"/><circle cx="1134.2" cy="444.8" r="1.45" fill="#f4f3ef" opacity="0.034"/><circle cx="729.5" cy="969.4" r="0.96" fill="#f4f3ef" opacity="0.049"/><circle cx="340.6" cy="1009.5" r="0.40" fill="#f4f3ef" opacity="0.029"/><circle cx="1579.3" cy="831.9" r="0.52" fill="#f4f3ef" opacity="0.057"/><circle cx="1506.4" cy="903.1" r="1.26" fill="#f4f3ef" opacity="0.056"/><circle cx="738.3" cy="689.9" r="1.10" fill="#f4f3ef" opacity="0.037"/><circle cx="1313.3" cy="338.9" r="1.56" fill="#f4f3ef" opacity="0.039"/><circle cx="79.0" cy="916.8" r="1.51" fill="#f4f3ef" opacity="0.034"/><circle cx="638.2" cy="1050.3" r="0.65" fill="#f4f3ef" opacity="0.070"/><circle cx="1616.2" cy="766.0" r="1.31" fill="#f4f3ef" opacity="0.078"/><circle cx="1567.1" cy="650.5" r="1.24" fill="#f4f3ef" opacity="0.024"/><circle cx="1320.4" cy="650.7" r="1.40" fill="#f4f3ef" opacity="0.048"/><circle cx="1848.0" cy="673.0" r="0.69" fill="#f4f3ef" opacity="0.034"/><circle cx="1490.7" cy="824.3" r="1.38" fill="#f4f3ef" opacity="0.064"/><circle cx="224.8" cy="211.1" r="1.47" fill="#f4f3ef" opacity="0.070"/><circle cx="1368.7" cy="780.1" r="0.65" fill="#f4f3ef" opacity="0.069"/><circle cx="1130.0" cy="1078.0" r="1.47" fill="#f4f3ef" opacity="0.075"/><circle cx="551.4" cy="451.5" r="0.41" fill="#f4f3ef" opacity="0.056"/><circle cx="1458.3" cy="727.1" r="0.70" fill="#f4f3ef" opacity="0.041"/><circle cx="1764.7" cy="1051.7" r="1.04" fill="#f4f3ef" opacity="0.038"/><circle cx="1660.3" cy="1011.8" r="0.53" fill="#f4f3ef" opacity="0.047"/><circle cx="1476.8" cy="154.2" r="0.40" fill="#f4f3ef" opacity="0.051"/><circle cx="835.0" cy="385.4" r="1.03" fill="#f4f3ef" opacity="0.052"/><circle cx="991.3" cy="452.2" r="1.38" fill="#f4f3ef" opacity="0.022"/><circle cx="784.1" cy="861.3" r="0.66" fill="#f4f3ef" opacity="0.079"/><circle cx="1540.9" cy="879.2" r="0.97" fill="#f4f3ef" opacity="0.037"/><circle cx="1744.6" cy="572.6" r="1.09" fill="#f4f3ef" opacity="0.022"/><circle cx="660.4" cy="328.3" r="1.03" fill="#f4f3ef" opacity="0.044"/><circle cx="1322.3" cy="12.9" r="0.38" fill="#f4f3ef" opacity="0.033"/><circle cx="1360.1" cy="1013.0" r="0.60" fill="#f4f3ef" opacity="0.026"/><circle cx="465.5" cy="355.4" r="1.03" fill="#f4f3ef" opacity="0.048"/><circle cx="1459.3" cy="666.6" r="0.22" fill="#f4f3ef" opacity="0.080"/><circle cx="1117.8" cy="333.4" r="0.83" fill="#f4f3ef" opacity="0.074"/><circle cx="1479.5" cy="582.4" r="0.21" fill="#f4f3ef" opacity="0.069"/><circle cx="1311.9" cy="320.3" r="1.40" fill="#f4f3ef" opacity="0.038"/><circle cx="377.8" cy="333.8" r="1.32" fill="#f4f3ef" opacity="0.027"/><circle cx="1142.5" cy="649.5" r="0.89" fill="#f4f3ef" opacity="0.028"/><circle cx="240.0" cy="774.0" r="0.66" fill="#f4f3ef" opacity="0.067"/><circle cx="420.0" cy="654.2" r="1.60" fill="#f4f3ef" opacity="0.045"/><circle cx="734.3" cy="196.5" r="1.20" fill="#f4f3ef" opacity="0.024"/><circle cx="1443.6" cy="587.8" r="0.33" fill="#f4f3ef" opacity="0.028"/><circle cx="604.4" cy="934.6" r="1.21" fill="#f4f3ef" opacity="0.047"/><circle cx="1535.0" cy="1023.6" r="0.69" fill="#f4f3ef" opacity="0.039"/><circle cx="442.8" cy="481.5" r="1.36" fill="#f4f3ef" opacity="0.079"/><circle cx="291.0" cy="815.0" r="1.07" fill="#f4f3ef" opacity="0.073"/><circle cx="984.5" cy="610.6" r="0.28" fill="#f4f3ef" opacity="0.051"/><circle cx="437.6" cy="95.2" r="0.46" fill="#f4f3ef" opacity="0.022"/><circle cx="759.8" cy="1015.3" r="0.73" fill="#f4f3ef" opacity="0.044"/><circle cx="363.0" cy="757.7" r="0.91" fill="#f4f3ef" opacity="0.041"/><circle cx="787.9" cy="148.9" r="1.39" fill="#f4f3ef" opacity="0.075"/><circle cx="1370.9" cy="95.7" r="1.12" fill="#f4f3ef" opacity="0.059"/><circle cx="950.4" cy="24.8" r="0.70" fill="#f4f3ef" opacity="0.049"/><circle cx="853.8" cy="282.7" r="0.85" fill="#f4f3ef" opacity="0.040"/><circle cx="1484.2" cy="936.1" r="0.36" fill="#f4f3ef" opacity="0.039"/><circle cx="186.6" cy="211.8" r="0.60" fill="#f4f3ef" opacity="0.055"/><circle cx="1915.2" cy="136.4" r="1.20" fill="#f4f3ef" opacity="0.076"/><circle cx="459.7" cy="1016.5" r="0.80" fill="#f4f3ef" opacity="0.023"/><circle cx="1271.7" cy="958.9" r="1.54" fill="#f4f3ef" opacity="0.038"/><circle cx="1412.2" cy="430.1" r="0.57" fill="#f4f3ef" opacity="0.043"/><circle cx="1497.4" cy="1056.9" r="0.56" fill="#f4f3ef" opacity="0.051"/><circle cx="1645.8" cy="825.9" r="0.25" fill="#f4f3ef" opacity="0.039"/><circle cx="624.8" cy="803.8" r="1.28" fill="#f4f3ef" opacity="0.041"/><circle cx="117.3" cy="697.3" r="0.58" fill="#f4f3ef" opacity="0.044"/><circle cx="668.7" cy="533.0" r="0.46" fill="#f4f3ef" opacity="0.038"/><circle cx="832.9" cy="897.5" r="1.48" fill="#f4f3ef" opacity="0.051"/><circle cx="1439.5" cy="657.7" r="0.40" fill="#f4f3ef" opacity="0.042"/><circle cx="1540.5" cy="800.0" r="0.31" fill="#f4f3ef" opacity="0.075"/><circle cx="1396.5" cy="351.3" r="0.69" fill="#f4f3ef" opacity="0.051"/><circle cx="983.9" cy="578.1" r="0.94" fill="#f4f3ef" opacity="0.024"/><circle cx="1701.2" cy="187.1" r="0.73" fill="#f4f3ef" opacity="0.069"/><circle cx="1675.7" cy="965.0" r="1.25" fill="#f4f3ef" opacity="0.023"/><circle cx="30.5" cy="98.5" r="0.34" fill="#f4f3ef" opacity="0.030"/><circle cx="510.8" cy="494.1" r="1.26" fill="#f4f3ef" opacity="0.061"/><circle cx="1030.5" cy="218.7" r="1.29" fill="#f4f3ef" opacity="0.065"/><circle cx="1779.4" cy="1018.8" r="0.93" fill="#f4f3ef" opacity="0.041"/><circle cx="1169.2" cy="281.2" r="1.42" fill="#f4f3ef" opacity="0.031"/><circle cx="740.8" cy="992.4" r="0.34" fill="#f4f3ef" opacity="0.039"/>
  <rect width="1920" height="1080" fill="url(#l28)"/>
  
  <text x="96" y="993.6" font-family="Helvetica, Arial, sans-serif" font-size="34.559999999999995" letter-spacing="4" fill="#f4f3ef" fill-opacity="0.72">GLASSHOUSE</text>
  <text x="96" y="1036.8" font-family="Helvetica, Arial, sans-serif" font-size="21.119999999999997" letter-spacing="2" fill="#f4f3ef" fill-opacity="0.38">SCREENSHOT 01</text>
</svg>