<?xml version="1.0" encoding="UTF-8"?>
<svg xmlns="http://www.w3.org/2000/svg" width="1920" height="1080" viewBox="0 0 1920 1080">
  <defs>
    <linearGradient id="g23" x1="0%" y1="0%" x2="100%" y2="100%">
      <stop offset="0%" stop-color="#171310"/>
      <stop offset="100%" stop-color="#3a2a1a"/>
    </linearGradient>
    <linearGradient id="l23" x1="0%" y1="0%" x2="0%" y2="100%">
      <stop offset="0%" stop-color="#000" stop-opacity="0"/>
      <stop offset="100%" stop-color="#000" stop-opacity="0.55"/>
    </linearGradient>
  </defs>
  <rect width="1920" height="1080" fill="url(#g23)"/>
  <circle cx="246.4" cy="1010.2" r="1.38" fill="#f4f3ef" opacity="0.061"/><circle cx="1119.7" cy="560.3" r="0.96" fill="#f4f3ef" opacity="0.060"/><circle cx="847.4" cy="132.7" r="1.07" fill="#f4f3ef" opacity="0.022"/><circle cx="1610.1" cy="913.9" r="1.17" fill="#f4f3ef" opacity="0.026"/><circle cx="1464.1" cy="930.7" r="0.69" fill="#f4f3ef" opacity="0.067"/><circle cx="1808.1" cy="1049.7" r="0.67" fill="#f4f3ef" opacity="0.041"/><circle cx="769.3" cy="897.6" r="0.92" fill="#f4f3ef" opacity="0.023"/><circle cx="1310.7" cy="901.1" r="0.67" fill="#f4f3ef" opacity="0.039"/><circle cx="1417.6" cy="726.8" r="0.38" fill="#f4f3ef" opacity="0.058"/><circle cx="924.0" cy="601.3" r="1.54" fill="#f4f3ef" opacity="0.031"/><circle cx="19.6" cy="111.5" r="0.44" fill="#f4f3ef" opacity="0.074"/><circle cx="956.1" cy="963.8" r="1.12" fill="#f4f3ef" opacity="0.053"/><circle cx="1434.4" cy="745.1" r="1.18" fill="#f4f3ef" opacity="0.029"/><circle cx="790.7" cy="361.9" r="0.95" fill="#f4f3ef" opacity="0.035"/><circle cx="1703.5" cy="320.9" r="1.04" fill="#f4f3ef" opacity="0.066"/><circle cx="1660.2" cy="968.8" r="0.76" fill="#f4f3ef" opacity="0.059"/><circle cx="1063.9" cy="212.2" r="0.31" fill="#f4f3ef" opacity="0.079"/><circle cx="1099.7" cy="597.9" r="1.06" fill="#f4f3ef" opacity="0.077"/><circle cx="961.7" cy="912.5" r="1.23" fill="#f4f3ef" opacity="0.040"/><circle cx="199.4" cy="382.6" r="0.86" fill="#f4f3ef" opacity="0.068"/><circle cx="424.9" cy="355.0" r="0.71" fill="#f4f3ef" opacity="0.065"/><circle cx="618.7" cy="216.2" r="0.71" fill="#f4f3ef" opacity="0.072"/><circle cx="1397.2" cy="513.0" r="0.74" fill="#f4f3ef" opacity="0.042"/><circle cx="958.9" cy="312.0" r="0.94" fill="#f4f3ef" opacity="0.071"/><circle cx="1911.2" cy="679.9" r="1.54" fill="#f4f3ef" opacity="0.075"/><circle cx="177.1" cy="243.4" r="0.88" fill="#f4f3ef" opacity="0.040"/><circle cx="141.8" cy="109.1" r="1.26" fill="#f4f3ef" opacity="0.075"/><circle cx="359.3" cy="863.7" r="0.45" fill="#f4f3ef" opacity="0.030"/><circle cx="1659.3" cy="293.8" r="0.81" fill="#f4f3ef" opacity="0.042"/><circle cx="1173.6" cy="466.2" r="1.23" fill="#f4f3ef" opacity="0.057"/><circle cx="1083.0" cy="407.4" r="1.18" fill="#f4f3ef" opacity="0.035"/><circle cx="1363.7" cy="304.2" r="1.47" fill="#f4f3ef" opacity="0.029"/><circle cx="1494.3" cy="1023.2" r="0.37" fill="#f4f3ef" opacity="0.056"/><circle cx="1522.2" cy="31.1" r="0.45" fill="#f4f3ef" opacity="0.071"/><circle cx="570.3" cy="994.6" r="0.98" fill="#f4f3ef" opacity="0.040"/><circle cx="463.9" cy="340.3" r="1.01" fill="#f4f3ef" opacity="0.054"/><circle cx="1036.9" cy="454.8" r="0.61" fill="#f4f3ef" opacity="0.059"/><circle cx="559.1" cy="925.0" r="0.29" fill="#f4f3ef" opacity="0.056"/><circle cx="1282.3" cy="217.3" r="1.28" fill="#f4f3ef" opacity="0.029"/><circle cx="907.3" cy="238.6" r="1.18" fill="#f4f3ef" opacity="0.038"/><circle cx="690.2" cy="815.4" r="0.33" fill="#f4f3ef" opacity="0.056"/><circle cx="1389.7" cy="294.4" r="0.73" fill="#f4f3ef" opacity="0.021"/><circle cx="493.1" cy="102.3" r="0.30" fill="#f4f3ef" opacity="0.048"/><circle cx="323.5" cy="305.7" r="0.62" fill="#f4f3ef" opacity="0.021"/><circle cx="145.9" cy="211.4" r="0.28" fill="#f4f3ef" opacity="0.072"/><circle cx="1074.6" cy="766.0" r="0.30" fill="#f4f3ef" opacity="0.069"/><circle cx="739.0" cy="116.1" r="0.71" fill="#f4f3ef" opacity="0.050"/><circle cx="751.1" cy="688.5" r="0.87" fill="#f4f3ef" opacity="0.040"/><circle cx="91.6" cy="789.7" r="0.72" fill="#f4f3ef" opacity="0.021"/><circle cx="1296.7" cy="966.5" r="1.52" fill="#f4f3ef" opacity="0.064"/><circle cx="645.1" cy="285.5" r="0.63" fill="#f4f3ef" opacity="0.026"/><circle cx="744.1" cy="893.4" r="1.08" fill="#f4f3ef" opacity="0.064"/><circle cx="1356.7" cy="336.9" r="1.19" fill="#f4f3ef" opacity="0.042"/><circle cx="1108.0" cy="802.6" r="0.49" fill="#f4f3ef" opacity="0.070"/><circle cx="472.2" cy="717.2" r="0.92" fill="#f4f3ef" opacity="0.058"/><circle cx="278.8" cy="27.3" r="0.66" fill="#f4f3ef" opacity="0.024"/><circle cx="1499.8" cy="799.7" r="1.39" fill="#f4f3ef" opacity="0.032"/><circle cx="555.9" cy="980.9" r="1.18" fill="#f4f3ef" opacity="0.044"/><circle cx="1263.2" cy="757.7" r="0.85" fill="#f4f3ef" opacity="0.051"/><circle cx="1180.5" cy="996.7" r="1.46" fill="#f4f3ef" opacity="0.072"/><circle cx="355.1" cy="244.6" r="1.39" fill="#f4f3ef" opacity="0.060"/><circle cx="1749.9" cy="8.1" r="1.30" fill="#f4f3ef" opacity="0.042"/><circle cx="1430.1" cy="1033.8" r="0.23" fill="#f4f3ef" opacity="0.049"/><circle cx="1149.8" cy="308.3" r="1.08" fill="#f4f3ef" opacity="0.028"/><circle cx="1098.7" cy="658.5" r="1.54" fill="#f4f3ef" opacity="0.038"/><circle cx="1608.6" cy="550.8" r="1.44" fill="#f4f3ef" opacity="0.064"/><circle cx="380.1" cy="812.1" r="1.19" fill="#f4f3ef" opacity="0.046"/><circle cx="589.8" cy="188.9" r="1.11" fill="#f4f3ef" opacity="0.078"/><circle cx="1075.9" cy="267.9" r="0.43" fill="#f4f3ef" opacity="0.037"/><circle cx="1246.0" cy="315.8" r="1.24" fill="#f4f3ef" opacity="0.036"/><circle cx="1503.0" cy="399.2" r="0.94" fill="#f4f3ef" opacity="0.023"/><circle cx="1112.2" cy="904.9" r="0.91" fill="#f4f3ef" opacity="0.067"/><circle cx="1187.5" cy="619.5" r="0.77" fill="#f4f3ef" opacity="0.037"/><circle cx="1278.6" cy="929.6" r="0.56" fill="#f4f3ef" opacity="0.032"/><circle cx="1077.3" cy="1022.0" r="1.03" fill="#f4f3ef" opacity="0.076"/><circle cx="1484.4" cy="283.2" r="0.72" fill="#f4f3ef" opacity="0.029"/><circle cx="1196.3" cy="340.0" r="0.90" fill="#f4f3ef" opacity="0.026"/><circle cx="331.3" cy="259.0" r="0.32" fill="#f4f3ef" opacity="0.042"/><circle cx="1497.0" cy="26.9" r="0.62" fill="#f4f3ef" opacity="0.052"/><circle cx="616.2" cy="430.4" r="1.51" fill="#f4f3ef" opacity="0.044"/><circle cx="154.2" cy="416.1" r="1.12" fill="#f4f3ef" opacity="0.066"/><circle cx="585.1" cy="570.7" r="1.40" fill="#f4f3ef" opacity="0.027"/><circle cx="818.4" cy="840.8" r="0.51" fill="#f4f3ef" opacity="0.066"/><circle cx="1826.0" cy="53.2" r="1.55" fill="#f4f3ef" opacity="0.067"/><circle cx="28.7" cy="474.4" r="1.19" fill="#f4f3ef" opacity="0.052"/><circle cx="1162.8" cy="131.2" r="0.23" fill="#f4f3ef" opacity="0.073"/><circle cx="866.7" cy="970.2" r="1.15" fill="#f4f3ef" opacity="0.027"/><circle cx="1108.0" cy="458.1" r="0.93" fill="#f4f3ef" opacity="0.049"/><circle cx="1009.4" cy="101.6" r="0.22" fill="#f4f3ef" opacity="0.044"/><circle cx="476.3" cy="647.3" r="0.86" fill="#f4f3ef" opacity="0.044"/><circle cx="1262.7" cy="161.8" r="1.55" fill="#f4f3ef" opacity="0.056"/><circle cx="1638.3" cy="392.0" r="1.39" fill="#f4f3ef" opacity="0.080"/><circle cx="14.8" cy="884.3" r="0.20" fill="#f4f3ef" opacity="0.039"/><circle cx="1773.0" cy="305.6" r="1.19" fill="#f4f3ef" opacity="0.055"/><circle cx="489.3" cy="642.4" r="0.49" fill="#f4f3ef" opacity="0.040"/><circle cx="762.1" cy="241.4" r="1.52" fill="#f4f3ef" opacity="0.052"/><circle cx="78.9" cy="529.3" r="0.78" fill="#f4f3ef" opacity="0.025"/><circle cx="762.6" cy="492.7" r="1.25" fill="#f4f3ef" opacity="0.025"/><circle cx="158.4" cy="518.4" r="1.54" fill="#f4f3ef" opacity="0.062"/><circle cx="1300.3" cy="473.0" r="1.24" fill="#f4f3ef" opacity="0.066"/><circle cx="1818.1" cy="663.1" r="0.41" fill="#f4f3ef" opacity="0.074"/><circle cx="1403.5" cy="275.5" r="1.19" fill="#f4f3ef" opacity="0.051"/><circle cx="957.3" cy="856.7" r="0.72" fill="#f4f3ef" opacity="0.038"/><circle cx="1095.8" cy="793.5" r="0.29" fill="#f4f3ef" opacity="0.047"/><circle cx="17.5" cy="232.5" r="1.42" fill="#f4f3ef" opacity="0.057"/><circle cx="329.9" cy="240.4" r="1.55" fill="#f4f3ef" opacity="0.041"/><circle cx="1795.8" cy="523.9" r="0.43" fill="#f4f3ef" opacity="0.045"/><circle cx="1120.5" cy="29.6" r="0.35" fill="#f4f3ef" opacity="0.061"/><circle cx="698.0" cy="424.2" r="0.47" fill="#f4f3ef" opacity="0.055"/><circle cx="1358.0" cy="574.3" r="0.36" fill="#f4f3ef" opacity="0.048"/><circle cx="232.3" cy="386.7" r="0.31" fill="#f4f3ef" opacity="0.042"/><circle cx="1421.6" cy="1047.9" r="1.19" fill="#f4f3ef" opacity="0.061"/><circle cx="1062.4" cy="584.7" r="1.01" fill="#f4f3ef" opacity="0.035"/><circle cx="553.0" cy="943.7" r="0.85" fill="#f4f3ef" opacity="0.042"/><circle cx="1860.8" cy="671.6" r="0.47" fill="#f4f3ef" opacity="0.037"/><circle cx="269.0" cy="195.1" r="0.53" fill="#f4f3ef" opacity="0.046"/><circle cx="1442.5" cy="260.8" r="1.49" fill="#f4f3ef" opacity="0.039"/><circle cx="1375.6" cy="15.3" r="0.62" fill="#f4f3ef" opacity="0.025"/><circle cx="257.8" cy="125.5" r="1.24" fill="#f4f3ef" opacity="0.062"/><circle cx="341.0" cy="137.8" r="0.36" fill="#f4f3ef" opacity="0.074"/><circle cx="1245.9" cy="879.1" r="1.19" fill="#f4f3ef" opacity="0.063"/><circle cx="388.9" cy="15.9" r="1.28" fill="#f4f3ef" opacity="0.062"/><circle cx="448.4" cy="214.9" r="1.21" fill="#f4f3ef" opacity="0.067"/><circle cx="831.8" cy="742.8" r="0.31" fill="#f4f3ef" opacity="0.073"/><circle cx="22.2" cy="586.2" r="1.57" fill="#f4f3ef" opacity="0.027"/><circle cx="1124.6" cy="131.9" r="0.76" fill="#f4f3ef" opacity="0.058"/><circle cx="1413.2" cy="326.5" r="0.31" fill="#f4f3ef" opacity="0.034"/><circle cx="437.7" cy="396.6" r="0.26" fill="#f4f3ef" opacity="0.056"/><circle cx="1729.7" cy="609.0" r="1.35" fill="#f4f3ef" opacity="0.026"/><circle cx="430.2" cy="350.2" r="0.73" fill="#f4f3ef" opacity="0.046"/><circle cx="995.4" cy="167.0" r="1.07" fill="#f4f3ef" opacity="0.069"/><circle cx="1623.8" cy="206.0" r="1.11" fill="#f4f3ef" opacity="0.072"/><circle cx="1082.8" cy="453.9" r="1.09" fill="#f4f3ef" opacity="0.029"/><circle cx="1055.3" cy="617.4" r="0.74" fill="#f4f3ef" opacity="0.047"/><circle cx="166.7" cy="723.1" r="0.97" fill="#f4f3ef" opacity="0.056"/><circle cx="810.9" cy="277.7" r="0.94" fill="#f4f3ef" opacity="0.024"/><circle cx="1897.5" cy="307.8" r="0.21" fill="#f4f3ef" opacity="0.030"/><circle cx="558.5" cy="720.2" r="0.47" fill="#f4f3ef" opacity="0.078"/><circle cx="894.5" cy="541.4" r="1.20" fill="#f4f3ef" opacity="0.069"/><circle cx="961.9" cy="1038.2" r="0.40" fill="#f4f3ef" opacity="0.057"/><circle cx="239.2" cy="917.2" r="0.54" fill="#f4f3ef" opacity="0.057"/><circle cx="693.7" cy="885.1" r="1.41" fill="#f4f3ef" opacity="0.026"/><circle cx="1448.5" cy="288.6" r="0.85" fill="#f4f3ef" opacity="0.048"/><circle cx="488.8" cy="954.3" r="0.71" fill="#f4f3ef" opacity="0.034"/><circle cx="1488.5" cy="948.8" r="1.09" fill="#f4f3ef" opacity="0.053"/><circle cx="797.4" cy="939.0" r="1.09" fill="#f4f3ef" opacity="0.044"/><circle cx="667.2" cy="471.3" r="0.52" fill="#f4f3ef" opacity="0.049"/><circle cx="718.8" cy="372.6" r="1.20" fill="#f4f3ef" opacity="0.072"/><circle cx="288.4" cy="469.4" r="0.66" fill="#f4f3ef" opacity="0.024"/><circle cx="134.6" cy="188.4" r="0.91" fill="#f4f3ef" opacity="0.022"/><circle cx="1584.7" cy="956.3" r="1.25" fill="#f4f3ef" opacity="0.062"/><circle cx="1201.7" cy="679.7" r="0.49" fill="#f4f3ef" opacity="0.029"/><circle cx="170.8" cy="825.4" r="1.39" fill="#f4f3ef" opacity="0.053"/><circle cx="1526.1" cy="180.0" r="0.79" fill="#f4f3ef" opacity="0.063"/><circle cx="977.2" cy="130.1" r="1.51" fill="#f4f3ef" opacity="0.038"/><circle cx="136.0" cy="942.5" r="1.51" fill="#f4f3ef" opacity="0.061"/><circle cx="1823.1" cy="923.7" r="0.73" fill="#f4f3ef" opacity="0.055"/><circle cx="894.9" cy="620.5" r="0.45" fill="#f4f3ef" opacity="0.031"/><circle cx="1310.0" cy="179.5" r="0.80" fill="#f4f3ef" opacity="0.027"/><circle cx="1835.7" cy="667.4" r="0.63" fill="#f4f3ef" opacity="0.078"/><circle cx="314.9" cy="710.9" r="1.06" fill="#f4f3ef" opacity="0.049"/><circle cx="1132.9" cy="336.6" r="1.60" fill="#f4f3ef" opacity="0.051"/><circle cx="923.8" cy="131.2" r="1.41" fill="#f4f3ef" opacity="0.052"/><circle cx="517.1" cy="41.3" r="1.45" fill="#f4f3ef" opacity="0.072"/><circle cx="884.7" cy="1053.7" r="0.63" fill="#f4f3ef" opacity="0.053"/><circle cx="367.4" cy="34.9" r="1.20" fill="#f4f3ef" opacity="0.078"/><circle cx="861.5" cy="411.7" r="1.18" fill="#f4f3ef" opacity="0.078"/><circle cx="1845.4" cy="890.7" r="0.23" fill="#f4f3ef" opacity="0.072"/><circle cx="1446.6" cy="18.6" r="0.94" fill="#f4f3ef" opacity="0.074"/><circle cx="708.1" cy="382.1" r="1.16" fill="#f4f3ef" opacity="0.050"/><circle cx="1455.0" cy="567.8" r="1.34" fill="#f4f3ef" opacity="0.030"/><circle cx="1601.4" cy="802.3" r="1.57" fill="#f4f3ef" opacity="0.022"/><circle cx="1336.9" cy="672.5" r="0.94" fill="#f4f3ef" opacity="0.026"/><circle cx="993.4" cy="804.8" r="0.68" fill="#f4f3ef" opacity="0.025"/><circle cx="191.7" cy="946.1" r="1.20" fill="#f4f3ef" opacity="0.020"/><circle cx="188.0" cy="922.9" r="1.44" fill="#f4f3ef" opacity="0.046"/><circle cx="1740.8" cy="161.9" r="0.60" fill="#f4f3ef" opacity="0.037"/><circle cx="417.6" cy="89.8" r="0.79" fill="#f4f3ef" opacity="0.050"/><circle cx="461.3" cy="773.2" r="0.80" fill="#f4f3ef" opacity="0.030"/><circle cx="1137.1" cy="438.9" r="0.62" fill="#f4f3ef" opacity="0.048"/><circle cx="1639.0" cy="33.5" r="1.26" fill="#f4f3ef" opacity="0.031"/><circle cx="1516.8" cy="943.6" r="1.35" fill="#f4f3ef" opacity="0.079"/><circle cx="462.2" cy="196.0" r="0.27" fill="#f4f3ef" opacity="0.036"/><circle cx="1296.0" cy="417.2" r="0.74" fill="#f4f3ef" opacity="0.063"/><circle cx="794.5" cy="1074.0" r="1.23" fill="#f4f3ef" opacity="0.053"/><circle cx="996.2" cy="153.0" r="0.50" fill="#f4f3ef" opacity="0.042"/><circle cx="668.5" cy="880.9" r="1.57" fill="#f4f3ef" opacity="0.066"/><circle cx="1494.5" cy="804.4" r="1.37" fill="#f4f3ef" opacity="0.051"/><circle cx="179.1" cy="1030.1" r="0.83" fill="#f4f3ef" opacity="0.046"/><circle cx="1036.6" cy="1064.7" r="0.48" fill="#f4f3ef" opacity="0.021"/><circle cx="1056.6" cy="854.8" r="1.30" fill="#f4f3ef" opacity="0.053"/><circle cx="1210.9" cy="307.2" r="0.79" fill="#f4f3ef" opacity="0.028"/><circle cx="1760.3" cy="608.4" r="1.21" fill="#f4f3ef" opacity="0.026"/><circle cx="761.0" cy="865.2" r="0.56" fill="#f4f3ef" opacity="0.040"/><circle cx="1531.6" cy="864.2" r="1.33" fill="#f4f3ef" opacity="0.028"/><circle cx="279.5" cy="232.1" r="0.48" fill="#f4f3ef" opacity="0.063"/><circle cx="1887.6" cy="475.6" r="1.48" fill="#f4f3ef" opacity="0.052"/><circle cx="501.2" cy="181.3" r="0.57" fill="#f4f3ef" opacity="0.025"/><circle cx="1714.3" cy="655.8" r="0.64" fill="#f4f3ef" opacity="0.050"/><circle cx="1876.5" cy="406.0" r="0.79" fill="#f4f3ef" opacity="0.067"/><circle cx="1319.7" cy="58.3" r="0.84" fill="#f4f3ef" opacity="0.060"/><circle cx="1584.6" cy="439.6" r="1.21" fill="#f4f3ef" opacity="0.029"/><circle cx="87.5" cy="296.4" r="0.82" fill="#f4f3ef" opacity="0.068"/><circle cx="1427.0" cy="135.4" r="0.29" fill="#f4f3ef" opacity="0.053"/><circle cx="1170.5" cy="303.3" r="0.33" fill="#f4f3ef" opacity="0.039"/><circle cx="1640.8" cy="866.7" r="1.12" fill="#f4f3ef" opacity="0.032"/><circle cx="183.3" cy="52.4" r="1.24" fill="#f4f3ef" opacity="0.043"/><circle cx="1751.9" cy="967.0" r="0.33" fill="#f4f3ef" opacity="0.060"/><circle cx="136.3" cy="677.1" r="1.20" fill="#f4f3ef" opacity="0.061"/><circle cx="788.4" cy="529.5" r="0.43" fill="#f4f3ef" opacity="0.072"/><circle cx="768.9" cy="990.7" r="0.74" fill="#f4f3ef" opacity="0.072"/><circle cx="694.1" cy="447.5" r="0.62" fill="#f4f3ef" opacity="0.075"/><circle cx="682.4" cy="126.5" r="1.59" fill="#f4f3ef" opacity="0.058"/><circle cx="1421.4" cy="14.4" r="1.11" fill="#f4f3ef" opacity="0.055"/><circle cx="754.0" cy="897.9" r="0.29" fill="#f4f3ef" opacity="0.053"/><circle cx="1145.3" cy="643.6" r="1.45" fill="#f4f3ef" opacity="0.042"/><circle cx="1149.5" cy="918.2" r="0.95" fill="#f4f3ef" opacity="0.049"/><circle cx="1596.2" cy="588.3" r="1.15" fill="#f4f3ef" opacity="0.035"/><circle cx="1537.2" cy="640.7" r="0.95" fill="#f4f3ef" opacity="0.063"/><circle cx="1233.2" cy="101.9" r="1.21" fill="#f4f3ef" opacity="0.035"/><circle cx="660.6" cy="238.7" r="1.34" fill="#f4f3ef" opacity="0.062"/><circle cx="1217.8" cy="837.7" r="1.02" fill="#f4f3ef" opacity="0.043"/><circle cx="1032.4" cy="445.6" r="1.42" fill="#f4f3ef" opacity="0.051"/><circle cx="1147.2" cy="569.1" r="0.39" fill="#f4f3ef" opacity="0.053"/><circle cx="1467.4" cy="874.8" r="1.19" fill="#f4f3ef" opacity="0.080"/><circle cx="1827.2" cy="509.3" r="1.11" fill="#f4f3ef" opacity="0.079"/><circle cx="496.0" cy="139.5" r="0.64" fill="#f4f3ef" opacity="0.049"/><circle cx="1645.9" cy="391.8" r="1.00" fill="#f4f3ef" opacity="0.035"/><circle cx="1057.5" cy="1013.1" r="1.21" fill="#f4f3ef" opacity="0.038"/><circle cx="1907.1" cy="749.9" r="0.20" fill="#f4f3ef" opacity="0.029"/><circle cx="1113.3" cy="108.9" r="1.39" fill="#f4f3ef" opacity="0.068"/><circle cx="3.4" cy="516.8" r="1.26" fill="#f4f3ef" opacity="0.027"/><circle cx="900.4" cy="960.2" r="1.43" fill="#f4f3ef" opacity="0.034"/><circle cx="1149.5" cy="745.9" r="0.47" fill="#f4f3ef" opacity="0.038"/><circle cx="1864.8" cy="820.5" r="0.80" fill="#f4f3ef" opacity="0.028"/><circle cx="675.9" cy="410.6" r="1.05" fill="#f4f3ef" opacity="0.043"/><circle cx="1114.6" cy="863.0" r="0.59" fill="#f4f3ef" opacity="0.047"/><circle cx="241.8" cy="484.2" r="0.75" fill="#f4f3ef" opacity="0.020"/><circle cx="593.6" cy="901.0" r="1.40" fill="#f4f3ef" opacity="0.037"/><circle cx="368.7" cy="100.0" r="1.28" fill="#f4f3ef" opacity="0.073"/><circle cx="254.3" cy="227.9" r="0.64" fill="#f4f3ef" opacity="0.044"/><circle cx="13.6" cy="991.4" r="0.60" fill="#f4f3ef" opacity="0.055"/><circle cx="191.6" cy="257.1" r="0.68" fill="#f4f3ef" opacity="0.037"/><circle cx="1262.4" cy="771.7" r="1.42" fill="#f4f3ef" opacity="0.078"/><circle cx="215.7" cy="321.8" r="1.00" fill="#f4f3ef" opacity="0.077"/><circle cx="1863.4" cy="974.2" r="1.11" fill="#f4f3ef" opacity="0.038"/><circle cx="706.1" cy="675.4" r="1.22" fill="#f4f3ef" opacity="0.043"/><circle cx="560.1" cy="692.2" r="0.73" fill="#f4f3ef" opacity="0.024"/><circle cx="904.1" cy="811.2" r="0.71" fill="#f4f3ef" opacity="0.058"/><circle cx="1785.3" cy="659.1" r="0.96" fill="#f4f3ef" opacity="0.040"/><circle cx="406.7" cy="662.6" r="0.71" fill="#f4f3ef" opacity="0.055"/><circle cx="513.6" cy="488.3" r="0.42" fill="#f4f3ef" opacity="0.075"/><circle cx="20.0" cy="362.8" r="1.58" fill="#f4f3ef" opacity="0.047"/><circle cx="1035.6" cy="953.0" r="0.48" fill="#f4f3ef" opacity="0.031"/><circle cx="52.1" cy="725.3" r="1.16" fill="#f4f3ef" opacity="0.070"/><circle cx="530.4" cy="506.6" r="1.22" fill="#f4f3ef" opacity="0.046"/><circle cx="1806.7" cy="123.4" r="0.99" fill="#f4f3ef" opacity="0.051"/><circle cx="799.5" cy="82.4" r="1.08" fill="#f4f3ef" opacity="0.023"/><circle cx="756.2" cy="730.3" r="0.80" fill="#f4f3ef" opacity="0.076"/><circle cx="159.9" cy="1053.7" r="0.35" fill="#f4f3ef" opacity="0.036"/><circle cx="195.7" cy="359.4" r="1.10" fill="#f4f3ef" opacity="0.034"/><circle cx="57.7" cy="674.0" r="1.27" fill="#f4f3ef" opacity="0.057"/><circle cx="1215.4" cy="144.1" r="0.90" fill="#f4f3ef" opacity="0.025"/><circle cx="1440.9" cy="116.5" r="0.75" fill="#f4f3ef" opacity="0.022"/><circle cx="1634.7" cy="1057.7" r="0.75" fill="#f4f3ef" opacity="0.029"/><circle cx="493.2" cy="274.5" r="0.78" fill="#f4f3ef" opacity="0.059"/><circle cx="54.9" cy="73.5" r="0.98" fill="#f4f3ef" opacity="0.028"/><circle cx="1007.2" cy="441.4" r="1.58" fill="#f4f3ef" opacity="0.032"/><circle cx="1193.1" cy="4.9" r="0.92" fill="#f4f3ef" opacity="0.057"/><circle cx="1157.8" cy="950.6" r="1.31" fill="#f4f3ef" opacity="0.032"/><circle cx="1375.3" cy="625.2" r="0.49" fill="#f4f3ef" opacity="0.046"/><circle cx="755.3" cy="55.3" r="0.85" fill="#f4f3ef" opacity="0.059"/><circle cx="269.6" cy="227.7" r="1.27" fill="#f4f3ef" opacity="0.074"/><circle cx="179.0" cy="168.9" r="1.22" fill="#f4f3ef" opacity="0.052"/><circle cx="459.7" cy="65.7" r="1.51" fill="#f4f3ef" opacity="0.046"/><circle cx="590.3" cy="784.7" r="0.41" fill="#f4f3ef" opacity="0.073"/><circle cx="618.2" cy="872.6" r="0.49" fill="#f4f3ef" opacity="0.028"/><circle cx="1586.3" cy="756.1" r="1.02" fill="#f4f3ef" opacity="0.057"/><circle cx="1479.9" cy="101.8" r="1.05" fill="#f4f3ef" opacity="0.070"/><circle cx="132.9" cy="216.3" r="0.65" fill="#f4f3ef" opacity="0.076"/><circle cx="1575.1" cy="686.5" r="0.33" fill="#f4f3ef" opacity="0.073"/><circle cx="378.3" cy="1058.8" r="1.33" fill="#f4f3ef" opacity="0.045"/><circle cx="3.3" cy="0.1" r="1.22" fill="#f4f3ef" opacity="0.055"/><circle cx="1706.2" cy="576.9" r="0.37" fill="#f4f3ef" opacity="0.073"/><circle cx="485.7" cy="55.9" r="0.77" fill="#f4f3ef" opacity="0.038"/><circle cx="1509.1" cy="943.8" r="0.34" fill="#f4f3ef" opacity="0.064"/><circle cx="1339.5" cy="67.2" r="0.66" fill="#f4f3ef" opacity="0.038"/><circle cx="1161.9" cy="1052.9" r="0.32" fill="#f4f3ef" opacity="0.029"/><circle cx="170.6" cy="527.5" r="0.34" fill="#f4f3ef" opacity="0.025"/><circle cx="1755.0" cy="957.6" r="0.75" fill="#f4f3ef" opacity="0.067"/><circle cx="1767.1" cy="450.0" r="0.91" fill="#f4f3ef" opacity="0.057"/><circle cx="1107.6" cy="551.2" r="0.76" fill="#f4f3ef" opacity="0.037"/><circle cx="392.7" cy="728.0" r="1.56" fill="#f4f3ef" opacity="0.020"/><circle cx="1661.1" cy="47.0" r="0.67" fill="#f4f3ef" opacity="0.043"/><circle cx="1760.1" cy="654.9" r="1.12" fill="#f4f3ef" opacity="0.021"/><circle cx="452.7" cy="98.4" r="1.24" fill="#f4f3ef" opacity="0.058"/><circle cx="204.0" cy="564.1" r="0.53" fill="#f4f3ef" opacity="0.027"/><circle cx="1488.2" cy="478.7" r="0.96" fill="#f4f3ef" opacity="0.075"/><circle cx="1294.8" cy="868.8" r="0.70" fill="#f4f3ef" opacity="0.041"/><circle cx="595.8" cy="561.2" r="1.43" fill="#f4f3ef" opacity="0.049"/><circle cx="1571.9" cy="742.4" r="1.22" fill="#f4f3ef" opacity="0.060"/><circle cx="359.2" cy="519.2" r="0.89" fill="#f4f3ef" opacity="0.068"/><circle cx="276.5" cy="758.2" r="1.50" fill="#f4f3ef" opacity="0.028"/><circle cx="1371.1" cy="6.1" r="1.43" fill="#f4f3ef" opacity="0.077"/><circle cx="845.9" cy="849.6" r="1.34" fill="#f4f3ef" opacity="0.059"/><circle cx="526.1" cy="795.3" r="0.27" fill="#f4f3ef" opacity="0.066"/><circle cx="245.8" cy="69.8" r="1.12" fill="#f4f3ef" opacity="0.044"/><circle cx="194.7" cy="420.0" r="1.58" fill="#f4f3ef" opacity="0.055"/><circle cx="704.6" cy="312.3" r="1.49" fill="#f4f3ef" opacity="0.021"/><circle cx="1396.1" cy="573.6" r="1.23" fill="#f4f3ef" opacity="0.063"/><circle cx="1605.8" cy="1030.4" r="1.15" fill="#f4f3ef" opacity="0.035"/><circle cx="171.9" cy="29.4" r="0.47" fill="#f4f3ef" opacity="0.053"/><circle cx="342.0" cy="77.3" r="1.28" fill="#f4f3ef" opacity="0.053"/><circle cx="599.0" cy="160.7" r="0.98" fill="#f4f3ef" opacity="0.040"/><circle cx="208.2" cy="666.4" r="0.95" fill="#f4f3ef" opacity="0.024"/><circle cx="283.5" cy="381.0" r="0.81" fill="#f4f3ef" opacity="0.054"/><circle cx="374.6" cy="691.1" r="0.60" fill="#f4f3ef" opacity="0.049"/><circle cx="173.3" cy="783.5" r="1.07" fill="#f4f3ef" opacity="0.032"/><circle cx="580.4" cy="44.7" r="0.76" fill="#f4f3ef" opacity="0.046"/><circle cx="292.3" cy="101.5" r="0.95" fill="#f4f3ef" opacity="0.042"/><circle cx="1347.3" cy="20.5" r="0.36" fill="#f4f3ef" opacity="0.058"/><circle cx="593.0" cy="868.4" r="0.66" fill="#f4f3ef" opacity="0.069"/><circle cx="1632.2" cy="191.9" r="1.55" fill="#f4f3ef" opacity="0.060"/><circle cx="1170.2" cy="177.6" r="1.16" fill="#f4f3ef" opacity="0.022"/><circle cx="1601.1" cy="332.2" r="1.44" fill="#f4f3ef" opacity="0.043"/><circle cx="1834.4" cy="602.3" r="0.55" fill="#f4f3ef" opacity="0.023"/><circle cx="922.0" cy="894.7" r="1.59" fill="#f4f3ef" opacity="0.024"/><circle cx="1044.7" cy="235.9" r="1.23" fill="#f4f3ef" opacity="0.069"/><circle cx="258.8" cy="972.7" r="0.27" fill="#f4f3ef" opacity="0.030"/><circle cx="1882.7" cy="731.7" r="1.19" fill="#f4f3ef" opacity="0.043"/><circle cx="204.0" cy="219.6" r="0.97" fill="#f4f3ef" opacity="0.065"/><circle cx="105.4" cy="943.1" r="0.26" fill="#f4f3ef" opacity="0.061"/><circle cx="1492.3" cy="408.8" r="0.90" fill="#f4f3ef" opacity="0.061"/><circle cx="358.7" cy="1003.3" r="1.59" fill="#f4f3ef" opacity="0.073"/><circle cx="734.3" cy="153.5" r="1.43" fill="#f4f3ef" opacity="0.037"/><circle cx="1030.8" cy="645.8" r="0.25" fill="#f4f3ef" opacity="0.056"/><circle cx="869.0" cy="67.1" r="1.23" fill="#f4f3ef" opacity="0.072"/><circle cx="1505.3" cy="403.9" r="0.53" fill="#f4f3ef" opacity="0.057"/><circle cx="1778.1" cy="2.9" r="1.56" fill="#f4f3ef" opacity="0.069"/><circle cx="1094.9" cy="290.8" r="0.82" fill="#f4f3ef" opacity="0.041"/><circle cx="1778.6" cy="254.2" r="1.29" fill="#f4f3ef" opacity="0.042"/><circle cx="1174.4" cy="279.9" r="1.58" fill="#f4f3ef" opacity="0.079"/><circle cx="396.3" cy="234.5" r="1.28" fill="#f4f3ef" opacity="0.022"/><circle cx="914.1" cy="424.6" r="0.45" fill="#f4f3ef" opacity="0.031"/><circle cx="499.5" cy="37.0" r="1.23" fill="#f4f3ef" opacity="0.067"/><circle cx="53.3" cy="618.2" r="0.77" fill="#f4f3ef" opacity="0.054"/><circle cx="191.8" cy="555.0" r="0.33" fill="#f4f3ef" opacity="0.064"/><circle cx="1033.5" cy="1074.0" r="1.46" fill="#f4f3ef" opacity="0.074"/><circle cx="1345.9" cy="1.9" r="1.60" fill="#f4f3ef" opacity="0.058"/><circle cx="891.8" cy="285.4" r="0.47" fill="#f4f3ef" opacity="0.062"/><circle cx="216.5" cy="871.1" r="0.39" fill="#f4f3ef" opacity="0.078"/><circle cx="1714.0" cy="185.7" r="0.51" fill="#f4f3ef" opacity="0.072"/><circle cx="454.0" cy="335.8" r="0.40" fill="#f4f3ef" opacity="0.065"/><circle cx="1248.3" cy="148.2" r="0.35" fill="#f4f3ef" opacity="0.059"/><circle cx="517.6" cy="809.4" r="1.23" fill="#f4f3ef" opacity="0.077"/><circle cx="158.4" cy="346.2" r="1.06" fill="#f4f3ef" opacity="0.051"/><circle cx="1569.0" cy="705.2" r="0.89" fill="#f4f3ef" opacity="0.059"/><circle cx="956.8" cy="433.1" r="0.51" fill="#f4f3ef" opacity="0.054"/><circle cx="1285.0" cy="1036.6" r="0.57" fill="#f4f3ef" opacity="0.063"/><circle cx="538.5" cy="22.3" r="1.53" fill="#f4f3ef" opacity="0.056"/><circle cx="471.6" cy="856.8" r="0.66" fill="#f4f3ef" opacity="0.041"/><circle cx="1273.8" cy="967.0" r="1.28" fill="#f4f3ef" opacity="0.079"/><circle cx="1357.0" cy="979.3" r="0.41" fill="#f4f3ef" opacity="0.031"/><circle cx="341.9" cy="640.6" r="1.24" fill="#f4f3ef" opacity="0.020"/><circle cx="1404.9" cy="857.4" r="1.32" fill="#f4f3ef" opacity="0.079"/><circle cx="1464.4" cy="1056.4" r="1.25" fill="#f4f3ef" opacity="0.024"/><circle cx="1847.8" cy="504.3" r="0.35" fill="#f4f3ef" opacity="0.030"/><circle cx="1038.2" cy="347.7" r="0.21" fill="#f4f3ef" opacity="0.043"/><circle cx="220.6" cy="973.4" r="0.80" fill="#f4f3ef" opacity="0.074"/><circle cx="509.2" cy="88.0" r="0.35" fill="#f4f3ef" opacity="0.051"/><circle cx="1453.7" cy="158.1" r="0.30" fill="#f4f3ef" opacity="0.072"/><circle cx="825.7" cy="370.5" r="1.39" fill="#f4f3ef" opacity="0.043"/><circle cx="1446.2" cy="111.7" r="0.77" fill="#f4f3ef" opacity="0.063"/><circle cx="91.4" cy="1008.5" r="1.11" fill="#f4f3ef" opacity="0.026"/><circle cx="719.8" cy="1047.5" r="1.15" fill="#f4f3ef" opacity="0.029"/><circle cx="178.8" cy="215.4" r="1.13" fill="#f4f3ef" opacity="0.046"/><circle cx="151.3" cy="378.9" r="0.78" fill="#f4f3ef" opacity="0.064"/><circle cx="1182.7" cy="484.6" r="1.01" fill="#f4f3ef" opacity="0.073"/><circle cx="1826.9" cy="39.2" r="0.98" fill="#f4f3ef" opacity="0.040"/><circle cx="993.5" cy="69.3" r="0.25" fill="#f4f3ef" opacity="0.046"/><circle cx="1574.5" cy="481.7" r="0.51" fill="#f4f3ef" opacity="0.034"/><circle cx="1910.5" cy="302.9" r="1.24" fill="#f4f3ef" opacity="0.026"/><circle cx="57.9" cy="799.7" r="0.44" fill="#f4f3ef" opacity="0.073"/><circle cx="1255.2" cy="678.7" r="0.58" fill="#f4f3ef" opacity="0.074"/><circle cx="1709.7" cy="646.6" r="1.45" fill="#f4f3ef" opacity="0.042"/><circle cx="544.5" cy="50.1" r="0.89" fill="#f4f3ef" opacity="0.065"/><circle cx="1504.8" cy="715.8" r="0.76" fill="#f4f3ef" opacity="0.051"/><circle cx="584.5" cy="710.3" r="1.14" fill="#f4f3ef" opacity="0.070"/><circle cx="1813.4" cy="700.5" r="1.13" fill="#f4f3ef" opacity="0.060"/><circle cx="1683.2" cy="232.8" r="0.57" fill="#f4f3ef" opacity="0.066"/><circle cx="1734.8" cy="134.1" r="1.24" fill="#f4f3ef" opacity="0.029"/><circle cx="1304.4" cy="230.9" r="0.70" fill="#f4f3ef" opacity="0.041"/><circle cx="1150.6" cy="1029.9" r="0.95" fill="#f4f3ef" opacity="0.039"/><circle cx="680.7" cy="717.8" r="1.29" fill="#f4f3ef" opacity="0.079"/><circle cx="297.7" cy="441.2" r="0.53" fill="#f4f3ef" opacity="0.045"/><circle cx="1186.8" cy="586.9" r="1.43" fill="#f4f3ef" opacity="0.070"/><circle cx="622.1" cy="1021.5" r="0.83" fill="#f4f3ef" opacity="0.079"/><circle cx="73.2" cy="971.6" r="1.55" fill="#f4f3ef" opacity="0.054"/><circle cx="1152.0" cy="704.0" r="1.55" fill="#f4f3ef" opacity="0.078"/><circle cx="919.1" cy="685.2" r="0.77" fill="#f4f3ef" opacity="0.072"/><circle cx="1910.9" cy="382.0" r="0.49" fill="#f4f3ef" opacity="0.048"/><circle cx="406.0" cy="1021.0" r="0.84" fill="#f4f3ef" opacity="0.044"/><circle cx="931.7" cy="428.9" r="0.67" fill="#f4f3ef" opacity="0.035"/><circle cx="1330.9" cy="472.4" r="1.10" fill="#f4f3ef" opacity="0.066"/><circle cx="228.9" cy="98.1" r="0.24" fill="#f4f3ef" opacity="0.068"/><circle cx="19.8" cy="972.7" r="1.45" fill="#f4f3ef" opacity="0.069"/><circle cx="1533.1" cy="882.8" r="1.50" fill="#f4f3ef" opacity="0.028"/><circle cx="1900.7" cy="815.2" r="0.67" fill="#f4f3ef" opacity="0.070"/><circle cx="1383.4" cy="876.4" r="1.24" fill="#f4f3ef" opacity="0.034"/><circle cx="1877.5" cy="173.2" r="1.22" fill="#f4f3ef" opacity="0.035"/><circle cx="941.4" cy="652.2" r="0.28" fill="#f4f3ef" opacity="0.029"/><circle cx="542.6" cy="860.1" r="0.98" fill="#f4f3ef" opacity="0.031"/><circle cx="1724.1" cy="143.6" r="1.20" fill="#f4f3ef" opacity="0.066"/><circle cx="551.0" cy="329.3" r="1.38" fill="#f4f3ef" opacity="0.046"/><circle cx="697.4" cy="563.8" r="0.21" fill="#f4f3ef" opacity="0.038"/><circle cx="432.9" cy="434.0" r="0.98" fill="#f4f3ef" opacity="0.042"/><circle cx="89.4" cy="566.3" r="0.73" fill="#f4f3ef" opacity="0.041"/><circle cx="1207.7" cy="707.6" r="1.24" fill="#f4f3ef" opacity="0.037"/><circle cx="1204.0" cy="684.4" r="1.48" fill="#f4f3ef" opacity="0.062"/><circle cx="836.8" cy="1003.4" r="0.64" fill="#f4f3ef" opacity="0.054"/><circle cx="1433.6" cy="931.3" r="0.83" fill="#f4f3ef" opacity="0.067"/><circle cx="1477.3" cy="534.7" r="0.84" fill="#f4f3ef" opacity="0.047"/><circle cx="233.1" cy="200.4" r="0.66" fill="#f4f3ef" opacity="0.065"/><circle cx="735.0" cy="875.0" r="1.30" fill="#f4f3ef" opacity="0.048"/><circle cx="612.8" cy="705.1" r="1.40" fill="#f4f3ef" opacity="0.036"/><circle cx="1478.2" cy="1037.5" r="0.31" fill="#f4f3ef" opacity="0.053"/><circle cx="392.0" cy="178.7" r="0.78" fill="#f4f3ef" opacity="0.020"/><circle cx="1810.5" cy="835.5" r="1.27" fill="#f4f3ef" opacity="0.070"/><circle cx="92.2" cy="994.5" r="0.54" fill="#f4f3ef" opacity="0.059"/><circle cx="1684.5" cy="642.4" r="0.21" fill="#f4f3ef" opacity="0.023"/><circle cx="590.5" cy="565.9" r="1.41" fill="#f4f3ef" opacity="0.068"/><circle cx="1195.1" cy="791.6" r="0.87" fill="#f4f3ef" opacity="0.063"/><circle cx="132.6" cy="826.2" r="0.52" fill="#f4f3ef" opacity="0.038"/><circle cx="152.6" cy="616.3" r="1.34" fill="#f4f3ef" opacity="0.070"/><circle cx="306.9" cy="68.7" r="0.83" fill="#f4f3ef" opacity="0.045"/><circle cx="856.3" cy="369.9" r="1.25" fill="#f4f3ef" opacity="0.043"/><circle cx="1777.0" cy="626.7" r="0.60" fill="#f4f3ef" opacity="0.057"/><circle cx="627.6" cy="625.7" r="1.37" fill="#f4f3ef" opacity="0.044"/><circle cx="1295.5" cy="1073.6" r="0.52" fill="#f4f3ef" opacity="0.079"/><circle cx="983.6" cy="237.1" r="1.52" fill="#f4f3ef" opacity="0.068"/><circle cx="1517.2" cy="1022.8" r="0.61" fill="#f4f3ef" opacity="0.042"/><circle cx="810.3" cy="417.3" r="0.68" fill="#f4f3ef" opacity="0.067"/><circle cx="972.5" cy="167.5" r="0.83" fill="#f4f3ef" opacity="0.024"/><circle cx="415.7" cy="899.8" r="0.89" fill="#f4f3ef" opacity="0.077"/><circle cx="680.6" cy="201.1" r="1.25" fill="#f4f3ef" opacity="0.046"/><circle cx="1103.5" cy="57.9" r="0.86" fill="#f4f3ef" opacity="0.024"/><circle cx="523.0" cy="976.9" r="0.33" fill="#f4f3ef" opacity="0.069"/><circle cx="266.5" cy="64.8" r="0.37" fill="#f4f3ef" opacity="0.056"/><circle cx="736.8" cy="628.2" r="1.16" fill="#f4f3ef" opacity="0.049"/><circle cx="1199.3" cy="893.9" r="1.28" fill="#f4f3ef" opacity="0.060"/><circle cx="847.9" cy="728.5" r="0.37" fill="#f4f3ef" opacity="0.077"/><circle cx="1152.3" cy="438.6" r="1.24" fill="#f4f3ef" opacity="0.078"/><circle cx="1804.4" cy="291.0" r="0.47" fill="#f4f3ef" opacity="0.028"/><circle cx="1784.9" cy="752.2" r="0.78" fill="#f4f3ef" opacity="0.029"/><circle cx="1710.1" cy="209.0" r="0.66" fill="#f4f3ef" opacity="0.032"/><circle cx="1698.4" cy="968.0" r="0.23" fill="#f4f3ef" opacity="0.074"/><circle cx="517.4" cy="855.9" r="1.15" fill="#f4f3ef" opacity="0.072"/><circle cx="1770.0" cy="659.4" r="0.33" fill="#f4f3ef" opacity="0.070"/><circle cx="241.3" cy="405.1" r="1.49" fill="#f4f3ef" opacity="0.058"/><circle cx="245.5" cy="679.7" r="0.99" fill="#f4f3ef" opacity="0.066"/><circle cx="692.2" cy="349.8" r="1.19" fill="#f4f3ef" opacity="0.052"/><circle cx="633.2" cy="402.2" r="0.99" fill="#f4f3ef" opacity="0.080"/><circle cx="329.2" cy="943.4" r="1.25" fill="#f4f3ef" opacity="0.051"/><circle cx="1676.6" cy="0.2" r="1.38" fill="#f4f3ef" opacity="0.079"/><circle cx="313.8" cy="599.2" r="1.06" fill="#f4f3ef" opacity="0.059"/><circle cx="128.4" cy="207.1" r="1.46" fill="#f4f3ef" opacity="0.068"/><circle cx="243.2" cy="330.6" r="0.43" fill="#f4f3ef" opacity="0.070"/><circle cx="563.4" cy="636.3" r="1.24" fill="#f4f3ef" opacity="0.037"/><circle cx="923.2" cy="270.8" r="1.15" fill="#f4f3ef" opacity="0.036"/><circle cx="1512.0" cy="981.0" r="0.68" fill="#f4f3ef" opacity="0.066"/><circle cx="741.9" cy="153.3" r="1.05" fill="#f4f3ef" opacity="0.052"/><circle cx="153.5" cy="774.6" r="1.25" fill="#f4f3ef" opacity="0.054"/><circle cx="1003.1" cy="511.4" r="0.25" fill="#f4f3ef" opacity="0.046"/><circle cx="209.3" cy="950.4" r="1.43" fill="#f4f3ef" opacity="0.025"/><circle cx="1019.4" cy="278.3" r="1.31" fill="#f4f3ef" opacity="0.044"/><circle cx="1916.4" cy="721.7" r="1.47" fill="#f4f3ef" opacity="0.051"/><circle cx="245.5" cy="507.4" r="0.51" fill="#f4f3ef" opacity="0.055"/><circle cx="960.8" cy="582.0" r="0.84" fill="#f4f3ef" opacity="0.045"/><circle cx="1691.9" cy="172.1" r="1.09" fill="#f4f3ef" opacity="0.060"/><circle cx="210.6" cy="624.5" r="0.63" fill="#f4f3ef" opacity="0.063"/><circle cx="1257.8" cy="245.7" r="0.79" fill="#f4f3ef" opacity="0.037"/><circle cx="1609.6" cy="662.5" r="1.44" fill="#f4f3ef" opacity="0.053"/><circle cx="1384.7" cy="941.5" r="1.32" fill="#f4f3ef" opacity="0.030"/><circle cx="1270.3" cy="1069.4" r="0.68" fill="#f4f3ef" opacity="0.060"/><circle cx="1029.6" cy="752.9" r="0.64" fill="#f4f3ef" opacity="0.071"/><circle cx="1207.6" cy="18.6" r="0.72" fill="#f4f3ef" opacity="0.054"/><circle cx="358.4" cy="533.2" r="1.46" fill="#f4f3ef" opacity="0.035"/><circle cx="1231.7" cy="83.3" r="1.04" fill="#f4f3ef" opacity="0.034"/><circle cx="959.4" cy="735.7" r="1.15" fill="#f4f3ef" opacity="0.055"/><circle cx="1722.1" cy="436.9" r="1.26" fill="#f4f3ef" opacity="0.060"/><circle cx="1576.1" cy="453.7" r="0.77" fill="#f4f3ef" opacity="0.041"/><circle cx="0.1" cy="572.7" r="0.76" fill="#f4f3ef" opacity="0.075"/><circle cx="881.3" cy="420.6" r="1.00" fill="#f4f3ef" opacity="0.056"/><circle cx="1422.7" cy="424.1" r="0.75" fill="#f4f3ef" opacity="0.072"/>
  <rect width="1920" height="1080" fill="url(#l23)"/>
  
  <text x="96" y="993.6" font-family="Helvetica, Arial, sans-serif" font-size="34.559999999999995" letter-spacing="4" fill="#f4f3ef" fill-opacity="0.72">NIGHTFIELD</text>
  <text x="96" y="1036.8" font-family="Helvetica, Arial, sans-serif" font-size="21.119999999999997" letter-spacing="2" fill="#f4f3ef" fill-opacity="0.38">SCREENSHOT 02</text>
</svg>