<?xml version="1.0" encoding="UTF-8"?>
<svg xmlns="http://www.w3.org/2000/svg" width="1600" height="1067" viewBox="0 0 1600 1067">
  <defs>
    <linearGradient id="g8" x1="0%" y1="0%" x2="100%" y2="100%">
      <stop offset="0%" stop-color="#0f1416"/>
      <stop offset="100%" stop-color="#1f3b3a"/>
    </linearGradient>
    <linearGradient id="l8" x1="0%" y1="0%" x2="0%" y2="100%">
      <stop offset="0%" stop-color="#000" stop-opacity="0"/>
      <stop offset="100%" stop-color="#000" stop-opacity="0.55"/>
    </linearGradient>
  </defs>
  <rect width="1600" height="1067" fill="url(#g8)"/>
  <circle cx="848.5" cy="423.3" r="1.48" fill="#f4f3ef" opacity="0.048"/><circle cx="623.1" cy="607.8" r="1.05" fill="#f4f3ef" opacity="0.064"/><circle cx="628.3" cy="419.1" r="1.42" fill="#f4f3ef" opacity="0.068"/><circle cx="370.0" cy="199.7" r="0.48" fill="#f4f3ef" opacity="0.052"/><circle cx="184.2" cy="15.4" r="1.23" fill="#f4f3ef" opacity="0.024"/><circle cx="1058.5" cy="248.3" r="0.85" fill="#f4f3ef" opacity="0.053"/><circle cx="721.2" cy="766.5" r="0.36" fill="#f4f3ef" opacity="0.068"/><circle cx="397.1" cy="806.2" r="1.20" fill="#f4f3ef" opacity="0.048"/><circle cx="1429.4" cy="630.7" r="1.32" fill="#f4f3ef" opacity="0.077"/><circle cx="1368.7" cy="701.1" r="0.66" fill="#f4f3ef" opacity="0.075"/><circle cx="728.6" cy="490.4" r="0.49" fill="#f4f3ef" opacity="0.057"/><circle cx="1207.8" cy="143.7" r="0.96" fill="#f4f3ef" opacity="0.058"/><circle cx="179.2" cy="714.6" r="0.91" fill="#f4f3ef" opacity="0.054"/><circle cx="645.2" cy="846.5" r="1.45" fill="#f4f3ef" opacity="0.030"/><circle cx="1460.2" cy="565.6" r="0.71" fill="#f4f3ef" opacity="0.037"/><circle cx="1419.2" cy="451.5" r="0.64" fill="#f4f3ef" opacity="0.043"/><circle cx="1213.7" cy="451.7" r="0.80" fill="#f4f3ef" opacity="0.067"/><circle cx="53.4" cy="473.8" r="1.49" fill="#f4f3ef" opacity="0.053"/><circle cx="1355.6" cy="623.2" r="0.78" fill="#f4f3ef" opacity="0.023"/><circle cx="300.7" cy="17.4" r="0.87" fill="#f4f3ef" opacity="0.029"/><circle cx="1253.9" cy="579.5" r="1.44" fill="#f4f3ef" opacity="0.028"/><circle cx="1055.0" cy="873.8" r="0.87" fill="#f4f3ef" opacity="0.035"/><circle cx="572.8" cy="254.8" r="1.21" fill="#f4f3ef" opacity="0.075"/><circle cx="1328.6" cy="527.2" r="1.50" fill="#f4f3ef" opacity="0.060"/><circle cx="1583.9" cy="847.9" r="0.44" fill="#f4f3ef" opacity="0.057"/><circle cx="1496.9" cy="808.5" r="1.33" fill="#f4f3ef" opacity="0.066"/><circle cx="1344.0" cy="1028.2" r="1.19" fill="#f4f3ef" opacity="0.070"/><circle cx="809.2" cy="189.6" r="0.43" fill="#f4f3ef" opacity="0.071"/><circle cx="939.4" cy="255.6" r="0.78" fill="#f4f3ef" opacity="0.041"/><circle cx="766.8" cy="659.7" r="1.46" fill="#f4f3ef" opacity="0.038"/><circle cx="1397.4" cy="677.4" r="0.37" fill="#f4f3ef" opacity="0.056"/><circle cx="1567.2" cy="374.6" r="0.49" fill="#f4f3ef" opacity="0.041"/><circle cx="663.7" cy="133.2" r="0.43" fill="#f4f3ef" opacity="0.064"/><circle cx="1215.3" cy="888.6" r="1.18" fill="#f4f3ef" opacity="0.052"/><circle cx="1246.8" cy="809.6" r="1.40" fill="#f4f3ef" opacity="0.045"/><circle cx="501.3" cy="159.9" r="0.43" fill="#f4f3ef" opacity="0.067"/><circle cx="1329.4" cy="467.4" r="1.01" fill="#f4f3ef" opacity="0.039"/><circle cx="1044.9" cy="138.2" r="0.23" fill="#f4f3ef" opacity="0.034"/><circle cx="1346.3" cy="384.2" r="1.01" fill="#f4f3ef" opacity="0.028"/><circle cx="1206.6" cy="125.3" r="0.79" fill="#f4f3ef" opacity="0.057"/><circle cx="428.2" cy="138.6" r="0.72" fill="#f4f3ef" opacity="0.047"/><circle cx="1065.4" cy="450.5" r="0.29" fill="#f4f3ef" opacity="0.047"/><circle cx="313.3" cy="573.6" r="1.46" fill="#f4f3ef" opacity="0.026"/><circle cx="463.3" cy="455.1" r="1.00" fill="#f4f3ef" opacity="0.064"/><circle cx="725.2" cy="3.0" r="0.60" fill="#f4f3ef" opacity="0.044"/><circle cx="1316.4" cy="389.5" r="1.13" fill="#f4f3ef" opacity="0.047"/><circle cx="617.0" cy="732.1" r="0.60" fill="#f4f3ef" opacity="0.066"/><circle cx="1392.5" cy="820.1" r="1.49" fill="#f4f3ef" opacity="0.058"/><circle cx="482.4" cy="284.5" r="0.76" fill="#f4f3ef" opacity="0.038"/><circle cx="355.8" cy="614.0" r="0.47" fill="#f4f3ef" opacity="0.032"/><circle cx="933.8" cy="412.1" r="1.08" fill="#f4f3ef" opacity="0.070"/><circle cx="478.0" cy="969.9" r="1.26" fill="#f4f3ef" opacity="0.041"/><circle cx="746.5" cy="812.0" r="1.53" fill="#f4f3ef" opacity="0.063"/><circle cx="415.8" cy="557.4" r="0.30" fill="#f4f3ef" opacity="0.060"/><circle cx="769.9" cy="1023.0" r="0.78" fill="#f4f3ef" opacity="0.035"/><circle cx="1255.7" cy="970.4" r="0.52" fill="#f4f3ef" opacity="0.078"/><circle cx="905.3" cy="900.3" r="1.50" fill="#f4f3ef" opacity="0.068"/><circle cx="824.8" cy="88.1" r="0.25" fill="#f4f3ef" opacity="0.059"/><circle cx="1350.1" cy="733.7" r="1.16" fill="#f4f3ef" opacity="0.058"/><circle cx="268.8" cy="18.1" r="1.40" fill="#f4f3ef" opacity="0.074"/><circle cx="109.4" cy="1010.6" r="0.60" fill="#f4f3ef" opacity="0.035"/><circle cx="496.4" cy="813.1" r="1.60" fill="#f4f3ef" opacity="0.042"/><circle cx="1173.1" cy="756.1" r="0.94" fill="#f4f3ef" opacity="0.057"/><circle cx="1290.2" cy="233.8" r="1.37" fill="#f4f3ef" opacity="0.062"/><circle cx="1361.2" cy="853.0" r="1.36" fill="#f4f3ef" opacity="0.070"/><circle cx="1484.8" cy="624.8" r="1.05" fill="#f4f3ef" opacity="0.058"/><circle cx="634.0" cy="603.0" r="0.68" fill="#f4f3ef" opacity="0.061"/><circle cx="211.1" cy="497.7" r="1.38" fill="#f4f3ef" opacity="0.063"/><circle cx="670.6" cy="335.4" r="1.26" fill="#f4f3ef" opacity="0.057"/><circle cx="807.4" cy="695.6" r="0.88" fill="#f4f3ef" opacity="0.070"/><circle cx="1312.9" cy="458.6" r="1.20" fill="#f4f3ef" opacity="0.061"/><circle cx="1397.1" cy="599.2" r="1.11" fill="#f4f3ef" opacity="0.034"/><circle cx="1277.1" cy="155.9" r="1.49" fill="#f4f3ef" opacity="0.070"/><circle cx="933.3" cy="379.9" r="0.34" fill="#f4f3ef" opacity="0.043"/><circle cx="1531.0" cy="1060.7" r="1.53" fill="#f4f3ef" opacity="0.028"/><circle cx="1509.8" cy="762.2" r="0.65" fill="#f4f3ef" opacity="0.042"/><circle cx="138.8" cy="973.1" r="1.14" fill="#f4f3ef" opacity="0.049"/><circle cx="539.0" cy="297.0" r="0.65" fill="#f4f3ef" opacity="0.021"/><circle cx="972.1" cy="24.9" r="0.68" fill="#f4f3ef" opacity="0.024"/><circle cx="1596.1" cy="815.4" r="0.33" fill="#f4f3ef" opacity="0.060"/><circle cx="1087.7" cy="86.6" r="0.81" fill="#f4f3ef" opacity="0.051"/><circle cx="730.7" cy="789.3" r="1.14" fill="#f4f3ef" opacity="0.058"/><circle cx="1572.0" cy="618.2" r="0.25" fill="#f4f3ef" opacity="0.055"/><circle cx="1043.8" cy="73.9" r="1.55" fill="#f4f3ef" opacity="0.038"/><circle cx="252.2" cy="565.8" r="1.54" fill="#f4f3ef" opacity="0.063"/><circle cx="1133.1" cy="25.8" r="0.43" fill="#f4f3ef" opacity="0.075"/><circle cx="1474.0" cy="970.0" r="0.98" fill="#f4f3ef" opacity="0.024"/><circle cx="603.4" cy="65.6" r="1.43" fill="#f4f3ef" opacity="0.079"/><circle cx="1346.0" cy="816.6" r="0.40" fill="#f4f3ef" opacity="0.039"/><circle cx="245.0" cy="285.4" r="1.45" fill="#f4f3ef" opacity="0.047"/><circle cx="1250.9" cy="0.1" r="0.32" fill="#f4f3ef" opacity="0.026"/><circle cx="77.5" cy="500.8" r="1.09" fill="#f4f3ef" opacity="0.047"/><circle cx="23.3" cy="865.4" r="1.09" fill="#f4f3ef" opacity="0.028"/><circle cx="61.4" cy="13.7" r="0.57" fill="#f4f3ef" opacity="0.064"/><circle cx="1594.1" cy="856.8" r="0.65" fill="#f4f3ef" opacity="0.020"/><circle cx="275.8" cy="220.3" r="0.84" fill="#f4f3ef" opacity="0.067"/><circle cx="1301.5" cy="817.6" r="0.30" fill="#f4f3ef" opacity="0.053"/><circle cx="562.6" cy="462.0" r="1.40" fill="#f4f3ef" opacity="0.058"/><circle cx="468.9" cy="128.5" r="0.22" fill="#f4f3ef" opacity="0.024"/><circle cx="1237.8" cy="989.2" r="0.44" fill="#f4f3ef" opacity="0.034"/><circle cx="1249.6" cy="27.7" r="1.47" fill="#f4f3ef" opacity="0.080"/><circle cx="69.5" cy="234.2" r="1.57" fill="#f4f3ef" opacity="0.059"/><circle cx="937.2" cy="172.9" r="0.53" fill="#f4f3ef" opacity="0.045"/><circle cx="1521.7" cy="265.2" r="0.40" fill="#f4f3ef" opacity="0.066"/><circle cx="144.1" cy="181.9" r="0.23" fill="#f4f3ef" opacity="0.031"/><circle cx="1466.2" cy="146.9" r="1.51" fill="#f4f3ef" opacity="0.068"/><circle cx="845.8" cy="818.9" r="0.53" fill="#f4f3ef" opacity="0.057"/><circle cx="159.5" cy="682.9" r="1.32" fill="#f4f3ef" opacity="0.041"/><circle cx="691.4" cy="555.7" r="1.49" fill="#f4f3ef" opacity="0.022"/><circle cx="288.3" cy="266.0" r="1.38" fill="#f4f3ef" opacity="0.032"/><circle cx="1182.3" cy="314.4" r="1.59" fill="#f4f3ef" opacity="0.069"/><circle cx="1279.7" cy="1043.4" r="1.43" fill="#f4f3ef" opacity="0.066"/><circle cx="916.1" cy="384.9" r="1.09" fill="#f4f3ef" opacity="0.032"/><circle cx="1079.2" cy="854.9" r="0.56" fill="#f4f3ef" opacity="0.034"/><circle cx="1097.5" cy="187.6" r="0.85" fill="#f4f3ef" opacity="0.062"/><circle cx="595.6" cy="820.0" r="0.59" fill="#f4f3ef" opacity="0.036"/><circle cx="916.8" cy="881.6" r="0.56" fill="#f4f3ef" opacity="0.038"/><circle cx="1211.7" cy="833.4" r="0.68" fill="#f4f3ef" opacity="0.049"/><circle cx="393.8" cy="148.6" r="0.82" fill="#f4f3ef" opacity="0.024"/><circle cx="161.8" cy="38.9" r="1.14" fill="#f4f3ef" opacity="0.059"/><circle cx="1088.8" cy="491.3" r="0.46" fill="#f4f3ef" opacity="0.068"/><circle cx="1377.0" cy="149.0" r="1.31" fill="#f4f3ef" opacity="0.037"/><circle cx="1480.9" cy="105.2" r="0.42" fill="#f4f3ef" opacity="0.078"/><circle cx="195.5" cy="939.6" r="1.12" fill="#f4f3ef" opacity="0.037"/><circle cx="1412.2" cy="465.5" r="1.59" fill="#f4f3ef" opacity="0.055"/><circle cx="1140.8" cy="724.7" r="0.73" fill="#f4f3ef" opacity="0.074"/><circle cx="1198.6" cy="755.6" r="0.80" fill="#f4f3ef" opacity="0.057"/><circle cx="1565.9" cy="742.5" r="1.20" fill="#f4f3ef" opacity="0.056"/><circle cx="208.0" cy="474.8" r="0.22" fill="#f4f3ef" opacity="0.029"/><circle cx="364.6" cy="650.6" r="0.42" fill="#f4f3ef" opacity="0.049"/><circle cx="1304.7" cy="624.3" r="1.07" fill="#f4f3ef" opacity="0.023"/><circle cx="1349.3" cy="66.8" r="1.21" fill="#f4f3ef" opacity="0.041"/><circle cx="360.2" cy="268.9" r="0.93" fill="#f4f3ef" opacity="0.051"/><circle cx="95.4" cy="822.3" r="0.73" fill="#f4f3ef" opacity="0.054"/><circle cx="831.4" cy="212.1" r="0.43" fill="#f4f3ef" opacity="0.031"/><circle cx="652.2" cy="322.0" r="0.45" fill="#f4f3ef" opacity="0.045"/><circle cx="604.6" cy="980.8" r="1.11" fill="#f4f3ef" opacity="0.069"/><circle cx="1320.9" cy="555.0" r="0.23" fill="#f4f3ef" opacity="0.039"/><circle cx="707.1" cy="454.1" r="1.32" fill="#f4f3ef" opacity="0.070"/><circle cx="699.0" cy="744.1" r="0.36" fill="#f4f3ef" opacity="0.048"/><circle cx="684.4" cy="739.8" r="1.53" fill="#f4f3ef" opacity="0.044"/><circle cx="1591.6" cy="309.6" r="0.27" fill="#f4f3ef" opacity="0.046"/><circle cx="1445.3" cy="823.5" r="0.79" fill="#f4f3ef" opacity="0.033"/><circle cx="1588.7" cy="410.9" r="1.07" fill="#f4f3ef" opacity="0.028"/><circle cx="1172.4" cy="599.8" r="1.03" fill="#f4f3ef" opacity="0.073"/><circle cx="710.0" cy="863.4" r="0.56" fill="#f4f3ef" opacity="0.061"/><circle cx="300.4" cy="279.5" r="1.18" fill="#f4f3ef" opacity="0.029"/><circle cx="516.2" cy="969.0" r="0.35" fill="#f4f3ef" opacity="0.071"/><circle cx="1160.0" cy="508.1" r="0.58" fill="#f4f3ef" opacity="0.054"/><circle cx="1086.1" cy="1057.1" r="1.39" fill="#f4f3ef" opacity="0.028"/><circle cx="689.6" cy="1061.6" r="0.54" fill="#f4f3ef" opacity="0.020"/><circle cx="661.8" cy="469.0" r="0.39" fill="#f4f3ef" opacity="0.051"/><circle cx="212.6" cy="253.9" r="1.24" fill="#f4f3ef" opacity="0.064"/><circle cx="1159.3" cy="521.9" r="1.15" fill="#f4f3ef" opacity="0.021"/><circle cx="282.1" cy="390.3" r="0.93" fill="#f4f3ef" opacity="0.033"/><circle cx="346.5" cy="715.4" r="0.26" fill="#f4f3ef" opacity="0.059"/><circle cx="1392.0" cy="61.2" r="0.31" fill="#f4f3ef" opacity="0.052"/><circle cx="1087.7" cy="983.5" r="0.33" fill="#f4f3ef" opacity="0.040"/><circle cx="954.5" cy="1018.7" r="0.78" fill="#f4f3ef" opacity="0.051"/><circle cx="854.3" cy="390.9" r="0.35" fill="#f4f3ef" opacity="0.035"/><circle cx="945.0" cy="825.8" r="0.93" fill="#f4f3ef" opacity="0.050"/><circle cx="1503.2" cy="808.3" r="0.95" fill="#f4f3ef" opacity="0.021"/><circle cx="612.9" cy="88.4" r="0.80" fill="#f4f3ef" opacity="0.069"/><circle cx="920.9" cy="628.6" r="0.84" fill="#f4f3ef" opacity="0.046"/><circle cx="1459.4" cy="795.6" r="0.28" fill="#f4f3ef" opacity="0.069"/><circle cx="134.5" cy="931.8" r="1.20" fill="#f4f3ef" opacity="0.074"/><circle cx="482.0" cy="36.2" r="1.02" fill="#f4f3ef" opacity="0.065"/><circle cx="289.6" cy="624.7" r="1.11" fill="#f4f3ef" opacity="0.055"/><circle cx="485.7" cy="431.6" r="1.09" fill="#f4f3ef" opacity="0.029"/><circle cx="694.9" cy="826.9" r="0.99" fill="#f4f3ef" opacity="0.029"/><circle cx="660.5" cy="1007.1" r="1.58" fill="#f4f3ef" opacity="0.078"/><circle cx="1133.1" cy="366.1" r="1.39" fill="#f4f3ef" opacity="0.037"/><circle cx="1026.3" cy="511.2" r="0.29" fill="#f4f3ef" opacity="0.038"/><circle cx="438.9" cy="520.1" r="1.22" fill="#f4f3ef" opacity="0.059"/><circle cx="1543.6" cy="379.7" r="0.23" fill="#f4f3ef" opacity="0.075"/><circle cx="943.0" cy="867.2" r="1.24" fill="#f4f3ef" opacity="0.071"/><circle cx="691.3" cy="942.0" r="0.97" fill="#f4f3ef" opacity="0.038"/><circle cx="1183.7" cy="116.6" r="1.36" fill="#f4f3ef" opacity="0.064"/><circle cx="1511.4" cy="472.4" r="0.59" fill="#f4f3ef" opacity="0.048"/><circle cx="884.5" cy="850.2" r="0.35" fill="#f4f3ef" opacity="0.055"/><circle cx="1120.1" cy="288.3" r="1.51" fill="#f4f3ef" opacity="0.044"/><circle cx="598.4" cy="38.1" r="0.67" fill="#f4f3ef" opacity="0.070"/><circle cx="485.1" cy="955.9" r="0.30" fill="#f4f3ef" opacity="0.029"/><circle cx="819.4" cy="538.9" r="1.60" fill="#f4f3ef" opacity="0.056"/><circle cx="870.6" cy="275.6" r="1.00" fill="#f4f3ef" opacity="0.057"/><circle cx="559.7" cy="903.6" r="0.36" fill="#f4f3ef" opacity="0.061"/><circle cx="1348.4" cy="513.0" r="1.17" fill="#f4f3ef" opacity="0.079"/><circle cx="194.7" cy="829.2" r="1.13" fill="#f4f3ef" opacity="0.047"/><circle cx="575.1" cy="337.6" r="1.46" fill="#f4f3ef" opacity="0.071"/><circle cx="573.6" cy="921.7" r="1.16" fill="#f4f3ef" opacity="0.032"/><circle cx="1237.2" cy="276.4" r="0.58" fill="#f4f3ef" opacity="0.022"/><circle cx="1597.9" cy="1036.1" r="0.32" fill="#f4f3ef" opacity="0.039"/><circle cx="1161.9" cy="342.5" r="1.09" fill="#f4f3ef" opacity="0.077"/><circle cx="264.9" cy="395.3" r="0.29" fill="#f4f3ef" opacity="0.022"/><circle cx="1494.8" cy="509.6" r="0.69" fill="#f4f3ef" opacity="0.065"/><circle cx="979.7" cy="553.6" r="0.51" fill="#f4f3ef" opacity="0.073"/><circle cx="1544.5" cy="830.4" r="1.19" fill="#f4f3ef" opacity="0.026"/><circle cx="1332.4" cy="536.3" r="0.69" fill="#f4f3ef" opacity="0.068"/><circle cx="1093.9" cy="132.5" r="0.34" fill="#f4f3ef" opacity="0.060"/><circle cx="1342.6" cy="159.0" r="1.42" fill="#f4f3ef" opacity="0.075"/><circle cx="577.4" cy="760.6" r="1.27" fill="#f4f3ef" opacity="0.029"/><circle cx="971.0" cy="857.4" r="1.52" fill="#f4f3ef" opacity="0.078"/><circle cx="725.9" cy="159.3" r="0.51" fill="#f4f3ef" opacity="0.028"/><circle cx="296.5" cy="826.9" r="0.55" fill="#f4f3ef" opacity="0.048"/><circle cx="77.8" cy="238.6" r="0.78" fill="#f4f3ef" opacity="0.048"/><circle cx="761.1" cy="475.9" r="0.79" fill="#f4f3ef" opacity="0.045"/><circle cx="1556.3" cy="379.4" r="0.86" fill="#f4f3ef" opacity="0.045"/><circle cx="1080.8" cy="54.6" r="0.46" fill="#f4f3ef" opacity="0.068"/><circle cx="914.7" cy="752.9" r="0.40" fill="#f4f3ef" opacity="0.047"/><circle cx="623.6" cy="129.5" r="0.35" fill="#f4f3ef" opacity="0.059"/><circle cx="246.8" cy="1016.6" r="1.48" fill="#f4f3ef" opacity="0.059"/><circle cx="653.6" cy="634.7" r="0.26" fill="#f4f3ef" opacity="0.073"/><circle cx="164.9" cy="788.5" r="1.34" fill="#f4f3ef" opacity="0.072"/><circle cx="242.4" cy="635.0" r="0.59" fill="#f4f3ef" opacity="0.062"/><circle cx="1044.3" cy="832.7" r="1.32" fill="#f4f3ef" opacity="0.044"/><circle cx="1246.9" cy="933.8" r="0.57" fill="#f4f3ef" opacity="0.062"/><circle cx="534.4" cy="688.1" r="1.51" fill="#f4f3ef" opacity="0.056"/><circle cx="1553.5" cy="991.2" r="0.31" fill="#f4f3ef" opacity="0.059"/><circle cx="136.4" cy="209.7" r="0.36" fill="#f4f3ef" opacity="0.069"/><circle cx="589.3" cy="820.2" r="0.98" fill="#f4f3ef" opacity="0.021"/><circle cx="47.9" cy="754.4" r="0.95" fill="#f4f3ef" opacity="0.039"/><circle cx="1100.0" cy="394.5" r="0.26" fill="#f4f3ef" opacity="0.075"/><circle cx="1473.8" cy="675.6" r="1.33" fill="#f4f3ef" opacity="0.057"/><circle cx="794.2" cy="833.8" r="1.39" fill="#f4f3ef" opacity="0.023"/><circle cx="404.2" cy="65.6" r="1.20" fill="#f4f3ef" opacity="0.058"/><circle cx="1054.6" cy="965.8" r="0.70" fill="#f4f3ef" opacity="0.024"/><circle cx="58.9" cy="873.8" r="1.15" fill="#f4f3ef" opacity="0.052"/><circle cx="715.9" cy="1001.2" r="1.31" fill="#f4f3ef" opacity="0.059"/><circle cx="398.4" cy="268.1" r="1.41" fill="#f4f3ef" opacity="0.022"/><circle cx="508.9" cy="518.5" r="1.18" fill="#f4f3ef" opacity="0.045"/><circle cx="1501.7" cy="711.8" r="1.52" fill="#f4f3ef" opacity="0.058"/><circle cx="571.8" cy="360.7" r="0.20" fill="#f4f3ef" opacity="0.031"/><circle cx="10.7" cy="479.3" r="0.99" fill="#f4f3ef" opacity="0.042"/><circle cx="628.2" cy="975.6" r="1.37" fill="#f4f3ef" opacity="0.035"/><circle cx="1041.5" cy="888.0" r="0.81" fill="#f4f3ef" opacity="0.031"/><circle cx="1231.0" cy="400.7" r="1.53" fill="#f4f3ef" opacity="0.024"/><circle cx="762.1" cy="370.1" r="0.39" fill="#f4f3ef" opacity="0.029"/><circle cx="1274.2" cy="427.3" r="1.37" fill="#f4f3ef" opacity="0.063"/><circle cx="436.6" cy="993.8" r="0.93" fill="#f4f3ef" opacity="0.030"/><circle cx="1370.1" cy="673.4" r="0.91" fill="#f4f3ef" opacity="0.022"/><circle cx="736.5" cy="757.0" r="1.41" fill="#f4f3ef" opacity="0.046"/><circle cx="293.9" cy="836.2" r="1.52" fill="#f4f3ef" opacity="0.041"/><circle cx="318.8" cy="463.1" r="1.08" fill="#f4f3ef" opacity="0.052"/><circle cx="495.1" cy="454.4" r="0.47" fill="#f4f3ef" opacity="0.079"/><circle cx="269.8" cy="638.9" r="1.44" fill="#f4f3ef" opacity="0.036"/><circle cx="274.9" cy="450.3" r="0.41" fill="#f4f3ef" opacity="0.040"/><circle cx="16.7" cy="230.8" r="0.87" fill="#f4f3ef" opacity="0.024"/><circle cx="1430.9" cy="46.6" r="0.22" fill="#f4f3ef" opacity="0.056"/><circle cx="705.1" cy="279.4" r="1.24" fill="#f4f3ef" opacity="0.025"/><circle cx="367.9" cy="797.7" r="0.75" fill="#f4f3ef" opacity="0.040"/><circle cx="43.8" cy="837.3" r="1.59" fill="#f4f3ef" opacity="0.080"/><circle cx="1076.1" cy="661.8" r="0.31" fill="#f4f3ef" opacity="0.048"/><circle cx="1015.4" cy="732.2" r="1.05" fill="#f4f3ef" opacity="0.047"/><circle cx="375.2" cy="521.5" r="0.89" fill="#f4f3ef" opacity="0.028"/><circle cx="854.4" cy="174.8" r="1.35" fill="#f4f3ef" opacity="0.030"/><circle cx="1425.8" cy="745.7" r="1.30" fill="#f4f3ef" opacity="0.025"/><circle cx="291.9" cy="877.6" r="0.44" fill="#f4f3ef" opacity="0.061"/><circle cx="1106.9" cy="596.7" r="1.10" fill="#f4f3ef" opacity="0.069"/><circle cx="1065.9" cy="482.7" r="1.03" fill="#f4f3ef" opacity="0.075"/><circle cx="860.3" cy="482.8" r="1.19" fill="#f4f3ef" opacity="0.039"/><circle cx="1300.0" cy="504.9" r="0.48" fill="#f4f3ef" opacity="0.025"/><circle cx="1002.3" cy="654.3" r="1.17" fill="#f4f3ef" opacity="0.055"/><circle cx="1547.3" cy="48.5" r="1.26" fill="#f4f3ef" opacity="0.061"/><circle cx="900.6" cy="610.6" r="0.44" fill="#f4f3ef" opacity="0.060"/><circle cx="701.6" cy="905.0" r="1.26" fill="#f4f3ef" opacity="0.066"/><circle cx="219.5" cy="286.0" r="1.60" fill="#f4f3ef" opacity="0.047"/><circle cx="975.3" cy="558.3" r="0.49" fill="#f4f3ef" opacity="0.032"/><circle cx="1230.6" cy="879.0" r="0.83" fill="#f4f3ef" opacity="0.029"/><circle cx="1143.5" cy="839.6" r="0.32" fill="#f4f3ef" opacity="0.038"/><circle cx="990.7" cy="1059.3" r="1.59" fill="#f4f3ef" opacity="0.042"/><circle cx="455.9" cy="220.7" r="0.82" fill="#f4f3ef" opacity="0.043"/><circle cx="586.1" cy="286.7" r="1.17" fill="#f4f3ef" opacity="0.073"/><circle cx="413.4" cy="690.8" r="0.45" fill="#f4f3ef" opacity="0.070"/><circle cx="1044.1" cy="708.5" r="0.76" fill="#f4f3ef" opacity="0.028"/><circle cx="1213.8" cy="405.7" r="0.88" fill="#f4f3ef" opacity="0.073"/><circle cx="310.3" cy="164.3" r="0.82" fill="#f4f3ef" opacity="0.035"/><circle cx="862.0" cy="919.7" r="1.57" fill="#f4f3ef" opacity="0.024"/><circle cx="893.4" cy="840.8" r="0.39" fill="#f4f3ef" opacity="0.077"/><circle cx="147.9" cy="191.0" r="0.82" fill="#f4f3ef" opacity="0.039"/><circle cx="976.1" cy="498.5" r="1.41" fill="#f4f3ef" opacity="0.071"/><circle cx="691.5" cy="169.3" r="0.62" fill="#f4f3ef" opacity="0.065"/><circle cx="993.0" cy="415.4" r="1.40" fill="#f4f3ef" opacity="0.060"/><circle cx="853.2" cy="156.4" r="1.19" fill="#f4f3ef" opacity="0.029"/><circle cx="74.8" cy="169.7" r="1.11" fill="#f4f3ef" opacity="0.078"/><circle cx="712.1" cy="481.6" r="0.68" fill="#f4f3ef" opacity="0.079"/><circle cx="1560.0" cy="604.7" r="0.45" fill="#f4f3ef" opacity="0.058"/><circle cx="110.0" cy="486.3" r="1.39" fill="#f4f3ef" opacity="0.036"/><circle cx="371.9" cy="34.1" r="0.99" fill="#f4f3ef" opacity="0.075"/><circle cx="963.0" cy="420.6" r="1.52" fill="#f4f3ef" opacity="0.079"/><circle cx="263.6" cy="763.3" r="1.00" fill="#f4f3ef" opacity="0.038"/><circle cx="1039.1" cy="851.2" r="0.48" fill="#f4f3ef" opacity="0.030"/><circle cx="129.0" cy="315.6" r="1.15" fill="#f4f3ef" opacity="0.070"/><circle cx="2.5" cy="645.1" r="0.86" fill="#f4f3ef" opacity="0.064"/><circle cx="580.4" cy="443.2" r="1.47" fill="#f4f3ef" opacity="0.042"/><circle cx="124.7" cy="1001.0" r="0.25" fill="#f4f3ef" opacity="0.073"/><circle cx="393.2" cy="843.1" r="0.52" fill="#f4f3ef" opacity="0.035"/><circle cx="62.5" cy="588.5" r="0.70" fill="#f4f3ef" opacity="0.032"/><circle cx="416.6" cy="1054.1" r="1.18" fill="#f4f3ef" opacity="0.066"/><circle cx="902.4" cy="1001.5" r="0.91" fill="#f4f3ef" opacity="0.050"/><circle cx="552.0" cy="931.4" r="0.49" fill="#f4f3ef" opacity="0.040"/><circle cx="471.5" cy="119.2" r="0.64" fill="#f4f3ef" opacity="0.031"/><circle cx="996.8" cy="764.8" r="1.55" fill="#f4f3ef" opacity="0.030"/><circle cx="1515.5" cy="49.2" r="0.39" fill="#f4f3ef" opacity="0.046"/><circle cx="1356.0" cy="1041.7" r="0.99" fill="#f4f3ef" opacity="0.067"/><circle cx="143.1" cy="844.2" r="0.59" fill="#f4f3ef" opacity="0.074"/><circle cx="819.8" cy="787.3" r="1.33" fill="#f4f3ef" opacity="0.029"/><circle cx="936.9" cy="264.9" r="0.36" fill="#f4f3ef" opacity="0.034"/><circle cx="1007.8" cy="884.1" r="0.35" fill="#f4f3ef" opacity="0.042"/><circle cx="1131.5" cy="655.9" r="1.44" fill="#f4f3ef" opacity="0.030"/><circle cx="280.6" cy="634.1" r="1.07" fill="#f4f3ef" opacity="0.032"/><circle cx="1457.8" cy="528.8" r="0.37" fill="#f4f3ef" opacity="0.035"/><circle cx="317.2" cy="366.5" r="0.25" fill="#f4f3ef" opacity="0.029"/><circle cx="454.1" cy="726.7" r="1.27" fill="#f4f3ef" opacity="0.042"/><circle cx="959.6" cy="489.7" r="1.59" fill="#f4f3ef" opacity="0.033"/><circle cx="1043.7" cy="630.3" r="1.50" fill="#f4f3ef" opacity="0.066"/><circle cx="923.8" cy="187.0" r="0.48" fill="#f4f3ef" opacity="0.042"/><circle cx="579.9" cy="411.1" r="0.73" fill="#f4f3ef" opacity="0.075"/><circle cx="1177.6" cy="24.8" r="0.52" fill="#f4f3ef" opacity="0.060"/><circle cx="1156.4" cy="793.3" r="1.04" fill="#f4f3ef" opacity="0.074"/><circle cx="1385.4" cy="1004.2" r="1.53" fill="#f4f3ef" opacity="0.021"/><circle cx="185.6" cy="328.1" r="1.05" fill="#f4f3ef" opacity="0.052"/><circle cx="618.7" cy="56.0" r="1.08" fill="#f4f3ef" opacity="0.056"/><circle cx="1242.8" cy="846.5" r="0.72" fill="#f4f3ef" opacity="0.032"/><circle cx="734.4" cy="117.8" r="1.21" fill="#f4f3ef" opacity="0.022"/><circle cx="377.3" cy="820.4" r="1.53" fill="#f4f3ef" opacity="0.030"/><circle cx="1218.7" cy="649.3" r="0.64" fill="#f4f3ef" opacity="0.027"/><circle cx="690.5" cy="105.0" r="0.54" fill="#f4f3ef" opacity="0.070"/><circle cx="1498.9" cy="596.9" r="0.53" fill="#f4f3ef" opacity="0.035"/><circle cx="779.8" cy="56.9" r="0.82" fill="#f4f3ef" opacity="0.046"/><circle cx="1120.7" cy="1001.1" r="1.37" fill="#f4f3ef" opacity="0.056"/><circle cx="250.1" cy="96.7" r="0.42" fill="#f4f3ef" opacity="0.051"/><circle cx="992.7" cy="847.7" r="0.79" fill="#f4f3ef" opacity="0.071"/><circle cx="1491.6" cy="316.5" r="0.44" fill="#f4f3ef" opacity="0.079"/><circle cx="897.6" cy="31.2" r="0.71" fill="#f4f3ef" opacity="0.058"/><circle cx="1324.1" cy="531.9" r="1.48" fill="#f4f3ef" opacity="0.079"/><circle cx="1270.0" cy="896.5" r="1.48" fill="#f4f3ef" opacity="0.060"/><circle cx="1308.0" cy="44.8" r="0.96" fill="#f4f3ef" opacity="0.036"/><circle cx="1240.7" cy="888.0" r="1.04" fill="#f4f3ef" opacity="0.052"/><circle cx="1522.4" cy="251.4" r="1.23" fill="#f4f3ef" opacity="0.039"/><circle cx="948.1" cy="848.7" r="0.69" fill="#f4f3ef" opacity="0.025"/><circle cx="209.2" cy="493.2" r="0.39" fill="#f4f3ef" opacity="0.029"/><circle cx="115.6" cy="159.6" r="0.61" fill="#f4f3ef" opacity="0.056"/><circle cx="884.5" cy="1020.3" r="0.83" fill="#f4f3ef" opacity="0.066"/><circle cx="896.2" cy="58.8" r="0.46" fill="#f4f3ef" opacity="0.051"/><circle cx="1316.2" cy="265.4" r="0.57" fill="#f4f3ef" opacity="0.030"/><circle cx="583.8" cy="204.0" r="0.92" fill="#f4f3ef" opacity="0.077"/><circle cx="1168.4" cy="296.3" r="0.79" fill="#f4f3ef" opacity="0.038"/><circle cx="1390.8" cy="213.0" r="0.62" fill="#f4f3ef" opacity="0.063"/><circle cx="1112.8" cy="178.0" r="0.50" fill="#f4f3ef" opacity="0.040"/><circle cx="492.4" cy="850.0" r="0.92" fill="#f4f3ef" opacity="0.028"/><circle cx="1406.2" cy="714.0" r="0.32" fill="#f4f3ef" opacity="0.073"/><circle cx="338.1" cy="586.8" r="0.48" fill="#f4f3ef" opacity="0.053"/><circle cx="1535.0" cy="297.1" r="0.37" fill="#f4f3ef" opacity="0.064"/><circle cx="829.0" cy="345.5" r="0.58" fill="#f4f3ef" opacity="0.040"/><circle cx="926.3" cy="7.6" r="0.42" fill="#f4f3ef" opacity="0.038"/><circle cx="562.7" cy="416.1" r="1.48" fill="#f4f3ef" opacity="0.063"/><circle cx="725.9" cy="886.0" r="0.95" fill="#f4f3ef" opacity="0.066"/><circle cx="744.2" cy="218.7" r="1.24" fill="#f4f3ef" opacity="0.034"/><circle cx="242.3" cy="851.1" r="0.99" fill="#f4f3ef" opacity="0.067"/><circle cx="563.5" cy="912.7" r="0.95" fill="#f4f3ef" opacity="0.069"/><circle cx="858.3" cy="864.6" r="1.07" fill="#f4f3ef" opacity="0.021"/><circle cx="40.4" cy="179.7" r="1.21" fill="#f4f3ef" opacity="0.056"/><circle cx="1408.5" cy="70.1" r="1.53" fill="#f4f3ef" opacity="0.030"/><circle cx="735.5" cy="522.5" r="0.85" fill="#f4f3ef" opacity="0.039"/><circle cx="1023.7" cy="180.1" r="0.30" fill="#f4f3ef" opacity="0.069"/><circle cx="1127.6" cy="136.3" r="0.81" fill="#f4f3ef" opacity="0.049"/><circle cx="1442.2" cy="970.7" r="1.51" fill="#f4f3ef" opacity="0.069"/><circle cx="1058.9" cy="496.6" r="0.59" fill="#f4f3ef" opacity="0.026"/><circle cx="787.4" cy="755.8" r="1.12" fill="#f4f3ef" opacity="0.046"/><circle cx="845.2" cy="786.7" r="1.19" fill="#f4f3ef" opacity="0.029"/><circle cx="1212.5" cy="773.6" r="1.59" fill="#f4f3ef" opacity="0.028"/><circle cx="1454.7" cy="505.9" r="0.61" fill="#f4f3ef" opacity="0.060"/><circle cx="11.3" cy="681.7" r="0.81" fill="#f4f3ef" opacity="0.021"/><circle cx="951.4" cy="655.5" r="1.46" fill="#f4f3ef" opacity="0.055"/><circle cx="996.0" cy="97.9" r="1.60" fill="#f4f3ef" opacity="0.073"/><circle cx="6.9" cy="300.1" r="1.32" fill="#f4f3ef" opacity="0.023"/><circle cx="1342.1" cy="853.4" r="1.12" fill="#f4f3ef" opacity="0.025"/><circle cx="478.1" cy="243.2" r="0.83" fill="#f4f3ef" opacity="0.063"/><circle cx="298.8" cy="353.1" r="0.84" fill="#f4f3ef" opacity="0.077"/><circle cx="251.3" cy="1011.9" r="1.50" fill="#f4f3ef" opacity="0.041"/><circle cx="967.5" cy="586.1" r="0.62" fill="#f4f3ef" opacity="0.071"/><circle cx="353.7" cy="485.2" r="0.31" fill="#f4f3ef" opacity="0.042"/><circle cx="345.7" cy="775.2" r="0.75" fill="#f4f3ef" opacity="0.020"/><circle cx="331.1" cy="770.9" r="0.52" fill="#f4f3ef" opacity="0.076"/><circle cx="1238.3" cy="340.7" r="0.66" fill="#f4f3ef" opacity="0.078"/><circle cx="1091.9" cy="854.6" r="1.18" fill="#f4f3ef" opacity="0.064"/><circle cx="1235.3" cy="442.0" r="1.46" fill="#f4f3ef" opacity="0.059"/><circle cx="819.1" cy="630.9" r="1.42" fill="#f4f3ef" opacity="0.045"/><circle cx="356.7" cy="894.5" r="0.95" fill="#f4f3ef" opacity="0.033"/><circle cx="1547.0" cy="310.6" r="1.57" fill="#f4f3ef" opacity="0.061"/><circle cx="162.9" cy="1000.1" r="0.74" fill="#f4f3ef" opacity="0.043"/><circle cx="806.7" cy="539.2" r="0.97" fill="#f4f3ef" opacity="0.026"/><circle cx="732.8" cy="21.2" r="0.38" fill="#f4f3ef" opacity="0.059"/><circle cx="336.3" cy="25.7" r="0.93" fill="#f4f3ef" opacity="0.052"/><circle cx="308.5" cy="500.1" r="0.78" fill="#f4f3ef" opacity="0.023"/><circle cx="1459.3" cy="285.1" r="0.23" fill="#f4f3ef" opacity="0.036"/><circle cx="806.0" cy="553.0" r="1.54" fill="#f4f3ef" opacity="0.053"/><circle cx="1528.8" cy="421.4" r="1.32" fill="#f4f3ef" opacity="0.065"/><circle cx="1593.2" cy="746.5" r="0.65" fill="#f4f3ef" opacity="0.031"/><circle cx="1038.7" cy="92.4" r="0.70" fill="#f4f3ef" opacity="0.024"/><circle cx="734.3" cy="1014.6" r="0.72" fill="#f4f3ef" opacity="0.071"/><circle cx="601.2" cy="1049.8" r="1.18" fill="#f4f3ef" opacity="0.023"/><circle cx="501.0" cy="422.1" r="0.74" fill="#f4f3ef" opacity="0.067"/><circle cx="591.7" cy="856.9" r="1.32" fill="#f4f3ef" opacity="0.022"/><circle cx="1149.9" cy="839.5" r="1.34" fill="#f4f3ef" opacity="0.053"/><circle cx="259.6" cy="119.5" r="1.19" fill="#f4f3ef" opacity="0.040"/>
  <rect width="1600" height="1067" fill="url(#l8)"/>
  
  <text x="80" y="981.64" font-family="Helvetica, Arial, sans-serif" font-size="28.799999999999997" letter-spacing="4" fill="#f4f3ef" fill-opacity="0.72">AURORA</text>
  <text x="80" y="1024.32" font-family="Helvetica, Arial, sans-serif" font-size="17.599999999999998" letter-spacing="2" fill="#f4f3ef" fill-opacity="0.38">STILL 01</text>
</svg>