<?xml version="1.0" encoding="UTF-8"?>
<svg xmlns="http://www.w3.org/2000/svg" width="1067" height="1600" viewBox="0 0 1067 1600">
  <defs>
    <linearGradient id="g9" x1="0%" y1="0%" x2="100%" y2="100%">
      <stop offset="0%" stop-color="#151515"/>
      <stop offset="100%" stop-color="#312a24"/>
    </linearGradient>
    <linearGradient id="l9" x1="0%" y1="0%" x2="0%" y2="100%">
      <stop offset="0%" stop-color="#000" stop-opacity="0"/>
      <stop offset="100%" stop-color="#000" stop-opacity="0.55"/>
    </linearGradient>
  </defs>
  <rect width="1067" height="1600" fill="url(#g9)"/>
  <circle cx="608.4" cy="372.2" r="1.19" fill="#f4f3ef" opacity="0.060"/><circle cx="358.2" cy="1012.7" r="0.39" fill="#f4f3ef" opacity="0.056"/><circle cx="209.0" cy="599.7" r="0.83" fill="#f4f3ef" opacity="0.069"/><circle cx="859.0" cy="476.5" r="1.46" fill="#f4f3ef" opacity="0.071"/><circle cx="595.7" cy="1393.5" r="1.47" fill="#f4f3ef" opacity="0.059"/><circle cx="156.7" cy="664.5" r="1.58" fill="#f4f3ef" opacity="0.029"/><circle cx="833.1" cy="1588.1" r="0.59" fill="#f4f3ef" opacity="0.045"/><circle cx="82.3" cy="1537.3" r="1.26" fill="#f4f3ef" opacity="0.060"/><circle cx="657.7" cy="314.5" r="0.42" fill="#f4f3ef" opacity="0.060"/><circle cx="174.8" cy="1573.9" r="0.91" fill="#f4f3ef" opacity="0.024"/><circle cx="596.5" cy="910.7" r="0.68" fill="#f4f3ef" opacity="0.038"/><circle cx="289.2" cy="616.3" r="1.07" fill="#f4f3ef" opacity="0.022"/><circle cx="662.6" cy="1500.4" r="0.55" fill="#f4f3ef" opacity="0.048"/><circle cx="715.4" cy="580.4" r="0.67" fill="#f4f3ef" opacity="0.034"/><circle cx="829.7" cy="1036.6" r="0.26" fill="#f4f3ef" opacity="0.075"/><circle cx="873.7" cy="834.3" r="0.46" fill="#f4f3ef" opacity="0.036"/><circle cx="83.5" cy="13.1" r="0.77" fill="#f4f3ef" opacity="0.028"/><circle cx="856.4" cy="1042.1" r="0.34" fill="#f4f3ef" opacity="0.079"/><circle cx="452.6" cy="642.3" r="1.56" fill="#f4f3ef" opacity="0.028"/><circle cx="479.1" cy="275.4" r="0.50" fill="#f4f3ef" opacity="0.060"/><circle cx="13.7" cy="99.5" r="0.84" fill="#f4f3ef" opacity="0.074"/><circle cx="110.5" cy="391.0" r="0.58" fill="#f4f3ef" opacity="0.065"/><circle cx="479.4" cy="834.0" r="0.80" fill="#f4f3ef" opacity="0.049"/><circle cx="80.0" cy="875.4" r="1.28" fill="#f4f3ef" opacity="0.041"/><circle cx="558.7" cy="1147.2" r="1.26" fill="#f4f3ef" opacity="0.067"/><circle cx="796.0" cy="1155.6" r="1.21" fill="#f4f3ef" opacity="0.036"/><circle cx="699.5" cy="1236.4" r="1.20" fill="#f4f3ef" opacity="0.079"/><circle cx="374.7" cy="777.4" r="0.34" fill="#f4f3ef" opacity="0.072"/><circle cx="6.0" cy="706.8" r="1.25" fill="#f4f3ef" opacity="0.061"/><circle cx="449.6" cy="649.3" r="1.54" fill="#f4f3ef" opacity="0.047"/><circle cx="269.7" cy="348.3" r="1.54" fill="#f4f3ef" opacity="0.063"/><circle cx="954.8" cy="554.3" r="0.47" fill="#f4f3ef" opacity="0.044"/><circle cx="41.6" cy="180.8" r="0.42" fill="#f4f3ef" opacity="0.047"/><circle cx="955.1" cy="926.7" r="0.20" fill="#f4f3ef" opacity="0.077"/><circle cx="85.8" cy="164.7" r="1.18" fill="#f4f3ef" opacity="0.025"/><circle cx="186.9" cy="897.4" r="1.59" fill="#f4f3ef" opacity="0.058"/><circle cx="1008.2" cy="379.1" r="1.45" fill="#f4f3ef" opacity="0.036"/><circle cx="244.3" cy="604.8" r="1.54" fill="#f4f3ef" opacity="0.043"/><circle cx="529.8" cy="665.9" r="0.37" fill="#f4f3ef" opacity="0.060"/><circle cx="73.3" cy="1372.3" r="0.63" fill="#f4f3ef" opacity="0.040"/><circle cx="7.5" cy="1341.2" r="1.06" fill="#f4f3ef" opacity="0.079"/><circle cx="714.6" cy="552.9" r="0.50" fill="#f4f3ef" opacity="0.033"/><circle cx="995.7" cy="172.8" r="1.47" fill="#f4f3ef" opacity="0.068"/><circle cx="86.9" cy="240.5" r="0.69" fill="#f4f3ef" opacity="0.053"/><circle cx="385.7" cy="25.1" r="1.51" fill="#f4f3ef" opacity="0.078"/><circle cx="218.9" cy="1047.5" r="0.70" fill="#f4f3ef" opacity="0.040"/><circle cx="126.9" cy="1569.5" r="1.36" fill="#f4f3ef" opacity="0.065"/><circle cx="254.3" cy="149.1" r="1.54" fill="#f4f3ef" opacity="0.053"/><circle cx="588.2" cy="262.9" r="0.66" fill="#f4f3ef" opacity="0.057"/><circle cx="838.6" cy="1594.8" r="1.19" fill="#f4f3ef" opacity="0.034"/><circle cx="1031.9" cy="391.7" r="1.51" fill="#f4f3ef" opacity="0.059"/><circle cx="680.8" cy="485.7" r="0.88" fill="#f4f3ef" opacity="0.038"/><circle cx="799.4" cy="1383.0" r="1.13" fill="#f4f3ef" opacity="0.062"/><circle cx="228.7" cy="219.4" r="0.97" fill="#f4f3ef" opacity="0.077"/><circle cx="141.1" cy="1182.5" r="0.89" fill="#f4f3ef" opacity="0.024"/><circle cx="720.8" cy="400.8" r="0.71" fill="#f4f3ef" opacity="0.067"/><circle cx="690.2" cy="699.0" r="0.84" fill="#f4f3ef" opacity="0.026"/><circle cx="747.4" cy="220.2" r="0.22" fill="#f4f3ef" opacity="0.054"/><circle cx="246.9" cy="1315.0" r="0.86" fill="#f4f3ef" opacity="0.029"/><circle cx="993.5" cy="1297.1" r="0.66" fill="#f4f3ef" opacity="0.066"/><circle cx="10.1" cy="265.2" r="1.22" fill="#f4f3ef" opacity="0.049"/><circle cx="89.3" cy="392.1" r="1.11" fill="#f4f3ef" opacity="0.050"/><circle cx="783.2" cy="1480.4" r="1.36" fill="#f4f3ef" opacity="0.057"/><circle cx="774.5" cy="784.3" r="0.60" fill="#f4f3ef" opacity="0.048"/><circle cx="959.0" cy="298.9" r="1.00" fill="#f4f3ef" opacity="0.048"/><circle cx="770.4" cy="715.5" r="1.08" fill="#f4f3ef" opacity="0.039"/><circle cx="550.9" cy="1244.1" r="0.72" fill="#f4f3ef" opacity="0.032"/><circle cx="366.7" cy="501.9" r="1.46" fill="#f4f3ef" opacity="0.064"/><circle cx="599.5" cy="69.2" r="0.74" fill="#f4f3ef" opacity="0.052"/><circle cx="50.8" cy="1111.4" r="1.09" fill="#f4f3ef" opacity="0.040"/><circle cx="90.4" cy="467.9" r="0.62" fill="#f4f3ef" opacity="0.078"/><circle cx="981.9" cy="608.0" r="1.28" fill="#f4f3ef" opacity="0.076"/><circle cx="1052.3" cy="1452.7" r="1.25" fill="#f4f3ef" opacity="0.052"/><circle cx="841.6" cy="1263.6" r="0.82" fill="#f4f3ef" opacity="0.070"/><circle cx="494.9" cy="198.7" r="0.84" fill="#f4f3ef" opacity="0.031"/><circle cx="1065.8" cy="134.7" r="0.74" fill="#f4f3ef" opacity="0.049"/><circle cx="130.7" cy="755.5" r="1.59" fill="#f4f3ef" opacity="0.080"/><circle cx="916.8" cy="1507.9" r="0.35" fill="#f4f3ef" opacity="0.078"/><circle cx="802.8" cy="1424.2" r="0.49" fill="#f4f3ef" opacity="0.070"/><circle cx="802.9" cy="10.4" r="1.06" fill="#f4f3ef" opacity="0.027"/><circle cx="825.0" cy="802.4" r="0.74" fill="#f4f3ef" opacity="0.076"/><circle cx="974.4" cy="1587.7" r="1.44" fill="#f4f3ef" opacity="0.036"/><circle cx="368.6" cy="94.9" r="1.57" fill="#f4f3ef" opacity="0.072"/><circle cx="930.7" cy="748.6" r="1.55" fill="#f4f3ef" opacity="0.064"/><circle cx="158.1" cy="92.0" r="0.30" fill="#f4f3ef" opacity="0.046"/><circle cx="606.1" cy="475.7" r="1.25" fill="#f4f3ef" opacity="0.075"/><circle cx="878.4" cy="813.4" r="0.90" fill="#f4f3ef" opacity="0.024"/><circle cx="132.1" cy="1203.7" r="0.83" fill="#f4f3ef" opacity="0.021"/><circle cx="92.7" cy="619.5" r="1.04" fill="#f4f3ef" opacity="0.075"/><circle cx="312.4" cy="463.3" r="1.13" fill="#f4f3ef" opacity="0.055"/><circle cx="540.8" cy="1189.5" r="1.15" fill="#f4f3ef" opacity="0.060"/><circle cx="606.8" cy="1592.9" r="0.46" fill="#f4f3ef" opacity="0.054"/><circle cx="1010.9" cy="765.2" r="0.38" fill="#f4f3ef" opacity="0.077"/><circle cx="1028.6" cy="1116.0" r="0.80" fill="#f4f3ef" opacity="0.024"/><circle cx="725.8" cy="1262.7" r="0.45" fill="#f4f3ef" opacity="0.050"/><circle cx="484.4" cy="1185.5" r="0.98" fill="#f4f3ef" opacity="0.070"/><circle cx="172.8" cy="449.9" r="0.70" fill="#f4f3ef" opacity="0.072"/><circle cx="93.9" cy="695.3" r="0.55" fill="#f4f3ef" opacity="0.044"/><circle cx="511.1" cy="1191.0" r="1.06" fill="#f4f3ef" opacity="0.075"/><circle cx="818.6" cy="257.9" r="0.40" fill="#f4f3ef" opacity="0.064"/><circle cx="489.4" cy="957.6" r="0.28" fill="#f4f3ef" opacity="0.075"/><circle cx="735.5" cy="248.4" r="1.55" fill="#f4f3ef" opacity="0.070"/><circle cx="476.5" cy="6.6" r="0.83" fill="#f4f3ef" opacity="0.041"/><circle cx="489.8" cy="1516.2" r="0.58" fill="#f4f3ef" opacity="0.065"/><circle cx="801.7" cy="1024.2" r="0.59" fill="#f4f3ef" opacity="0.036"/><circle cx="924.8" cy="762.7" r="1.51" fill="#f4f3ef" opacity="0.042"/><circle cx="806.4" cy="237.8" r="0.99" fill="#f4f3ef" opacity="0.052"/><circle cx="354.2" cy="1385.3" r="0.51" fill="#f4f3ef" opacity="0.074"/><circle cx="740.7" cy="392.9" r="0.59" fill="#f4f3ef" opacity="0.048"/><circle cx="16.4" cy="1389.0" r="1.03" fill="#f4f3ef" opacity="0.077"/><circle cx="104.3" cy="798.2" r="0.85" fill="#f4f3ef" opacity="0.043"/><circle cx="635.7" cy="1563.9" r="0.39" fill="#f4f3ef" opacity="0.038"/><circle cx="965.2" cy="1236.5" r="0.25" fill="#f4f3ef" opacity="0.060"/><circle cx="763.3" cy="329.7" r="1.14" fill="#f4f3ef" opacity="0.043"/><circle cx="254.1" cy="542.2" r="0.45" fill="#f4f3ef" opacity="0.053"/><circle cx="96.2" cy="846.9" r="0.96" fill="#f4f3ef" opacity="0.040"/><circle cx="908.6" cy="1046.3" r="0.90" fill="#f4f3ef" opacity="0.054"/><circle cx="307.2" cy="1594.6" r="0.30" fill="#f4f3ef" opacity="0.072"/><circle cx="254.6" cy="1287.0" r="1.32" fill="#f4f3ef" opacity="0.059"/><circle cx="184.5" cy="814.8" r="1.09" fill="#f4f3ef" opacity="0.056"/><circle cx="439.3" cy="987.8" r="0.88" fill="#f4f3ef" opacity="0.075"/><circle cx="17.9" cy="423.4" r="0.84" fill="#f4f3ef" opacity="0.035"/><circle cx="369.3" cy="701.8" r="1.22" fill="#f4f3ef" opacity="0.029"/><circle cx="294.8" cy="1388.4" r="0.32" fill="#f4f3ef" opacity="0.043"/><circle cx="97.3" cy="922.7" r="0.47" fill="#f4f3ef" opacity="0.069"/><circle cx="40.4" cy="174.0" r="0.83" fill="#f4f3ef" opacity="0.073"/><circle cx="585.0" cy="663.0" r="0.95" fill="#f4f3ef" opacity="0.076"/><circle cx="137.2" cy="651.7" r="1.14" fill="#f4f3ef" opacity="0.020"/><circle cx="976.0" cy="298.0" r="0.85" fill="#f4f3ef" opacity="0.049"/><circle cx="954.2" cy="1478.4" r="0.91" fill="#f4f3ef" opacity="0.033"/><circle cx="848.9" cy="677.0" r="0.97" fill="#f4f3ef" opacity="0.050"/><circle cx="686.6" cy="540.5" r="0.83" fill="#f4f3ef" opacity="0.055"/><circle cx="1046.8" cy="101.2" r="1.12" fill="#f4f3ef" opacity="0.074"/><circle cx="809.8" cy="465.2" r="0.91" fill="#f4f3ef" opacity="0.077"/><circle cx="950.4" cy="368.3" r="0.28" fill="#f4f3ef" opacity="0.073"/><circle cx="507.1" cy="798.1" r="1.13" fill="#f4f3ef" opacity="0.060"/><circle cx="731.2" cy="1083.1" r="0.49" fill="#f4f3ef" opacity="0.022"/><circle cx="344.9" cy="847.9" r="1.55" fill="#f4f3ef" opacity="0.021"/><circle cx="46.4" cy="1435.7" r="0.47" fill="#f4f3ef" opacity="0.030"/><circle cx="257.3" cy="397.2" r="0.64" fill="#f4f3ef" opacity="0.045"/><circle cx="648.2" cy="1446.0" r="1.37" fill="#f4f3ef" opacity="0.061"/><circle cx="376.1" cy="1480.7" r="1.46" fill="#f4f3ef" opacity="0.025"/><circle cx="99.6" cy="1074.3" r="0.89" fill="#f4f3ef" opacity="0.066"/><circle cx="437.9" cy="29.3" r="0.67" fill="#f4f3ef" opacity="0.052"/><circle cx="73.5" cy="399.8" r="0.85" fill="#f4f3ef" opacity="0.024"/><circle cx="969.4" cy="981.1" r="0.78" fill="#f4f3ef" opacity="0.064"/><circle cx="425.1" cy="864.4" r="0.39" fill="#f4f3ef" opacity="0.034"/><circle cx="917.0" cy="859.7" r="0.96" fill="#f4f3ef" opacity="0.067"/><circle cx="377.0" cy="1184.1" r="1.24" fill="#f4f3ef" opacity="0.020"/><circle cx="254.2" cy="218.1" r="1.45" fill="#f4f3ef" opacity="0.047"/><circle cx="416.8" cy="726.9" r="1.34" fill="#f4f3ef" opacity="0.075"/><circle cx="100.8" cy="1150.1" r="0.40" fill="#f4f3ef" opacity="0.034"/><circle cx="636.6" cy="756.9" r="0.60" fill="#f4f3ef" opacity="0.072"/><circle cx="351.3" cy="1068.2" r="1.50" fill="#f4f3ef" opacity="0.028"/><circle cx="852.0" cy="345.8" r="0.60" fill="#f4f3ef" opacity="0.026"/><circle cx="149.6" cy="347.6" r="1.56" fill="#f4f3ef" opacity="0.027"/><circle cx="364.9" cy="1350.3" r="0.99" fill="#f4f3ef" opacity="0.025"/><circle cx="141.1" cy="1437.7" r="1.37" fill="#f4f3ef" opacity="0.035"/><circle cx="571.5" cy="56.8" r="1.07" fill="#f4f3ef" opacity="0.074"/><circle cx="101.8" cy="1039.7" r="0.74" fill="#f4f3ef" opacity="0.046"/><circle cx="813.3" cy="692.6" r="0.84" fill="#f4f3ef" opacity="0.042"/><circle cx="479.7" cy="951.2" r="1.46" fill="#f4f3ef" opacity="0.071"/><circle cx="273.4" cy="1203.3" r="0.28" fill="#f4f3ef" opacity="0.072"/><circle cx="378.9" cy="777.1" r="1.35" fill="#f4f3ef" opacity="0.027"/><circle cx="585.5" cy="897.5" r="0.86" fill="#f4f3ef" opacity="0.060"/><circle cx="524.1" cy="1307.6" r="0.55" fill="#f4f3ef" opacity="0.022"/><circle cx="616.4" cy="1158.0" r="1.03" fill="#f4f3ef" opacity="0.030"/><circle cx="533.1" cy="962.3" r="0.21" fill="#f4f3ef" opacity="0.080"/><circle cx="498.1" cy="819.3" r="1.08" fill="#f4f3ef" opacity="0.056"/><circle cx="103.1" cy="1301.7" r="0.82" fill="#f4f3ef" opacity="0.031"/><circle cx="1034.1" cy="612.2" r="0.45" fill="#f4f3ef" opacity="0.051"/><circle cx="906.9" cy="805.0" r="1.40" fill="#f4f3ef" opacity="0.036"/><circle cx="617.2" cy="675.2" r="0.24" fill="#f4f3ef" opacity="0.069"/><circle cx="665.6" cy="914.0" r="1.09" fill="#f4f3ef" opacity="0.073"/><circle cx="327.7" cy="731.5" r="1.05" fill="#f4f3ef" opacity="0.059"/><circle cx="736.2" cy="344.9" r="0.23" fill="#f4f3ef" opacity="0.065"/><circle cx="139.1" cy="1334.4" r="0.29" fill="#f4f3ef" opacity="0.066"/><circle cx="538.8" cy="65.4" r="0.95" fill="#f4f3ef" opacity="0.047"/><circle cx="104.2" cy="1377.6" r="0.33" fill="#f4f3ef" opacity="0.059"/><circle cx="165.8" cy="1339.9" r="0.37" fill="#f4f3ef" opacity="0.070"/><circle cx="117.7" cy="1473.4" r="0.65" fill="#f4f3ef" opacity="0.040"/><circle cx="499.8" cy="39.9" r="1.46" fill="#f4f3ef" opacity="0.031"/><circle cx="390.2" cy="397.2" r="0.86" fill="#f4f3ef" opacity="0.066"/><circle cx="842.6" cy="1222.1" r="1.07" fill="#f4f3ef" opacity="0.076"/><circle cx="500.2" cy="598.5" r="0.36" fill="#f4f3ef" opacity="0.020"/><circle cx="456.4" cy="1173.1" r="1.30" fill="#f4f3ef" opacity="0.032"/><circle cx="223.8" cy="378.3" r="0.36" fill="#f4f3ef" opacity="0.078"/><circle cx="816.7" cy="920.0" r="0.77" fill="#f4f3ef" opacity="0.068"/><circle cx="8.9" cy="1534.2" r="1.23" fill="#f4f3ef" opacity="0.070"/><circle cx="39.8" cy="8.5" r="0.83" fill="#f4f3ef" opacity="0.023"/><circle cx="26.7" cy="471.2" r="0.81" fill="#f4f3ef" opacity="0.033"/><circle cx="826.0" cy="947.1" r="1.56" fill="#f4f3ef" opacity="0.038"/><circle cx="1001.8" cy="1179.4" r="0.63" fill="#f4f3ef" opacity="0.074"/><circle cx="975.6" cy="318.7" r="1.43" fill="#f4f3ef" opacity="0.075"/><circle cx="418.0" cy="478.6" r="0.45" fill="#f4f3ef" opacity="0.038"/><circle cx="620.2" cy="157.8" r="0.69" fill="#f4f3ef" opacity="0.028"/><circle cx="106.5" cy="1529.2" r="0.74" fill="#f4f3ef" opacity="0.056"/><circle cx="563.3" cy="1195.2" r="0.22" fill="#f4f3ef" opacity="0.049"/><circle cx="673.2" cy="1210.2" r="0.55" fill="#f4f3ef" opacity="0.047"/><circle cx="265.0" cy="369.2" r="1.10" fill="#f4f3ef" opacity="0.074"/><circle cx="906.2" cy="963.7" r="0.40" fill="#f4f3ef" opacity="0.051"/><circle cx="805.3" cy="603.4" r="1.13" fill="#f4f3ef" opacity="0.051"/><circle cx="28.3" cy="1105.6" r="0.62" fill="#f4f3ef" opacity="0.050"/><circle cx="24.0" cy="850.7" r="0.53" fill="#f4f3ef" opacity="0.024"/><circle cx="660.8" cy="1003.9" r="0.57" fill="#f4f3ef" opacity="0.079"/><circle cx="107.7" cy="5.0" r="0.25" fill="#f4f3ef" opacity="0.024"/><circle cx="762.1" cy="322.8" r="1.54" fill="#f4f3ef" opacity="0.069"/><circle cx="951.0" cy="278.6" r="1.20" fill="#f4f3ef" opacity="0.051"/><circle cx="147.6" cy="1333.9" r="0.92" fill="#f4f3ef" opacity="0.036"/><circle cx="630.7" cy="446.9" r="1.57" fill="#f4f3ef" opacity="0.044"/><circle cx="253.2" cy="1094.0" r="1.16" fill="#f4f3ef" opacity="0.068"/><circle cx="859.3" cy="1359.2" r="0.76" fill="#f4f3ef" opacity="0.065"/><circle cx="341.3" cy="689.4" r="1.54" fill="#f4f3ef" opacity="0.051"/><circle cx="345.8" cy="1316.8" r="1.37" fill="#f4f3ef" opacity="0.050"/><circle cx="820.2" cy="1147.4" r="0.70" fill="#f4f3ef" opacity="0.033"/><circle cx="605.2" cy="517.2" r="1.00" fill="#f4f3ef" opacity="0.068"/><circle cx="873.1" cy="413.7" r="1.38" fill="#f4f3ef" opacity="0.035"/><circle cx="741.5" cy="165.3" r="0.27" fill="#f4f3ef" opacity="0.038"/><circle cx="1066.6" cy="996.8" r="0.87" fill="#f4f3ef" opacity="0.077"/><circle cx="412.5" cy="1051.3" r="0.72" fill="#f4f3ef" opacity="0.066"/><circle cx="267.7" cy="1079.4" r="0.42" fill="#f4f3ef" opacity="0.061"/><circle cx="302.9" cy="1594.9" r="0.69" fill="#f4f3ef" opacity="0.057"/><circle cx="742.2" cy="1096.3" r="0.31" fill="#f4f3ef" opacity="0.060"/><circle cx="110.0" cy="156.6" r="0.67" fill="#f4f3ef" opacity="0.021"/><circle cx="92.6" cy="178.2" r="1.39" fill="#f4f3ef" opacity="0.048"/><circle cx="439.6" cy="15.4" r="1.10" fill="#f4f3ef" opacity="0.059"/><circle cx="979.8" cy="63.3" r="0.56" fill="#f4f3ef" opacity="0.079"/><circle cx="79.8" cy="1013.3" r="1.10" fill="#f4f3ef" opacity="0.030"/><circle cx="216.0" cy="475.2" r="1.21" fill="#f4f3ef" opacity="0.043"/><circle cx="387.4" cy="266.4" r="1.02" fill="#f4f3ef" opacity="0.036"/><circle cx="975.9" cy="367.0" r="0.77" fill="#f4f3ef" opacity="0.043"/><circle cx="782.8" cy="342.5" r="1.58" fill="#f4f3ef" opacity="0.051"/><circle cx="111.2" cy="232.4" r="1.58" fill="#f4f3ef" opacity="0.050"/><circle cx="291.3" cy="905.8" r="1.31" fill="#f4f3ef" opacity="0.067"/><circle cx="717.4" cy="683.8" r="0.35" fill="#f4f3ef" opacity="0.063"/><circle cx="862.4" cy="1028.0" r="0.38" fill="#f4f3ef" opacity="0.041"/><circle cx="871.3" cy="496.5" r="0.87" fill="#f4f3ef" opacity="0.023"/><circle cx="730.9" cy="965.8" r="1.24" fill="#f4f3ef" opacity="0.060"/><circle cx="151.4" cy="519.9" r="1.15" fill="#f4f3ef" opacity="0.051"/><circle cx="226.2" cy="205.7" r="0.38" fill="#f4f3ef" opacity="0.069"/><circle cx="467.8" cy="655.3" r="0.99" fill="#f4f3ef" opacity="0.021"/><circle cx="823.6" cy="1374.8" r="0.62" fill="#f4f3ef" opacity="0.058"/><circle cx="134.4" cy="1100.1" r="0.77" fill="#f4f3ef" opacity="0.067"/><circle cx="639.5" cy="818.8" r="0.53" fill="#f4f3ef" opacity="0.047"/><circle cx="389.3" cy="1459.4" r="1.13" fill="#f4f3ef" opacity="0.043"/><circle cx="240.2" cy="1046.4" r="1.57" fill="#f4f3ef" opacity="0.055"/><circle cx="890.1" cy="923.1" r="0.80" fill="#f4f3ef" opacity="0.057"/><circle cx="626.8" cy="240.2" r="0.81" fill="#f4f3ef" opacity="0.046"/><circle cx="187.9" cy="1111.2" r="0.93" fill="#f4f3ef" opacity="0.075"/><circle cx="864.2" cy="434.8" r="1.33" fill="#f4f3ef" opacity="0.032"/><circle cx="113.5" cy="384.0" r="0.60" fill="#f4f3ef" opacity="0.046"/><circle cx="688.8" cy="761.1" r="1.16" fill="#f4f3ef" opacity="0.046"/><circle cx="205.9" cy="420.6" r="0.25" fill="#f4f3ef" opacity="0.071"/><circle cx="627.6" cy="1357.4" r="1.42" fill="#f4f3ef" opacity="0.025"/><circle cx="320.3" cy="1062.9" r="0.41" fill="#f4f3ef" opacity="0.068"/><circle cx="693.7" cy="347.1" r="1.29" fill="#f4f3ef" opacity="0.035"/><circle cx="746.5" cy="1027.1" r="1.41" fill="#f4f3ef" opacity="0.021"/><circle cx="860.8" cy="1483.3" r="1.00" fill="#f4f3ef" opacity="0.061"/><circle cx="904.9" cy="1281.0" r="1.20" fill="#f4f3ef" opacity="0.023"/><circle cx="114.6" cy="459.8" r="1.51" fill="#f4f3ef" opacity="0.075"/><circle cx="887.5" cy="1488.8" r="1.08" fill="#f4f3ef" opacity="0.066"/><circle cx="483.7" cy="1089.0" r="0.90" fill="#f4f3ef" opacity="0.075"/><circle cx="510.2" cy="722.1" r="1.24" fill="#f4f3ef" opacity="0.046"/><circle cx="44.9" cy="546.1" r="1.58" fill="#f4f3ef" opacity="0.061"/><circle cx="141.6" cy="837.7" r="1.32" fill="#f4f3ef" opacity="0.052"/><circle cx="510.6" cy="1280.7" r="1.54" fill="#f4f3ef" opacity="0.036"/><circle cx="111.1" cy="1322.0" r="0.62" fill="#f4f3ef" opacity="0.028"/><circle cx="589.9" cy="1593.8" r="0.60" fill="#f4f3ef" opacity="0.053"/><circle cx="827.1" cy="2.2" r="0.55" fill="#f4f3ef" opacity="0.023"/><circle cx="730.6" cy="83.1" r="0.54" fill="#f4f3ef" opacity="0.065"/><circle cx="405.8" cy="1224.0" r="1.08" fill="#f4f3ef" opacity="0.059"/><circle cx="37.1" cy="1153.4" r="0.59" fill="#f4f3ef" opacity="0.048"/><circle cx="480.7" cy="1096.0" r="0.88" fill="#f4f3ef" opacity="0.034"/><circle cx="300.8" cy="795.0" r="0.88" fill="#f4f3ef" opacity="0.049"/><circle cx="985.9" cy="1000.9" r="1.21" fill="#f4f3ef" opacity="0.031"/><circle cx="72.8" cy="627.5" r="1.16" fill="#f4f3ef" opacity="0.034"/><circle cx="986.2" cy="1373.3" r="0.94" fill="#f4f3ef" opacity="0.064"/><circle cx="116.9" cy="611.4" r="0.52" fill="#f4f3ef" opacity="0.072"/><circle cx="218.0" cy="1344.1" r="0.93" fill="#f4f3ef" opacity="0.045"/><circle cx="1039.3" cy="825.8" r="0.80" fill="#f4f3ef" opacity="0.023"/><circle cx="275.4" cy="1051.5" r="0.88" fill="#f4f3ef" opacity="0.030"/><circle cx="560.9" cy="1112.6" r="1.11" fill="#f4f3ef" opacity="0.047"/><circle cx="104.4" cy="218.9" r="1.37" fill="#f4f3ef" opacity="0.027"/><circle cx="38.6" cy="187.8" r="0.40" fill="#f4f3ef" opacity="0.066"/><circle cx="745.7" cy="999.6" r="1.24" fill="#f4f3ef" opacity="0.020"/><circle cx="1026.9" cy="619.5" r="0.81" fill="#f4f3ef" opacity="0.055"/><circle cx="118.1" cy="687.2" r="1.43" fill="#f4f3ef" opacity="0.040"/><circle cx="416.8" cy="471.7" r="0.85" fill="#f4f3ef" opacity="0.064"/><circle cx="250.1" cy="1494.1" r="1.44" fill="#f4f3ef" opacity="0.027"/><circle cx="158.0" cy="416.2" r="0.70" fill="#f4f3ef" opacity="0.052"/><circle cx="285.4" cy="595.8" r="0.88" fill="#f4f3ef" opacity="0.040"/><circle cx="619.3" cy="709.5" r="1.40" fill="#f4f3ef" opacity="0.044"/><circle cx="869.7" cy="441.4" r="0.54" fill="#f4f3ef" opacity="0.021"/><circle cx="1063.0" cy="838.3" r="0.86" fill="#f4f3ef" opacity="0.046"/><circle cx="711.9" cy="932.3" r="0.22" fill="#f4f3ef" opacity="0.025"/><circle cx="830.6" cy="229.7" r="0.48" fill="#f4f3ef" opacity="0.048"/><circle cx="259.9" cy="666.1" r="0.31" fill="#f4f3ef" opacity="0.064"/><circle cx="172.2" cy="29.2" r="0.23" fill="#f4f3ef" opacity="0.071"/><circle cx="751.9" cy="847.5" r="1.45" fill="#f4f3ef" opacity="0.053"/><circle cx="721.3" cy="1145.6" r="1.58" fill="#f4f3ef" opacity="0.073"/><circle cx="778.5" cy="666.8" r="0.96" fill="#f4f3ef" opacity="0.041"/><circle cx="278.1" cy="161.7" r="1.60" fill="#f4f3ef" opacity="0.076"/><circle cx="1024.7" cy="143.8" r="1.40" fill="#f4f3ef" opacity="0.052"/><circle cx="41.2" cy="711.8" r="0.56" fill="#f4f3ef" opacity="0.036"/><circle cx="120.4" cy="838.8" r="0.45" fill="#f4f3ef" opacity="0.037"/><circle cx="814.3" cy="327.0" r="0.70" fill="#f4f3ef" opacity="0.043"/><circle cx="805.6" cy="1230.9" r="1.34" fill="#f4f3ef" opacity="0.035"/><circle cx="990.2" cy="745.5" r="0.34" fill="#f4f3ef" opacity="0.035"/><circle cx="801.5" cy="1162.2" r="0.42" fill="#f4f3ef" opacity="0.025"/><circle cx="582.1" cy="90.8" r="1.46" fill="#f4f3ef" opacity="0.078"/><circle cx="397.8" cy="948.6" r="0.80" fill="#f4f3ef" opacity="0.051"/><circle cx="630.6" cy="515.9" r="1.48" fill="#f4f3ef" opacity="0.039"/><circle cx="81.9" cy="1558.0" r="0.43" fill="#f4f3ef" opacity="0.026"/><circle cx="121.5" cy="914.6" r="1.36" fill="#f4f3ef" opacity="0.065"/><circle cx="1013.0" cy="1054.7" r="0.63" fill="#f4f3ef" opacity="0.063"/><circle cx="16.4" cy="299.3" r="0.59" fill="#f4f3ef" opacity="0.039"/><circle cx="872.8" cy="110.2" r="1.56" fill="#f4f3ef" opacity="0.057"/><circle cx="526.0" cy="645.4" r="1.59" fill="#f4f3ef" opacity="0.078"/><circle cx="30.0" cy="581.4" r="1.48" fill="#f4f3ef" opacity="0.036"/><circle cx="161.8" cy="1202.2" r="0.93" fill="#f4f3ef" opacity="0.066"/><circle cx="947.9" cy="354.6" r="1.09" fill="#f4f3ef" opacity="0.065"/><circle cx="833.9" cy="270.9" r="1.23" fill="#f4f3ef" opacity="0.057"/><circle cx="834.0" cy="457.1" r="0.40" fill="#f4f3ef" opacity="0.074"/><circle cx="856.1" cy="1249.0" r="1.48" fill="#f4f3ef" opacity="0.062"/><circle cx="1005.5" cy="434.4" r="0.78" fill="#f4f3ef" opacity="0.023"/><circle cx="399.7" cy="541.6" r="0.91" fill="#f4f3ef" opacity="0.059"/><circle cx="961.9" cy="1195.3" r="0.89" fill="#f4f3ef" opacity="0.051"/><circle cx="189.2" cy="538.7" r="1.05" fill="#f4f3ef" opacity="0.033"/><circle cx="637.2" cy="922.4" r="0.59" fill="#f4f3ef" opacity="0.061"/><circle cx="909.6" cy="1260.0" r="0.24" fill="#f4f3ef" opacity="0.071"/><circle cx="163.2" cy="50.4" r="1.57" fill="#f4f3ef" opacity="0.068"/><circle cx="123.8" cy="1066.2" r="0.38" fill="#f4f3ef" opacity="0.062"/><circle cx="343.5" cy="910.0" r="0.47" fill="#f4f3ef" opacity="0.042"/><circle cx="572.0" cy="36.1" r="0.49" fill="#f4f3ef" opacity="0.047"/><circle cx="638.0" cy="439.6" r="1.20" fill="#f4f3ef" opacity="0.040"/><circle cx="1042.1" cy="1211.8" r="1.12" fill="#f4f3ef" opacity="0.064"/><circle cx="1059.7" cy="1562.6" r="1.54" fill="#f4f3ef" opacity="0.070"/><circle cx="756.9" cy="109.3" r="1.19" fill="#f4f3ef" opacity="0.036"/><circle cx="515.5" cy="32.1" r="0.32" fill="#f4f3ef" opacity="0.057"/><circle cx="203.9" cy="896.5" r="1.44" fill="#f4f3ef" opacity="0.058"/><circle cx="125.0" cy="1142.0" r="1.29" fill="#f4f3ef" opacity="0.030"/><circle cx="542.3" cy="37.7" r="0.40" fill="#f4f3ef" opacity="0.061"/><circle cx="849.7" cy="704.5" r="1.14" fill="#f4f3ef" opacity="0.051"/><circle cx="520.6" cy="1404.3" r="1.02" fill="#f4f3ef" opacity="0.062"/><circle cx="766.6" cy="695.0" r="0.89" fill="#f4f3ef" opacity="0.057"/><circle cx="507.6" cy="453.2" r="1.57" fill="#f4f3ef" opacity="0.028"/><circle cx="520.9" cy="362.9" r="1.32" fill="#f4f3ef" opacity="0.051"/><circle cx="832.8" cy="1470.9" r="1.33" fill="#f4f3ef" opacity="0.023"/><circle cx="955.9" cy="1209.4" r="0.85" fill="#f4f3ef" opacity="0.029"/><circle cx="837.5" cy="684.5" r="0.33" fill="#f4f3ef" opacity="0.039"/><circle cx="385.3" cy="232.0" r="1.25" fill="#f4f3ef" opacity="0.061"/><circle cx="771.9" cy="839.6" r="1.33" fill="#f4f3ef" opacity="0.035"/><circle cx="47.5" cy="235.7" r="0.37" fill="#f4f3ef" opacity="0.064"/><circle cx="135.4" cy="1244.9" r="1.59" fill="#f4f3ef" opacity="0.030"/><circle cx="666.9" cy="410.5" r="1.13" fill="#f4f3ef" opacity="0.025"/><circle cx="996.3" cy="83.1" r="0.99" fill="#f4f3ef" opacity="0.047"/><circle cx="794.5" cy="776.3" r="0.48" fill="#f4f3ef" opacity="0.029"/><circle cx="285.2" cy="988.9" r="1.19" fill="#f4f3ef" opacity="0.039"/><circle cx="127.3" cy="1293.6" r="0.30" fill="#f4f3ef" opacity="0.027"/><circle cx="939.7" cy="1493.0" r="0.24" fill="#f4f3ef" opacity="0.040"/><circle cx="338.3" cy="441.3" r="1.04" fill="#f4f3ef" opacity="0.059"/><circle cx="285.7" cy="133.7" r="0.66" fill="#f4f3ef" opacity="0.045"/><circle cx="215.6" cy="1261.4" r="0.43" fill="#f4f3ef" opacity="0.042"/><circle cx="470.4" cy="1434.5" r="0.22" fill="#f4f3ef" opacity="0.062"/><circle cx="49.0" cy="870.1" r="1.58" fill="#f4f3ef" opacity="0.022"/><circle cx="400.4" cy="1148.4" r="0.56" fill="#f4f3ef" opacity="0.076"/><circle cx="325.9" cy="235.1" r="1.06" fill="#f4f3ef" opacity="0.030"/><circle cx="128.4" cy="1369.4" r="1.21" fill="#f4f3ef" opacity="0.055"/><circle cx="71.5" cy="620.6" r="1.57" fill="#f4f3ef" opacity="0.060"/><circle cx="616.1" cy="1109.7" r="0.29" fill="#f4f3ef" opacity="0.063"/><circle cx="168.3" cy="1098.4" r="0.48" fill="#f4f3ef" opacity="0.067"/><circle cx="1007.1" cy="744.7" r="1.59" fill="#f4f3ef" opacity="0.035"/><circle cx="985.3" cy="325.1" r="0.25" fill="#f4f3ef" opacity="0.079"/><circle cx="880.1" cy="1123.6" r="0.32" fill="#f4f3ef" opacity="0.037"/><circle cx="717.7" cy="987.2" r="1.57" fill="#f4f3ef" opacity="0.042"/><circle cx="10.9" cy="547.9" r="0.47" fill="#f4f3ef" opacity="0.061"/><circle cx="840.9" cy="911.9" r="0.26" fill="#f4f3ef" opacity="0.064"/><circle cx="981.6" cy="814.9" r="1.02" fill="#f4f3ef" opacity="0.059"/><circle cx="538.2" cy="1244.8" r="0.47" fill="#f4f3ef" opacity="0.046"/><circle cx="762.3" cy="1529.7" r="1.23" fill="#f4f3ef" opacity="0.069"/><circle cx="376.0" cy="1294.5" r="0.90" fill="#f4f3ef" opacity="0.068"/><circle cx="77.5" cy="282.4" r="1.21" fill="#f4f3ef" opacity="0.077"/><circle cx="288.4" cy="843.9" r="1.38" fill="#f4f3ef" opacity="0.032"/><circle cx="679.4" cy="292.6" r="0.71" fill="#f4f3ef" opacity="0.048"/><circle cx="407.3" cy="327.4" r="0.80" fill="#f4f3ef" opacity="0.071"/><circle cx="130.7" cy="1521.0" r="0.23" fill="#f4f3ef" opacity="0.052"/><circle cx="469.0" cy="475.9" r="1.42" fill="#f4f3ef" opacity="0.039"/><circle cx="104.7" cy="846.5" r="1.59" fill="#f4f3ef" opacity="0.070"/><circle cx="1000.5" cy="1427.8" r="1.52" fill="#f4f3ef" opacity="0.051"/><circle cx="456.2" cy="1311.1" r="1.13" fill="#f4f3ef" opacity="0.021"/><circle cx="948.1" cy="1306.3" r="0.30" fill="#f4f3ef" opacity="0.054"/><circle cx="408.1" cy="30.8" r="0.58" fill="#f4f3ef" opacity="0.067"/><circle cx="285.3" cy="664.7" r="0.79" fill="#f4f3ef" opacity="0.034"/><circle cx="447.9" cy="1173.6" r="0.68" fill="#f4f3ef" opacity="0.062"/><circle cx="131.9" cy="1596.8" r="1.14" fill="#f4f3ef" opacity="0.021"/><circle cx="667.7" cy="1203.6" r="1.34" fill="#f4f3ef" opacity="0.058"/><circle cx="382.4" cy="1514.9" r="0.84" fill="#f4f3ef" opacity="0.074"/><circle cx="883.1" cy="792.4" r="1.34" fill="#f4f3ef" opacity="0.072"/><circle cx="180.7" cy="794.3" r="0.90" fill="#f4f3ef" opacity="0.074"/><circle cx="396.0" cy="196.9" r="0.33" fill="#f4f3ef" opacity="0.071"/><circle cx="172.2" cy="284.4" r="0.71" fill="#f4f3ef" opacity="0.022"/><circle cx="602.6" cy="503.5" r="0.41" fill="#f4f3ef" opacity="0.060"/><circle cx="132.9" cy="1486.4" r="1.48" fill="#f4f3ef" opacity="0.033"/><circle cx="844.4" cy="1139.3" r="1.58" fill="#f4f3ef" opacity="0.029"/><circle cx="510.8" cy="1397.9" r="0.80" fill="#f4f3ef" opacity="0.058"/><circle cx="304.6" cy="50.0" r="1.02" fill="#f4f3ef" opacity="0.058"/>
  <rect width="1067" height="1600" fill="url(#l9)"/>
  
  <text x="53.35" y="1472" font-family="Helvetica, Arial, sans-serif" font-size="19.206" letter-spacing="4" fill="#f4f3ef" fill-opacity="0.72">AURORA</text>
  <text x="53.35" y="1536" font-family="Helvetica, Arial, sans-serif" font-size="11.737" letter-spacing="2" fill="#f4f3ef" fill-opacity="0.38">STILL 02</text>
</svg>