<?xml version="1.0" encoding="UTF-8"?>
<svg xmlns="http://www.w3.org/2000/svg" width="1920" height="1080" viewBox="0 0 1920 1080">
  <defs>
    <linearGradient id="g29" x1="0%" y1="0%" x2="100%" y2="100%">
      <stop offset="0%" stop-color="#12161a"/>
      <stop offset="100%" stop-color="#20313f"/>
    </linearGradient>
    <linearGradient id="l29" x1="0%" y1="0%" x2="0%" y2="100%">
      <stop offset="0%" stop-color="#000" stop-opacity="0"/>
      <stop offset="100%" stop-color="#000" stop-opacity="0.55"/>
    </linearGradient>
  </defs>
  <rect width="1920" height="1080" fill="url(#g29)"/>
  <circle cx="705.7" cy="1026.9" r="1.06" fill="#f4f3ef" opacity="0.078"/><circle cx="500.5" cy="970.3" r="1.21" fill="#f4f3ef" opacity="0.071"/><circle cx="500.8" cy="16.0" r="0.37" fill="#f4f3ef" opacity="0.027"/><circle cx="540.5" cy="550.6" r="1.45" fill="#f4f3ef" opacity="0.076"/><circle cx="809.4" cy="0.7" r="0.75" fill="#f4f3ef" opacity="0.037"/><circle cx="1639.2" cy="73.1" r="0.88" fill="#f4f3ef" opacity="0.072"/><circle cx="730.8" cy="514.3" r="0.86" fill="#f4f3ef" opacity="0.065"/><circle cx="1260.4" cy="71.1" r="1.02" fill="#f4f3ef" opacity="0.047"/><circle cx="146.6" cy="330.1" r="0.56" fill="#f4f3ef" opacity="0.075"/><circle cx="636.7" cy="558.0" r="0.21" fill="#f4f3ef" opacity="0.025"/><circle cx="1213.7" cy="821.5" r="1.54" fill="#f4f3ef" opacity="0.021"/><circle cx="1142.8" cy="427.2" r="0.35" fill="#f4f3ef" opacity="0.076"/><circle cx="1538.1" cy="321.8" r="0.44" fill="#f4f3ef" opacity="0.056"/><circle cx="29.2" cy="811.9" r="0.46" fill="#f4f3ef" opacity="0.060"/><circle cx="148.0" cy="4.2" r="1.17" fill="#f4f3ef" opacity="0.054"/><circle cx="875.1" cy="525.5" r="1.09" fill="#f4f3ef" opacity="0.078"/><circle cx="906.9" cy="762.3" r="1.51" fill="#f4f3ef" opacity="0.024"/><circle cx="362.0" cy="861.3" r="1.16" fill="#f4f3ef" opacity="0.050"/><circle cx="1847.7" cy="809.2" r="0.29" fill="#f4f3ef" opacity="0.071"/><circle cx="1286.9" cy="312.7" r="1.42" fill="#f4f3ef" opacity="0.072"/><circle cx="1144.9" cy="478.3" r="1.26" fill="#f4f3ef" opacity="0.044"/><circle cx="1895.8" cy="812.9" r="0.37" fill="#f4f3ef" opacity="0.075"/><circle cx="529.1" cy="183.1" r="1.11" fill="#f4f3ef" opacity="0.064"/><circle cx="1856.7" cy="655.4" r="0.99" fill="#f4f3ef" opacity="0.076"/><circle cx="379.4" cy="176.6" r="0.86" fill="#f4f3ef" opacity="0.070"/><circle cx="1833.5" cy="13.4" r="1.54" fill="#f4f3ef" opacity="0.041"/><circle cx="1857.4" cy="1032.5" r="1.29" fill="#f4f3ef" opacity="0.065"/><circle cx="498.6" cy="700.4" r="1.30" fill="#f4f3ef" opacity="0.037"/><circle cx="720.1" cy="523.8" r="0.82" fill="#f4f3ef" opacity="0.043"/><circle cx="507.0" cy="169.5" r="0.30" fill="#f4f3ef" opacity="0.052"/><circle cx="1613.4" cy="944.1" r="1.22" fill="#f4f3ef" opacity="0.075"/><circle cx="388.9" cy="274.2" r="1.30" fill="#f4f3ef" opacity="0.048"/><circle cx="1005.4" cy="946.6" r="0.34" fill="#f4f3ef" opacity="0.077"/><circle cx="1163.7" cy="547.8" r="1.56" fill="#f4f3ef" opacity="0.043"/><circle cx="200.0" cy="1064.6" r="1.10" fill="#f4f3ef" opacity="0.039"/><circle cx="792.8" cy="843.6" r="0.96" fill="#f4f3ef" opacity="0.060"/><circle cx="429.6" cy="231.5" r="0.45" fill="#f4f3ef" opacity="0.043"/><circle cx="1433.3" cy="375.0" r="1.16" fill="#f4f3ef" opacity="0.053"/><circle cx="1149.1" cy="580.7" r="0.28" fill="#f4f3ef" opacity="0.041"/><circle cx="691.0" cy="715.3" r="0.21" fill="#f4f3ef" opacity="0.054"/><circle cx="1528.8" cy="5.4" r="1.01" fill="#f4f3ef" opacity="0.072"/><circle cx="1434.2" cy="877.7" r="0.63" fill="#f4f3ef" opacity="0.059"/><circle cx="1308.0" cy="559.0" r="0.40" fill="#f4f3ef" opacity="0.056"/><circle cx="1766.5" cy="675.8" r="1.59" fill="#f4f3ef" opacity="0.076"/><circle cx="1008.2" cy="294.8" r="1.56" fill="#f4f3ef" opacity="0.035"/><circle cx="1640.5" cy="482.7" r="0.53" fill="#f4f3ef" opacity="0.029"/><circle cx="1506.5" cy="946.2" r="1.03" fill="#f4f3ef" opacity="0.044"/><circle cx="1151.1" cy="631.8" r="1.18" fill="#f4f3ef" opacity="0.069"/><circle cx="1048.6" cy="126.4" r="1.54" fill="#f4f3ef" opacity="0.074"/><circle cx="108.6" cy="456.6" r="0.26" fill="#f4f3ef" opacity="0.076"/><circle cx="1222.9" cy="448.9" r="0.45" fill="#f4f3ef" opacity="0.021"/><circle cx="812.3" cy="210.1" r="1.57" fill="#f4f3ef" opacity="0.049"/><circle cx="773.0" cy="1006.9" r="0.22" fill="#f4f3ef" opacity="0.033"/><circle cx="583.6" cy="466.0" r="0.29" fill="#f4f3ef" opacity="0.050"/><circle cx="291.5" cy="373.9" r="1.54" fill="#f4f3ef" opacity="0.056"/><circle cx="939.6" cy="77.3" r="0.44" fill="#f4f3ef" opacity="0.074"/><circle cx="513.2" cy="323.0" r="0.23" fill="#f4f3ef" opacity="0.078"/><circle cx="766.3" cy="257.6" r="1.00" fill="#f4f3ef" opacity="0.073"/><circle cx="1888.5" cy="547.7" r="0.45" fill="#f4f3ef" opacity="0.060"/><circle cx="371.7" cy="740.1" r="1.20" fill="#f4f3ef" opacity="0.023"/><circle cx="1596.6" cy="581.3" r="0.87" fill="#f4f3ef" opacity="0.022"/><circle cx="1059.5" cy="978.1" r="1.18" fill="#f4f3ef" opacity="0.030"/><circle cx="1439.0" cy="277.1" r="1.35" fill="#f4f3ef" opacity="0.045"/><circle cx="222.5" cy="985.0" r="0.69" fill="#f4f3ef" opacity="0.062"/><circle cx="1652.8" cy="1008.5" r="0.78" fill="#f4f3ef" opacity="0.025"/><circle cx="1155.3" cy="734.2" r="0.20" fill="#f4f3ef" opacity="0.066"/><circle cx="1763.9" cy="28.8" r="1.39" fill="#f4f3ef" opacity="0.053"/><circle cx="1108.3" cy="278.9" r="1.56" fill="#f4f3ef" opacity="0.024"/><circle cx="800.4" cy="671.2" r="1.49" fill="#f4f3ef" opacity="0.064"/><circle cx="1740.9" cy="592.5" r="1.10" fill="#f4f3ef" opacity="0.035"/><circle cx="706.1" cy="589.3" r="0.27" fill="#f4f3ef" opacity="0.068"/><circle cx="1654.4" cy="808.3" r="0.55" fill="#f4f3ef" opacity="0.021"/><circle cx="1433.4" cy="156.2" r="0.76" fill="#f4f3ef" opacity="0.048"/><circle cx="1726.0" cy="499.7" r="0.65" fill="#f4f3ef" opacity="0.076"/><circle cx="1157.3" cy="785.3" r="1.11" fill="#f4f3ef" opacity="0.034"/><circle cx="201.5" cy="519.9" r="1.31" fill="#f4f3ef" opacity="0.072"/><circle cx="1608.2" cy="730.1" r="0.81" fill="#f4f3ef" opacity="0.028"/><circle cx="589.2" cy="242.4" r="1.31" fill="#f4f3ef" opacity="0.026"/><circle cx="1245.2" cy="243.6" r="0.87" fill="#f4f3ef" opacity="0.028"/><circle cx="1632.6" cy="920.4" r="0.30" fill="#f4f3ef" opacity="0.025"/><circle cx="1229.8" cy="979.5" r="0.68" fill="#f4f3ef" opacity="0.036"/><circle cx="84.4" cy="47.4" r="0.38" fill="#f4f3ef" opacity="0.074"/><circle cx="1159.2" cy="710.8" r="1.45" fill="#f4f3ef" opacity="0.046"/><circle cx="519.4" cy="476.5" r="1.55" fill="#f4f3ef" opacity="0.043"/><circle cx="1839.2" cy="651.1" r="0.77" fill="#f4f3ef" opacity="0.072"/><circle cx="1468.0" cy="821.2" r="0.99" fill="#f4f3ef" opacity="0.072"/><circle cx="1657.9" cy="533.6" r="0.66" fill="#f4f3ef" opacity="0.028"/><circle cx="109.5" cy="614.8" r="1.57" fill="#f4f3ef" opacity="0.060"/><circle cx="1919.1" cy="891.6" r="1.26" fill="#f4f3ef" opacity="0.022"/><circle cx="165.3" cy="790.6" r="0.34" fill="#f4f3ef" opacity="0.031"/><circle cx="15.4" cy="658.5" r="0.92" fill="#f4f3ef" opacity="0.020"/><circle cx="1872.4" cy="562.0" r="0.39" fill="#f4f3ef" opacity="0.057"/><circle cx="1161.5" cy="887.7" r="1.53" fill="#f4f3ef" opacity="0.031"/><circle cx="916.8" cy="422.3" r="1.16" fill="#f4f3ef" opacity="0.051"/><circle cx="687.9" cy="552.4" r="0.71" fill="#f4f3ef" opacity="0.036"/><circle cx="166.6" cy="464.7" r="0.95" fill="#f4f3ef" opacity="0.070"/><circle cx="253.8" cy="626.0" r="0.41" fill="#f4f3ef" opacity="0.073"/><circle cx="1565.6" cy="502.8" r="0.36" fill="#f4f3ef" opacity="0.060"/><circle cx="380.7" cy="241.8" r="0.94" fill="#f4f3ef" opacity="0.066"/><circle cx="1226.3" cy="909.7" r="1.00" fill="#f4f3ef" opacity="0.066"/><circle cx="25.6" cy="53.2" r="0.26" fill="#f4f3ef" opacity="0.048"/><circle cx="1163.6" cy="938.8" r="1.04" fill="#f4f3ef" opacity="0.060"/><circle cx="1274.4" cy="913.4" r="1.08" fill="#f4f3ef" opacity="0.071"/><circle cx="1187.7" cy="1003.6" r="1.36" fill="#f4f3ef" opacity="0.040"/><circle cx="1875.4" cy="35.9" r="0.77" fill="#f4f3ef" opacity="0.031"/><circle cx="1678.1" cy="277.1" r="1.57" fill="#f4f3ef" opacity="0.066"/><circle cx="572.1" cy="833.9" r="0.38" fill="#f4f3ef" opacity="0.077"/><circle cx="1876.1" cy="413.0" r="1.07" fill="#f4f3ef" opacity="0.021"/><circle cx="1797.3" cy="800.9" r="0.62" fill="#f4f3ef" opacity="0.033"/><circle cx="1378.7" cy="264.3" r="1.07" fill="#f4f3ef" opacity="0.078"/><circle cx="525.6" cy="630.0" r="1.48" fill="#f4f3ef" opacity="0.068"/><circle cx="992.0" cy="1044.6" r="0.54" fill="#f4f3ef" opacity="0.070"/><circle cx="1047.6" cy="14.7" r="1.54" fill="#f4f3ef" opacity="0.024"/><circle cx="1024.1" cy="327.1" r="1.52" fill="#f4f3ef" opacity="0.033"/><circle cx="542.4" cy="648.3" r="0.88" fill="#f4f3ef" opacity="0.039"/><circle cx="858.7" cy="805.1" r="1.35" fill="#f4f3ef" opacity="0.074"/><circle cx="811.5" cy="224.1" r="0.74" fill="#f4f3ef" opacity="0.076"/><circle cx="1728.2" cy="332.0" r="1.16" fill="#f4f3ef" opacity="0.039"/><circle cx="171.9" cy="115.5" r="1.41" fill="#f4f3ef" opacity="0.029"/><circle cx="1167.7" cy="1041.2" r="1.46" fill="#f4f3ef" opacity="0.056"/><circle cx="69.7" cy="815.8" r="0.93" fill="#f4f3ef" opacity="0.050"/><circle cx="267.4" cy="825.9" r="1.26" fill="#f4f3ef" opacity="0.048"/><circle cx="1452.9" cy="258.2" r="0.41" fill="#f4f3ef" opacity="0.075"/><circle cx="686.7" cy="659.5" r="1.11" fill="#f4f3ef" opacity="0.052"/><circle cx="505.2" cy="416.3" r="0.44" fill="#f4f3ef" opacity="0.051"/><circle cx="1026.9" cy="755.3" r="1.34" fill="#f4f3ef" opacity="0.051"/><circle cx="1019.2" cy="583.2" r="1.24" fill="#f4f3ef" opacity="0.025"/><circle cx="245.1" cy="686.7" r="1.28" fill="#f4f3ef" opacity="0.079"/><circle cx="1169.8" cy="12.3" r="0.96" fill="#f4f3ef" opacity="0.025"/><circle cx="427.3" cy="226.9" r="0.85" fill="#f4f3ef" opacity="0.069"/><circle cx="767.3" cy="197.1" r="0.51" fill="#f4f3ef" opacity="0.052"/><circle cx="1241.6" cy="909.4" r="0.23" fill="#f4f3ef" opacity="0.037"/><circle cx="191.0" cy="310.6" r="0.88" fill="#f4f3ef" opacity="0.045"/><circle cx="1431.7" cy="747.4" r="0.47" fill="#f4f3ef" opacity="0.069"/><circle cx="602.3" cy="926.5" r="1.47" fill="#f4f3ef" opacity="0.066"/><circle cx="1590.2" cy="474.4" r="0.85" fill="#f4f3ef" opacity="0.051"/><circle cx="1598.3" cy="897.8" r="0.68" fill="#f4f3ef" opacity="0.050"/><circle cx="531.9" cy="783.5" r="1.41" fill="#f4f3ef" opacity="0.033"/><circle cx="144.9" cy="358.1" r="0.31" fill="#f4f3ef" opacity="0.069"/><circle cx="627.1" cy="288.2" r="0.69" fill="#f4f3ef" opacity="0.036"/><circle cx="390.3" cy="120.6" r="0.98" fill="#f4f3ef" opacity="0.038"/><circle cx="975.3" cy="681.8" r="1.58" fill="#f4f3ef" opacity="0.077"/><circle cx="1718.2" cy="718.6" r="1.43" fill="#f4f3ef" opacity="0.066"/><circle cx="1457.7" cy="737.6" r="1.13" fill="#f4f3ef" opacity="0.061"/><circle cx="1521.1" cy="5.5" r="1.40" fill="#f4f3ef" opacity="0.057"/><circle cx="391.5" cy="749.0" r="1.02" fill="#f4f3ef" opacity="0.061"/><circle cx="1173.9" cy="114.7" r="1.38" fill="#f4f3ef" opacity="0.022"/><circle cx="1142.6" cy="129.3" r="0.70" fill="#f4f3ef" opacity="0.048"/><circle cx="1767.0" cy="19.4" r="0.41" fill="#f4f3ef" opacity="0.060"/><circle cx="819.1" cy="51.7" r="1.27" fill="#f4f3ef" opacity="0.080"/><circle cx="1119.6" cy="693.0" r="0.42" fill="#f4f3ef" opacity="0.030"/><circle cx="1364.7" cy="329.8" r="0.52" fill="#f4f3ef" opacity="0.043"/><circle cx="1673.1" cy="188.8" r="0.33" fill="#f4f3ef" opacity="0.036"/><circle cx="812.1" cy="256.7" r="1.48" fill="#f4f3ef" opacity="0.043"/><circle cx="464.7" cy="240.2" r="0.89" fill="#f4f3ef" opacity="0.051"/><circle cx="1176.0" cy="165.8" r="0.89" fill="#f4f3ef" opacity="0.050"/><circle cx="1500.2" cy="620.4" r="0.62" fill="#f4f3ef" opacity="0.068"/><circle cx="346.8" cy="470.6" r="1.06" fill="#f4f3ef" opacity="0.064"/><circle cx="607.8" cy="702.9" r="1.09" fill="#f4f3ef" opacity="0.042"/><circle cx="623.9" cy="344.1" r="1.58" fill="#f4f3ef" opacity="0.023"/><circle cx="371.2" cy="660.9" r="0.55" fill="#f4f3ef" opacity="0.061"/><circle cx="1248.5" cy="360.0" r="0.46" fill="#f4f3ef" opacity="0.051"/><circle cx="1383.1" cy="147.9" r="1.09" fill="#f4f3ef" opacity="0.070"/><circle cx="1817.9" cy="451.3" r="0.30" fill="#f4f3ef" opacity="0.022"/><circle cx="538.1" cy="937.0" r="1.33" fill="#f4f3ef" opacity="0.058"/><circle cx="1217.8" cy="751.6" r="1.48" fill="#f4f3ef" opacity="0.067"/><circle cx="206.7" cy="561.7" r="1.24" fill="#f4f3ef" opacity="0.048"/><circle cx="1676.6" cy="994.1" r="0.44" fill="#f4f3ef" opacity="0.043"/><circle cx="1408.1" cy="715.3" r="0.88" fill="#f4f3ef" opacity="0.056"/><circle cx="657.8" cy="632.1" r="1.51" fill="#f4f3ef" opacity="0.058"/><circle cx="183.9" cy="171.1" r="1.52" fill="#f4f3ef" opacity="0.046"/><circle cx="1314.0" cy="759.0" r="0.24" fill="#f4f3ef" opacity="0.076"/><circle cx="611.0" cy="302.5" r="0.64" fill="#f4f3ef" opacity="0.033"/><circle cx="1180.2" cy="268.2" r="1.31" fill="#f4f3ef" opacity="0.047"/><circle cx="295.5" cy="522.8" r="0.47" fill="#f4f3ef" opacity="0.047"/><circle cx="1346.6" cy="292.9" r="0.96" fill="#f4f3ef" opacity="0.072"/><circle cx="185.3" cy="925.2" r="0.73" fill="#f4f3ef" opacity="0.025"/><circle cx="1552.4" cy="726.5" r="1.12" fill="#f4f3ef" opacity="0.069"/><circle cx="304.3" cy="243.3" r="0.60" fill="#f4f3ef" opacity="0.035"/><circle cx="399.3" cy="702.3" r="0.72" fill="#f4f3ef" opacity="0.021"/><circle cx="605.0" cy="1010.2" r="0.32" fill="#f4f3ef" opacity="0.062"/><circle cx="684.2" cy="873.7" r="0.51" fill="#f4f3ef" opacity="0.023"/><circle cx="1182.2" cy="319.3" r="0.82" fill="#f4f3ef" opacity="0.075"/><circle cx="653.1" cy="1013.9" r="0.39" fill="#f4f3ef" opacity="0.066"/><circle cx="1846.4" cy="744.1" r="0.21" fill="#f4f3ef" opacity="0.076"/><circle cx="1894.0" cy="496.4" r="0.55" fill="#f4f3ef" opacity="0.047"/><circle cx="1056.7" cy="377.6" r="0.89" fill="#f4f3ef" opacity="0.062"/><circle cx="1230.8" cy="574.4" r="0.63" fill="#f4f3ef" opacity="0.052"/><circle cx="1894.7" cy="873.5" r="0.85" fill="#f4f3ef" opacity="0.036"/><circle cx="1176.0" cy="901.4" r="1.33" fill="#f4f3ef" opacity="0.028"/><circle cx="117.4" cy="4.8" r="1.31" fill="#f4f3ef" opacity="0.054"/><circle cx="544.3" cy="10.5" r="1.26" fill="#f4f3ef" opacity="0.024"/><circle cx="370.7" cy="65.1" r="1.25" fill="#f4f3ef" opacity="0.066"/><circle cx="1706.3" cy="835.2" r="0.39" fill="#f4f3ef" opacity="0.060"/><circle cx="1042.8" cy="787.6" r="1.30" fill="#f4f3ef" opacity="0.049"/><circle cx="1841.0" cy="748.8" r="1.59" fill="#f4f3ef" opacity="0.035"/><circle cx="1517.3" cy="545.6" r="1.59" fill="#f4f3ef" opacity="0.050"/><circle cx="830.1" cy="684.6" r="0.52" fill="#f4f3ef" opacity="0.031"/><circle cx="1106.9" cy="432.5" r="0.48" fill="#f4f3ef" opacity="0.034"/><circle cx="830.6" cy="936.0" r="0.25" fill="#f4f3ef" opacity="0.064"/><circle cx="1186.4" cy="421.7" r="1.24" fill="#f4f3ef" opacity="0.072"/><circle cx="1368.3" cy="916.3" r="0.24" fill="#f4f3ef" opacity="0.045"/><circle cx="926.1" cy="566.4" r="1.51" fill="#f4f3ef" opacity="0.024"/><circle cx="1471.5" cy="718.7" r="1.59" fill="#f4f3ef" opacity="0.030"/><circle cx="65.3" cy="760.0" r="0.42" fill="#f4f3ef" opacity="0.047"/><circle cx="1163.8" cy="156.8" r="0.69" fill="#f4f3ef" opacity="0.027"/><circle cx="1045.5" cy="135.8" r="1.12" fill="#f4f3ef" opacity="0.066"/><circle cx="397.9" cy="683.7" r="0.55" fill="#f4f3ef" opacity="0.021"/><circle cx="903.8" cy="427.2" r="1.53" fill="#f4f3ef" opacity="0.055"/><circle cx="1188.5" cy="472.8" r="0.74" fill="#f4f3ef" opacity="0.040"/><circle cx="1726.0" cy="327.4" r="1.57" fill="#f4f3ef" opacity="0.065"/><circle cx="1426.0" cy="1017.6" r="0.76" fill="#f4f3ef" opacity="0.027"/><circle cx="1260.3" cy="289.9" r="1.41" fill="#f4f3ef" opacity="0.052"/><circle cx="1489.6" cy="411.1" r="1.59" fill="#f4f3ef" opacity="0.040"/><circle cx="170.4" cy="487.9" r="0.71" fill="#f4f3ef" opacity="0.044"/><circle cx="621.0" cy="307.0" r="1.25" fill="#f4f3ef" opacity="0.022"/><circle cx="968.8" cy="574.9" r="1.57" fill="#f4f3ef" opacity="0.047"/><circle cx="337.0" cy="638.3" r="0.93" fill="#f4f3ef" opacity="0.026"/><circle cx="550.5" cy="164.0" r="1.19" fill="#f4f3ef" opacity="0.049"/><circle cx="1443.6" cy="458.6" r="1.02" fill="#f4f3ef" opacity="0.064"/><circle cx="1285.8" cy="28.7" r="0.94" fill="#f4f3ef" opacity="0.071"/><circle cx="409.0" cy="581.1" r="0.76" fill="#f4f3ef" opacity="0.054"/><circle cx="353.9" cy="782.3" r="0.89" fill="#f4f3ef" opacity="0.073"/><circle cx="456.9" cy="459.1" r="0.27" fill="#f4f3ef" opacity="0.042"/><circle cx="1476.4" cy="118.1" r="0.91" fill="#f4f3ef" opacity="0.077"/><circle cx="899.8" cy="106.0" r="0.71" fill="#f4f3ef" opacity="0.053"/><circle cx="1050.2" cy="489.5" r="1.27" fill="#f4f3ef" opacity="0.036"/><circle cx="1192.6" cy="575.2" r="1.16" fill="#f4f3ef" opacity="0.037"/><circle cx="521.2" cy="229.8" r="1.41" fill="#f4f3ef" opacity="0.044"/><circle cx="505.7" cy="839.9" r="0.66" fill="#f4f3ef" opacity="0.035"/><circle cx="837.7" cy="512.2" r="1.05" fill="#f4f3ef" opacity="0.036"/><circle cx="498.2" cy="793.5" r="1.13" fill="#f4f3ef" opacity="0.026"/><circle cx="103.4" cy="70.3" r="0.77" fill="#f4f3ef" opacity="0.079"/><circle cx="1691.8" cy="649.3" r="1.51" fill="#f4f3ef" opacity="0.052"/><circle cx="190.8" cy="357.2" r="0.79" fill="#f4f3ef" opacity="0.039"/><circle cx="1123.3" cy="1060.7" r="1.14" fill="#f4f3ef" opacity="0.027"/><circle cx="1194.7" cy="626.3" r="0.67" fill="#f4f3ef" opacity="0.066"/><circle cx="878.9" cy="720.9" r="1.34" fill="#f4f3ef" opacity="0.063"/><circle cx="1005.5" cy="211.1" r="1.31" fill="#f4f3ef" opacity="0.039"/><circle cx="626.5" cy="83.4" r="0.87" fill="#f4f3ef" opacity="0.057"/><circle cx="2.5" cy="444.6" r="0.90" fill="#f4f3ef" opacity="0.079"/><circle cx="1029.9" cy="401.4" r="0.80" fill="#f4f3ef" opacity="0.036"/><circle cx="1267.2" cy="820.5" r="0.24" fill="#f4f3ef" opacity="0.067"/><circle cx="761.7" cy="248.4" r="0.40" fill="#f4f3ef" opacity="0.065"/><circle cx="556.5" cy="191.8" r="0.55" fill="#f4f3ef" opacity="0.058"/><circle cx="556.8" cy="317.5" r="1.11" fill="#f4f3ef" opacity="0.074"/><circle cx="596.5" cy="852.1" r="0.79" fill="#f4f3ef" opacity="0.063"/><circle cx="865.4" cy="302.2" r="1.49" fill="#f4f3ef" opacity="0.023"/><circle cx="1695.2" cy="374.6" r="0.22" fill="#f4f3ef" opacity="0.059"/><circle cx="786.8" cy="815.8" r="1.60" fill="#f4f3ef" opacity="0.052"/><circle cx="1316.4" cy="372.6" r="0.36" fill="#f4f3ef" opacity="0.033"/><circle cx="202.6" cy="631.6" r="1.30" fill="#f4f3ef" opacity="0.062"/><circle cx="692.7" cy="859.5" r="0.95" fill="#f4f3ef" opacity="0.071"/><circle cx="1269.7" cy="43.0" r="0.88" fill="#f4f3ef" opacity="0.068"/><circle cx="1198.8" cy="728.7" r="1.09" fill="#f4f3ef" opacity="0.062"/><circle cx="1594.1" cy="623.3" r="1.18" fill="#f4f3ef" opacity="0.042"/><circle cx="85.2" cy="33.4" r="1.20" fill="#f4f3ef" opacity="0.047"/><circle cx="204.0" cy="305.7" r="0.51" fill="#f4f3ef" opacity="0.041"/><circle cx="931.1" cy="827.0" r="0.43" fill="#f4f3ef" opacity="0.064"/><circle cx="962.9" cy="1063.8" r="0.85" fill="#f4f3ef" opacity="0.071"/><circle cx="418.0" cy="82.8" r="0.50" fill="#f4f3ef" opacity="0.037"/><circle cx="1903.7" cy="30.7" r="1.03" fill="#f4f3ef" opacity="0.058"/><circle cx="1342.9" cy="614.2" r="0.76" fill="#f4f3ef" opacity="0.059"/><circle cx="1200.9" cy="779.8" r="0.60" fill="#f4f3ef" opacity="0.031"/><circle cx="31.8" cy="34.4" r="1.11" fill="#f4f3ef" opacity="0.062"/><circle cx="585.1" cy="484.6" r="0.45" fill="#f4f3ef" opacity="0.051"/><circle cx="1912.7" cy="956.9" r="0.33" fill="#f4f3ef" opacity="0.062"/><circle cx="435.4" cy="478.1" r="0.20" fill="#f4f3ef" opacity="0.057"/><circle cx="1889.5" cy="314.9" r="0.88" fill="#f4f3ef" opacity="0.028"/><circle cx="1913.4" cy="254.0" r="0.63" fill="#f4f3ef" opacity="0.052"/><circle cx="554.6" cy="1001.9" r="0.64" fill="#f4f3ef" opacity="0.024"/><circle cx="776.1" cy="825.3" r="1.56" fill="#f4f3ef" opacity="0.029"/><circle cx="563.0" cy="471.0" r="1.04" fill="#f4f3ef" opacity="0.039"/><circle cx="1669.4" cy="165.6" r="0.57" fill="#f4f3ef" opacity="0.061"/><circle cx="444.9" cy="575.7" r="0.64" fill="#f4f3ef" opacity="0.035"/><circle cx="1061.4" cy="168.1" r="1.08" fill="#f4f3ef" opacity="0.064"/><circle cx="1219.7" cy="849.3" r="0.90" fill="#f4f3ef" opacity="0.030"/><circle cx="256.0" cy="286.1" r="0.44" fill="#f4f3ef" opacity="0.025"/><circle cx="848.8" cy="65.1" r="0.30" fill="#f4f3ef" opacity="0.047"/><circle cx="485.6" cy="533.0" r="1.19" fill="#f4f3ef" opacity="0.030"/><circle cx="1489.3" cy="676.5" r="0.50" fill="#f4f3ef" opacity="0.040"/><circle cx="1205.1" cy="882.2" r="1.02" fill="#f4f3ef" opacity="0.028"/><circle cx="747.0" cy="1016.8" r="0.96" fill="#f4f3ef" opacity="0.041"/><circle cx="1584.8" cy="306.9" r="0.35" fill="#f4f3ef" opacity="0.059"/><circle cx="1490.2" cy="99.2" r="1.37" fill="#f4f3ef" opacity="0.046"/><circle cx="1364.0" cy="860.5" r="1.14" fill="#f4f3ef" opacity="0.043"/><circle cx="1822.5" cy="977.3" r="0.93" fill="#f4f3ef" opacity="0.063"/><circle cx="1064.2" cy="596.3" r="0.90" fill="#f4f3ef" opacity="0.022"/><circle cx="1696.5" cy="784.2" r="1.27" fill="#f4f3ef" opacity="0.076"/><circle cx="1562.5" cy="167.7" r="0.37" fill="#f4f3ef" opacity="0.031"/><circle cx="1207.1" cy="933.3" r="0.53" fill="#f4f3ef" opacity="0.056"/><circle cx="1104.6" cy="427.9" r="0.88" fill="#f4f3ef" opacity="0.060"/><circle cx="164.6" cy="758.1" r="1.00" fill="#f4f3ef" opacity="0.063"/><circle cx="1278.9" cy="750.4" r="1.19" fill="#f4f3ef" opacity="0.068"/><circle cx="868.3" cy="511.6" r="0.91" fill="#f4f3ef" opacity="0.036"/><circle cx="829.0" cy="228.4" r="0.96" fill="#f4f3ef" opacity="0.080"/><circle cx="639.6" cy="767.5" r="1.03" fill="#f4f3ef" opacity="0.037"/><circle cx="347.5" cy="675.4" r="0.88" fill="#f4f3ef" opacity="0.042"/><circle cx="995.6" cy="378.8" r="1.18" fill="#f4f3ef" opacity="0.061"/><circle cx="569.2" cy="624.5" r="0.97" fill="#f4f3ef" opacity="0.064"/><circle cx="822.3" cy="559.1" r="0.34" fill="#f4f3ef" opacity="0.060"/><circle cx="24.5" cy="849.2" r="1.19" fill="#f4f3ef" opacity="0.047"/><circle cx="427.7" cy="1041.6" r="0.54" fill="#f4f3ef" opacity="0.069"/><circle cx="1652.6" cy="882.8" r="0.21" fill="#f4f3ef" opacity="0.069"/><circle cx="1115.5" cy="199.6" r="0.52" fill="#f4f3ef" opacity="0.077"/><circle cx="1495.0" cy="578.6" r="0.69" fill="#f4f3ef" opacity="0.032"/><circle cx="278.5" cy="206.5" r="1.43" fill="#f4f3ef" opacity="0.048"/><circle cx="1708.8" cy="230.0" r="1.52" fill="#f4f3ef" opacity="0.072"/><circle cx="1211.3" cy="1035.7" r="0.94" fill="#f4f3ef" opacity="0.053"/><circle cx="1819.9" cy="330.3" r="0.73" fill="#f4f3ef" opacity="0.039"/><circle cx="1164.3" cy="580.4" r="0.90" fill="#f4f3ef" opacity="0.071"/><circle cx="856.4" cy="972.7" r="0.83" fill="#f4f3ef" opacity="0.051"/><circle cx="1796.9" cy="894.0" r="0.44" fill="#f4f3ef" opacity="0.021"/><circle cx="762.1" cy="890.8" r="1.02" fill="#f4f3ef" opacity="0.054"/><circle cx="1710.4" cy="29.8" r="1.29" fill="#f4f3ef" opacity="0.067"/><circle cx="1489.4" cy="457.7" r="1.51" fill="#f4f3ef" opacity="0.035"/><circle cx="1782.0" cy="801.2" r="1.39" fill="#f4f3ef" opacity="0.062"/><circle cx="1213.3" cy="6.8" r="0.45" fill="#f4f3ef" opacity="0.021"/><circle cx="257.5" cy="821.4" r="0.65" fill="#f4f3ef" opacity="0.059"/><circle cx="1664.2" cy="1031.6" r="1.55" fill="#f4f3ef" opacity="0.075"/><circle cx="645.2" cy="543.9" r="0.65" fill="#f4f3ef" opacity="0.073"/><circle cx="1301.2" cy="545.1" r="0.21" fill="#f4f3ef" opacity="0.074"/><circle cx="1688.6" cy="141.9" r="1.04" fill="#f4f3ef" opacity="0.072"/><circle cx="1285.8" cy="201.0" r="1.42" fill="#f4f3ef" opacity="0.022"/><circle cx="140.4" cy="348.9" r="1.12" fill="#f4f3ef" opacity="0.061"/><circle cx="1215.2" cy="1012.3" r="0.79" fill="#f4f3ef" opacity="0.033"/><circle cx="575.4" cy="778.0" r="0.89" fill="#f4f3ef" opacity="0.030"/><circle cx="1895.2" cy="952.6" r="1.51" fill="#f4f3ef" opacity="0.058"/><circle cx="1524.0" cy="42.7" r="0.34" fill="#f4f3ef" opacity="0.059"/><circle cx="1713.9" cy="835.1" r="1.40" fill="#f4f3ef" opacity="0.075"/><circle cx="165.5" cy="916.3" r="0.91" fill="#f4f3ef" opacity="0.047"/><circle cx="55.1" cy="113.1" r="0.60" fill="#f4f3ef" opacity="0.069"/><circle cx="221.3" cy="12.1" r="1.09" fill="#f4f3ef" opacity="0.077"/><circle cx="71.4" cy="960.0" r="0.26" fill="#f4f3ef" opacity="0.067"/><circle cx="8.4" cy="863.5" r="1.13" fill="#f4f3ef" opacity="0.044"/><circle cx="1217.5" cy="109.2" r="0.87" fill="#f4f3ef" opacity="0.078"/><circle cx="972.8" cy="723.8" r="0.50" fill="#f4f3ef" opacity="0.038"/><circle cx="743.9" cy="853.9" r="1.45" fill="#f4f3ef" opacity="0.023"/><circle cx="222.6" cy="766.2" r="0.29" fill="#f4f3ef" opacity="0.056"/><circle cx="309.8" cy="927.5" r="1.15" fill="#f4f3ef" opacity="0.060"/><circle cx="1621.6" cy="804.3" r="1.10" fill="#f4f3ef" opacity="0.046"/><circle cx="436.7" cy="543.3" r="0.28" fill="#f4f3ef" opacity="0.052"/><circle cx="1282.3" cy="131.2" r="0.34" fill="#f4f3ef" opacity="0.053"/><circle cx="81.6" cy="354.7" r="1.00" fill="#f4f3ef" opacity="0.034"/><circle cx="1219.6" cy="160.3" r="0.38" fill="#f4f3ef" opacity="0.046"/><circle cx="1330.4" cy="134.9" r="0.42" fill="#f4f3ef" opacity="0.057"/><circle cx="1243.7" cy="225.1" r="0.70" fill="#f4f3ef" opacity="0.027"/><circle cx="11.4" cy="337.4" r="1.51" fill="#f4f3ef" opacity="0.078"/><circle cx="1734.1" cy="578.6" r="0.92" fill="#f4f3ef" opacity="0.053"/><circle cx="628.1" cy="55.4" r="1.13" fill="#f4f3ef" opacity="0.064"/><circle cx="12.1" cy="714.5" r="0.41" fill="#f4f3ef" opacity="0.068"/><circle cx="1853.3" cy="22.4" r="1.36" fill="#f4f3ef" opacity="0.079"/><circle cx="1434.7" cy="565.8" r="0.41" fill="#f4f3ef" opacity="0.065"/><circle cx="581.6" cy="931.5" r="0.82" fill="#f4f3ef" opacity="0.055"/><circle cx="1048.0" cy="266.1" r="1.28" fill="#f4f3ef" opacity="0.057"/><circle cx="1103.6" cy="316.2" r="0.88" fill="#f4f3ef" opacity="0.071"/><circle cx="1080.1" cy="628.6" r="0.86" fill="#f4f3ef" opacity="0.080"/><circle cx="598.4" cy="949.8" r="0.22" fill="#f4f3ef" opacity="0.026"/><circle cx="914.7" cy="26.6" r="0.69" fill="#f4f3ef" opacity="0.061"/><circle cx="867.5" cy="525.6" r="1.48" fill="#f4f3ef" opacity="0.063"/><circle cx="1784.2" cy="633.5" r="0.50" fill="#f4f3ef" opacity="0.026"/><circle cx="227.9" cy="417.0" r="0.75" fill="#f4f3ef" opacity="0.076"/><circle cx="1223.7" cy="262.7" r="0.80" fill="#f4f3ef" opacity="0.043"/><circle cx="125.7" cy="37.3" r="0.27" fill="#f4f3ef" opacity="0.036"/><circle cx="323.4" cy="47.4" r="0.60" fill="#f4f3ef" opacity="0.035"/><circle cx="1508.9" cy="559.7" r="1.15" fill="#f4f3ef" opacity="0.062"/><circle cx="742.7" cy="961.0" r="0.45" fill="#f4f3ef" opacity="0.039"/><circle cx="561.2" cy="717.8" r="1.18" fill="#f4f3ef" opacity="0.038"/><circle cx="1082.9" cy="1056.8" r="0.68" fill="#f4f3ef" opacity="0.038"/><circle cx="1075.2" cy="884.7" r="0.58" fill="#f4f3ef" opacity="0.072"/><circle cx="301.1" cy="988.2" r="0.62" fill="#f4f3ef" opacity="0.066"/><circle cx="1225.8" cy="313.8" r="0.31" fill="#f4f3ef" opacity="0.072"/><circle cx="483.3" cy="528.4" r="1.59" fill="#f4f3ef" opacity="0.056"/><circle cx="823.3" cy="498.6" r="1.25" fill="#f4f3ef" opacity="0.039"/><circle cx="1297.6" cy="130.9" r="0.97" fill="#f4f3ef" opacity="0.023"/><circle cx="247.0" cy="612.1" r="0.22" fill="#f4f3ef" opacity="0.031"/><circle cx="1487.7" cy="1048.9" r="1.21" fill="#f4f3ef" opacity="0.056"/><circle cx="658.3" cy="148.0" r="0.81" fill="#f4f3ef" opacity="0.053"/><circle cx="1646.2" cy="775.9" r="1.59" fill="#f4f3ef" opacity="0.038"/><circle cx="1654.3" cy="119.3" r="1.42" fill="#f4f3ef" opacity="0.037"/><circle cx="587.9" cy="5.0" r="0.75" fill="#f4f3ef" opacity="0.080"/><circle cx="200.9" cy="659.6" r="1.05" fill="#f4f3ef" opacity="0.055"/><circle cx="683.1" cy="589.7" r="1.43" fill="#f4f3ef" opacity="0.023"/><circle cx="446.3" cy="422.1" r="0.32" fill="#f4f3ef" opacity="0.025"/><circle cx="1031.3" cy="983.3" r="0.92" fill="#f4f3ef" opacity="0.064"/><circle cx="1774.2" cy="1020.1" r="0.77" fill="#f4f3ef" opacity="0.053"/><circle cx="1513.7" cy="1039.1" r="0.47" fill="#f4f3ef" opacity="0.048"/><circle cx="1577.1" cy="307.0" r="0.74" fill="#f4f3ef" opacity="0.044"/><circle cx="447.5" cy="1050.5" r="0.36" fill="#f4f3ef" opacity="0.047"/><circle cx="1229.9" cy="416.2" r="0.72" fill="#f4f3ef" opacity="0.068"/><circle cx="1198.6" cy="430.8" r="1.44" fill="#f4f3ef" opacity="0.035"/><circle cx="1823.0" cy="320.9" r="1.15" fill="#f4f3ef" opacity="0.047"/><circle cx="875.1" cy="353.2" r="0.61" fill="#f4f3ef" opacity="0.067"/><circle cx="1175.6" cy="994.5" r="1.16" fill="#f4f3ef" opacity="0.077"/><circle cx="1420.7" cy="631.3" r="1.26" fill="#f4f3ef" opacity="0.030"/><circle cx="1729.1" cy="490.3" r="1.07" fill="#f4f3ef" opacity="0.023"/><circle cx="868.1" cy="558.2" r="0.82" fill="#f4f3ef" opacity="0.030"/><circle cx="520.7" cy="541.7" r="0.23" fill="#f4f3ef" opacity="0.038"/><circle cx="1232.0" cy="467.3" r="0.23" fill="#f4f3ef" opacity="0.037"/><circle cx="1556.2" cy="921.9" r="1.36" fill="#f4f3ef" opacity="0.054"/><circle cx="402.8" cy="772.1" r="0.40" fill="#f4f3ef" opacity="0.050"/><circle cx="663.8" cy="1004.4" r="0.43" fill="#f4f3ef" opacity="0.028"/><circle cx="679.9" cy="645.6" r="0.92" fill="#f4f3ef" opacity="0.070"/><circle cx="427.2" cy="962.4" r="1.29" fill="#f4f3ef" opacity="0.047"/><circle cx="1304.5" cy="661.5" r="1.20" fill="#f4f3ef" opacity="0.038"/><circle cx="1439.1" cy="449.4" r="0.43" fill="#f4f3ef" opacity="0.056"/><circle cx="1873.9" cy="752.8" r="1.04" fill="#f4f3ef" opacity="0.069"/><circle cx="594.1" cy="158.5" r="0.67" fill="#f4f3ef" opacity="0.045"/><circle cx="1273.8" cy="1053.1" r="0.82" fill="#f4f3ef" opacity="0.054"/><circle cx="262.7" cy="863.2" r="0.58" fill="#f4f3ef" opacity="0.034"/><circle cx="1732.6" cy="215.6" r="1.18" fill="#f4f3ef" opacity="0.030"/><circle cx="1464.1" cy="1016.8" r="0.23" fill="#f4f3ef" opacity="0.043"/><circle cx="713.8" cy="933.6" r="0.85" fill="#f4f3ef" opacity="0.045"/><circle cx="239.9" cy="472.6" r="0.87" fill="#f4f3ef" opacity="0.033"/><circle cx="1370.0" cy="1060.5" r="0.98" fill="#f4f3ef" opacity="0.063"/><circle cx="667.0" cy="604.0" r="1.38" fill="#f4f3ef" opacity="0.079"/><circle cx="1236.2" cy="569.7" r="0.65" fill="#f4f3ef" opacity="0.034"/><circle cx="351.5" cy="824.3" r="1.21" fill="#f4f3ef" opacity="0.034"/><circle cx="1402.6" cy="594.4" r="0.30" fill="#f4f3ef" opacity="0.058"/><circle cx="241.3" cy="146.7" r="1.47" fill="#f4f3ef" opacity="0.072"/><circle cx="1608.4" cy="1028.0" r="0.46" fill="#f4f3ef" opacity="0.056"/><circle cx="360.3" cy="544.8" r="1.34" fill="#f4f3ef" opacity="0.022"/><circle cx="455.3" cy="1003.8" r="1.46" fill="#f4f3ef" opacity="0.068"/><circle cx="661.0" cy="231.7" r="1.06" fill="#f4f3ef" opacity="0.049"/><circle cx="740.2" cy="95.2" r="1.25" fill="#f4f3ef" opacity="0.070"/><circle cx="1238.2" cy="620.8" r="1.56" fill="#f4f3ef" opacity="0.062"/><circle cx="709.1" cy="235.4" r="1.14" fill="#f4f3ef" opacity="0.053"/><circle cx="1902.4" cy="1045.6" r="0.95" fill="#f4f3ef" opacity="0.062"/><circle cx="30.0" cy="797.9" r="1.29" fill="#f4f3ef" opacity="0.034"/><circle cx="1112.7" cy="679.1" r="0.23" fill="#f4f3ef" opacity="0.048"/><circle cx="1286.8" cy="875.9" r="1.37" fill="#f4f3ef" opacity="0.039"/><circle cx="30.7" cy="95.0" r="1.59" fill="#f4f3ef" opacity="0.023"/><circle cx="1232.0" cy="122.9" r="0.67" fill="#f4f3ef" opacity="0.075"/><circle cx="173.4" cy="306.3" r="0.66" fill="#f4f3ef" opacity="0.041"/><circle cx="600.3" cy="312.0" r="0.60" fill="#f4f3ef" opacity="0.070"/><circle cx="426.7" cy="366.6" r="0.59" fill="#f4f3ef" opacity="0.053"/><circle cx="1762.3" cy="56.7" r="1.13" fill="#f4f3ef" opacity="0.046"/><circle cx="1098.8" cy="9.1" r="0.64" fill="#f4f3ef" opacity="0.035"/><circle cx="1897.0" cy="1050.3" r="0.93" fill="#f4f3ef" opacity="0.021"/><circle cx="1573.3" cy="847.1" r="0.93" fill="#f4f3ef" opacity="0.037"/><circle cx="886.1" cy="986.1" r="1.26" fill="#f4f3ef" opacity="0.078"/><circle cx="1162.9" cy="734.0" r="1.22" fill="#f4f3ef" opacity="0.021"/><circle cx="886.6" cy="157.5" r="0.99" fill="#f4f3ef" opacity="0.051"/><circle cx="1242.4" cy="723.2" r="0.58" fill="#f4f3ef" opacity="0.059"/><circle cx="1424.3" cy="137.8" r="0.98" fill="#f4f3ef" opacity="0.032"/><circle cx="982.1" cy="867.9" r="0.85" fill="#f4f3ef" opacity="0.070"/><circle cx="1527.5" cy="1020.2" r="0.93" fill="#f4f3ef" opacity="0.077"/><circle cx="121.3" cy="1061.5" r="1.16" fill="#f4f3ef" opacity="0.034"/><circle cx="1219.8" cy="458.3" r="1.43" fill="#f4f3ef" opacity="0.074"/><circle cx="1101.5" cy="437.3" r="0.46" fill="#f4f3ef" opacity="0.053"/><circle cx="453.9" cy="985.2" r="1.30" fill="#f4f3ef" opacity="0.067"/><circle cx="959.8" cy="728.7" r="0.87" fill="#f4f3ef" opacity="0.042"/><circle cx="1244.5" cy="774.3" r="1.49" fill="#f4f3ef" opacity="0.027"/><circle cx="1782.0" cy="628.9" r="0.91" fill="#f4f3ef" opacity="0.052"/><circle cx="1482.0" cy="239.1" r="1.50" fill="#f4f3ef" opacity="0.074"/><circle cx="1316.3" cy="591.4" r="0.75" fill="#f4f3ef" opacity="0.039"/><circle cx="1545.6" cy="712.6" r="0.93" fill="#f4f3ef" opacity="0.027"/><circle cx="226.4" cy="789.4" r="1.45" fill="#f4f3ef" opacity="0.031"/><circle cx="677.0" cy="608.5" r="0.59" fill="#f4f3ef" opacity="0.068"/><circle cx="1024.8" cy="876.4" r="0.91" fill="#f4f3ef" opacity="0.033"/><circle cx="393.0" cy="939.8" r="0.27" fill="#f4f3ef" opacity="0.072"/><circle cx="606.5" cy="465.5" r="0.53" fill="#f4f3ef" opacity="0.036"/><circle cx="1499.6" cy="760.1" r="0.36" fill="#f4f3ef" opacity="0.051"/><circle cx="1341.8" cy="330.2" r="0.28" fill="#f4f3ef" opacity="0.058"/><circle cx="465.0" cy="882.6" r="1.50" fill="#f4f3ef" opacity="0.041"/><circle cx="409.9" cy="3.8" r="0.23" fill="#f4f3ef" opacity="0.060"/><circle cx="512.9" cy="760.6" r="1.02" fill="#f4f3ef" opacity="0.028"/><circle cx="1532.4" cy="419.6" r="0.25" fill="#f4f3ef" opacity="0.063"/><circle cx="955.8" cy="407.5" r="1.45" fill="#f4f3ef" opacity="0.040"/><circle cx="1106.2" cy="791.0" r="0.61" fill="#f4f3ef" opacity="0.023"/><circle cx="1248.6" cy="876.7" r="0.50" fill="#f4f3ef" opacity="0.024"/><circle cx="577.2" cy="531.3" r="0.75" fill="#f4f3ef" opacity="0.031"/><circle cx="561.7" cy="61.4" r="1.40" fill="#f4f3ef" opacity="0.022"/><circle cx="893.7" cy="813.7" r="0.39" fill="#f4f3ef" opacity="0.022"/><circle cx="554.2" cy="15.0" r="0.47" fill="#f4f3ef" opacity="0.073"/><circle cx="159.4" cy="371.8" r="1.51" fill="#f4f3ef" opacity="0.066"/><circle cx="1747.8" cy="950.8" r="0.85" fill="#f4f3ef" opacity="0.038"/><circle cx="246.8" cy="658.7" r="1.53" fill="#f4f3ef" opacity="0.026"/><circle cx="1179.3" cy="282.2" r="0.48" fill="#f4f3ef" opacity="0.074"/><circle cx="1250.7" cy="927.8" r="1.41" fill="#f4f3ef" opacity="0.052"/><circle cx="934.9" cy="1022.4" r="0.68" fill="#f4f3ef" opacity="0.050"/><circle cx="1061.5" cy="512.6" r="0.65" fill="#f4f3ef" opacity="0.026"/><circle cx="682.5" cy="384.9" r="0.21" fill="#f4f3ef" opacity="0.044"/><circle cx="58.5" cy="746.1" r="0.24" fill="#f4f3ef" opacity="0.065"/><circle cx="1085.9" cy="702.9" r="1.54" fill="#f4f3ef" opacity="0.023"/><circle cx="1323.2" cy="42.0" r="0.98" fill="#f4f3ef" opacity="0.054"/><circle cx="817.7" cy="549.9" r="1.15" fill="#f4f3ef" opacity="0.052"/><circle cx="612.5" cy="493.3" r="1.29" fill="#f4f3ef" opacity="0.044"/><circle cx="612.8" cy="619.0" r="0.45" fill="#f4f3ef" opacity="0.061"/><circle cx="652.5" cy="73.6" r="1.54" fill="#f4f3ef" opacity="0.050"/><circle cx="921.4" cy="603.7" r="0.83" fill="#f4f3ef" opacity="0.070"/><circle cx="1751.2" cy="676.1" r="0.96" fill="#f4f3ef" opacity="0.046"/><circle cx="842.8" cy="37.3" r="0.94" fill="#f4f3ef" opacity="0.038"/><circle cx="1372.4" cy="674.1" r="1.10" fill="#f4f3ef" opacity="0.020"/>
  <rect width="1920" height="1080" fill="url(#l29)"/>
  
  <text x="96" y="993.6" font-family="Helvetica, Arial, sans-serif" font-size="34.559999999999995" letter-spacing="4" fill="#f4f3ef" fill-opacity="0.72">GLASSHOUSE</text>
  <text x="96" y="1036.8" font-family="Helvetica, Arial, sans-serif" font-size="21.119999999999997" letter-spacing="2" fill="#f4f3ef" fill-opacity="0.38">SCREENSHOT 02</text>
</svg>