<?xml version="1.0" encoding="UTF-8"?>
<svg xmlns="http://www.w3.org/2000/svg" width="1920" height="1080" viewBox="0 0 1920 1080">
  <defs>
    <linearGradient id="g40" x1="0%" y1="0%" x2="100%" y2="100%">
      <stop offset="0%" stop-color="#181414"/>
      <stop offset="100%" stop-color="#33201c"/>
    </linearGradient>
    <linearGradient id="l40" x1="0%" y1="0%" x2="0%" y2="100%">
      <stop offset="0%" stop-color="#000" stop-opacity="0"/>
      <stop offset="100%" stop-color="#000" stop-opacity="0.55"/>
    </linearGradient>
  </defs>
  <rect width="1920" height="1080" fill="url(#g40)"/>
  <circle cx="1547.8" cy="157.5" r="0.72" fill="#f4f3ef" opacity="0.040"/><circle cx="1285.3" cy="642.0" r="0.95" fill="#f4f3ef" opacity="0.040"/><circle cx="185.3" cy="882.2" r="0.96" fill="#f4f3ef" opacity="0.037"/><circle cx="1139.6" cy="784.5" r="1.03" fill="#f4f3ef" opacity="0.037"/><circle cx="569.0" cy="455.8" r="0.63" fill="#f4f3ef" opacity="0.060"/><circle cx="369.7" cy="82.6" r="0.57" fill="#f4f3ef" opacity="0.039"/><circle cx="20.3" cy="531.6" r="0.52" fill="#f4f3ef" opacity="0.052"/><circle cx="1488.2" cy="349.5" r="0.25" fill="#f4f3ef" opacity="0.052"/><circle cx="56.3" cy="1043.0" r="0.43" fill="#f4f3ef" opacity="0.066"/><circle cx="1389.9" cy="118.6" r="1.51" fill="#f4f3ef" opacity="0.064"/><circle cx="1482.9" cy="1043.2" r="0.76" fill="#f4f3ef" opacity="0.054"/><circle cx="525.1" cy="163.3" r="1.49" fill="#f4f3ef" opacity="0.036"/><circle cx="768.3" cy="265.7" r="0.73" fill="#f4f3ef" opacity="0.054"/><circle cx="1833.3" cy="16.9" r="0.28" fill="#f4f3ef" opacity="0.048"/><circle cx="1136.2" cy="323.7" r="0.48" fill="#f4f3ef" opacity="0.052"/><circle cx="1355.7" cy="612.8" r="0.53" fill="#f4f3ef" opacity="0.062"/><circle cx="1899.1" cy="150.7" r="1.15" fill="#f4f3ef" opacity="0.073"/><circle cx="1249.5" cy="84.1" r="1.12" fill="#f4f3ef" opacity="0.031"/><circle cx="591.9" cy="799.8" r="0.43" fill="#f4f3ef" opacity="0.067"/><circle cx="1040.6" cy="4.4" r="1.50" fill="#f4f3ef" opacity="0.049"/><circle cx="225.0" cy="164.5" r="1.56" fill="#f4f3ef" opacity="0.075"/><circle cx="1677.1" cy="466.9" r="1.37" fill="#f4f3ef" opacity="0.051"/><circle cx="537.6" cy="298.1" r="0.87" fill="#f4f3ef" opacity="0.076"/><circle cx="1262.7" cy="204.9" r="1.32" fill="#f4f3ef" opacity="0.044"/><circle cx="131.1" cy="333.9" r="1.48" fill="#f4f3ef" opacity="0.052"/><circle cx="1670.1" cy="671.8" r="1.58" fill="#f4f3ef" opacity="0.074"/><circle cx="1802.7" cy="925.3" r="1.34" fill="#f4f3ef" opacity="0.037"/><circle cx="1074.0" cy="41.0" r="0.29" fill="#f4f3ef" opacity="0.051"/><circle cx="1878.2" cy="765.5" r="0.37" fill="#f4f3ef" opacity="0.023"/><circle cx="1204.8" cy="885.7" r="1.16" fill="#f4f3ef" opacity="0.034"/><circle cx="25.8" cy="308.0" r="1.54" fill="#f4f3ef" opacity="0.027"/><circle cx="521.9" cy="219.3" r="0.98" fill="#f4f3ef" opacity="0.024"/><circle cx="749.2" cy="806.1" r="0.30" fill="#f4f3ef" opacity="0.076"/><circle cx="186.5" cy="775.1" r="0.56" fill="#f4f3ef" opacity="0.022"/><circle cx="801.1" cy="833.0" r="1.54" fill="#f4f3ef" opacity="0.055"/><circle cx="1715.9" cy="326.5" r="1.10" fill="#f4f3ef" opacity="0.022"/><circle cx="916.1" cy="2.1" r="1.08" fill="#f4f3ef" opacity="0.074"/><circle cx="155.8" cy="86.7" r="1.58" fill="#f4f3ef" opacity="0.038"/><circle cx="1544.7" cy="166.8" r="0.29" fill="#f4f3ef" opacity="0.033"/><circle cx="1574.6" cy="869.2" r="1.24" fill="#f4f3ef" opacity="0.044"/><circle cx="1786.1" cy="860.4" r="0.64" fill="#f4f3ef" opacity="0.072"/><circle cx="1515.8" cy="1047.2" r="0.21" fill="#f4f3ef" opacity="0.028"/><circle cx="1521.9" cy="856.3" r="0.58" fill="#f4f3ef" opacity="0.032"/><circle cx="1212.0" cy="634.2" r="1.04" fill="#f4f3ef" opacity="0.076"/><circle cx="989.0" cy="447.6" r="0.39" fill="#f4f3ef" opacity="0.048"/><circle cx="118.2" cy="683.3" r="1.41" fill="#f4f3ef" opacity="0.077"/><circle cx="1633.5" cy="127.9" r="0.92" fill="#f4f3ef" opacity="0.032"/><circle cx="1244.6" cy="168.0" r="0.36" fill="#f4f3ef" opacity="0.072"/><circle cx="563.3" cy="1070.4" r="0.48" fill="#f4f3ef" opacity="0.041"/><circle cx="490.4" cy="61.6" r="1.22" fill="#f4f3ef" opacity="0.039"/><circle cx="1642.3" cy="928.4" r="1.05" fill="#f4f3ef" opacity="0.021"/><circle cx="297.3" cy="577.4" r="1.52" fill="#f4f3ef" opacity="0.022"/><circle cx="983.0" cy="75.3" r="1.47" fill="#f4f3ef" opacity="0.078"/><circle cx="1542.2" cy="208.8" r="0.61" fill="#f4f3ef" opacity="0.054"/><circle cx="600.2" cy="1004.5" r="1.27" fill="#f4f3ef" opacity="0.061"/><circle cx="551.1" cy="889.0" r="1.20" fill="#f4f3ef" opacity="0.067"/><circle cx="304.4" cy="889.2" r="1.36" fill="#f4f3ef" opacity="0.031"/><circle cx="832.0" cy="911.5" r="0.65" fill="#f4f3ef" opacity="0.077"/><circle cx="474.7" cy="1062.8" r="1.34" fill="#f4f3ef" opacity="0.047"/><circle cx="1128.8" cy="449.6" r="1.43" fill="#f4f3ef" opacity="0.053"/><circle cx="352.7" cy="1018.6" r="0.60" fill="#f4f3ef" opacity="0.052"/><circle cx="114.0" cy="236.5" r="1.43" fill="#f4f3ef" opacity="0.059"/><circle cx="1455.4" cy="690.0" r="0.37" fill="#f4f3ef" opacity="0.039"/><circle cx="442.3" cy="965.6" r="0.66" fill="#f4f3ef" opacity="0.024"/><circle cx="748.7" cy="210.2" r="1.00" fill="#f4f3ef" opacity="0.021"/><circle cx="644.3" cy="170.3" r="0.49" fill="#f4f3ef" opacity="0.030"/><circle cx="460.8" cy="392.7" r="0.35" fill="#f4f3ef" opacity="0.034"/><circle cx="1739.0" cy="623.9" r="0.99" fill="#f4f3ef" opacity="0.035"/><circle cx="1895.3" cy="690.7" r="1.34" fill="#f4f3ef" opacity="0.065"/><circle cx="1688.1" cy="19.8" r="0.62" fill="#f4f3ef" opacity="0.062"/><circle cx="524.9" cy="37.7" r="0.93" fill="#f4f3ef" opacity="0.080"/><circle cx="728.6" cy="811.1" r="1.05" fill="#f4f3ef" opacity="0.065"/><circle cx="1564.4" cy="566.8" r="0.99" fill="#f4f3ef" opacity="0.028"/><circle cx="306.3" cy="251.4" r="0.34" fill="#f4f3ef" opacity="0.076"/><circle cx="344.1" cy="171.5" r="0.56" fill="#f4f3ef" opacity="0.069"/><circle cx="1369.5" cy="593.9" r="0.99" fill="#f4f3ef" opacity="0.031"/><circle cx="443.3" cy="905.1" r="1.57" fill="#f4f3ef" opacity="0.063"/><circle cx="101.8" cy="571.9" r="0.79" fill="#f4f3ef" opacity="0.058"/><circle cx="463.5" cy="820.9" r="1.57" fill="#f4f3ef" opacity="0.052"/><circle cx="295.9" cy="558.8" r="1.35" fill="#f4f3ef" opacity="0.021"/><circle cx="1281.8" cy="572.3" r="1.28" fill="#f4f3ef" opacity="0.071"/><circle cx="126.5" cy="888.0" r="0.85" fill="#f4f3ef" opacity="0.071"/><circle cx="1144.0" cy="1012.5" r="0.62" fill="#f4f3ef" opacity="0.050"/><circle cx="1324.0" cy="892.7" r="1.56" fill="#f4f3ef" opacity="0.028"/><circle cx="1638.3" cy="435.0" r="1.16" fill="#f4f3ef" opacity="0.068"/><circle cx="427.6" cy="826.3" r="0.29" fill="#f4f3ef" opacity="0.071"/><circle cx="1508.4" cy="93.1" r="1.16" fill="#f4f3ef" opacity="0.030"/><circle cx="519.0" cy="182.1" r="0.65" fill="#f4f3ef" opacity="0.022"/><circle cx="1346.8" cy="720.0" r="1.32" fill="#f4f3ef" opacity="0.062"/><circle cx="1195.0" cy="1053.5" r="1.03" fill="#f4f3ef" opacity="0.056"/><circle cx="1888.5" cy="849.1" r="0.24" fill="#f4f3ef" opacity="0.034"/><circle cx="1341.6" cy="333.7" r="0.42" fill="#f4f3ef" opacity="0.065"/><circle cx="1663.8" cy="173.8" r="0.69" fill="#f4f3ef" opacity="0.027"/><circle cx="1267.0" cy="996.2" r="0.86" fill="#f4f3ef" opacity="0.024"/><circle cx="1691.9" cy="387.4" r="1.34" fill="#f4f3ef" opacity="0.059"/><circle cx="354.9" cy="334.2" r="1.08" fill="#f4f3ef" opacity="0.042"/><circle cx="1854.4" cy="263.3" r="0.66" fill="#f4f3ef" opacity="0.032"/><circle cx="1757.8" cy="521.2" r="0.81" fill="#f4f3ef" opacity="0.023"/><circle cx="468.2" cy="94.6" r="0.32" fill="#f4f3ef" opacity="0.022"/><circle cx="1090.6" cy="450.3" r="0.56" fill="#f4f3ef" opacity="0.038"/><circle cx="899.2" cy="374.9" r="1.16" fill="#f4f3ef" opacity="0.059"/><circle cx="1363.7" cy="175.0" r="0.76" fill="#f4f3ef" opacity="0.066"/><circle cx="255.7" cy="117.4" r="1.50" fill="#f4f3ef" opacity="0.021"/><circle cx="396.2" cy="668.6" r="0.53" fill="#f4f3ef" opacity="0.026"/><circle cx="481.4" cy="215.4" r="0.52" fill="#f4f3ef" opacity="0.034"/><circle cx="629.8" cy="1064.4" r="0.21" fill="#f4f3ef" opacity="0.022"/><circle cx="1528.8" cy="1042.3" r="1.24" fill="#f4f3ef" opacity="0.025"/><circle cx="1021.3" cy="935.8" r="0.54" fill="#f4f3ef" opacity="0.027"/><circle cx="1572.7" cy="771.5" r="0.42" fill="#f4f3ef" opacity="0.021"/><circle cx="1736.9" cy="56.0" r="1.44" fill="#f4f3ef" opacity="0.034"/><circle cx="423.5" cy="896.2" r="0.36" fill="#f4f3ef" opacity="0.025"/><circle cx="524.5" cy="1038.5" r="0.27" fill="#f4f3ef" opacity="0.058"/><circle cx="380.5" cy="589.8" r="0.65" fill="#f4f3ef" opacity="0.034"/><circle cx="1887.9" cy="816.6" r="0.90" fill="#f4f3ef" opacity="0.067"/><circle cx="685.2" cy="425.6" r="0.69" fill="#f4f3ef" opacity="0.052"/><circle cx="659.7" cy="123.5" r="1.21" fill="#f4f3ef" opacity="0.066"/><circle cx="934.5" cy="337.0" r="0.30" fill="#f4f3ef" opacity="0.073"/><circle cx="1414.8" cy="732.6" r="1.21" fill="#f4f3ef" opacity="0.045"/><circle cx="14.5" cy="457.2" r="1.24" fill="#f4f3ef" opacity="0.048"/><circle cx="763.4" cy="177.3" r="0.89" fill="#f4f3ef" opacity="0.024"/><circle cx="153.2" cy="519.7" r="1.37" fill="#f4f3ef" opacity="0.075"/><circle cx="1644.8" cy="150.9" r="0.30" fill="#f4f3ef" opacity="0.022"/><circle cx="734.4" cy="1057.7" r="0.81" fill="#f4f3ef" opacity="0.079"/><circle cx="100.6" cy="506.8" r="0.71" fill="#f4f3ef" opacity="0.062"/><circle cx="1070.7" cy="1004.7" r="0.70" fill="#f4f3ef" opacity="0.027"/><circle cx="207.7" cy="458.1" r="0.99" fill="#f4f3ef" opacity="0.039"/><circle cx="616.8" cy="333.8" r="1.54" fill="#f4f3ef" opacity="0.048"/><circle cx="1492.1" cy="498.4" r="0.59" fill="#f4f3ef" opacity="0.043"/><circle cx="463.2" cy="178.5" r="0.96" fill="#f4f3ef" opacity="0.063"/><circle cx="1062.0" cy="720.9" r="0.61" fill="#f4f3ef" opacity="0.071"/><circle cx="349.1" cy="432.1" r="0.88" fill="#f4f3ef" opacity="0.050"/><circle cx="860.9" cy="938.9" r="0.25" fill="#f4f3ef" opacity="0.071"/><circle cx="796.0" cy="227.9" r="0.25" fill="#f4f3ef" opacity="0.052"/><circle cx="841.7" cy="445.8" r="1.13" fill="#f4f3ef" opacity="0.028"/><circle cx="760.9" cy="219.3" r="1.21" fill="#f4f3ef" opacity="0.044"/><circle cx="1098.9" cy="655.0" r="1.40" fill="#f4f3ef" opacity="0.031"/><circle cx="409.8" cy="179.5" r="0.86" fill="#f4f3ef" opacity="0.077"/><circle cx="1443.1" cy="899.7" r="0.56" fill="#f4f3ef" opacity="0.022"/><circle cx="1330.7" cy="562.0" r="0.78" fill="#f4f3ef" opacity="0.048"/><circle cx="333.4" cy="353.3" r="1.00" fill="#f4f3ef" opacity="0.058"/><circle cx="347.5" cy="460.1" r="0.63" fill="#f4f3ef" opacity="0.044"/><circle cx="851.4" cy="669.1" r="0.73" fill="#f4f3ef" opacity="0.023"/><circle cx="1892.6" cy="607.0" r="1.09" fill="#f4f3ef" opacity="0.069"/><circle cx="674.1" cy="700.5" r="0.96" fill="#f4f3ef" opacity="0.030"/><circle cx="941.0" cy="616.1" r="0.79" fill="#f4f3ef" opacity="0.055"/><circle cx="607.4" cy="580.7" r="0.67" fill="#f4f3ef" opacity="0.032"/><circle cx="1782.9" cy="180.8" r="1.09" fill="#f4f3ef" opacity="0.021"/><circle cx="959.4" cy="43.2" r="0.48" fill="#f4f3ef" opacity="0.065"/><circle cx="1597.7" cy="994.4" r="0.65" fill="#f4f3ef" opacity="0.046"/><circle cx="1114.0" cy="701.2" r="0.54" fill="#f4f3ef" opacity="0.056"/><circle cx="266.8" cy="750.3" r="0.75" fill="#f4f3ef" opacity="0.033"/><circle cx="383.6" cy="408.2" r="0.59" fill="#f4f3ef" opacity="0.030"/><circle cx="1867.3" cy="821.6" r="0.25" fill="#f4f3ef" opacity="0.056"/><circle cx="143.1" cy="217.3" r="1.12" fill="#f4f3ef" opacity="0.058"/><circle cx="165.0" cy="621.9" r="1.41" fill="#f4f3ef" opacity="0.026"/><circle cx="1482.8" cy="182.0" r="1.15" fill="#f4f3ef" opacity="0.060"/><circle cx="1868.2" cy="244.4" r="1.12" fill="#f4f3ef" opacity="0.062"/><circle cx="302.0" cy="195.6" r="1.24" fill="#f4f3ef" opacity="0.073"/><circle cx="1240.5" cy="582.4" r="1.38" fill="#f4f3ef" opacity="0.048"/><circle cx="962.2" cy="471.4" r="0.30" fill="#f4f3ef" opacity="0.023"/><circle cx="154.5" cy="929.3" r="1.02" fill="#f4f3ef" opacity="0.032"/><circle cx="500.5" cy="582.8" r="0.47" fill="#f4f3ef" opacity="0.061"/><circle cx="625.1" cy="538.5" r="0.98" fill="#f4f3ef" opacity="0.042"/><circle cx="1002.6" cy="303.0" r="0.28" fill="#f4f3ef" opacity="0.061"/><circle cx="542.6" cy="903.2" r="0.75" fill="#f4f3ef" opacity="0.079"/><circle cx="216.9" cy="85.5" r="1.29" fill="#f4f3ef" opacity="0.038"/><circle cx="286.3" cy="116.8" r="1.36" fill="#f4f3ef" opacity="0.021"/><circle cx="727.0" cy="103.6" r="0.36" fill="#f4f3ef" opacity="0.020"/><circle cx="1017.6" cy="912.6" r="0.78" fill="#f4f3ef" opacity="0.053"/><circle cx="1205.5" cy="10.5" r="0.98" fill="#f4f3ef" opacity="0.073"/><circle cx="413.6" cy="1064.0" r="0.23" fill="#f4f3ef" opacity="0.047"/><circle cx="467.2" cy="499.6" r="0.37" fill="#f4f3ef" opacity="0.065"/><circle cx="1200.3" cy="704.2" r="1.49" fill="#f4f3ef" opacity="0.075"/><circle cx="882.5" cy="184.3" r="1.29" fill="#f4f3ef" opacity="0.078"/><circle cx="1765.7" cy="646.7" r="0.99" fill="#f4f3ef" opacity="0.055"/><circle cx="1550.6" cy="757.9" r="1.01" fill="#f4f3ef" opacity="0.069"/><circle cx="1493.5" cy="344.7" r="0.27" fill="#f4f3ef" opacity="0.033"/><circle cx="433.0" cy="993.8" r="0.79" fill="#f4f3ef" opacity="0.063"/><circle cx="1616.5" cy="891.7" r="0.48" fill="#f4f3ef" opacity="0.034"/><circle cx="1606.8" cy="105.1" r="0.92" fill="#f4f3ef" opacity="0.072"/><circle cx="1589.3" cy="100.8" r="0.69" fill="#f4f3ef" opacity="0.068"/><circle cx="757.9" cy="745.4" r="0.83" fill="#f4f3ef" opacity="0.070"/><circle cx="582.3" cy="185.5" r="1.35" fill="#f4f3ef" opacity="0.057"/><circle cx="754.4" cy="847.9" r="0.23" fill="#f4f3ef" opacity="0.052"/><circle cx="254.9" cy="1039.1" r="1.59" fill="#f4f3ef" opacity="0.037"/><circle cx="1620.1" cy="225.9" r="1.12" fill="#f4f3ef" opacity="0.025"/><circle cx="1128.4" cy="714.9" r="0.34" fill="#f4f3ef" opacity="0.053"/><circle cx="1387.4" cy="332.8" r="0.91" fill="#f4f3ef" opacity="0.035"/><circle cx="240.0" cy="946.3" r="1.14" fill="#f4f3ef" opacity="0.078"/><circle cx="151.3" cy="422.0" r="0.55" fill="#f4f3ef" opacity="0.052"/><circle cx="1595.5" cy="426.5" r="1.10" fill="#f4f3ef" opacity="0.044"/><circle cx="1562.2" cy="906.7" r="0.95" fill="#f4f3ef" opacity="0.075"/><circle cx="1023.2" cy="689.0" r="0.40" fill="#f4f3ef" opacity="0.028"/><circle cx="239.2" cy="960.3" r="0.31" fill="#f4f3ef" opacity="0.045"/><circle cx="1106.6" cy="827.1" r="1.49" fill="#f4f3ef" opacity="0.057"/><circle cx="1183.8" cy="76.1" r="0.82" fill="#f4f3ef" opacity="0.023"/><circle cx="518.4" cy="494.0" r="0.87" fill="#f4f3ef" opacity="0.076"/><circle cx="153.2" cy="347.5" r="0.89" fill="#f4f3ef" opacity="0.064"/><circle cx="1913.4" cy="383.1" r="1.34" fill="#f4f3ef" opacity="0.075"/><circle cx="1793.2" cy="827.7" r="0.91" fill="#f4f3ef" opacity="0.059"/><circle cx="1902.0" cy="187.8" r="1.49" fill="#f4f3ef" opacity="0.074"/><circle cx="651.9" cy="170.2" r="1.51" fill="#f4f3ef" opacity="0.045"/><circle cx="1503.5" cy="521.4" r="1.36" fill="#f4f3ef" opacity="0.033"/><circle cx="1873.1" cy="1068.2" r="1.40" fill="#f4f3ef" opacity="0.070"/><circle cx="599.3" cy="157.3" r="0.84" fill="#f4f3ef" opacity="0.033"/><circle cx="929.4" cy="295.2" r="0.36" fill="#f4f3ef" opacity="0.038"/><circle cx="1346.4" cy="468.6" r="1.58" fill="#f4f3ef" opacity="0.029"/><circle cx="1115.5" cy="1064.3" r="0.27" fill="#f4f3ef" opacity="0.079"/><circle cx="1350.8" cy="868.9" r="0.25" fill="#f4f3ef" opacity="0.053"/><circle cx="1601.9" cy="189.0" r="1.55" fill="#f4f3ef" opacity="0.053"/><circle cx="1560.6" cy="371.4" r="0.74" fill="#f4f3ef" opacity="0.042"/><circle cx="207.8" cy="802.6" r="0.55" fill="#f4f3ef" opacity="0.061"/><circle cx="79.6" cy="949.4" r="0.85" fill="#f4f3ef" opacity="0.062"/><circle cx="1294.7" cy="958.4" r="0.38" fill="#f4f3ef" opacity="0.023"/><circle cx="700.3" cy="816.3" r="0.79" fill="#f4f3ef" opacity="0.039"/><circle cx="1899.6" cy="229.8" r="0.40" fill="#f4f3ef" opacity="0.035"/><circle cx="1597.6" cy="305.5" r="1.53" fill="#f4f3ef" opacity="0.062"/><circle cx="268.4" cy="550.0" r="0.52" fill="#f4f3ef" opacity="0.028"/><circle cx="661.7" cy="910.2" r="1.15" fill="#f4f3ef" opacity="0.072"/><circle cx="1829.4" cy="212.5" r="0.91" fill="#f4f3ef" opacity="0.079"/><circle cx="192.1" cy="723.8" r="0.67" fill="#f4f3ef" opacity="0.068"/><circle cx="1486.1" cy="470.6" r="1.23" fill="#f4f3ef" opacity="0.034"/><circle cx="1350.1" cy="319.6" r="0.86" fill="#f4f3ef" opacity="0.053"/><circle cx="1751.3" cy="977.5" r="0.76" fill="#f4f3ef" opacity="0.080"/><circle cx="1812.7" cy="711.0" r="1.56" fill="#f4f3ef" opacity="0.021"/><circle cx="1439.6" cy="266.6" r="0.92" fill="#f4f3ef" opacity="0.025"/><circle cx="466.0" cy="951.2" r="0.33" fill="#f4f3ef" opacity="0.043"/><circle cx="1001.6" cy="191.3" r="0.29" fill="#f4f3ef" opacity="0.071"/><circle cx="1458.1" cy="773.7" r="0.62" fill="#f4f3ef" opacity="0.035"/><circle cx="1456.4" cy="284.9" r="0.32" fill="#f4f3ef" opacity="0.056"/><circle cx="332.7" cy="711.7" r="1.14" fill="#f4f3ef" opacity="0.046"/><circle cx="765.5" cy="400.8" r="0.88" fill="#f4f3ef" opacity="0.063"/><circle cx="242.2" cy="778.7" r="0.25" fill="#f4f3ef" opacity="0.041"/><circle cx="1085.9" cy="832.1" r="0.85" fill="#f4f3ef" opacity="0.046"/><circle cx="641.7" cy="947.8" r="1.25" fill="#f4f3ef" opacity="0.029"/><circle cx="23.7" cy="992.4" r="1.07" fill="#f4f3ef" opacity="0.037"/><circle cx="701.4" cy="192.5" r="0.35" fill="#f4f3ef" opacity="0.050"/><circle cx="446.9" cy="974.9" r="1.25" fill="#f4f3ef" opacity="0.032"/><circle cx="160.7" cy="566.1" r="0.90" fill="#f4f3ef" opacity="0.024"/><circle cx="459.2" cy="592.9" r="0.58" fill="#f4f3ef" opacity="0.039"/><circle cx="1460.9" cy="121.9" r="0.43" fill="#f4f3ef" opacity="0.053"/><circle cx="13.2" cy="219.8" r="0.68" fill="#f4f3ef" opacity="0.042"/><circle cx="1639.1" cy="593.3" r="1.07" fill="#f4f3ef" opacity="0.052"/><circle cx="1123.8" cy="189.0" r="1.11" fill="#f4f3ef" opacity="0.072"/><circle cx="861.3" cy="673.5" r="1.34" fill="#f4f3ef" opacity="0.072"/><circle cx="1681.3" cy="913.7" r="1.35" fill="#f4f3ef" opacity="0.069"/><circle cx="715.6" cy="816.0" r="1.42" fill="#f4f3ef" opacity="0.069"/><circle cx="145.0" cy="487.3" r="1.02" fill="#f4f3ef" opacity="0.032"/><circle cx="1865.7" cy="114.1" r="0.96" fill="#f4f3ef" opacity="0.071"/><circle cx="1516.3" cy="563.1" r="0.91" fill="#f4f3ef" opacity="0.023"/><circle cx="1064.2" cy="381.0" r="0.64" fill="#f4f3ef" opacity="0.023"/><circle cx="1552.3" cy="1074.5" r="0.82" fill="#f4f3ef" opacity="0.037"/><circle cx="965.9" cy="150.1" r="0.50" fill="#f4f3ef" opacity="0.036"/><circle cx="1058.9" cy="1074.7" r="1.15" fill="#f4f3ef" opacity="0.026"/><circle cx="101.1" cy="194.8" r="0.48" fill="#f4f3ef" opacity="0.068"/><circle cx="344.3" cy="297.2" r="1.13" fill="#f4f3ef" opacity="0.026"/><circle cx="1409.3" cy="48.4" r="0.67" fill="#f4f3ef" opacity="0.080"/><circle cx="712.2" cy="355.2" r="0.87" fill="#f4f3ef" opacity="0.023"/><circle cx="931.7" cy="644.3" r="0.92" fill="#f4f3ef" opacity="0.033"/><circle cx="1475.1" cy="182.2" r="1.54" fill="#f4f3ef" opacity="0.045"/><circle cx="825.5" cy="115.6" r="1.51" fill="#f4f3ef" opacity="0.063"/><circle cx="167.9" cy="831.3" r="0.82" fill="#f4f3ef" opacity="0.039"/><circle cx="616.6" cy="35.9" r="0.49" fill="#f4f3ef" opacity="0.021"/><circle cx="1721.0" cy="196.0" r="0.55" fill="#f4f3ef" opacity="0.047"/><circle cx="1253.1" cy="498.4" r="0.36" fill="#f4f3ef" opacity="0.022"/><circle cx="113.6" cy="329.6" r="1.26" fill="#f4f3ef" opacity="0.048"/><circle cx="838.7" cy="236.4" r="0.31" fill="#f4f3ef" opacity="0.076"/><circle cx="1627.1" cy="365.4" r="0.47" fill="#f4f3ef" opacity="0.023"/><circle cx="1246.1" cy="703.3" r="0.57" fill="#f4f3ef" opacity="0.046"/><circle cx="1378.7" cy="956.8" r="0.34" fill="#f4f3ef" opacity="0.069"/><circle cx="650.0" cy="72.5" r="0.68" fill="#f4f3ef" opacity="0.022"/><circle cx="1454.2" cy="797.0" r="0.76" fill="#f4f3ef" opacity="0.055"/><circle cx="780.8" cy="917.2" r="1.55" fill="#f4f3ef" opacity="0.066"/><circle cx="1521.8" cy="339.5" r="0.53" fill="#f4f3ef" opacity="0.059"/><circle cx="97.9" cy="250.8" r="1.37" fill="#f4f3ef" opacity="0.055"/><circle cx="325.2" cy="837.6" r="0.69" fill="#f4f3ef" opacity="0.048"/><circle cx="1682.5" cy="806.6" r="0.95" fill="#f4f3ef" opacity="0.053"/><circle cx="377.1" cy="864.5" r="0.53" fill="#f4f3ef" opacity="0.027"/><circle cx="1291.9" cy="358.0" r="1.49" fill="#f4f3ef" opacity="0.054"/><circle cx="492.1" cy="33.6" r="1.47" fill="#f4f3ef" opacity="0.046"/><circle cx="1651.8" cy="118.2" r="0.57" fill="#f4f3ef" opacity="0.070"/><circle cx="1120.7" cy="198.3" r="0.68" fill="#f4f3ef" opacity="0.065"/><circle cx="1150.6" cy="900.7" r="0.24" fill="#f4f3ef" opacity="0.076"/><circle cx="1362.1" cy="891.9" r="1.03" fill="#f4f3ef" opacity="0.043"/><circle cx="1091.8" cy="1078.7" r="0.60" fill="#f4f3ef" opacity="0.060"/><circle cx="1097.9" cy="887.8" r="0.97" fill="#f4f3ef" opacity="0.064"/><circle cx="788.0" cy="665.7" r="1.43" fill="#f4f3ef" opacity="0.048"/><circle cx="565.0" cy="479.1" r="0.78" fill="#f4f3ef" opacity="0.080"/><circle cx="1614.2" cy="714.8" r="0.40" fill="#f4f3ef" opacity="0.049"/><circle cx="1209.5" cy="159.4" r="1.31" fill="#f4f3ef" opacity="0.064"/><circle cx="820.6" cy="199.5" r="0.75" fill="#f4f3ef" opacity="0.044"/><circle cx="139.3" cy="21.9" r="0.87" fill="#f4f3ef" opacity="0.072"/><circle cx="66.4" cy="93.1" r="0.21" fill="#f4f3ef" opacity="0.071"/><circle cx="1218.3" cy="959.9" r="1.45" fill="#f4f3ef" opacity="0.052"/><circle cx="1793.3" cy="608.9" r="0.51" fill="#f4f3ef" opacity="0.054"/><circle cx="559.0" cy="106.8" r="0.46" fill="#f4f3ef" opacity="0.049"/><circle cx="1118.2" cy="240.3" r="1.00" fill="#f4f3ef" opacity="0.025"/><circle cx="176.2" cy="1036.0" r="0.26" fill="#f4f3ef" opacity="0.033"/><circle cx="127.1" cy="920.5" r="1.59" fill="#f4f3ef" opacity="0.039"/><circle cx="1800.4" cy="920.7" r="0.35" fill="#f4f3ef" opacity="0.063"/><circle cx="408.0" cy="943.0" r="1.04" fill="#f4f3ef" opacity="0.049"/><circle cx="50.7" cy="14.3" r="0.33" fill="#f4f3ef" opacity="0.079"/><circle cx="704.8" cy="481.1" r="0.42" fill="#f4f3ef" opacity="0.025"/><circle cx="1848.7" cy="1050.1" r="1.00" fill="#f4f3ef" opacity="0.024"/><circle cx="1610.0" cy="268.0" r="0.42" fill="#f4f3ef" opacity="0.030"/><circle cx="1031.4" cy="721.5" r="0.76" fill="#f4f3ef" opacity="0.071"/><circle cx="18.3" cy="997.1" r="1.05" fill="#f4f3ef" opacity="0.056"/><circle cx="324.7" cy="241.7" r="1.39" fill="#f4f3ef" opacity="0.053"/><circle cx="220.3" cy="201.8" r="0.88" fill="#f4f3ef" opacity="0.062"/><circle cx="36.8" cy="424.2" r="0.75" fill="#f4f3ef" opacity="0.066"/><circle cx="1315.0" cy="655.4" r="1.38" fill="#f4f3ef" opacity="0.067"/><circle cx="1471.3" cy="722.2" r="0.33" fill="#f4f3ef" opacity="0.037"/><circle cx="1264.1" cy="51.3" r="1.01" fill="#f4f3ef" opacity="0.034"/><circle cx="100.9" cy="69.2" r="1.32" fill="#f4f3ef" opacity="0.052"/><circle cx="304.6" cy="842.6" r="1.44" fill="#f4f3ef" opacity="0.037"/><circle cx="1140.4" cy="598.3" r="1.38" fill="#f4f3ef" opacity="0.059"/><circle cx="1802.3" cy="282.9" r="0.73" fill="#f4f3ef" opacity="0.048"/><circle cx="1840.1" cy="203.0" r="0.95" fill="#f4f3ef" opacity="0.041"/><circle cx="945.5" cy="625.4" r="1.38" fill="#f4f3ef" opacity="0.063"/><circle cx="19.3" cy="936.6" r="0.57" fill="#f4f3ef" opacity="0.035"/><circle cx="1597.8" cy="603.4" r="1.18" fill="#f4f3ef" opacity="0.029"/><circle cx="39.5" cy="852.4" r="0.56" fill="#f4f3ef" opacity="0.024"/><circle cx="1791.9" cy="590.3" r="0.35" fill="#f4f3ef" opacity="0.053"/><circle cx="857.8" cy="603.8" r="0.27" fill="#f4f3ef" opacity="0.042"/><circle cx="1622.5" cy="919.5" r="1.24" fill="#f4f3ef" opacity="0.043"/><circle cx="720.0" cy="1044.0" r="1.01" fill="#f4f3ef" opacity="0.022"/><circle cx="900.0" cy="924.2" r="0.55" fill="#f4f3ef" opacity="0.060"/><circle cx="1214.3" cy="466.5" r="1.55" fill="#f4f3ef" opacity="0.039"/><circle cx="3.6" cy="857.8" r="0.68" fill="#f4f3ef" opacity="0.043"/><circle cx="1084.4" cy="124.6" r="1.56" fill="#f4f3ef" opacity="0.062"/><circle cx="95.0" cy="213.6" r="1.04" fill="#f4f3ef" opacity="0.054"/><circle cx="922.8" cy="751.5" r="0.31" fill="#f4f3ef" opacity="0.034"/><circle cx="771.0" cy="5.0" r="1.42" fill="#f4f3ef" opacity="0.028"/><circle cx="1464.5" cy="880.6" r="0.63" fill="#f4f3ef" opacity="0.066"/><circle cx="917.6" cy="365.2" r="0.81" fill="#f4f3ef" opacity="0.037"/><circle cx="1239.8" cy="205.3" r="1.08" fill="#f4f3ef" opacity="0.059"/><circle cx="843.0" cy="1027.7" r="1.26" fill="#f4f3ef" opacity="0.056"/><circle cx="1267.9" cy="418.9" r="0.34" fill="#f4f3ef" opacity="0.030"/><circle cx="1850.9" cy="365.7" r="1.47" fill="#f4f3ef" opacity="0.074"/><circle cx="1430.4" cy="294.8" r="1.05" fill="#f4f3ef" opacity="0.064"/><circle cx="1333.8" cy="552.7" r="1.20" fill="#f4f3ef" opacity="0.055"/><circle cx="44.2" cy="126.1" r="0.71" fill="#f4f3ef" opacity="0.054"/><circle cx="666.6" cy="481.8" r="0.95" fill="#f4f3ef" opacity="0.070"/><circle cx="475.2" cy="406.4" r="1.55" fill="#f4f3ef" opacity="0.031"/><circle cx="939.7" cy="206.5" r="1.15" fill="#f4f3ef" opacity="0.038"/><circle cx="1751.7" cy="148.9" r="0.49" fill="#f4f3ef" opacity="0.053"/><circle cx="1892.2" cy="700.1" r="0.92" fill="#f4f3ef" opacity="0.058"/><circle cx="57.4" cy="246.9" r="0.91" fill="#f4f3ef" opacity="0.066"/><circle cx="205.8" cy="15.9" r="0.60" fill="#f4f3ef" opacity="0.054"/><circle cx="1104.8" cy="1073.8" r="0.23" fill="#f4f3ef" opacity="0.056"/><circle cx="597.3" cy="967.3" r="0.93" fill="#f4f3ef" opacity="0.059"/><circle cx="1148.7" cy="803.0" r="0.81" fill="#f4f3ef" opacity="0.053"/><circle cx="1312.9" cy="87.5" r="0.43" fill="#f4f3ef" opacity="0.066"/><circle cx="1919.5" cy="927.7" r="0.75" fill="#f4f3ef" opacity="0.057"/><circle cx="100.5" cy="1070.0" r="0.66" fill="#f4f3ef" opacity="0.030"/><circle cx="1876.5" cy="621.3" r="1.04" fill="#f4f3ef" opacity="0.066"/><circle cx="1463.9" cy="848.1" r="1.29" fill="#f4f3ef" opacity="0.039"/><circle cx="261.2" cy="457.1" r="1.08" fill="#f4f3ef" opacity="0.024"/><circle cx="235.7" cy="155.0" r="1.60" fill="#f4f3ef" opacity="0.038"/><circle cx="510.5" cy="368.5" r="0.69" fill="#f4f3ef" opacity="0.045"/><circle cx="990.8" cy="764.1" r="0.21" fill="#f4f3ef" opacity="0.076"/><circle cx="1510.5" cy="488.7" r="0.24" fill="#f4f3ef" opacity="0.020"/><circle cx="339.4" cy="208.8" r="1.28" fill="#f4f3ef" opacity="0.056"/><circle cx="1649.2" cy="551.2" r="0.37" fill="#f4f3ef" opacity="0.046"/><circle cx="1220.8" cy="182.4" r="0.69" fill="#f4f3ef" opacity="0.054"/><circle cx="310.4" cy="9.2" r="1.20" fill="#f4f3ef" opacity="0.051"/><circle cx="1596.6" cy="538.3" r="1.10" fill="#f4f3ef" opacity="0.034"/><circle cx="646.7" cy="1036.2" r="1.09" fill="#f4f3ef" opacity="0.059"/><circle cx="1703.7" cy="489.6" r="1.38" fill="#f4f3ef" opacity="0.070"/><circle cx="192.8" cy="365.3" r="0.53" fill="#f4f3ef" opacity="0.080"/><circle cx="1068.1" cy="529.9" r="0.98" fill="#f4f3ef" opacity="0.075"/><circle cx="39.2" cy="210.0" r="1.35" fill="#f4f3ef" opacity="0.035"/><circle cx="638.0" cy="752.4" r="1.00" fill="#f4f3ef" opacity="0.043"/><circle cx="1845.1" cy="463.6" r="1.27" fill="#f4f3ef" opacity="0.022"/><circle cx="436.9" cy="970.4" r="0.64" fill="#f4f3ef" opacity="0.043"/><circle cx="372.0" cy="259.4" r="0.64" fill="#f4f3ef" opacity="0.024"/><circle cx="417.7" cy="477.3" r="1.52" fill="#f4f3ef" opacity="0.060"/><circle cx="336.9" cy="250.8" r="1.60" fill="#f4f3ef" opacity="0.076"/><circle cx="674.9" cy="686.5" r="0.39" fill="#f4f3ef" opacity="0.063"/><circle cx="1905.8" cy="211.0" r="1.25" fill="#f4f3ef" opacity="0.049"/><circle cx="1019.1" cy="931.2" r="0.95" fill="#f4f3ef" opacity="0.053"/><circle cx="906.7" cy="593.5" r="1.17" fill="#f4f3ef" opacity="0.080"/><circle cx="1829.4" cy="384.8" r="1.39" fill="#f4f3ef" opacity="0.030"/><circle cx="1843.5" cy="491.6" r="1.02" fill="#f4f3ef" opacity="0.075"/><circle cx="427.4" cy="700.6" r="1.13" fill="#f4f3ef" opacity="0.054"/><circle cx="1468.6" cy="638.5" r="1.48" fill="#f4f3ef" opacity="0.041"/><circle cx="250.1" cy="732.0" r="1.35" fill="#f4f3ef" opacity="0.062"/><circle cx="517.0" cy="647.6" r="1.18" fill="#f4f3ef" opacity="0.027"/><circle cx="183.4" cy="612.2" r="1.06" fill="#f4f3ef" opacity="0.064"/><circle cx="1358.9" cy="212.3" r="1.48" fill="#f4f3ef" opacity="0.052"/><circle cx="535.4" cy="74.7" r="0.88" fill="#f4f3ef" opacity="0.037"/><circle cx="1173.7" cy="1025.9" r="1.04" fill="#f4f3ef" opacity="0.077"/><circle cx="690.0" cy="732.7" r="0.93" fill="#f4f3ef" opacity="0.028"/><circle cx="1762.8" cy="781.7" r="1.14" fill="#f4f3ef" opacity="0.064"/><circle cx="1879.6" cy="439.7" r="0.98" fill="#f4f3ef" opacity="0.062"/><circle cx="1443.3" cy="853.1" r="0.64" fill="#f4f3ef" opacity="0.027"/><circle cx="1639.1" cy="248.8" r="1.51" fill="#f4f3ef" opacity="0.030"/><circle cx="1661.0" cy="653.4" r="0.40" fill="#f4f3ef" opacity="0.058"/><circle cx="1058.8" cy="213.5" r="1.55" fill="#f4f3ef" opacity="0.031"/><circle cx="1444.2" cy="275.9" r="1.51" fill="#f4f3ef" opacity="0.033"/><circle cx="1798.0" cy="227.1" r="0.23" fill="#f4f3ef" opacity="0.045"/><circle cx="816.5" cy="613.9" r="0.37" fill="#f4f3ef" opacity="0.080"/><circle cx="538.2" cy="502.9" r="0.69" fill="#f4f3ef" opacity="0.054"/><circle cx="1650.5" cy="960.8" r="1.41" fill="#f4f3ef" opacity="0.063"/><circle cx="76.5" cy="614.3" r="0.86" fill="#f4f3ef" opacity="0.033"/><circle cx="201.1" cy="570.0" r="1.37" fill="#f4f3ef" opacity="0.073"/><circle cx="578.6" cy="334.5" r="0.67" fill="#f4f3ef" opacity="0.033"/><circle cx="118.6" cy="934.7" r="1.15" fill="#f4f3ef" opacity="0.050"/><circle cx="1712.9" cy="117.0" r="0.28" fill="#f4f3ef" opacity="0.070"/><circle cx="1782.3" cy="148.3" r="0.35" fill="#f4f3ef" opacity="0.053"/><circle cx="303.0" cy="135.1" r="0.75" fill="#f4f3ef" opacity="0.052"/><circle cx="593.6" cy="944.1" r="1.17" fill="#f4f3ef" opacity="0.024"/><circle cx="781.5" cy="42.0" r="1.37" fill="#f4f3ef" opacity="0.045"/><circle cx="1909.6" cy="15.5" r="0.62" fill="#f4f3ef" opacity="0.079"/><circle cx="43.2" cy="531.1" r="0.76" fill="#f4f3ef" opacity="0.037"/><circle cx="776.3" cy="735.7" r="0.48" fill="#f4f3ef" opacity="0.047"/><circle cx="458.5" cy="215.8" r="0.28" fill="#f4f3ef" opacity="0.049"/><circle cx="1341.7" cy="678.2" r="1.39" fill="#f4f3ef" opacity="0.027"/><circle cx="1126.6" cy="789.4" r="1.40" fill="#f4f3ef" opacity="0.041"/><circle cx="1069.5" cy="376.2" r="0.66" fill="#f4f3ef" opacity="0.065"/><circle cx="9.0" cy="1025.3" r="1.18" fill="#f4f3ef" opacity="0.035"/><circle cx="1192.5" cy="923.2" r="0.87" fill="#f4f3ef" opacity="0.066"/><circle cx="1182.8" cy="136.6" r="1.31" fill="#f4f3ef" opacity="0.044"/><circle cx="1165.3" cy="132.3" r="1.08" fill="#f4f3ef" opacity="0.040"/><circle cx="333.9" cy="776.9" r="1.22" fill="#f4f3ef" opacity="0.042"/><circle cx="158.3" cy="217.0" r="0.34" fill="#f4f3ef" opacity="0.028"/><circle cx="330.4" cy="879.4" r="0.62" fill="#f4f3ef" opacity="0.023"/><circle cx="1750.9" cy="1070.6" r="0.58" fill="#f4f3ef" opacity="0.069"/><circle cx="1196.1" cy="257.4" r="1.51" fill="#f4f3ef" opacity="0.057"/><circle cx="704.4" cy="746.4" r="0.73" fill="#f4f3ef" opacity="0.025"/><circle cx="963.4" cy="364.3" r="1.30" fill="#f4f3ef" opacity="0.067"/><circle cx="1736.0" cy="977.8" r="1.53" fill="#f4f3ef" opacity="0.050"/><circle cx="1647.3" cy="453.5" r="0.94" fill="#f4f3ef" opacity="0.023"/><circle cx="1171.5" cy="458.0" r="1.49" fill="#f4f3ef" opacity="0.076"/><circle cx="1138.2" cy="938.2" r="1.34" fill="#f4f3ef" opacity="0.047"/><circle cx="599.2" cy="720.5" r="0.79" fill="#f4f3ef" opacity="0.060"/><circle cx="1735.2" cy="991.8" r="0.70" fill="#f4f3ef" opacity="0.077"/><circle cx="682.6" cy="858.6" r="0.48" fill="#f4f3ef" opacity="0.029"/><circle cx="759.8" cy="107.6" r="1.21" fill="#f4f3ef" opacity="0.055"/><circle cx="94.4" cy="525.5" r="1.26" fill="#f4f3ef" opacity="0.048"/><circle cx="1649.2" cy="379.0" r="1.28" fill="#f4f3ef" opacity="0.035"/><circle cx="1489.4" cy="414.6" r="0.34" fill="#f4f3ef" opacity="0.047"/><circle cx="1369.2" cy="859.2" r="1.30" fill="#f4f3ef" opacity="0.031"/><circle cx="1478.0" cy="219.3" r="0.48" fill="#f4f3ef" opacity="0.046"/><circle cx="227.9" cy="201.7" r="0.50" fill="#f4f3ef" opacity="0.077"/><circle cx="1079.5" cy="552.9" r="0.35" fill="#f4f3ef" opacity="0.064"/><circle cx="1449.1" cy="19.7" r="0.40" fill="#f4f3ef" opacity="0.041"/><circle cx="175.3" cy="188.8" r="1.23" fill="#f4f3ef" opacity="0.065"/><circle cx="505.4" cy="326.7" r="0.76" fill="#f4f3ef" opacity="0.069"/><circle cx="922.4" cy="500.1" r="0.57" fill="#f4f3ef" opacity="0.061"/><circle cx="691.5" cy="15.8" r="0.66" fill="#f4f3ef" opacity="0.050"/><circle cx="926.8" cy="900.4" r="0.64" fill="#f4f3ef" opacity="0.025"/><circle cx="1177.9" cy="220.5" r="0.54" fill="#f4f3ef" opacity="0.025"/><circle cx="1136.6" cy="402.9" r="1.13" fill="#f4f3ef" opacity="0.074"/><circle cx="1703.8" cy="834.1" r="0.94" fill="#f4f3ef" opacity="0.032"/><circle cx="1575.6" cy="980.9" r="1.24" fill="#f4f3ef" opacity="0.034"/><circle cx="870.7" cy="989.9" r="0.77" fill="#f4f3ef" opacity="0.055"/><circle cx="276.3" cy="847.8" r="1.19" fill="#f4f3ef" opacity="0.070"/><circle cx="1475.6" cy="261.3" r="0.79" fill="#f4f3ef" opacity="0.067"/><circle cx="1173.6" cy="337.0" r="0.52" fill="#f4f3ef" opacity="0.034"/><circle cx="1764.4" cy="581.5" r="0.91" fill="#f4f3ef" opacity="0.060"/><circle cx="237.7" cy="941.7" r="1.54" fill="#f4f3ef" opacity="0.044"/><circle cx="1405.4" cy="244.0" r="1.30" fill="#f4f3ef" opacity="0.050"/><circle cx="1688.1" cy="755.3" r="1.06" fill="#f4f3ef" opacity="0.040"/><circle cx="1062.1" cy="502.1" r="0.22" fill="#f4f3ef" opacity="0.066"/><circle cx="926.1" cy="351.1" r="1.26" fill="#f4f3ef" opacity="0.025"/><circle cx="1327.3" cy="1009.0" r="1.15" fill="#f4f3ef" opacity="0.052"/><circle cx="1388.7" cy="742.5" r="0.55" fill="#f4f3ef" opacity="0.052"/><circle cx="1015.6" cy="298.1" r="1.31" fill="#f4f3ef" opacity="0.057"/><circle cx="42.0" cy="982.7" r="0.72" fill="#f4f3ef" opacity="0.074"/><circle cx="577.6" cy="222.8" r="0.68" fill="#f4f3ef" opacity="0.043"/><circle cx="1034.1" cy="805.2" r="1.01" fill="#f4f3ef" opacity="0.067"/><circle cx="1032.4" cy="316.4" r="0.71" fill="#f4f3ef" opacity="0.028"/><circle cx="1828.7" cy="743.2" r="1.53" fill="#f4f3ef" opacity="0.078"/><circle cx="341.5" cy="432.3" r="1.27" fill="#f4f3ef" opacity="0.035"/><circle cx="1738.2" cy="810.2" r="0.64" fill="#f4f3ef" opacity="0.073"/><circle cx="661.9" cy="863.6" r="1.24" fill="#f4f3ef" opacity="0.078"/><circle cx="217.7" cy="979.3" r="0.24" fill="#f4f3ef" opacity="0.060"/><circle cx="1519.7" cy="1023.9" r="1.46" fill="#f4f3ef" opacity="0.069"/><circle cx="277.4" cy="224.0" r="0.74" fill="#f4f3ef" opacity="0.022"/><circle cx="22.9" cy="1006.4" r="0.24" fill="#f4f3ef" opacity="0.064"/><circle cx="1656.7" cy="597.6" r="1.29" fill="#f4f3ef" opacity="0.056"/><circle cx="35.2" cy="624.4" r="0.97" fill="#f4f3ef" opacity="0.071"/><circle cx="1036.9" cy="153.4" r="0.82" fill="#f4f3ef" opacity="0.025"/><circle cx="1509.2" cy="251.3" r="1.07" fill="#f4f3ef" opacity="0.074"/><circle cx="1215.1" cy="624.8" r="1.46" fill="#f4f3ef" opacity="0.024"/><circle cx="699.8" cy="220.5" r="1.50" fill="#f4f3ef" opacity="0.044"/><circle cx="437.3" cy="705.0" r="0.33" fill="#f4f3ef" opacity="0.043"/><circle cx="1257.3" cy="945.2" r="0.34" fill="#f4f3ef" opacity="0.041"/><circle cx="291.6" cy="847.5" r="0.41" fill="#f4f3ef" opacity="0.041"/><circle cx="1641.0" cy="518.8" r="1.41" fill="#f4f3ef" opacity="0.064"/><circle cx="1441.7" cy="145.6" r="1.35" fill="#f4f3ef" opacity="0.043"/><circle cx="1092.3" cy="594.6" r="1.30" fill="#f4f3ef" opacity="0.055"/><circle cx="640.2" cy="412.5" r="1.04" fill="#f4f3ef" opacity="0.055"/>
  <rect width="1920" height="1080" fill="url(#l40)"/>
  
  <text x="96" y="993.6" font-family="Helvetica, Arial, sans-serif" font-size="34.559999999999995" letter-spacing="4" fill="#f4f3ef" fill-opacity="0.72">HALO</text>
  <text x="96" y="1036.8" font-family="Helvetica, Arial, sans-serif" font-size="21.119999999999997" letter-spacing="2" fill="#f4f3ef" fill-opacity="0.38">SCREENSHOT 01</text>
</svg>