<?xml version="1.0" encoding="UTF-8"?>
<svg xmlns="http://www.w3.org/2000/svg" width="1200" height="1600" viewBox="0 0 1200 1600">
  <defs>
    <linearGradient id="g18" x1="0%" y1="0%" x2="100%" y2="100%">
      <stop offset="0%" stop-color="#161616"/>
      <stop offset="100%" stop-color="#2e2e2e"/>
    </linearGradient>
    <linearGradient id="l18" x1="0%" y1="0%" x2="0%" y2="100%">
      <stop offset="0%" stop-color="#000" stop-opacity="0"/>
      <stop offset="100%" stop-color="#000" stop-opacity="0.55"/>
    </linearGradient>
  </defs>
  <rect width="1200" height="1600" fill="url(#g18)"/>
  <circle cx="1114.8" cy="1209.3" r="1.41" fill="#f4f3ef" opacity="0.057"/><circle cx="1022.3" cy="323.9" r="1.46" fill="#f4f3ef" opacity="0.042"/><circle cx="510.1" cy="340.5" r="1.19" fill="#f4f3ef" opacity="0.077"/><circle cx="1163.4" cy="469.1" r="0.48" fill="#f4f3ef" opacity="0.055"/><circle cx="656.1" cy="926.9" r="0.87" fill="#f4f3ef" opacity="0.073"/><circle cx="618.0" cy="94.2" r="1.20" fill="#f4f3ef" opacity="0.045"/><circle cx="900.8" cy="736.4" r="1.20" fill="#f4f3ef" opacity="0.078"/><circle cx="645.4" cy="1292.9" r="0.38" fill="#f4f3ef" opacity="0.042"/><circle cx="148.0" cy="1033.0" r="0.69" fill="#f4f3ef" opacity="0.025"/><circle cx="1127.2" cy="1477.7" r="0.31" fill="#f4f3ef" opacity="0.046"/><circle cx="590.3" cy="888.6" r="0.93" fill="#f4f3ef" opacity="0.048"/><circle cx="1100.3" cy="1023.7" r="0.60" fill="#f4f3ef" opacity="0.055"/><circle cx="242.4" cy="559.7" r="1.55" fill="#f4f3ef" opacity="0.057"/><circle cx="90.7" cy="780.5" r="0.65" fill="#f4f3ef" opacity="0.073"/><circle cx="674.8" cy="1132.9" r="0.46" fill="#f4f3ef" opacity="0.056"/><circle cx="246.6" cy="649.2" r="0.25" fill="#f4f3ef" opacity="0.034"/><circle cx="1146.7" cy="435.4" r="0.47" fill="#f4f3ef" opacity="0.035"/><circle cx="871.6" cy="827.4" r="1.20" fill="#f4f3ef" opacity="0.069"/><circle cx="739.6" cy="1212.7" r="1.55" fill="#f4f3ef" opacity="0.074"/><circle cx="958.3" cy="919.9" r="1.33" fill="#f4f3ef" opacity="0.035"/><circle cx="90.5" cy="1173.6" r="0.96" fill="#f4f3ef" opacity="0.073"/><circle cx="121.5" cy="117.0" r="0.76" fill="#f4f3ef" opacity="0.040"/><circle cx="325.4" cy="100.7" r="1.36" fill="#f4f3ef" opacity="0.053"/><circle cx="331.7" cy="38.4" r="0.66" fill="#f4f3ef" opacity="0.048"/><circle cx="392.3" cy="28.7" r="0.24" fill="#f4f3ef" opacity="0.029"/><circle cx="48.0" cy="644.5" r="1.50" fill="#f4f3ef" opacity="0.069"/><circle cx="1195.1" cy="88.3" r="1.24" fill="#f4f3ef" opacity="0.034"/><circle cx="1152.0" cy="414.5" r="0.91" fill="#f4f3ef" opacity="0.023"/><circle cx="926.2" cy="417.9" r="1.27" fill="#f4f3ef" opacity="0.062"/><circle cx="1080.7" cy="790.2" r="0.84" fill="#f4f3ef" opacity="0.071"/><circle cx="800.6" cy="741.0" r="0.91" fill="#f4f3ef" opacity="0.062"/><circle cx="160.0" cy="487.7" r="0.21" fill="#f4f3ef" opacity="0.073"/><circle cx="788.5" cy="10.5" r="0.39" fill="#f4f3ef" opacity="0.079"/><circle cx="138.1" cy="474.9" r="1.16" fill="#f4f3ef" opacity="0.065"/><circle cx="949.3" cy="320.3" r="0.66" fill="#f4f3ef" opacity="0.022"/><circle cx="1118.6" cy="416.0" r="0.82" fill="#f4f3ef" opacity="0.038"/><circle cx="1164.4" cy="682.9" r="1.21" fill="#f4f3ef" opacity="0.072"/><circle cx="494.2" cy="982.6" r="0.74" fill="#f4f3ef" opacity="0.069"/><circle cx="470.9" cy="1473.4" r="0.26" fill="#f4f3ef" opacity="0.048"/><circle cx="1079.7" cy="831.6" r="0.59" fill="#f4f3ef" opacity="0.064"/><circle cx="794.6" cy="341.2" r="1.39" fill="#f4f3ef" opacity="0.073"/><circle cx="845.4" cy="1049.2" r="1.05" fill="#f4f3ef" opacity="0.030"/><circle cx="683.8" cy="387.7" r="0.22" fill="#f4f3ef" opacity="0.021"/><circle cx="250.6" cy="1062.8" r="0.75" fill="#f4f3ef" opacity="0.075"/><circle cx="642.1" cy="210.3" r="1.32" fill="#f4f3ef" opacity="0.023"/><circle cx="776.8" cy="417.9" r="1.04" fill="#f4f3ef" opacity="0.041"/><circle cx="862.2" cy="1014.0" r="1.14" fill="#f4f3ef" opacity="0.055"/><circle cx="661.1" cy="23.2" r="0.61" fill="#f4f3ef" opacity="0.066"/><circle cx="958.7" cy="388.9" r="1.20" fill="#f4f3ef" opacity="0.047"/><circle cx="1029.3" cy="1261.5" r="0.71" fill="#f4f3ef" opacity="0.053"/><circle cx="502.2" cy="1554.7" r="1.25" fill="#f4f3ef" opacity="0.021"/><circle cx="829.5" cy="1367.2" r="0.21" fill="#f4f3ef" opacity="0.076"/><circle cx="351.9" cy="1271.9" r="0.37" fill="#f4f3ef" opacity="0.049"/><circle cx="965.6" cy="1071.3" r="1.36" fill="#f4f3ef" opacity="0.047"/><circle cx="1189.2" cy="1219.6" r="0.41" fill="#f4f3ef" opacity="0.050"/><circle cx="830.1" cy="512.0" r="1.08" fill="#f4f3ef" opacity="0.022"/><circle cx="451.3" cy="1239.8" r="0.49" fill="#f4f3ef" opacity="0.064"/><circle cx="437.8" cy="1012.8" r="1.34" fill="#f4f3ef" opacity="0.069"/><circle cx="863.9" cy="48.4" r="0.95" fill="#f4f3ef" opacity="0.073"/><circle cx="959.1" cy="1526.8" r="0.97" fill="#f4f3ef" opacity="0.052"/><circle cx="575.3" cy="213.4" r="1.13" fill="#f4f3ef" opacity="0.052"/><circle cx="53.2" cy="947.7" r="0.93" fill="#f4f3ef" opacity="0.062"/><circle cx="889.2" cy="1399.0" r="0.94" fill="#f4f3ef" opacity="0.052"/><circle cx="1.6" cy="1488.0" r="0.71" fill="#f4f3ef" opacity="0.039"/><circle cx="398.1" cy="1076.7" r="0.55" fill="#f4f3ef" opacity="0.029"/><circle cx="1041.4" cy="323.0" r="1.31" fill="#f4f3ef" opacity="0.042"/><circle cx="716.9" cy="1103.4" r="1.02" fill="#f4f3ef" opacity="0.071"/><circle cx="298.5" cy="1502.0" r="0.73" fill="#f4f3ef" opacity="0.073"/><circle cx="1015.9" cy="965.5" r="0.24" fill="#f4f3ef" opacity="0.063"/><circle cx="1121.0" cy="126.2" r="1.58" fill="#f4f3ef" opacity="0.067"/><circle cx="554.5" cy="90.2" r="1.02" fill="#f4f3ef" opacity="0.056"/><circle cx="412.7" cy="1193.3" r="1.44" fill="#f4f3ef" opacity="0.036"/><circle cx="814.0" cy="1223.1" r="0.54" fill="#f4f3ef" opacity="0.068"/><circle cx="766.0" cy="1108.1" r="0.95" fill="#f4f3ef" opacity="0.076"/><circle cx="31.6" cy="472.9" r="0.26" fill="#f4f3ef" opacity="0.060"/><circle cx="596.0" cy="660.7" r="0.23" fill="#f4f3ef" opacity="0.053"/><circle cx="533.1" cy="822.2" r="1.45" fill="#f4f3ef" opacity="0.053"/><circle cx="672.8" cy="1471.0" r="0.43" fill="#f4f3ef" opacity="0.055"/><circle cx="66.8" cy="1105.7" r="1.57" fill="#f4f3ef" opacity="0.063"/><circle cx="655.8" cy="299.3" r="0.65" fill="#f4f3ef" opacity="0.029"/><circle cx="736.2" cy="454.3" r="1.48" fill="#f4f3ef" opacity="0.061"/><circle cx="26.5" cy="424.8" r="1.31" fill="#f4f3ef" opacity="0.077"/><circle cx="734.0" cy="606.1" r="0.89" fill="#f4f3ef" opacity="0.042"/><circle cx="1021.8" cy="89.4" r="1.55" fill="#f4f3ef" opacity="0.058"/><circle cx="75.0" cy="1284.7" r="0.37" fill="#f4f3ef" opacity="0.076"/><circle cx="367.8" cy="1209.1" r="0.30" fill="#f4f3ef" opacity="0.073"/><circle cx="1129.6" cy="1443.1" r="1.56" fill="#f4f3ef" opacity="0.026"/><circle cx="1012.5" cy="1551.9" r="1.09" fill="#f4f3ef" opacity="0.039"/><circle cx="357.1" cy="1575.1" r="1.21" fill="#f4f3ef" opacity="0.042"/><circle cx="659.7" cy="781.9" r="1.06" fill="#f4f3ef" opacity="0.065"/><circle cx="38.9" cy="693.2" r="0.21" fill="#f4f3ef" opacity="0.066"/><circle cx="302.0" cy="1170.8" r="0.36" fill="#f4f3ef" opacity="0.049"/><circle cx="412.0" cy="772.6" r="0.97" fill="#f4f3ef" opacity="0.035"/><circle cx="354.1" cy="1375.3" r="1.45" fill="#f4f3ef" opacity="0.078"/><circle cx="1002.4" cy="1062.7" r="1.48" fill="#f4f3ef" opacity="0.074"/><circle cx="1186.5" cy="881.8" r="0.83" fill="#f4f3ef" opacity="0.037"/><circle cx="358.2" cy="1464.7" r="1.55" fill="#f4f3ef" opacity="0.054"/><circle cx="858.4" cy="717.6" r="1.30" fill="#f4f3ef" opacity="0.036"/><circle cx="183.2" cy="576.2" r="1.56" fill="#f4f3ef" opacity="0.050"/><circle cx="851.3" cy="428.3" r="1.44" fill="#f4f3ef" opacity="0.035"/><circle cx="669.9" cy="1202.1" r="0.76" fill="#f4f3ef" opacity="0.036"/><circle cx="602.2" cy="922.5" r="1.32" fill="#f4f3ef" opacity="0.053"/><circle cx="233.2" cy="932.6" r="0.66" fill="#f4f3ef" opacity="0.060"/><circle cx="37.0" cy="383.0" r="0.79" fill="#f4f3ef" opacity="0.054"/><circle cx="843.3" cy="1387.3" r="1.02" fill="#f4f3ef" opacity="0.028"/><circle cx="504.0" cy="844.3" r="1.54" fill="#f4f3ef" opacity="0.050"/><circle cx="959.7" cy="926.7" r="0.93" fill="#f4f3ef" opacity="0.069"/><circle cx="506.7" cy="1437.2" r="0.21" fill="#f4f3ef" opacity="0.074"/><circle cx="63.7" cy="1230.0" r="0.81" fill="#f4f3ef" opacity="0.044"/><circle cx="637.9" cy="700.2" r="0.70" fill="#f4f3ef" opacity="0.063"/><circle cx="392.4" cy="539.0" r="1.20" fill="#f4f3ef" opacity="0.051"/><circle cx="912.3" cy="1556.5" r="0.80" fill="#f4f3ef" opacity="0.023"/><circle cx="1071.7" cy="769.9" r="1.04" fill="#f4f3ef" opacity="0.074"/><circle cx="100.2" cy="1359.4" r="0.75" fill="#f4f3ef" opacity="0.059"/><circle cx="249.7" cy="1290.4" r="1.06" fill="#f4f3ef" opacity="0.026"/><circle cx="661.0" cy="602.6" r="1.49" fill="#f4f3ef" opacity="0.023"/><circle cx="430.3" cy="164.9" r="1.18" fill="#f4f3ef" opacity="0.079"/><circle cx="76.1" cy="1498.4" r="1.11" fill="#f4f3ef" opacity="0.033"/><circle cx="205.9" cy="1264.9" r="1.57" fill="#f4f3ef" opacity="0.069"/><circle cx="982.5" cy="1222.2" r="0.62" fill="#f4f3ef" opacity="0.029"/><circle cx="1191.3" cy="47.1" r="0.48" fill="#f4f3ef" opacity="0.025"/><circle cx="506.3" cy="623.5" r="0.82" fill="#f4f3ef" opacity="0.074"/><circle cx="157.1" cy="798.1" r="1.41" fill="#f4f3ef" opacity="0.071"/><circle cx="795.5" cy="1203.3" r="1.52" fill="#f4f3ef" opacity="0.041"/><circle cx="1162.3" cy="1345.0" r="1.58" fill="#f4f3ef" opacity="0.076"/><circle cx="1153.8" cy="1559.2" r="0.29" fill="#f4f3ef" opacity="0.063"/><circle cx="888.5" cy="1233.5" r="0.94" fill="#f4f3ef" opacity="0.062"/><circle cx="573.8" cy="1296.2" r="0.57" fill="#f4f3ef" opacity="0.056"/><circle cx="1172.7" cy="1372.1" r="0.97" fill="#f4f3ef" opacity="0.047"/><circle cx="1070.4" cy="1204.4" r="1.09" fill="#f4f3ef" opacity="0.067"/><circle cx="740.9" cy="1543.7" r="1.54" fill="#f4f3ef" opacity="0.054"/><circle cx="1013.9" cy="1303.6" r="0.21" fill="#f4f3ef" opacity="0.062"/><circle cx="941.2" cy="582.8" r="1.50" fill="#f4f3ef" opacity="0.037"/><circle cx="63.6" cy="1554.2" r="1.20" fill="#f4f3ef" opacity="0.049"/><circle cx="277.3" cy="820.2" r="0.33" fill="#f4f3ef" opacity="0.028"/><circle cx="100.9" cy="435.2" r="0.31" fill="#f4f3ef" opacity="0.071"/><circle cx="541.8" cy="794.2" r="0.51" fill="#f4f3ef" opacity="0.023"/><circle cx="962.9" cy="988.7" r="0.86" fill="#f4f3ef" opacity="0.045"/><circle cx="549.5" cy="228.4" r="1.24" fill="#f4f3ef" opacity="0.029"/><circle cx="575.6" cy="330.6" r="0.38" fill="#f4f3ef" opacity="0.074"/><circle cx="270.8" cy="1275.7" r="1.34" fill="#f4f3ef" opacity="0.033"/><circle cx="686.9" cy="1028.9" r="1.03" fill="#f4f3ef" opacity="0.072"/><circle cx="964.9" cy="1230.0" r="0.36" fill="#f4f3ef" opacity="0.063"/><circle cx="200.8" cy="1147.8" r="1.30" fill="#f4f3ef" opacity="0.032"/><circle cx="113.3" cy="703.6" r="0.61" fill="#f4f3ef" opacity="0.060"/><circle cx="109.7" cy="1358.9" r="1.38" fill="#f4f3ef" opacity="0.029"/><circle cx="353.1" cy="71.9" r="0.28" fill="#f4f3ef" opacity="0.023"/><circle cx="828.6" cy="319.0" r="0.91" fill="#f4f3ef" opacity="0.032"/><circle cx="10.2" cy="184.2" r="1.56" fill="#f4f3ef" opacity="0.074"/><circle cx="327.6" cy="714.4" r="0.60" fill="#f4f3ef" opacity="0.044"/><circle cx="32.7" cy="941.8" r="1.48" fill="#f4f3ef" opacity="0.028"/><circle cx="266.2" cy="372.4" r="0.45" fill="#f4f3ef" opacity="0.056"/><circle cx="924.3" cy="942.2" r="0.41" fill="#f4f3ef" opacity="0.077"/><circle cx="925.7" cy="438.7" r="0.44" fill="#f4f3ef" opacity="0.029"/><circle cx="477.7" cy="1390.3" r="0.38" fill="#f4f3ef" opacity="0.076"/><circle cx="543.3" cy="221.8" r="0.63" fill="#f4f3ef" opacity="0.040"/><circle cx="707.6" cy="1476.3" r="1.53" fill="#f4f3ef" opacity="0.074"/><circle cx="244.8" cy="1104.4" r="0.88" fill="#f4f3ef" opacity="0.054"/><circle cx="1184.5" cy="1219.9" r="0.80" fill="#f4f3ef" opacity="0.035"/><circle cx="178.4" cy="321.3" r="1.47" fill="#f4f3ef" opacity="0.024"/><circle cx="367.5" cy="581.6" r="1.48" fill="#f4f3ef" opacity="0.030"/><circle cx="47.9" cy="203.2" r="0.45" fill="#f4f3ef" opacity="0.041"/><circle cx="138.1" cy="1240.4" r="1.21" fill="#f4f3ef" opacity="0.038"/><circle cx="445.7" cy="888.3" r="0.32" fill="#f4f3ef" opacity="0.043"/><circle cx="333.5" cy="1438.3" r="0.51" fill="#f4f3ef" opacity="0.038"/><circle cx="186.7" cy="500.2" r="0.27" fill="#f4f3ef" opacity="0.036"/><circle cx="79.4" cy="1491.4" r="1.13" fill="#f4f3ef" opacity="0.074"/><circle cx="441.3" cy="1192.0" r="0.53" fill="#f4f3ef" opacity="0.066"/><circle cx="1124.2" cy="767.5" r="0.99" fill="#f4f3ef" opacity="0.059"/><circle cx="68.8" cy="257.4" r="0.64" fill="#f4f3ef" opacity="0.043"/><circle cx="1171.4" cy="530.8" r="1.42" fill="#f4f3ef" opacity="0.046"/><circle cx="150.5" cy="1508.8" r="1.51" fill="#f4f3ef" opacity="0.027"/><circle cx="13.6" cy="1453.0" r="1.19" fill="#f4f3ef" opacity="0.050"/><circle cx="923.7" cy="521.5" r="1.33" fill="#f4f3ef" opacity="0.076"/><circle cx="465.8" cy="590.8" r="1.35" fill="#f4f3ef" opacity="0.039"/><circle cx="714.1" cy="1344.9" r="0.91" fill="#f4f3ef" opacity="0.074"/><circle cx="498.2" cy="630.7" r="1.19" fill="#f4f3ef" opacity="0.078"/><circle cx="469.9" cy="680.3" r="1.45" fill="#f4f3ef" opacity="0.075"/><circle cx="570.1" cy="999.8" r="0.73" fill="#f4f3ef" opacity="0.036"/><circle cx="694.9" cy="325.1" r="0.53" fill="#f4f3ef" opacity="0.030"/><circle cx="962.9" cy="1243.8" r="1.34" fill="#f4f3ef" opacity="0.056"/><circle cx="381.6" cy="1484.4" r="1.59" fill="#f4f3ef" opacity="0.036"/><circle cx="1113.8" cy="671.4" r="0.28" fill="#f4f3ef" opacity="0.034"/><circle cx="344.9" cy="148.1" r="0.56" fill="#f4f3ef" opacity="0.021"/><circle cx="948.7" cy="665.2" r="0.22" fill="#f4f3ef" opacity="0.054"/><circle cx="155.0" cy="1136.2" r="1.38" fill="#f4f3ef" opacity="0.069"/><circle cx="615.7" cy="59.8" r="1.44" fill="#f4f3ef" opacity="0.070"/><circle cx="671.4" cy="1209.0" r="0.36" fill="#f4f3ef" opacity="0.070"/><circle cx="1018.4" cy="1186.1" r="0.57" fill="#f4f3ef" opacity="0.055"/><circle cx="175.3" cy="445.6" r="0.71" fill="#f4f3ef" opacity="0.065"/><circle cx="349.6" cy="982.4" r="1.53" fill="#f4f3ef" opacity="0.063"/><circle cx="904.0" cy="287.9" r="1.57" fill="#f4f3ef" opacity="0.032"/><circle cx="1023.9" cy="772.1" r="0.70" fill="#f4f3ef" opacity="0.043"/><circle cx="783.3" cy="1052.1" r="0.47" fill="#f4f3ef" opacity="0.074"/><circle cx="611.9" cy="1108.3" r="1.11" fill="#f4f3ef" opacity="0.040"/><circle cx="361.4" cy="506.0" r="0.96" fill="#f4f3ef" opacity="0.046"/><circle cx="372.6" cy="884.8" r="0.92" fill="#f4f3ef" opacity="0.023"/><circle cx="941.9" cy="1513.8" r="1.54" fill="#f4f3ef" opacity="0.059"/><circle cx="187.8" cy="714.0" r="1.01" fill="#f4f3ef" opacity="0.054"/><circle cx="1117.5" cy="1547.1" r="1.00" fill="#f4f3ef" opacity="0.070"/><circle cx="294.2" cy="971.1" r="0.99" fill="#f4f3ef" opacity="0.070"/><circle cx="103.0" cy="862.7" r="0.38" fill="#f4f3ef" opacity="0.045"/><circle cx="218.0" cy="905.7" r="0.25" fill="#f4f3ef" opacity="0.074"/><circle cx="668.7" cy="547.0" r="0.38" fill="#f4f3ef" opacity="0.051"/><circle cx="907.1" cy="418.8" r="1.41" fill="#f4f3ef" opacity="0.062"/><circle cx="873.9" cy="27.2" r="1.01" fill="#f4f3ef" opacity="0.077"/><circle cx="465.4" cy="1308.1" r="0.65" fill="#f4f3ef" opacity="0.044"/><circle cx="1000.2" cy="449.0" r="0.84" fill="#f4f3ef" opacity="0.022"/><circle cx="285.5" cy="1578.4" r="1.40" fill="#f4f3ef" opacity="0.057"/><circle cx="484.4" cy="1121.0" r="1.34" fill="#f4f3ef" opacity="0.027"/><circle cx="1182.1" cy="420.0" r="0.99" fill="#f4f3ef" opacity="0.028"/><circle cx="452.6" cy="225.9" r="0.97" fill="#f4f3ef" opacity="0.054"/><circle cx="325.6" cy="1052.5" r="0.57" fill="#f4f3ef" opacity="0.042"/><circle cx="1052.9" cy="1398.3" r="1.40" fill="#f4f3ef" opacity="0.057"/><circle cx="975.2" cy="236.4" r="0.63" fill="#f4f3ef" opacity="0.050"/><circle cx="789.0" cy="569.1" r="0.69" fill="#f4f3ef" opacity="0.068"/><circle cx="212.6" cy="1250.8" r="0.20" fill="#f4f3ef" opacity="0.031"/><circle cx="253.5" cy="1076.5" r="1.34" fill="#f4f3ef" opacity="0.023"/><circle cx="274.6" cy="737.6" r="1.22" fill="#f4f3ef" opacity="0.025"/><circle cx="661.1" cy="1043.9" r="1.13" fill="#f4f3ef" opacity="0.050"/><circle cx="287.2" cy="612.8" r="1.21" fill="#f4f3ef" opacity="0.074"/><circle cx="782.4" cy="1024.6" r="0.30" fill="#f4f3ef" opacity="0.073"/><circle cx="798.6" cy="244.5" r="0.92" fill="#f4f3ef" opacity="0.033"/><circle cx="676.5" cy="1512.2" r="1.19" fill="#f4f3ef" opacity="0.063"/><circle cx="712.5" cy="896.7" r="0.26" fill="#f4f3ef" opacity="0.073"/><circle cx="225.0" cy="1519.1" r="0.50" fill="#f4f3ef" opacity="0.020"/><circle cx="1021.4" cy="41.2" r="0.81" fill="#f4f3ef" opacity="0.030"/><circle cx="864.8" cy="1420.8" r="0.64" fill="#f4f3ef" opacity="0.063"/><circle cx="940.2" cy="1134.5" r="0.81" fill="#f4f3ef" opacity="0.052"/><circle cx="921.8" cy="466.4" r="0.99" fill="#f4f3ef" opacity="0.075"/><circle cx="839.3" cy="463.3" r="0.96" fill="#f4f3ef" opacity="0.025"/><circle cx="144.4" cy="157.3" r="1.38" fill="#f4f3ef" opacity="0.049"/><circle cx="1177.8" cy="654.7" r="1.28" fill="#f4f3ef" opacity="0.057"/><circle cx="236.0" cy="691.1" r="0.77" fill="#f4f3ef" opacity="0.057"/><circle cx="1037.4" cy="1254.2" r="0.34" fill="#f4f3ef" opacity="0.049"/><circle cx="189.4" cy="72.5" r="1.21" fill="#f4f3ef" opacity="0.077"/><circle cx="1055.0" cy="1570.6" r="0.99" fill="#f4f3ef" opacity="0.021"/><circle cx="819.3" cy="691.8" r="1.42" fill="#f4f3ef" opacity="0.035"/><circle cx="1156.5" cy="1386.7" r="0.31" fill="#f4f3ef" opacity="0.055"/><circle cx="496.1" cy="968.8" r="1.16" fill="#f4f3ef" opacity="0.076"/><circle cx="290.1" cy="1136.8" r="1.37" fill="#f4f3ef" opacity="0.044"/><circle cx="79.1" cy="863.8" r="0.91" fill="#f4f3ef" opacity="0.030"/><circle cx="559.5" cy="1552.0" r="0.81" fill="#f4f3ef" opacity="0.022"/><circle cx="249.8" cy="455.9" r="1.10" fill="#f4f3ef" opacity="0.058"/><circle cx="157.3" cy="1170.5" r="1.15" fill="#f4f3ef" opacity="0.043"/><circle cx="845.1" cy="1187.2" r="0.88" fill="#f4f3ef" opacity="0.079"/><circle cx="298.4" cy="1315.8" r="1.57" fill="#f4f3ef" opacity="0.057"/><circle cx="991.1" cy="173.6" r="0.56" fill="#f4f3ef" opacity="0.075"/><circle cx="953.0" cy="940.9" r="0.89" fill="#f4f3ef" opacity="0.047"/><circle cx="35.8" cy="1583.0" r="0.89" fill="#f4f3ef" opacity="0.080"/><circle cx="980.4" cy="539.6" r="1.47" fill="#f4f3ef" opacity="0.044"/><circle cx="483.0" cy="279.7" r="0.38" fill="#f4f3ef" opacity="0.026"/><circle cx="262.2" cy="724.3" r="1.40" fill="#f4f3ef" opacity="0.047"/><circle cx="925.3" cy="135.2" r="0.62" fill="#f4f3ef" opacity="0.050"/><circle cx="235.3" cy="270.4" r="0.29" fill="#f4f3ef" opacity="0.057"/><circle cx="577.4" cy="1406.4" r="1.24" fill="#f4f3ef" opacity="0.059"/><circle cx="425.7" cy="27.2" r="0.34" fill="#f4f3ef" opacity="0.075"/><circle cx="1009.8" cy="379.6" r="1.55" fill="#f4f3ef" opacity="0.058"/><circle cx="581.6" cy="1495.9" r="1.34" fill="#f4f3ef" opacity="0.035"/><circle cx="281.7" cy="1282.1" r="1.56" fill="#f4f3ef" opacity="0.037"/><circle cx="6.6" cy="74.0" r="0.89" fill="#f4f3ef" opacity="0.071"/><circle cx="1074.6" cy="459.4" r="1.24" fill="#f4f3ef" opacity="0.076"/><circle cx="93.3" cy="166.6" r="1.02" fill="#f4f3ef" opacity="0.037"/><circle cx="425.5" cy="420.3" r="0.65" fill="#f4f3ef" opacity="0.074"/><circle cx="456.5" cy="963.7" r="0.45" fill="#f4f3ef" opacity="0.041"/><circle cx="660.4" cy="947.4" r="1.05" fill="#f4f3ef" opacity="0.055"/><circle cx="666.7" cy="885.0" r="0.35" fill="#f4f3ef" opacity="0.049"/><circle cx="727.3" cy="875.4" r="1.33" fill="#f4f3ef" opacity="0.031"/><circle cx="383.0" cy="1491.2" r="1.19" fill="#f4f3ef" opacity="0.070"/><circle cx="330.1" cy="935.0" r="0.93" fill="#f4f3ef" opacity="0.035"/><circle cx="287.0" cy="1261.1" r="0.60" fill="#f4f3ef" opacity="0.025"/><circle cx="61.2" cy="1264.6" r="0.96" fill="#f4f3ef" opacity="0.064"/><circle cx="215.7" cy="36.8" r="0.53" fill="#f4f3ef" opacity="0.072"/><circle cx="1135.6" cy="1587.6" r="0.60" fill="#f4f3ef" opacity="0.064"/><circle cx="495.0" cy="1334.3" r="1.30" fill="#f4f3ef" opacity="0.075"/><circle cx="1123.5" cy="857.1" r="1.48" fill="#f4f3ef" opacity="0.021"/><circle cx="473.1" cy="1321.5" r="0.85" fill="#f4f3ef" opacity="0.067"/><circle cx="84.3" cy="1167.0" r="0.35" fill="#f4f3ef" opacity="0.024"/><circle cx="253.6" cy="1262.7" r="0.51" fill="#f4f3ef" opacity="0.040"/><circle cx="299.4" cy="1529.5" r="0.90" fill="#f4f3ef" opacity="0.074"/><circle cx="829.2" cy="229.3" r="0.43" fill="#f4f3ef" opacity="0.070"/><circle cx="805.9" cy="720.0" r="1.35" fill="#f4f3ef" opacity="0.050"/><circle cx="214.7" cy="78.2" r="0.28" fill="#f4f3ef" opacity="0.066"/><circle cx="1129.6" cy="1187.9" r="1.08" fill="#f4f3ef" opacity="0.075"/><circle cx="1180.4" cy="295.9" r="0.74" fill="#f4f3ef" opacity="0.032"/><circle cx="1018.8" cy="1234.4" r="1.31" fill="#f4f3ef" opacity="0.022"/><circle cx="585.6" cy="309.5" r="0.44" fill="#f4f3ef" opacity="0.077"/><circle cx="977.1" cy="1057.0" r="1.01" fill="#f4f3ef" opacity="0.024"/><circle cx="1111.8" cy="1264.6" r="0.74" fill="#f4f3ef" opacity="0.043"/><circle cx="1197.2" cy="260.7" r="0.83" fill="#f4f3ef" opacity="0.057"/><circle cx="996.1" cy="869.9" r="0.30" fill="#f4f3ef" opacity="0.068"/><circle cx="93.7" cy="1235.5" r="0.89" fill="#f4f3ef" opacity="0.048"/><circle cx="164.3" cy="508.1" r="0.40" fill="#f4f3ef" opacity="0.055"/><circle cx="837.2" cy="801.3" r="0.94" fill="#f4f3ef" opacity="0.023"/><circle cx="1164.5" cy="613.9" r="1.30" fill="#f4f3ef" opacity="0.078"/><circle cx="686.9" cy="518.6" r="1.46" fill="#f4f3ef" opacity="0.051"/><circle cx="100.6" cy="318.0" r="1.05" fill="#f4f3ef" opacity="0.049"/><circle cx="324.2" cy="466.3" r="1.50" fill="#f4f3ef" opacity="0.052"/><circle cx="1165.1" cy="1358.7" r="0.77" fill="#f4f3ef" opacity="0.024"/><circle cx="786.2" cy="486.4" r="1.59" fill="#f4f3ef" opacity="0.066"/><circle cx="772.8" cy="259.5" r="1.03" fill="#f4f3ef" opacity="0.071"/><circle cx="1198.9" cy="895.1" r="0.64" fill="#f4f3ef" opacity="0.075"/><circle cx="94.1" cy="773.4" r="0.67" fill="#f4f3ef" opacity="0.054"/><circle cx="910.3" cy="1060.1" r="0.82" fill="#f4f3ef" opacity="0.054"/><circle cx="388.2" cy="194.4" r="0.62" fill="#f4f3ef" opacity="0.064"/><circle cx="24.2" cy="645.6" r="0.63" fill="#f4f3ef" opacity="0.053"/><circle cx="336.6" cy="734.7" r="0.40" fill="#f4f3ef" opacity="0.041"/><circle cx="733.1" cy="323.4" r="0.24" fill="#f4f3ef" opacity="0.031"/><circle cx="176.4" cy="1169.7" r="1.00" fill="#f4f3ef" opacity="0.044"/><circle cx="1051.9" cy="350.1" r="0.71" fill="#f4f3ef" opacity="0.073"/><circle cx="633.5" cy="748.6" r="0.42" fill="#f4f3ef" opacity="0.075"/><circle cx="150.9" cy="212.2" r="1.33" fill="#f4f3ef" opacity="0.065"/><circle cx="256.0" cy="972.9" r="1.28" fill="#f4f3ef" opacity="0.069"/><circle cx="889.5" cy="936.9" r="0.71" fill="#f4f3ef" opacity="0.057"/><circle cx="747.7" cy="439.9" r="1.13" fill="#f4f3ef" opacity="0.038"/><circle cx="1149.0" cy="469.8" r="0.23" fill="#f4f3ef" opacity="0.070"/><circle cx="1101.0" cy="354.7" r="0.64" fill="#f4f3ef" opacity="0.077"/><circle cx="366.6" cy="1319.5" r="1.36" fill="#f4f3ef" opacity="0.062"/><circle cx="931.0" cy="1507.4" r="1.32" fill="#f4f3ef" opacity="0.055"/><circle cx="868.1" cy="68.9" r="1.14" fill="#f4f3ef" opacity="0.055"/><circle cx="1007.8" cy="717.6" r="1.52" fill="#f4f3ef" opacity="0.056"/><circle cx="401.8" cy="352.4" r="1.26" fill="#f4f3ef" opacity="0.065"/><circle cx="990.8" cy="1146.0" r="0.34" fill="#f4f3ef" opacity="0.031"/><circle cx="1071.2" cy="1300.9" r="1.17" fill="#f4f3ef" opacity="0.062"/><circle cx="361.5" cy="1271.5" r="1.00" fill="#f4f3ef" opacity="0.079"/><circle cx="1069.0" cy="1452.8" r="0.58" fill="#f4f3ef" opacity="0.044"/><circle cx="156.8" cy="936.1" r="1.24" fill="#f4f3ef" opacity="0.059"/><circle cx="410.0" cy="531.3" r="1.46" fill="#f4f3ef" opacity="0.077"/><circle cx="702.8" cy="455.8" r="1.39" fill="#f4f3ef" opacity="0.075"/><circle cx="264.6" cy="689.7" r="1.25" fill="#f4f3ef" opacity="0.028"/><circle cx="147.5" cy="798.6" r="0.79" fill="#f4f3ef" opacity="0.040"/><circle cx="692.1" cy="821.8" r="0.90" fill="#f4f3ef" opacity="0.044"/><circle cx="994.7" cy="28.6" r="0.75" fill="#f4f3ef" opacity="0.067"/><circle cx="373.9" cy="1539.9" r="1.30" fill="#f4f3ef" opacity="0.068"/><circle cx="637.0" cy="417.4" r="1.45" fill="#f4f3ef" opacity="0.051"/><circle cx="747.0" cy="19.3" r="0.66" fill="#f4f3ef" opacity="0.037"/><circle cx="689.1" cy="621.9" r="1.14" fill="#f4f3ef" opacity="0.080"/><circle cx="137.4" cy="309.4" r="1.17" fill="#f4f3ef" opacity="0.075"/><circle cx="321.5" cy="128.5" r="0.52" fill="#f4f3ef" opacity="0.039"/><circle cx="693.2" cy="711.4" r="1.24" fill="#f4f3ef" opacity="0.056"/><circle cx="1193.4" cy="1564.3" r="0.99" fill="#f4f3ef" opacity="0.038"/><circle cx="518.2" cy="1422.9" r="1.26" fill="#f4f3ef" opacity="0.051"/><circle cx="1186.3" cy="1275.0" r="1.13" fill="#f4f3ef" opacity="0.037"/><circle cx="1004.9" cy="448.8" r="0.45" fill="#f4f3ef" opacity="0.038"/><circle cx="937.2" cy="169.2" r="1.01" fill="#f4f3ef" opacity="0.055"/><circle cx="568.2" cy="179.2" r="0.35" fill="#f4f3ef" opacity="0.062"/><circle cx="372.0" cy="1229.6" r="0.48" fill="#f4f3ef" opacity="0.055"/><circle cx="1178.3" cy="633.9" r="0.71" fill="#f4f3ef" opacity="0.030"/><circle cx="839.0" cy="90.9" r="1.23" fill="#f4f3ef" opacity="0.052"/><circle cx="94.7" cy="173.4" r="0.62" fill="#f4f3ef" opacity="0.071"/><circle cx="841.7" cy="683.9" r="1.30" fill="#f4f3ef" opacity="0.076"/><circle cx="398.7" cy="476.7" r="0.50" fill="#f4f3ef" opacity="0.046"/><circle cx="972.9" cy="1546.8" r="0.39" fill="#f4f3ef" opacity="0.064"/><circle cx="727.4" cy="1385.7" r="0.89" fill="#f4f3ef" opacity="0.053"/><circle cx="47.3" cy="803.2" r="0.50" fill="#f4f3ef" opacity="0.024"/><circle cx="206.7" cy="16.5" r="0.73" fill="#f4f3ef" opacity="0.075"/><circle cx="435.2" cy="606.0" r="0.44" fill="#f4f3ef" opacity="0.061"/><circle cx="584.7" cy="537.1" r="0.75" fill="#f4f3ef" opacity="0.027"/><circle cx="996.0" cy="1449.2" r="1.18" fill="#f4f3ef" opacity="0.024"/><circle cx="765.3" cy="1011.6" r="0.87" fill="#f4f3ef" opacity="0.020"/><circle cx="411.1" cy="745.1" r="0.80" fill="#f4f3ef" opacity="0.035"/><circle cx="540.9" cy="511.5" r="1.26" fill="#f4f3ef" opacity="0.071"/><circle cx="117.5" cy="468.9" r="0.31" fill="#f4f3ef" opacity="0.031"/><circle cx="326.3" cy="893.8" r="1.57" fill="#f4f3ef" opacity="0.027"/><circle cx="841.3" cy="1470.1" r="0.51" fill="#f4f3ef" opacity="0.075"/><circle cx="492.1" cy="44.8" r="1.10" fill="#f4f3ef" opacity="0.072"/><circle cx="1130.5" cy="449.9" r="1.21" fill="#f4f3ef" opacity="0.043"/><circle cx="297.3" cy="591.7" r="1.27" fill="#f4f3ef" opacity="0.078"/><circle cx="288.8" cy="805.9" r="1.38" fill="#f4f3ef" opacity="0.065"/><circle cx="23.5" cy="480.1" r="0.63" fill="#f4f3ef" opacity="0.064"/><circle cx="908.8" cy="542.9" r="0.26" fill="#f4f3ef" opacity="0.058"/><circle cx="307.7" cy="618.8" r="0.66" fill="#f4f3ef" opacity="0.049"/><circle cx="205.4" cy="451.1" r="0.78" fill="#f4f3ef" opacity="0.069"/><circle cx="1075.9" cy="790.4" r="1.23" fill="#f4f3ef" opacity="0.056"/><circle cx="148.9" cy="550.2" r="1.30" fill="#f4f3ef" opacity="0.063"/><circle cx="76.2" cy="1429.4" r="1.19" fill="#f4f3ef" opacity="0.039"/><circle cx="398.6" cy="800.8" r="0.89" fill="#f4f3ef" opacity="0.051"/><circle cx="612.3" cy="66.9" r="1.42" fill="#f4f3ef" opacity="0.029"/><circle cx="435.9" cy="1281.9" r="1.40" fill="#f4f3ef" opacity="0.073"/><circle cx="876.8" cy="40.9" r="1.60" fill="#f4f3ef" opacity="0.024"/><circle cx="97.9" cy="235.3" r="0.55" fill="#f4f3ef" opacity="0.046"/><circle cx="884.5" cy="1075.0" r="0.93" fill="#f4f3ef" opacity="0.031"/><circle cx="910.6" cy="1177.3" r="1.47" fill="#f4f3ef" opacity="0.076"/><circle cx="605.8" cy="522.3" r="1.03" fill="#f4f3ef" opacity="0.035"/><circle cx="1021.9" cy="275.6" r="0.72" fill="#f4f3ef" opacity="0.074"/><circle cx="99.9" cy="476.6" r="1.45" fill="#f4f3ef" opacity="0.065"/><circle cx="535.8" cy="394.5" r="0.99" fill="#f4f3ef" opacity="0.034"/><circle cx="448.3" cy="1550.3" r="0.30" fill="#f4f3ef" opacity="0.062"/><circle cx="444.7" cy="605.6" r="1.07" fill="#f4f3ef" opacity="0.031"/><circle cx="688.1" cy="918.5" r="1.37" fill="#f4f3ef" opacity="0.024"/><circle cx="1163.6" cy="1165.7" r="0.61" fill="#f4f3ef" opacity="0.033"/><circle cx="345.2" cy="1030.9" r="1.26" fill="#f4f3ef" opacity="0.076"/><circle cx="662.6" cy="1561.1" r="0.29" fill="#f4f3ef" opacity="0.046"/><circle cx="367.7" cy="188.4" r="1.17" fill="#f4f3ef" opacity="0.030"/><circle cx="601.2" cy="1219.1" r="1.55" fill="#f4f3ef" opacity="0.058"/><circle cx="59.3" cy="188.8" r="1.50" fill="#f4f3ef" opacity="0.078"/><circle cx="60.7" cy="1285.3" r="1.53" fill="#f4f3ef" opacity="0.031"/><circle cx="812.7" cy="637.0" r="1.47" fill="#f4f3ef" opacity="0.078"/><circle cx="878.3" cy="1068.4" r="0.32" fill="#f4f3ef" opacity="0.042"/><circle cx="1042.6" cy="722.9" r="1.22" fill="#f4f3ef" opacity="0.076"/><circle cx="579.8" cy="351.1" r="0.57" fill="#f4f3ef" opacity="0.056"/><circle cx="319.5" cy="466.5" r="0.49" fill="#f4f3ef" opacity="0.037"/><circle cx="513.4" cy="1168.0" r="1.16" fill="#f4f3ef" opacity="0.025"/><circle cx="702.5" cy="1428.2" r="1.17" fill="#f4f3ef" opacity="0.031"/><circle cx="382.9" cy="1049.8" r="1.54" fill="#f4f3ef" opacity="0.043"/><circle cx="473.1" cy="487.1" r="0.90" fill="#f4f3ef" opacity="0.039"/><circle cx="780.7" cy="135.0" r="1.41" fill="#f4f3ef" opacity="0.045"/><circle cx="668.5" cy="685.0" r="0.20" fill="#f4f3ef" opacity="0.040"/><circle cx="521.7" cy="1346.9" r="1.36" fill="#f4f3ef" opacity="0.038"/><circle cx="414.4" cy="738.0" r="0.82" fill="#f4f3ef" opacity="0.076"/><circle cx="776.3" cy="438.6" r="0.22" fill="#f4f3ef" opacity="0.068"/><circle cx="259.2" cy="14.1" r="0.68" fill="#f4f3ef" opacity="0.061"/><circle cx="403.8" cy="1104.0" r="0.33" fill="#f4f3ef" opacity="0.045"/><circle cx="306.4" cy="1377.5" r="1.11" fill="#f4f3ef" opacity="0.047"/><circle cx="485.5" cy="755.4" r="1.20" fill="#f4f3ef" opacity="0.028"/><circle cx="348.6" cy="699.7" r="0.88" fill="#f4f3ef" opacity="0.051"/><circle cx="58.7" cy="1368.2" r="1.02" fill="#f4f3ef" opacity="0.078"/><circle cx="800.8" cy="1437.5" r="1.04" fill="#f4f3ef" opacity="0.040"/><circle cx="1049.1" cy="591.6" r="0.60" fill="#f4f3ef" opacity="0.076"/><circle cx="833.2" cy="1477.4" r="0.88" fill="#f4f3ef" opacity="0.079"/><circle cx="804.9" cy="1527.0" r="1.14" fill="#f4f3ef" opacity="0.077"/><circle cx="905.1" cy="246.5" r="0.42" fill="#f4f3ef" opacity="0.038"/><circle cx="1029.9" cy="1171.8" r="0.22" fill="#f4f3ef" opacity="0.032"/><circle cx="97.9" cy="490.5" r="1.03" fill="#f4f3ef" opacity="0.057"/><circle cx="716.6" cy="731.0" r="1.28" fill="#f4f3ef" opacity="0.038"/><circle cx="248.8" cy="1518.1" r="1.37" fill="#f4f3ef" opacity="0.036"/><circle cx="679.9" cy="994.8" r="0.25" fill="#f4f3ef" opacity="0.023"/><circle cx="83.7" cy="1511.9" r="1.31" fill="#f4f3ef" opacity="0.056"/><circle cx="490.0" cy="382.8" r="1.08" fill="#f4f3ef" opacity="0.071"/><circle cx="950.7" cy="906.5" r="1.13" fill="#f4f3ef" opacity="0.072"/><circle cx="1006.4" cy="455.6" r="1.45" fill="#f4f3ef" opacity="0.072"/><circle cx="153.4" cy="432.8" r="0.26" fill="#f4f3ef" opacity="0.056"/><circle cx="510.3" cy="1292.2" r="0.40" fill="#f4f3ef" opacity="0.066"/><circle cx="684.6" cy="229.1" r="1.22" fill="#f4f3ef" opacity="0.065"/><circle cx="39.0" cy="1134.6" r="1.26" fill="#f4f3ef" opacity="0.034"/><circle cx="158.9" cy="18.7" r="0.39" fill="#f4f3ef" opacity="0.045"/><circle cx="1118.3" cy="298.8" r="1.56" fill="#f4f3ef" opacity="0.076"/><circle cx="946.9" cy="354.9" r="0.80" fill="#f4f3ef" opacity="0.042"/><circle cx="696.4" cy="1352.6" r="0.65" fill="#f4f3ef" opacity="0.048"/><circle cx="707.6" cy="131.4" r="0.61" fill="#f4f3ef" opacity="0.025"/><circle cx="76.9" cy="760.4" r="1.23" fill="#f4f3ef" opacity="0.061"/><circle cx="522.8" cy="1560.6" r="0.70" fill="#f4f3ef" opacity="0.055"/><circle cx="252.5" cy="793.7" r="0.69" fill="#f4f3ef" opacity="0.072"/><circle cx="629.2" cy="217.8" r="0.68" fill="#f4f3ef" opacity="0.071"/><circle cx="438.0" cy="109.4" r="1.47" fill="#f4f3ef" opacity="0.047"/><circle cx="553.0" cy="152.3" r="1.34" fill="#f4f3ef" opacity="0.076"/><circle cx="1003.7" cy="1393.7" r="1.47" fill="#f4f3ef" opacity="0.053"/><circle cx="42.1" cy="1265.5" r="1.10" fill="#f4f3ef" opacity="0.063"/><circle cx="8.9" cy="873.9" r="0.70" fill="#f4f3ef" opacity="0.078"/><circle cx="800.4" cy="554.8" r="0.34" fill="#f4f3ef" opacity="0.045"/><circle cx="135.2" cy="1295.7" r="0.53" fill="#f4f3ef" opacity="0.024"/><circle cx="620.5" cy="825.1" r="1.09" fill="#f4f3ef" opacity="0.058"/><circle cx="819.4" cy="367.7" r="1.03" fill="#f4f3ef" opacity="0.029"/><circle cx="317.1" cy="1266.6" r="0.68" fill="#f4f3ef" opacity="0.029"/><circle cx="787.6" cy="1072.6" r="0.66" fill="#f4f3ef" opacity="0.056"/><circle cx="660.6" cy="299.1" r="0.26" fill="#f4f3ef" opacity="0.044"/><circle cx="187.9" cy="645.0" r="1.09" fill="#f4f3ef" opacity="0.059"/>
  <rect width="1200" height="1600" fill="url(#l18)"/>
  <circle cx="600" cy="736" r="108" fill="none" stroke="#f4f3ef" stroke-opacity="0.35" stroke-width="1"/>
  <text x="60" y="1472" font-family="Helvetica, Arial, sans-serif" font-size="21.599999999999998" letter-spacing="4" fill="#f4f3ef" fill-opacity="0.72">NIGHTFIELD / PHOTO</text>
  <text x="60" y="1536" font-family="Helvetica, Arial, sans-serif" font-size="13.2" letter-spacing="2" fill="#f4f3ef" fill-opacity="0.38">2025</text>
</svg>