<?xml version="1.0" encoding="UTF-8"?>
<svg xmlns="http://www.w3.org/2000/svg" width="1200" height="1500" viewBox="0 0 1200 1500">
  <defs>
    <linearGradient id="g5" x1="0%" y1="0%" x2="100%" y2="100%">
      <stop offset="0%" stop-color="#12161a"/>
      <stop offset="100%" stop-color="#20313f"/>
    </linearGradient>
    <linearGradient id="l5" x1="0%" y1="0%" x2="0%" y2="100%">
      <stop offset="0%" stop-color="#000" stop-opacity="0"/>
      <stop offset="100%" stop-color="#000" stop-opacity="0.55"/>
    </linearGradient>
  </defs>
  <rect width="1200" height="1500" fill="url(#g5)"/>
  <circle cx="492.8" cy="1333.5" r="0.93" fill="#f4f3ef" opacity="0.069"/><circle cx="660.9" cy="569.7" r="0.23" fill="#f4f3ef" opacity="0.029"/><circle cx="1179.5" cy="670.2" r="0.36" fill="#f4f3ef" opacity="0.065"/><circle cx="611.8" cy="1283.1" r="0.34" fill="#f4f3ef" opacity="0.058"/><circle cx="942.8" cy="667.5" r="0.50" fill="#f4f3ef" opacity="0.039"/><circle cx="246.6" cy="1027.3" r="1.44" fill="#f4f3ef" opacity="0.068"/><circle cx="552.9" cy="1343.8" r="1.09" fill="#f4f3ef" opacity="0.077"/><circle cx="913.6" cy="209.7" r="1.02" fill="#f4f3ef" opacity="0.074"/><circle cx="869.3" cy="1162.1" r="1.23" fill="#f4f3ef" opacity="0.068"/><circle cx="1116.3" cy="1015.6" r="1.32" fill="#f4f3ef" opacity="0.048"/><circle cx="173.3" cy="196.4" r="1.34" fill="#f4f3ef" opacity="0.053"/><circle cx="247.5" cy="574.6" r="0.65" fill="#f4f3ef" opacity="0.047"/><circle cx="701.9" cy="1298.6" r="0.57" fill="#f4f3ef" opacity="0.070"/><circle cx="721.8" cy="127.5" r="0.99" fill="#f4f3ef" opacity="0.077"/><circle cx="381.2" cy="265.0" r="0.64" fill="#f4f3ef" opacity="0.043"/><circle cx="109.8" cy="192.6" r="1.17" fill="#f4f3ef" opacity="0.064"/><circle cx="959.3" cy="1003.0" r="0.90" fill="#f4f3ef" opacity="0.065"/><circle cx="870.6" cy="1233.1" r="0.74" fill="#f4f3ef" opacity="0.037"/><circle cx="139.8" cy="197.8" r="1.25" fill="#f4f3ef" opacity="0.068"/><circle cx="485.7" cy="823.0" r="0.59" fill="#f4f3ef" opacity="0.057"/><circle cx="115.4" cy="1479.0" r="0.47" fill="#f4f3ef" opacity="0.068"/><circle cx="392.1" cy="814.1" r="0.34" fill="#f4f3ef" opacity="0.063"/><circle cx="100.9" cy="587.4" r="1.02" fill="#f4f3ef" opacity="0.034"/><circle cx="115.9" cy="502.7" r="0.77" fill="#f4f3ef" opacity="0.058"/><circle cx="466.6" cy="41.5" r="0.78" fill="#f4f3ef" opacity="0.030"/><circle cx="605.1" cy="1296.3" r="0.30" fill="#f4f3ef" opacity="0.035"/><circle cx="471.9" cy="804.2" r="1.18" fill="#f4f3ef" opacity="0.045"/><circle cx="1163.4" cy="380.0" r="0.71" fill="#f4f3ef" opacity="0.067"/><circle cx="398.1" cy="949.6" r="0.78" fill="#f4f3ef" opacity="0.041"/><circle cx="783.4" cy="383.4" r="1.22" fill="#f4f3ef" opacity="0.070"/><circle cx="882.3" cy="1329.6" r="1.04" fill="#f4f3ef" opacity="0.036"/><circle cx="280.0" cy="547.4" r="0.58" fill="#f4f3ef" opacity="0.031"/><circle cx="650.5" cy="240.5" r="0.44" fill="#f4f3ef" opacity="0.053"/><circle cx="423.5" cy="890.3" r="1.33" fill="#f4f3ef" opacity="0.036"/><circle cx="1050.8" cy="1089.6" r="0.64" fill="#f4f3ef" opacity="0.046"/><circle cx="873.2" cy="1375.3" r="1.16" fill="#f4f3ef" opacity="0.034"/><circle cx="586.9" cy="62.2" r="1.10" fill="#f4f3ef" opacity="0.047"/><circle cx="1110.5" cy="576.2" r="0.49" fill="#f4f3ef" opacity="0.065"/><circle cx="1051.4" cy="287.8" r="1.51" fill="#f4f3ef" opacity="0.052"/><circle cx="972.5" cy="1345.1" r="1.28" fill="#f4f3ef" opacity="0.049"/><circle cx="59.1" cy="7.3" r="1.07" fill="#f4f3ef" opacity="0.069"/><circle cx="785.1" cy="978.2" r="1.04" fill="#f4f3ef" opacity="0.028"/><circle cx="1180.3" cy="1239.2" r="1.41" fill="#f4f3ef" opacity="0.022"/><circle cx="1096.5" cy="382.9" r="0.51" fill="#f4f3ef" opacity="0.037"/><circle cx="874.5" cy="1446.3" r="0.67" fill="#f4f3ef" opacity="0.062"/><circle cx="810.4" cy="744.3" r="1.02" fill="#f4f3ef" opacity="0.066"/><circle cx="222.9" cy="1202.8" r="1.14" fill="#f4f3ef" opacity="0.069"/><circle cx="919.3" cy="1192.2" r="1.33" fill="#f4f3ef" opacity="0.074"/><circle cx="662.7" cy="860.6" r="1.05" fill="#f4f3ef" opacity="0.042"/><circle cx="638.1" cy="467.3" r="1.10" fill="#f4f3ef" opacity="0.026"/><circle cx="519.8" cy="1215.9" r="1.17" fill="#f4f3ef" opacity="0.043"/><circle cx="337.2" cy="1088.0" r="1.02" fill="#f4f3ef" opacity="0.048"/><circle cx="742.3" cy="676.2" r="1.32" fill="#f4f3ef" opacity="0.067"/><circle cx="475.8" cy="1017.4" r="1.11" fill="#f4f3ef" opacity="0.070"/><circle cx="633.9" cy="926.5" r="0.48" fill="#f4f3ef" opacity="0.066"/><circle cx="135.3" cy="1329.5" r="1.33" fill="#f4f3ef" opacity="0.053"/><circle cx="387.3" cy="96.6" r="0.68" fill="#f4f3ef" opacity="0.075"/><circle cx="1152.9" cy="1376.1" r="0.35" fill="#f4f3ef" opacity="0.075"/><circle cx="817.2" cy="427.2" r="0.66" fill="#f4f3ef" opacity="0.023"/><circle cx="1054.4" cy="953.6" r="0.83" fill="#f4f3ef" opacity="0.038"/><circle cx="294.0" cy="436.9" r="1.57" fill="#f4f3ef" opacity="0.054"/><circle cx="1188.0" cy="469.4" r="0.26" fill="#f4f3ef" opacity="0.078"/><circle cx="877.0" cy="88.4" r="1.08" fill="#f4f3ef" opacity="0.059"/><circle cx="57.4" cy="608.7" r="0.87" fill="#f4f3ef" opacity="0.045"/><circle cx="847.7" cy="956.1" r="1.04" fill="#f4f3ef" opacity="0.077"/><circle cx="655.3" cy="1.0" r="0.97" fill="#f4f3ef" opacity="0.057"/><circle cx="43.1" cy="1391.6" r="0.58" fill="#f4f3ef" opacity="0.027"/><circle cx="596.3" cy="1387.2" r="1.16" fill="#f4f3ef" opacity="0.060"/><circle cx="1189.0" cy="191.4" r="1.43" fill="#f4f3ef" opacity="0.073"/><circle cx="1050.9" cy="785.7" r="0.25" fill="#f4f3ef" opacity="0.041"/><circle cx="33.8" cy="1262.7" r="1.53" fill="#f4f3ef" opacity="0.068"/><circle cx="878.3" cy="159.5" r="0.59" fill="#f4f3ef" opacity="0.027"/><circle cx="281.0" cy="1290.9" r="0.79" fill="#f4f3ef" opacity="0.065"/><circle cx="1160.1" cy="82.7" r="0.29" fill="#f4f3ef" opacity="0.021"/><circle cx="523.2" cy="905.4" r="0.79" fill="#f4f3ef" opacity="0.079"/><circle cx="933.2" cy="907.1" r="0.35" fill="#f4f3ef" opacity="0.020"/><circle cx="1175.4" cy="347.1" r="1.18" fill="#f4f3ef" opacity="0.078"/><circle cx="923.7" cy="429.1" r="1.56" fill="#f4f3ef" opacity="0.028"/><circle cx="207.7" cy="634.5" r="1.26" fill="#f4f3ef" opacity="0.067"/><circle cx="879.5" cy="56.0" r="0.93" fill="#f4f3ef" opacity="0.039"/><circle cx="479.6" cy="1230.6" r="1.03" fill="#f4f3ef" opacity="0.036"/><circle cx="104.5" cy="1473.0" r="0.25" fill="#f4f3ef" opacity="0.064"/><circle cx="1072.5" cy="209.3" r="0.48" fill="#f4f3ef" opacity="0.065"/><circle cx="1191.2" cy="1309.8" r="1.54" fill="#f4f3ef" opacity="0.021"/><circle cx="223.4" cy="1422.7" r="1.05" fill="#f4f3ef" opacity="0.053"/><circle cx="154.4" cy="307.1" r="0.74" fill="#f4f3ef" opacity="0.075"/><circle cx="258.3" cy="166.8" r="1.23" fill="#f4f3ef" opacity="0.023"/><circle cx="164.6" cy="1483.4" r="0.40" fill="#f4f3ef" opacity="0.073"/><circle cx="125.2" cy="1349.3" r="1.27" fill="#f4f3ef" opacity="0.050"/><circle cx="880.9" cy="301.6" r="1.01" fill="#f4f3ef" opacity="0.024"/><circle cx="728.0" cy="1155.2" r="0.64" fill="#f4f3ef" opacity="0.044"/><circle cx="584.9" cy="1336.0" r="1.59" fill="#f4f3ef" opacity="0.029"/><circle cx="259.1" cy="1214.2" r="0.43" fill="#f4f3ef" opacity="0.062"/><circle cx="313.6" cy="1438.2" r="1.29" fill="#f4f3ef" opacity="0.066"/><circle cx="1133.5" cy="1267.0" r="1.24" fill="#f4f3ef" opacity="0.052"/><circle cx="392.9" cy="904.6" r="0.42" fill="#f4f3ef" opacity="0.058"/><circle cx="921.5" cy="332.2" r="0.48" fill="#f4f3ef" opacity="0.059"/><circle cx="171.0" cy="642.6" r="1.14" fill="#f4f3ef" opacity="0.040"/><circle cx="882.2" cy="372.7" r="0.52" fill="#f4f3ef" opacity="0.052"/><circle cx="951.5" cy="337.4" r="0.56" fill="#f4f3ef" opacity="0.063"/><circle cx="897.3" cy="462.6" r="0.84" fill="#f4f3ef" opacity="0.033"/><circle cx="127.1" cy="618.6" r="0.25" fill="#f4f3ef" opacity="0.024"/><circle cx="3.8" cy="953.7" r="1.06" fill="#f4f3ef" opacity="0.059"/><circle cx="512.6" cy="227.0" r="1.27" fill="#f4f3ef" opacity="0.070"/><circle cx="127.5" cy="1142.3" r="0.55" fill="#f4f3ef" opacity="0.074"/><circle cx="78.3" cy="181.1" r="1.50" fill="#f4f3ef" opacity="0.025"/><circle cx="1016.7" cy="935.9" r="0.55" fill="#f4f3ef" opacity="0.071"/><circle cx="483.5" cy="1443.8" r="0.96" fill="#f4f3ef" opacity="0.061"/><circle cx="775.0" cy="519.6" r="1.42" fill="#f4f3ef" opacity="0.063"/><circle cx="809.7" cy="589.2" r="1.02" fill="#f4f3ef" opacity="0.077"/><circle cx="795.1" cy="1023.0" r="1.00" fill="#f4f3ef" opacity="0.026"/><circle cx="494.0" cy="1469.2" r="0.36" fill="#f4f3ef" opacity="0.032"/><circle cx="691.7" cy="187.0" r="0.83" fill="#f4f3ef" opacity="0.067"/><circle cx="662.2" cy="880.0" r="0.22" fill="#f4f3ef" opacity="0.069"/><circle cx="35.2" cy="1029.9" r="0.64" fill="#f4f3ef" opacity="0.032"/><circle cx="262.5" cy="729.2" r="0.89" fill="#f4f3ef" opacity="0.022"/><circle cx="884.8" cy="514.8" r="0.94" fill="#f4f3ef" opacity="0.049"/><circle cx="198.5" cy="201.7" r="0.41" fill="#f4f3ef" opacity="0.042"/><circle cx="322.2" cy="215.8" r="0.74" fill="#f4f3ef" opacity="0.041"/><circle cx="1063.0" cy="927.4" r="1.29" fill="#f4f3ef" opacity="0.068"/><circle cx="584.2" cy="1484.7" r="0.59" fill="#f4f3ef" opacity="0.045"/><circle cx="470.7" cy="1146.9" r="1.32" fill="#f4f3ef" opacity="0.044"/><circle cx="796.8" cy="117.8" r="0.82" fill="#f4f3ef" opacity="0.044"/><circle cx="792.0" cy="1378.7" r="0.72" fill="#f4f3ef" opacity="0.078"/><circle cx="308.2" cy="22.4" r="0.76" fill="#f4f3ef" opacity="0.072"/><circle cx="886.1" cy="585.9" r="0.45" fill="#f4f3ef" opacity="0.078"/><circle cx="422.1" cy="883.9" r="0.33" fill="#f4f3ef" opacity="0.062"/><circle cx="634.6" cy="842.4" r="1.39" fill="#f4f3ef" opacity="0.045"/><circle cx="931.0" cy="331.8" r="1.11" fill="#f4f3ef" opacity="0.029"/><circle cx="274.4" cy="1000.2" r="0.36" fill="#f4f3ef" opacity="0.037"/><circle cx="1049.8" cy="106.9" r="1.35" fill="#f4f3ef" opacity="0.062"/><circle cx="531.4" cy="355.5" r="0.95" fill="#f4f3ef" opacity="0.059"/><circle cx="1148.9" cy="1227.6" r="0.33" fill="#f4f3ef" opacity="0.044"/><circle cx="1153.9" cy="315.7" r="1.56" fill="#f4f3ef" opacity="0.043"/><circle cx="487.4" cy="157.0" r="0.89" fill="#f4f3ef" opacity="0.026"/><circle cx="245.6" cy="1066.1" r="1.19" fill="#f4f3ef" opacity="0.061"/><circle cx="547.0" cy="969.1" r="1.57" fill="#f4f3ef" opacity="0.029"/><circle cx="399.0" cy="736.2" r="0.46" fill="#f4f3ef" opacity="0.031"/><circle cx="764.5" cy="15.7" r="1.06" fill="#f4f3ef" opacity="0.070"/><circle cx="28.9" cy="66.8" r="0.91" fill="#f4f3ef" opacity="0.059"/><circle cx="1066.1" cy="93.2" r="0.61" fill="#f4f3ef" opacity="0.054"/><circle cx="1105.7" cy="576.4" r="0.88" fill="#f4f3ef" opacity="0.050"/><circle cx="399.7" cy="109.0" r="0.50" fill="#f4f3ef" opacity="0.053"/><circle cx="888.7" cy="728.0" r="0.86" fill="#f4f3ef" opacity="0.074"/><circle cx="869.1" cy="748.3" r="1.58" fill="#f4f3ef" opacity="0.041"/><circle cx="59.4" cy="595.7" r="1.29" fill="#f4f3ef" opacity="0.053"/><circle cx="666.9" cy="640.6" r="0.75" fill="#f4f3ef" opacity="0.073"/><circle cx="854.7" cy="31.2" r="1.30" fill="#f4f3ef" opacity="0.023"/><circle cx="1008.0" cy="1026.8" r="1.40" fill="#f4f3ef" opacity="0.036"/><circle cx="0.7" cy="831.0" r="1.21" fill="#f4f3ef" opacity="0.029"/><circle cx="662.6" cy="925.3" r="0.96" fill="#f4f3ef" opacity="0.036"/><circle cx="445.4" cy="902.3" r="0.37" fill="#f4f3ef" opacity="0.044"/><circle cx="890.0" cy="799.1" r="0.37" fill="#f4f3ef" opacity="0.043"/><circle cx="1092.6" cy="1430.4" r="1.50" fill="#f4f3ef" opacity="0.060"/><circle cx="371.8" cy="1222.3" r="0.54" fill="#f4f3ef" opacity="0.056"/><circle cx="534.9" cy="45.0" r="0.57" fill="#f4f3ef" opacity="0.034"/><circle cx="544.9" cy="1046.7" r="1.06" fill="#f4f3ef" opacity="0.076"/><circle cx="387.0" cy="1486.7" r="1.43" fill="#f4f3ef" opacity="0.053"/><circle cx="935.3" cy="1068.7" r="1.34" fill="#f4f3ef" opacity="0.044"/><circle cx="1019.4" cy="774.1" r="0.57" fill="#f4f3ef" opacity="0.062"/><circle cx="91.2" cy="1195.6" r="1.18" fill="#f4f3ef" opacity="0.075"/><circle cx="491.3" cy="370.2" r="0.81" fill="#f4f3ef" opacity="0.051"/><circle cx="916.1" cy="112.6" r="0.96" fill="#f4f3ef" opacity="0.060"/><circle cx="284.2" cy="1348.9" r="0.72" fill="#f4f3ef" opacity="0.040"/><circle cx="2.8" cy="449.4" r="1.32" fill="#f4f3ef" opacity="0.036"/><circle cx="1035.1" cy="62.2" r="0.37" fill="#f4f3ef" opacity="0.049"/><circle cx="566.1" cy="1446.7" r="0.99" fill="#f4f3ef" opacity="0.051"/><circle cx="269.9" cy="806.4" r="1.01" fill="#f4f3ef" opacity="0.039"/><circle cx="976.3" cy="123.0" r="1.12" fill="#f4f3ef" opacity="0.069"/><circle cx="536.9" cy="988.9" r="1.52" fill="#f4f3ef" opacity="0.025"/><circle cx="892.6" cy="941.2" r="0.79" fill="#f4f3ef" opacity="0.040"/><circle cx="339.7" cy="1294.8" r="1.35" fill="#f4f3ef" opacity="0.040"/><circle cx="996.6" cy="975.5" r="0.44" fill="#f4f3ef" opacity="0.064"/><circle cx="270.8" cy="353.8" r="0.21" fill="#f4f3ef" opacity="0.078"/><circle cx="1125.3" cy="77.7" r="0.60" fill="#f4f3ef" opacity="0.062"/><circle cx="345.2" cy="906.6" r="1.48" fill="#f4f3ef" opacity="0.028"/><circle cx="404.6" cy="44.2" r="0.20" fill="#f4f3ef" opacity="0.074"/><circle cx="533.1" cy="471.8" r="1.20" fill="#f4f3ef" opacity="0.055"/><circle cx="582.6" cy="282.2" r="1.39" fill="#f4f3ef" opacity="0.076"/><circle cx="893.9" cy="1012.3" r="0.30" fill="#f4f3ef" opacity="0.068"/><circle cx="563.2" cy="477.0" r="1.28" fill="#f4f3ef" opacity="0.059"/><circle cx="109.0" cy="102.2" r="1.09" fill="#f4f3ef" opacity="0.068"/><circle cx="138.8" cy="1258.2" r="1.43" fill="#f4f3ef" opacity="0.040"/><circle cx="815.5" cy="1093.3" r="0.37" fill="#f4f3ef" opacity="0.054"/><circle cx="924.2" cy="1366.6" r="1.51" fill="#f4f3ef" opacity="0.045"/><circle cx="139.2" cy="281.9" r="0.33" fill="#f4f3ef" opacity="0.029"/><circle cx="890.0" cy="320.6" r="0.81" fill="#f4f3ef" opacity="0.021"/><circle cx="228.4" cy="575.5" r="0.80" fill="#f4f3ef" opacity="0.047"/><circle cx="495.2" cy="583.4" r="0.74" fill="#f4f3ef" opacity="0.076"/><circle cx="386.7" cy="659.1" r="0.73" fill="#f4f3ef" opacity="0.059"/><circle cx="21.4" cy="228.8" r="1.27" fill="#f4f3ef" opacity="0.052"/><circle cx="806.7" cy="162.6" r="0.78" fill="#f4f3ef" opacity="0.041"/><circle cx="105.6" cy="108.8" r="1.07" fill="#f4f3ef" opacity="0.027"/><circle cx="1103.3" cy="1326.5" r="1.07" fill="#f4f3ef" opacity="0.043"/><circle cx="673.8" cy="19.6" r="1.40" fill="#f4f3ef" opacity="0.024"/><circle cx="846.8" cy="1169.5" r="1.36" fill="#f4f3ef" opacity="0.027"/><circle cx="674.1" cy="368.7" r="1.13" fill="#f4f3ef" opacity="0.057"/><circle cx="896.5" cy="1154.4" r="0.72" fill="#f4f3ef" opacity="0.065"/><circle cx="1010.2" cy="341.3" r="1.12" fill="#f4f3ef" opacity="0.038"/><circle cx="733.8" cy="1355.4" r="0.99" fill="#f4f3ef" opacity="0.076"/><circle cx="1074.7" cy="67.0" r="1.07" fill="#f4f3ef" opacity="0.023"/><circle cx="195.8" cy="124.3" r="1.30" fill="#f4f3ef" opacity="0.040"/><circle cx="882.4" cy="786.5" r="1.57" fill="#f4f3ef" opacity="0.080"/><circle cx="808.5" cy="757.3" r="0.60" fill="#f4f3ef" opacity="0.059"/><circle cx="403.7" cy="18.3" r="1.44" fill="#f4f3ef" opacity="0.073"/><circle cx="719.9" cy="1162.0" r="1.01" fill="#f4f3ef" opacity="0.048"/><circle cx="897.8" cy="1225.5" r="0.23" fill="#f4f3ef" opacity="0.033"/><circle cx="33.7" cy="1023.5" r="1.05" fill="#f4f3ef" opacity="0.058"/><circle cx="1046.2" cy="482.0" r="0.24" fill="#f4f3ef" opacity="0.020"/><circle cx="942.7" cy="971.4" r="0.89" fill="#f4f3ef" opacity="0.045"/><circle cx="1086.0" cy="1139.8" r="1.07" fill="#f4f3ef" opacity="0.033"/><circle cx="261.5" cy="1246.4" r="1.59" fill="#f4f3ef" opacity="0.037"/><circle cx="543.1" cy="995.1" r="0.73" fill="#f4f3ef" opacity="0.074"/><circle cx="760.5" cy="1367.2" r="1.05" fill="#f4f3ef" opacity="0.039"/><circle cx="365.6" cy="1455.3" r="0.41" fill="#f4f3ef" opacity="0.078"/><circle cx="499.1" cy="796.5" r="0.67" fill="#f4f3ef" opacity="0.042"/><circle cx="1057.3" cy="1205.7" r="0.50" fill="#f4f3ef" opacity="0.057"/><circle cx="958.6" cy="608.6" r="0.42" fill="#f4f3ef" opacity="0.064"/><circle cx="410.6" cy="1375.8" r="0.24" fill="#f4f3ef" opacity="0.047"/><circle cx="376.2" cy="155.3" r="0.37" fill="#f4f3ef" opacity="0.066"/><circle cx="440.5" cy="1206.4" r="1.16" fill="#f4f3ef" opacity="0.034"/><circle cx="1077.7" cy="732.8" r="0.39" fill="#f4f3ef" opacity="0.069"/><circle cx="717.4" cy="716.0" r="1.59" fill="#f4f3ef" opacity="0.046"/><circle cx="811.3" cy="1248.6" r="0.75" fill="#f4f3ef" opacity="0.029"/><circle cx="900.4" cy="1367.6" r="0.64" fill="#f4f3ef" opacity="0.030"/><circle cx="480.8" cy="887.9" r="0.89" fill="#f4f3ef" opacity="0.037"/><circle cx="471.0" cy="235.3" r="1.54" fill="#f4f3ef" opacity="0.028"/><circle cx="678.6" cy="1280.2" r="0.53" fill="#f4f3ef" opacity="0.028"/><circle cx="466.4" cy="170.8" r="0.61" fill="#f4f3ef" opacity="0.079"/><circle cx="219.6" cy="666.4" r="0.25" fill="#f4f3ef" opacity="0.072"/><circle cx="12.4" cy="1470.5" r="0.99" fill="#f4f3ef" opacity="0.044"/><circle cx="274.2" cy="1064.9" r="0.27" fill="#f4f3ef" opacity="0.032"/><circle cx="857.1" cy="541.9" r="0.62" fill="#f4f3ef" opacity="0.080"/><circle cx="901.7" cy="1438.7" r="1.55" fill="#f4f3ef" opacity="0.058"/><circle cx="704.3" cy="70.0" r="0.82" fill="#f4f3ef" opacity="0.056"/><circle cx="783.4" cy="861.9" r="0.79" fill="#f4f3ef" opacity="0.032"/><circle cx="546.6" cy="684.6" r="0.35" fill="#f4f3ef" opacity="0.050"/><circle cx="156.6" cy="1186.3" r="0.38" fill="#f4f3ef" opacity="0.071"/><circle cx="798.7" cy="1126.3" r="0.28" fill="#f4f3ef" opacity="0.029"/><circle cx="947.0" cy="208.3" r="1.12" fill="#f4f3ef" opacity="0.060"/><circle cx="631.1" cy="913.7" r="1.29" fill="#f4f3ef" opacity="0.058"/><circle cx="502.8" cy="835.2" r="1.43" fill="#f4f3ef" opacity="0.050"/><circle cx="503.0" cy="1009.7" r="0.59" fill="#f4f3ef" opacity="0.067"/><circle cx="527.8" cy="252.2" r="0.28" fill="#f4f3ef" opacity="0.056"/><circle cx="695.9" cy="988.5" r="0.97" fill="#f4f3ef" opacity="0.076"/><circle cx="14.5" cy="1089.0" r="1.10" fill="#f4f3ef" opacity="0.052"/><circle cx="646.8" cy="201.8" r="1.08" fill="#f4f3ef" opacity="0.044"/><circle cx="977.8" cy="1086.3" r="1.24" fill="#f4f3ef" opacity="0.026"/><circle cx="281.6" cy="1446.0" r="0.79" fill="#f4f3ef" opacity="0.055"/><circle cx="587.9" cy="262.5" r="0.43" fill="#f4f3ef" opacity="0.064"/><circle cx="948.6" cy="628.5" r="0.37" fill="#f4f3ef" opacity="0.061"/><circle cx="904.3" cy="80.8" r="0.57" fill="#f4f3ef" opacity="0.055"/><circle cx="1151.3" cy="1434.4" r="0.67" fill="#f4f3ef" opacity="0.035"/><circle cx="208.3" cy="615.1" r="0.69" fill="#f4f3ef" opacity="0.040"/><circle cx="282.5" cy="993.4" r="1.39" fill="#f4f3ef" opacity="0.034"/><circle cx="736.9" cy="217.3" r="1.31" fill="#f4f3ef" opacity="0.057"/><circle cx="756.8" cy="546.2" r="0.33" fill="#f4f3ef" opacity="0.064"/><circle cx="416.2" cy="683.7" r="1.38" fill="#f4f3ef" opacity="0.030"/><circle cx="144.8" cy="611.4" r="0.51" fill="#f4f3ef" opacity="0.050"/><circle cx="994.3" cy="1421.8" r="0.24" fill="#f4f3ef" opacity="0.052"/><circle cx="905.6" cy="151.9" r="1.48" fill="#f4f3ef" opacity="0.024"/><circle cx="174.8" cy="616.6" r="0.59" fill="#f4f3ef" opacity="0.055"/><circle cx="520.7" cy="1241.7" r="1.34" fill="#f4f3ef" opacity="0.044"/><circle cx="150.4" cy="397.8" r="1.21" fill="#f4f3ef" opacity="0.055"/><circle cx="427.1" cy="1232.8" r="1.08" fill="#f4f3ef" opacity="0.050"/><circle cx="135.9" cy="1006.2" r="0.36" fill="#f4f3ef" opacity="0.021"/><circle cx="150.9" cy="921.5" r="1.51" fill="#f4f3ef" opacity="0.045"/><circle cx="501.6" cy="460.2" r="1.52" fill="#f4f3ef" opacity="0.076"/><circle cx="640.1" cy="215.0" r="1.04" fill="#f4f3ef" opacity="0.022"/><circle cx="506.9" cy="1222.9" r="0.52" fill="#f4f3ef" opacity="0.032"/><circle cx="1198.4" cy="798.7" r="1.45" fill="#f4f3ef" opacity="0.054"/><circle cx="433.1" cy="1368.4" r="1.52" fill="#f4f3ef" opacity="0.028"/><circle cx="818.4" cy="802.2" r="0.57" fill="#f4f3ef" opacity="0.057"/><circle cx="917.3" cy="248.3" r="0.38" fill="#f4f3ef" opacity="0.023"/><circle cx="315.0" cy="966.1" r="1.32" fill="#f4f3ef" opacity="0.078"/><circle cx="685.5" cy="659.2" r="1.18" fill="#f4f3ef" opacity="0.040"/><circle cx="458.5" cy="1309.1" r="0.67" fill="#f4f3ef" opacity="0.023"/><circle cx="1085.8" cy="8.3" r="1.38" fill="#f4f3ef" opacity="0.033"/><circle cx="908.2" cy="294.0" r="0.50" fill="#f4f3ef" opacity="0.020"/><circle cx="621.9" cy="480.9" r="0.44" fill="#f4f3ef" opacity="0.034"/><circle cx="1145.5" cy="995.0" r="1.23" fill="#f4f3ef" opacity="0.052"/><circle cx="1086.4" cy="706.6" r="0.85" fill="#f4f3ef" opacity="0.039"/><circle cx="1007.5" cy="263.9" r="0.62" fill="#f4f3ef" opacity="0.036"/><circle cx="94.1" cy="426.1" r="0.41" fill="#f4f3ef" opacity="0.055"/><circle cx="820.1" cy="1396.9" r="0.38" fill="#f4f3ef" opacity="0.075"/><circle cx="15.3" cy="157.9" r="0.75" fill="#f4f3ef" opacity="0.069"/><circle cx="1131.5" cy="801.6" r="1.25" fill="#f4f3ef" opacity="0.023"/><circle cx="909.5" cy="365.1" r="1.41" fill="#f4f3ef" opacity="0.049"/><circle cx="845.4" cy="1163.1" r="0.36" fill="#f4f3ef" opacity="0.053"/><circle cx="257.9" cy="121.6" r="0.48" fill="#f4f3ef" opacity="0.056"/><circle cx="954.3" cy="111.0" r="0.67" fill="#f4f3ef" opacity="0.060"/><circle cx="697.7" cy="1279.4" r="0.39" fill="#f4f3ef" opacity="0.029"/><circle cx="673.1" cy="886.0" r="0.44" fill="#f4f3ef" opacity="0.073"/><circle cx="554.8" cy="134.7" r="0.51" fill="#f4f3ef" opacity="0.030"/><circle cx="372.2" cy="6.8" r="0.36" fill="#f4f3ef" opacity="0.035"/><circle cx="777.3" cy="1094.9" r="0.66" fill="#f4f3ef" opacity="0.054"/><circle cx="510.8" cy="1436.1" r="0.45" fill="#f4f3ef" opacity="0.057"/><circle cx="668.9" cy="1345.3" r="1.22" fill="#f4f3ef" opacity="0.053"/><circle cx="170.3" cy="248.2" r="0.67" fill="#f4f3ef" opacity="0.040"/><circle cx="422.3" cy="515.4" r="1.43" fill="#f4f3ef" opacity="0.062"/><circle cx="1187.9" cy="294.9" r="1.09" fill="#f4f3ef" opacity="0.061"/><circle cx="852.2" cy="846.0" r="1.40" fill="#f4f3ef" opacity="0.070"/><circle cx="1089.4" cy="1372.4" r="1.57" fill="#f4f3ef" opacity="0.025"/><circle cx="329.0" cy="855.6" r="0.91" fill="#f4f3ef" opacity="0.041"/><circle cx="23.0" cy="888.2" r="1.00" fill="#f4f3ef" opacity="0.065"/><circle cx="912.0" cy="507.2" r="0.42" fill="#f4f3ef" opacity="0.046"/><circle cx="92.4" cy="1027.4" r="0.21" fill="#f4f3ef" opacity="0.032"/><circle cx="882.7" cy="1374.8" r="0.38" fill="#f4f3ef" opacity="0.064"/><circle cx="690.3" cy="419.8" r="0.31" fill="#f4f3ef" opacity="0.044"/><circle cx="78.1" cy="310.4" r="1.32" fill="#f4f3ef" opacity="0.074"/><circle cx="631.3" cy="305.9" r="0.50" fill="#f4f3ef" opacity="0.047"/><circle cx="24.0" cy="610.1" r="0.77" fill="#f4f3ef" opacity="0.060"/><circle cx="1085.9" cy="1204.4" r="0.99" fill="#f4f3ef" opacity="0.027"/><circle cx="68.8" cy="181.5" r="0.87" fill="#f4f3ef" opacity="0.055"/><circle cx="913.3" cy="578.3" r="1.33" fill="#f4f3ef" opacity="0.074"/><circle cx="316.0" cy="209.6" r="1.53" fill="#f4f3ef" opacity="0.052"/><circle cx="1195.1" cy="501.5" r="1.03" fill="#f4f3ef" opacity="0.068"/><circle cx="558.2" cy="1324.2" r="1.53" fill="#f4f3ef" opacity="0.066"/><circle cx="968.2" cy="1325.9" r="1.09" fill="#f4f3ef" opacity="0.067"/><circle cx="10.4" cy="765.9" r="0.52" fill="#f4f3ef" opacity="0.065"/><circle cx="958.7" cy="847.9" r="0.90" fill="#f4f3ef" opacity="0.075"/><circle cx="242.7" cy="1053.3" r="0.60" fill="#f4f3ef" opacity="0.054"/><circle cx="914.5" cy="474.8" r="0.27" fill="#f4f3ef" opacity="0.026"/><circle cx="514.6" cy="149.3" r="0.37" fill="#f4f3ef" opacity="0.022"/><circle cx="139.5" cy="391.8" r="0.99" fill="#f4f3ef" opacity="0.051"/><circle cx="1107.5" cy="628.1" r="1.22" fill="#f4f3ef" opacity="0.052"/><circle cx="26.2" cy="228.6" r="0.89" fill="#f4f3ef" opacity="0.067"/><circle cx="258.4" cy="341.4" r="0.39" fill="#f4f3ef" opacity="0.040"/><circle cx="189.4" cy="725.8" r="1.48" fill="#f4f3ef" opacity="0.062"/><circle cx="293.3" cy="585.6" r="0.57" fill="#f4f3ef" opacity="0.070"/><circle cx="199.6" cy="402.1" r="1.15" fill="#f4f3ef" opacity="0.060"/><circle cx="160.2" cy="268.0" r="0.61" fill="#f4f3ef" opacity="0.036"/><circle cx="915.9" cy="720.4" r="0.35" fill="#f4f3ef" opacity="0.071"/><circle cx="763.0" cy="74.0" r="1.38" fill="#f4f3ef" opacity="0.031"/><circle cx="619.9" cy="254.7" r="0.93" fill="#f4f3ef" opacity="0.076"/><circle cx="294.1" cy="133.0" r="1.17" fill="#f4f3ef" opacity="0.049"/><circle cx="348.6" cy="356.9" r="0.63" fill="#f4f3ef" opacity="0.053"/><circle cx="1168.5" cy="185.8" r="0.58" fill="#f4f3ef" opacity="0.039"/><circle cx="427.9" cy="1323.3" r="1.16" fill="#f4f3ef" opacity="0.045"/><circle cx="956.5" cy="751.0" r="1.22" fill="#f4f3ef" opacity="0.046"/><circle cx="206.0" cy="1061.3" r="0.48" fill="#f4f3ef" opacity="0.027"/><circle cx="917.2" cy="791.5" r="1.26" fill="#f4f3ef" opacity="0.039"/><circle cx="986.5" cy="756.1" r="1.30" fill="#f4f3ef" opacity="0.050"/><circle cx="932.3" cy="881.3" r="1.58" fill="#f4f3ef" opacity="0.080"/><circle cx="162.1" cy="1037.4" r="0.99" fill="#f4f3ef" opacity="0.071"/><circle cx="38.8" cy="1372.4" r="0.40" fill="#f4f3ef" opacity="0.046"/><circle cx="547.6" cy="645.7" r="0.61" fill="#f4f3ef" opacity="0.056"/><circle cx="162.5" cy="61.1" r="1.29" fill="#f4f3ef" opacity="0.060"/><circle cx="113.3" cy="599.8" r="0.84" fill="#f4f3ef" opacity="0.072"/><circle cx="1051.7" cy="1354.6" r="1.29" fill="#f4f3ef" opacity="0.058"/><circle cx="518.5" cy="362.5" r="0.30" fill="#f4f3ef" opacity="0.048"/><circle cx="810.0" cy="938.3" r="0.76" fill="#f4f3ef" opacity="0.050"/><circle cx="844.7" cy="1007.9" r="0.37" fill="#f4f3ef" opacity="0.063"/><circle cx="830.1" cy="1441.8" r="0.35" fill="#f4f3ef" opacity="0.073"/><circle cx="529.0" cy="387.9" r="1.10" fill="#f4f3ef" opacity="0.078"/><circle cx="726.7" cy="605.7" r="1.57" fill="#f4f3ef" opacity="0.054"/><circle cx="697.2" cy="1298.8" r="0.96" fill="#f4f3ef" opacity="0.055"/><circle cx="70.2" cy="1448.7" r="1.38" fill="#f4f3ef" opacity="0.078"/><circle cx="297.5" cy="1147.9" r="0.23" fill="#f4f3ef" opacity="0.068"/><circle cx="919.8" cy="933.6" r="0.28" fill="#f4f3ef" opacity="0.036"/><circle cx="233.5" cy="620.5" r="1.15" fill="#f4f3ef" opacity="0.029"/><circle cx="357.2" cy="634.6" r="1.48" fill="#f4f3ef" opacity="0.027"/><circle cx="1098.0" cy="1346.2" r="0.63" fill="#f4f3ef" opacity="0.054"/><circle cx="619.2" cy="403.4" r="1.33" fill="#f4f3ef" opacity="0.031"/><circle cx="505.7" cy="65.7" r="0.66" fill="#f4f3ef" opacity="0.031"/><circle cx="831.8" cy="536.5" r="1.56" fill="#f4f3ef" opacity="0.030"/><circle cx="827.0" cy="297.5" r="1.46" fill="#f4f3ef" opacity="0.064"/><circle cx="343.2" cy="441.2" r="1.50" fill="#f4f3ef" opacity="0.059"/><circle cx="921.1" cy="1004.6" r="1.19" fill="#f4f3ef" opacity="0.064"/><circle cx="457.1" cy="1302.7" r="1.07" fill="#f4f3ef" opacity="0.049"/><circle cx="669.6" cy="1261.2" r="0.73" fill="#f4f3ef" opacity="0.031"/><circle cx="966.0" cy="750.6" r="0.45" fill="#f4f3ef" opacity="0.076"/><circle cx="309.4" cy="1418.9" r="1.10" fill="#f4f3ef" opacity="0.024"/><circle cx="1084.8" cy="525.6" r="0.69" fill="#f4f3ef" opacity="0.048"/><circle cx="566.4" cy="774.2" r="0.29" fill="#f4f3ef" opacity="0.045"/><circle cx="1183.9" cy="146.3" r="1.07" fill="#f4f3ef" opacity="0.031"/><circle cx="1188.9" cy="734.5" r="0.91" fill="#f4f3ef" opacity="0.030"/><circle cx="522.4" cy="575.7" r="0.23" fill="#f4f3ef" opacity="0.073"/><circle cx="280.6" cy="1484.8" r="0.53" fill="#f4f3ef" opacity="0.048"/><circle cx="582.0" cy="1387.8" r="0.91" fill="#f4f3ef" opacity="0.075"/><circle cx="434.0" cy="1155.0" r="1.21" fill="#f4f3ef" opacity="0.078"/><circle cx="799.5" cy="434.5" r="0.40" fill="#f4f3ef" opacity="0.057"/><circle cx="63.9" cy="485.6" r="0.25" fill="#f4f3ef" opacity="0.046"/><circle cx="1101.1" cy="512.0" r="1.35" fill="#f4f3ef" opacity="0.041"/><circle cx="1140.7" cy="995.2" r="0.22" fill="#f4f3ef" opacity="0.037"/><circle cx="434.7" cy="527.8" r="1.24" fill="#f4f3ef" opacity="0.040"/><circle cx="923.7" cy="1146.8" r="0.20" fill="#f4f3ef" opacity="0.061"/><circle cx="904.1" cy="1167.0" r="0.92" fill="#f4f3ef" opacity="0.028"/><circle cx="94.4" cy="1014.4" r="0.63" fill="#f4f3ef" opacity="0.039"/><circle cx="701.9" cy="1059.4" r="1.49" fill="#f4f3ef" opacity="0.059"/><circle cx="889.7" cy="450.0" r="0.64" fill="#f4f3ef" opacity="0.070"/><circle cx="1043.0" cy="1445.5" r="0.74" fill="#f4f3ef" opacity="0.023"/><circle cx="35.7" cy="1249.7" r="0.55" fill="#f4f3ef" opacity="0.076"/><circle cx="697.6" cy="1344.0" r="0.30" fill="#f4f3ef" opacity="0.023"/><circle cx="480.4" cy="1321.1" r="1.12" fill="#f4f3ef" opacity="0.031"/><circle cx="925.0" cy="1217.8" r="1.11" fill="#f4f3ef" opacity="0.030"/><circle cx="1127.6" cy="349.2" r="0.85" fill="#f4f3ef" opacity="0.047"/><circle cx="406.8" cy="141.0" r="1.28" fill="#f4f3ef" opacity="0.043"/><circle cx="569.9" cy="463.8" r="1.31" fill="#f4f3ef" opacity="0.021"/><circle cx="579.9" cy="1465.5" r="0.40" fill="#f4f3ef" opacity="0.063"/><circle cx="422.0" cy="405.5" r="0.77" fill="#f4f3ef" opacity="0.040"/><circle cx="970.3" cy="1487.4" r="0.68" fill="#f4f3ef" opacity="0.031"/><circle cx="1054.4" cy="1192.9" r="1.31" fill="#f4f3ef" opacity="0.049"/><circle cx="126.2" cy="114.3" r="0.52" fill="#f4f3ef" opacity="0.061"/><circle cx="526.3" cy="788.9" r="1.56" fill="#f4f3ef" opacity="0.038"/><circle cx="951.1" cy="531.4" r="0.30" fill="#f4f3ef" opacity="0.047"/><circle cx="319.2" cy="267.7" r="1.46" fill="#f4f3ef" opacity="0.027"/><circle cx="37.8" cy="868.2" r="0.67" fill="#f4f3ef" opacity="0.023"/><circle cx="1070.1" cy="481.0" r="1.11" fill="#f4f3ef" opacity="0.035"/><circle cx="601.1" cy="365.4" r="0.33" fill="#f4f3ef" opacity="0.037"/><circle cx="304.9" cy="1225.2" r="0.35" fill="#f4f3ef" opacity="0.026"/><circle cx="1011.3" cy="541.7" r="0.46" fill="#f4f3ef" opacity="0.055"/><circle cx="571.9" cy="1407.6" r="0.86" fill="#f4f3ef" opacity="0.072"/><circle cx="927.6" cy="1360.0" r="1.53" fill="#f4f3ef" opacity="0.026"/><circle cx="374.7" cy="213.5" r="0.69" fill="#f4f3ef" opacity="0.026"/><circle cx="1031.6" cy="1394.3" r="1.18" fill="#f4f3ef" opacity="0.051"/><circle cx="305.8" cy="772.6" r="0.95" fill="#f4f3ef" opacity="0.065"/><circle cx="1160.3" cy="496.5" r="1.34" fill="#f4f3ef" opacity="0.048"/><circle cx="380.2" cy="1325.4" r="0.83" fill="#f4f3ef" opacity="0.075"/><circle cx="439.6" cy="462.9" r="0.94" fill="#f4f3ef" opacity="0.061"/><circle cx="568.1" cy="890.6" r="0.54" fill="#f4f3ef" opacity="0.041"/><circle cx="617.6" cy="700.9" r="0.73" fill="#f4f3ef" opacity="0.063"/><circle cx="928.9" cy="1431.0" r="1.04" fill="#f4f3ef" opacity="0.055"/><circle cx="598.2" cy="895.7" r="0.62" fill="#f4f3ef" opacity="0.046"/><circle cx="144.0" cy="520.9" r="0.43" fill="#f4f3ef" opacity="0.055"/><circle cx="173.8" cy="176.9" r="0.77" fill="#f4f3ef" opacity="0.026"/><circle cx="850.5" cy="12.0" r="1.11" fill="#f4f3ef" opacity="0.041"/><circle cx="959.2" cy="285.3" r="0.85" fill="#f4f3ef" opacity="0.032"/><circle cx="174.2" cy="700.6" r="1.08" fill="#f4f3ef" opacity="0.076"/>
  <rect width="1200" height="1500" fill="url(#l5)"/>
  
  <text x="60" y="1380" font-family="Helvetica, Arial, sans-serif" font-size="21.599999999999998" letter-spacing="4" fill="#f4f3ef" fill-opacity="0.72">EDITOR / CINEMATOGRAPHER</text>
  <text x="60" y="1440" font-family="Helvetica, Arial, sans-serif" font-size="13.2" letter-spacing="2" fill="#f4f3ef" fill-opacity="0.38">TEAM PORTRAIT</text>
</svg>